<?xml version="1.0" encoding="utf-8"?>
<svg viewBox="796.989 32.567 511.545 512.226" width="511.545" height="512.226" xmlns="http://www.w3.org/2000/svg">
  <g transform="matrix(0.09836599975824356, 0, 0, 0.09836599975824356, 799.46826171875, 541.4813842773438)" fill="#A4A5BF" style="">
    <title>Dwarven</title>
    <g transform="matrix(1.041543, 0, 0, 1.041543, -214.9841, 106.761208)">
      <path id="path-36" d="M 243.887 -4566.772 C 210.111 -4555.024 182.21 -4538.871 182.21 -4530.06 C 182.21 -4522.717 248.292 -4315.661 329.059 -4070.424 L 475.907 -3624.005 L 445.07 -3571.14 C 380.455 -3462.472 417.168 -3340.588 533.178 -3281.848 L 599.26 -3248.073 L 735.83 -2829.555 C 810.722 -2599.003 872.398 -2391.947 872.398 -2366.981 C 872.398 -2186.359 663.874 -2070.348 508.214 -2162.863 C 443.601 -2201.043 387.798 -2295.027 387.798 -2365.513 C 387.798 -2411.036 389.267 -2411.036 528.773 -2381.667 L 575.764 -2371.388 L 477.375 -2673.896 C 424.51 -2839.833 376.05 -2976.403 371.645 -2976.403 C 365.771 -2976.403 349.618 -2927.943 336.402 -2870.672 C 321.716 -2811.933 290.878 -2697.391 267.383 -2616.624 C 179.274 -2303.837 239.482 -2107.06 455.348 -2001.329 C 722.613 -1870.635 1036.868 -2064.475 1035.4 -2359.64 C 1035.4 -2425.721 1006.03 -2534.389 895.894 -2872.141 L 756.388 -3299.469 L 787.226 -3350.867 C 851.839 -3461.003 812.19 -3590.229 696.18 -3648.969 L 630.098 -3681.276 L 483.25 -4132.1 C 402.483 -4378.805 329.059 -4582.925 321.716 -4585.863 C 312.906 -4587.331 279.13 -4579.988 243.887 -4566.772 Z M 657.999 -3491.841 C 706.459 -3438.976 631.567 -3369.957 581.638 -3419.885 C 559.611 -3441.913 559.611 -3480.093 581.638 -3502.12 C 606.603 -3527.085 628.63 -3524.148 657.999 -3491.841 Z" style="fill: rgb(212, 175, 55);"/>
      <path id="path-37" style="fill: rgb(212, 175, 55);" d="M 293.352 -4979.903 C 251.669 -4934.343 239.066 -4913.016 239.066 -4889.752 C 239.066 -4854.854 253.606 -4836.435 283.657 -4836.435 C 295.29 -4836.435 321.464 -4822.864 341.82 -4807.354 C 363.147 -4790.874 589.982 -4567.917 846.867 -4310.062 L 1314.107 -3842.822 L 1380.024 -3908.741 L 1445.942 -3974.659 L 910.845 -4506.846 C 617.124 -4800.569 369.932 -5040.005 362.177 -5040.005 C 353.453 -5040.005 323.402 -5012.862 293.352 -4979.903 Z"/>
      <path id="path-44" style="fill: rgb(212, 175, 55);" d="M 1415.77 -3838.489 C 1384.628 -3807.347 1353.216 -3782.254 1353.216 -3782.254 C 1353.216 -3782.254 2580.305 -2547.437 2587.972 -2547.437 C 2608.1 -2547.437 2744.202 -2685.456 2744.202 -2705.583 C 2744.202 -2726.67 1543.246 -3927.626 1522.16 -3927.626 C 1512.575 -3927.626 1460.601 -3883.32 1415.77 -3838.489 Z"/>
      <path id="path-51" style="fill: rgb(212, 175, 55);" d="M 2713.78 -2567.969 C 2693.442 -2547.631 2622.306 -2481.917 2622.306 -2481.917 L 3559.78 -1444.969 L 3677.78 -1562.969 L 3794.78 -1680.969 C 3794.78 -1680.969 2814.78 -2649.969 2807.78 -2649.969 C 2800.78 -2649.969 2758.283 -2612.472 2713.78 -2567.969 Z"/>
      <path id="path-52" style="fill: rgb(212, 175, 55);" d="M 3733.209 -1493 C 3665.209 -1429 3607.209 -1372 3603.209 -1366 C 3599.209 -1360 3595.209 -1336 3595.209 -1312 C 3595.209 -1254 3620.209 -1230 3681.209 -1230 L 3726.209 -1230 L 3668.209 -1176 C 3635.209 -1146 3596.209 -1098 3580.209 -1068 C 3551.209 -1018 3550.209 -1009 3550.209 -895 C 3550.209 -797 3553.209 -768 3569.209 -736 C 3598.209 -678 3686.209 -588 3741.209 -560 C 3785.209 -537 3802.209 -535 3910.209 -535 C 4056.209 -535 4080.209 -545 4179.209 -643 L 4248.209 -711 L 4860.209 -100 L 4914.209 -100 C 4964.209 -100 4972.209 -104 5022.209 -147 C 5052.209 -172 5099.209 -220 5126.209 -252 C 5167.209 -301 5175.209 -318 5175.209 -351 C 5175.209 -390 3970.209 -1610 3970.209 -1610 L 3913.209 -1610 L 3856.209 -1610 L 3733.209 -1493 Z"/>
    </g>
    <g transform="matrix(0.51114, 0, 0, 0.51114, -96.764053, 355.684448)" fill="#FF9A00" style="">
      <title>Treasure</title>
      <path id="path-53" d="M 2351 -3960 l -1328 0 -441 562 -442 563 1103 1103 1102 1102 7 -2 7 -3 1101 -1099 1101 -1098 -43 -57 -43 -56 -5 -5 -5 -5 -30 -40 -30 -40 -12 -15 -12 -15 -172 -220 -172 -220 -6 -5 -6 -5 -45 -59 -45 -60 -17 -20 -17 -21 -111 -143 -111 -142 -1328 0 z m -909 300 l 268 0 0 8 0 7 -108 350 -109 350 -437 3 -438 2 4 -9 3 -9 275 -351 275 -351 267 0 z m 910 2 l 420 3 109 350 108 350 1 7 0 8 -640 0 -640 0 0 -4 0 -5 90 -293 91 -293 20 -63 21 -62 420 2 z m 906 -2 l 268 0 280 358 281 357 -435 3 -435 2 -5 -4 -4 -5 -65 -208 -65 -208 -44 -140 -44 -140 0 -7 0 -8 268 0 z m -2170 932 l 414 3 212 490 213 490 100 233 101 232 -1 0 -2 0 -725 -725 -725 -725 413 2 z m 1262 -2 l 628 0 -98 226 -98 225 -213 494 -214 494 -5 1 -5 0 -300 -692 -300 -692 -12 -28 -12 -28 629 0 z m 1264 0 l 411 0 -720 720 -719 719 -3 -3 -3 -2 271 -625 270 -624 41 -93 40 -92 412 0 z " style="fill: rgb(175, 253, 252);"/>
    </g>
  </g>
</svg>