<?xml version="1.0" encoding="utf-8"?>
<svg viewBox="796.989 32.567 511.545 512.226" width="511.545" height="512.226" xmlns="http://www.w3.org/2000/svg">
  <g transform="matrix(0.09836599975824356, 0, 0, 0.09836599975824356, 799.4683227539062, 541.4813842773438)" fill="#A4A5BF" style="">
    <title>Alik'r Fishing Rod</title>
    <path id="path-21" d="M 39.034 -4649.728 C 3.855 -4637.492 -25.205 -4620.668 -25.205 -4611.491 C -25.205 -4603.843 43.622 -4388.185 127.744 -4132.76 L 280.693 -3667.796 L 248.575 -3612.735 C 181.276 -3499.552 219.514 -3372.605 340.343 -3311.425 L 409.17 -3276.247 L 551.414 -2840.342 C 629.417 -2600.212 693.655 -2384.554 693.655 -2358.551 C 693.655 -2170.426 476.469 -2049.595 314.342 -2145.954 C 247.045 -2185.72 188.924 -2283.608 188.924 -2357.022 C 188.924 -2404.436 190.454 -2404.436 335.755 -2373.847 L 384.698 -2363.141 L 282.222 -2678.216 C 227.161 -2851.047 176.688 -2993.291 172.1 -2993.291 C 165.982 -2993.291 149.157 -2942.817 135.392 -2883.167 C 120.096 -2821.988 87.977 -2702.688 63.506 -2618.565 C -28.263 -2292.784 34.446 -2087.832 259.28 -1977.709 C 537.648 -1841.586 864.958 -2043.478 863.429 -2350.905 C 863.429 -2419.732 832.839 -2532.914 718.127 -2884.697 L 572.826 -3329.778 L 604.945 -3383.311 C 672.242 -3498.022 630.946 -3632.617 510.117 -3693.797 L 441.289 -3727.446 L 288.341 -4196.999 C 204.219 -4453.953 127.744 -4666.552 120.096 -4669.612 C 110.92 -4671.141 75.741 -4663.493 39.034 -4649.728 Z M 470.35 -3530.141 C 520.823 -3475.08 442.819 -3403.194 390.816 -3455.196 C 367.874 -3478.139 367.874 -3517.905 390.816 -3540.847 C 416.818 -3566.85 439.76 -3563.791 470.35 -3530.141 Z" style="fill: rgb(121, 92, 52);"/>
    <path id="path-23" style="fill: rgb(121, 92, 52);" d="M 90.554 -5080.022 C 47.139 -5032.569 34.013 -5010.356 34.013 -4986.126 C 34.013 -4949.778 49.157 -4930.594 80.456 -4930.594 C 92.573 -4930.594 119.834 -4916.459 141.036 -4900.305 C 163.249 -4883.14 399.507 -4650.921 667.064 -4382.354 L 1153.714 -3895.703 L 1222.37 -3964.361 L 1291.026 -4033.017 L 733.7 -4587.313 C 427.776 -4893.238 170.315 -5142.621 162.238 -5142.621 C 153.152 -5142.621 121.852 -5114.35 90.554 -5080.022 Z"/>
    <path id="path-33" style="fill: rgb(121, 92, 52);" d="M 1259.601 -3891.19 C 1227.165 -3858.754 1194.448 -3832.619 1194.448 -3832.619 C 1194.448 -3832.619 2472.514 -2546.504 2480.499 -2546.504 C 2501.464 -2546.504 2643.22 -2690.257 2643.22 -2711.22 C 2643.22 -2733.183 1392.372 -3984.03 1370.41 -3984.03 C 1360.427 -3984.03 1306.294 -3937.884 1259.601 -3891.19 Z"/>
    <path id="path-34" style="fill: rgb(121, 92, 52);" d="M 2611.534 -2567.889 C 2590.351 -2546.706 2516.26 -2478.262 2516.26 -2478.262 L 3492.679 -1398.236 L 3615.581 -1521.138 L 3737.442 -1644.04 C 3737.442 -1644.04 2716.73 -2653.295 2709.439 -2653.295 C 2702.148 -2653.295 2657.886 -2614.241 2611.534 -2567.889 Z"/>
    <path id="path-35" style="fill: rgb(121, 92, 52);" d="M 3673.313 -1448.263 C 3602.488 -1381.604 3542.079 -1322.236 3537.912 -1315.987 C 3533.746 -1309.737 4209.708 -633.776 4209.708 -633.776 L 4847.132 2.607 L 4903.375 2.607 C 4955.452 2.607 4963.785 -1.559 5015.862 -46.346 C 5047.108 -72.384 5096.061 -122.378 5124.182 -155.708 C 5166.886 -206.743 5175.218 -224.449 5175.218 -258.82 C 5175.218 -299.441 3801.423 -1570.123 3801.423 -1570.123 L 3673.313 -1448.263 Z"/>
    <path id="path-30" d="M 790.8 -913.893 L 748.071 -914.996 L 730.978 -910.861 L 713.611 -907.002 L 697.07 -898.18 L 680.254 -889.358 L 666.746 -874.472 L 653.237 -859.861 L 647.448 -844.147 L 641.659 -828.709 L 639.454 -809.963 L 636.972 -791.493 L 638.35 -773.298 L 640.005 -755.104 L 635.042 -755.104 L 630.081 -755.104 L 599.205 -747.936 L 568.329 -740.493 L 556.199 -748.763 L 544.069 -757.033 L 526.978 -765.854 L 509.885 -774.401 L 485.625 -781.293 L 461.366 -788.46 L 433.798 -790.115 L 406.231 -791.493 L 386.383 -787.358 L 366.257 -782.947 L 347.787 -774.124 L 329.041 -765.303 L 313.602 -749.865 L 298.442 -734.428 L 291.273 -719.265 L 284.382 -704.103 L 280.798 -689.216 L 277.214 -674.33 L 278.868 -653.655 L 280.522 -632.704 L 290.447 -612.579 L 300.371 -592.178 L 294.03 -586.94 L 287.69 -581.428 L 275.835 -575.637 L 263.982 -569.848 L 252.404 -570.951 L 240.824 -572.33 L 185.689 -598.244 L 130.554 -624.157 L 102.987 -624.984 L 75.418 -626.087 L 55.018 -618.367 L 34.894 -610.374 L 17.803 -594.659 L 0.71 -579.221 L -8.111 -561.578 L -16.657 -544.211 L -21.067 -520.227 L -25.205 -495.966 L -25.205 -465.642 L -25.205 -435.317 L -21.067 -412.712 L -16.934 -390.382 L -8.939 -372.739 L -0.668 -355.371 L 13.943 -340.761 L 28.553 -326.15 L 42.337 -319.809 L 56.121 -313.192 L 69.905 -309.609 L 83.689 -305.75 L 98.851 -305.75 L 114.014 -305.75 L 126.142 -308.782 L 138.55 -311.539 L 191.202 -336.074 L 243.856 -360.885 L 257.641 -360.885 L 271.425 -360.885 L 283.831 -352.891 L 295.961 -344.62 L 299.544 -342.139 L 302.852 -339.934 L 295.961 -324.497 L 289.068 -309.334 L 283.555 -287.831 L 278.041 -266.328 L 278.041 -252.269 L 278.041 -238.209 L 282.177 -223.046 L 286.587 -207.885 L 290.997 -199.614 L 295.41 -191.344 L 303.679 -180.592 L 312.226 -169.841 L 328.49 -159.366 L 344.48 -148.89 L 362.95 -142.548 L 381.419 -136.209 L 413.122 -136.76 L 444.826 -137.036 L 466.329 -142.825 L 487.832 -148.339 L 510.437 -159.089 L 533.042 -170.117 L 546.275 -179.765 L 559.783 -189.414 L 584.87 -181.696 L 610.231 -174.252 L 625.67 -170.668 L 641.107 -167.084 L 643.037 -144.203 L 644.967 -121.046 L 649.102 -105.333 L 653.237 -89.619 L 661.783 -74.733 L 670.053 -59.846 L 680.805 -51.851 L 691.557 -43.856 L 701.206 -39.998 L 710.855 -35.862 L 730.703 -33.105 L 750.826 -30.349 L 770.676 -32.829 L 790.8 -35.31 L 811.476 -42.478 L 832.151 -49.37 L 848.141 -58.192 L 863.855 -67.014 L 879.018 -77.765 L 894.18 -88.792 L 908.789 -102.851 L 923.677 -116.911 L 941.045 -138.965 L 958.412 -161.02 L 982.12 -165.982 L 1005.828 -170.668 L 1038.91 -180.317 L 1072.266 -190.241 L 1099.835 -200.993 L 1127.126 -212.02 L 1154.418 -225.527 L 1181.435 -239.312 L 1211.208 -259.161 L 1241.256 -279.285 L 1270.478 -308.507 L 1299.424 -337.728 L 1302.457 -341.863 L 1305.214 -345.723 L 1318.446 -366.124 L 1331.954 -386.523 L 1338.571 -403.339 L 1345.462 -420.155 L 1347.116 -429.804 L 1348.771 -439.453 L 1348.771 -460.129 L 1348.495 -480.804 L 1342.43 -499.275 L 1336.365 -517.47 L 1331.128 -523.81 L 1325.614 -529.876 L 1325.614 -532.356 L 1325.614 -534.837 L 1314.035 -551.93 L 1302.457 -568.747 L 1280.678 -591.627 L 1258.624 -614.508 L 1233.537 -633.529 L 1208.45 -652.552 L 1187.5 -665.233 L 1166.548 -677.914 L 1132.363 -694.454 L 1098.18 -710.72 L 1069.51 -721.47 L 1040.563 -731.947 L 1031.466 -753.45 L 1022.644 -774.677 L 1010.239 -793.699 L 997.834 -812.72 L 977.71 -833.671 L 957.861 -854.899 L 934.979 -870.061 L 912.098 -885.222 L 890.596 -894.045 L 869.369 -903.142 L 851.449 -908.104 L 833.53 -912.79 L 790.8 -913.893 Z M 661.507 -707.963 L 663.162 -708.238 L 652.962 -656.411 L 642.487 -604.308 L 637.524 -571.502 L 632.286 -538.697 L 632.561 -444.966 L 632.561 -351.237 L 638.627 -307.129 L 644.692 -263.02 L 648.551 -240.965 L 652.411 -218.913 L 651.584 -218.085 L 650.756 -216.982 L 611.335 -226.906 L 572.189 -237.107 L 563.643 -240.965 L 555.097 -245.1 L 551.513 -250.614 L 547.928 -256.404 L 544.069 -285.902 L 540.21 -315.399 L 536.902 -354.544 L 533.594 -393.691 L 535.248 -473.086 L 536.626 -552.481 L 542.415 -589.698 L 547.928 -626.913 L 552.341 -648.967 L 556.474 -670.746 L 560.886 -677.362 L 565.021 -683.703 L 571.086 -686.184 L 577.15 -688.94 L 612.989 -696.936 L 648.826 -704.931 L 654.34 -706.31 L 659.854 -707.687 L 661.507 -707.963 Z M 1011.894 -687.287 L 1016.579 -685.908 L 1037.255 -678.466 L 1058.207 -670.746 L 1049.386 -656.962 L 1040.839 -643.454 L 1030.639 -621.399 L 1020.164 -599.346 L 1013.272 -576.74 L 1006.104 -554.41 L 1001.693 -529.599 L 997.558 -504.789 L 997.282 -468.124 L 997.282 -431.183 L 1000.315 -411.886 L 1003.347 -392.589 L 1007.483 -376.048 L 1011.894 -359.508 L 1017.407 -342.966 L 1023.196 -326.426 L 1034.223 -304.371 L 1045.251 -282.317 L 1055.175 -267.155 L 1065.099 -251.992 L 1067.304 -248.684 L 1069.51 -245.377 L 1038.634 -235.452 L 1007.758 -225.803 L 1007.206 -226.355 L 1006.93 -227.183 L 999.488 -237.382 L 992.044 -247.582 L 992.044 -249.236 L 992.044 -250.891 L 984.602 -263.847 L 976.882 -276.804 L 967.785 -298.858 L 958.688 -320.913 L 953.174 -338.831 L 947.66 -356.75 L 941.045 -388.454 L 934.703 -420.155 L 935.531 -471.156 L 936.358 -522.157 L 937.736 -529.324 L 939.114 -536.216 L 942.423 -552.756 L 945.731 -569.021 L 954.001 -595.212 L 962.272 -621.399 L 970.542 -639.319 L 978.812 -657.238 L 982.672 -665.508 L 986.806 -673.778 L 990.39 -678.466 L 993.974 -683.152 L 1000.59 -685.908 L 1007.206 -688.666 L 1011.894 -687.287 Z M 1133.467 -559.373 L 1146.423 -559.373 L 1156.349 -550.551 L 1165.997 -541.454 L 1168.478 -530.977 L 1170.683 -520.502 L 1168.202 -511.129 L 1165.72 -502.031 L 1155.797 -493.485 L 1146.148 -484.94 L 1138.705 -484.664 L 1131.262 -484.388 L 1124.645 -484.94 L 1117.754 -485.492 L 1111.413 -489.627 L 1104.796 -494.037 L 1099.282 -504.513 L 1094.045 -514.989 L 1094.045 -520.502 L 1094.045 -526.291 L 1098.731 -537.594 L 1103.142 -548.896 L 1111.688 -554.135 L 1120.235 -559.373 L 1133.467 -559.373 Z M 230.625 -521.329 L 238.068 -519.399 L 261.776 -519.399 L 285.208 -519.675 L 285.208 -482.183 L 284.933 -444.966 L 287.137 -426.497 L 289.344 -407.751 L 281.901 -410.783 L 274.457 -413.54 L 257.641 -413.54 L 240.824 -413.816 L 233.657 -411.886 L 226.49 -410.231 L 224.559 -414.641 L 222.906 -419.329 L 221.252 -450.204 L 219.322 -480.804 L 221.252 -502.308 L 223.457 -523.535 L 230.625 -521.329 Z" style="fill: rgb(52, 155, 220);"/>
    <path id="path-31" d="M 1408.161 -1759.202 L 1365.431 -1760.304 L 1348.338 -1756.169 L 1330.971 -1752.311 L 1314.43 -1743.488 L 1297.614 -1734.667 L 1284.106 -1719.78 L 1270.597 -1705.17 L 1264.808 -1689.455 L 1259.019 -1674.017 L 1256.815 -1655.272 L 1254.333 -1636.801 L 1255.711 -1618.606 L 1257.365 -1600.412 L 1252.402 -1600.412 L 1247.441 -1600.412 L 1216.566 -1593.244 L 1185.689 -1585.802 L 1173.56 -1594.072 L 1161.429 -1602.342 L 1144.339 -1611.163 L 1127.245 -1619.709 L 1102.986 -1626.601 L 1078.726 -1633.768 L 1051.158 -1635.424 L 1023.592 -1636.801 L 1003.743 -1632.667 L 983.618 -1628.255 L 965.147 -1619.433 L 946.401 -1610.612 L 930.963 -1595.173 L 915.802 -1579.736 L 908.634 -1564.573 L 901.742 -1549.411 L 898.158 -1534.525 L 894.575 -1519.638 L 896.228 -1498.963 L 897.882 -1478.012 L 907.807 -1457.888 L 917.731 -1437.487 L 911.391 -1432.248 L 905.05 -1426.736 L 893.196 -1420.946 L 881.342 -1415.157 L 869.764 -1416.26 L 858.184 -1417.639 L 803.05 -1443.552 L 747.914 -1469.466 L 720.347 -1470.293 L 692.778 -1471.395 L 672.379 -1463.676 L 652.254 -1455.682 L 635.163 -1439.968 L 618.07 -1424.53 L 609.249 -1406.887 L 600.703 -1389.519 L 596.293 -1365.535 L 592.156 -1341.274 L 592.156 -1310.951 L 592.156 -1280.626 L 596.293 -1258.021 L 600.427 -1235.69 L 608.421 -1218.048 L 616.692 -1200.679 L 631.303 -1186.07 L 645.913 -1171.458 L 659.697 -1165.118 L 673.481 -1158.501 L 687.265 -1154.917 L 701.049 -1151.059 L 716.211 -1151.059 L 731.374 -1151.059 L 743.503 -1154.091 L 755.91 -1156.848 L 808.563 -1181.382 L 861.216 -1206.193 L 875.002 -1206.193 L 888.785 -1206.193 L 901.191 -1198.2 L 913.321 -1189.929 L 916.905 -1187.448 L 920.212 -1185.242 L 913.321 -1169.805 L 906.428 -1154.642 L 900.915 -1133.14 L 895.401 -1111.636 L 895.401 -1097.577 L 895.401 -1083.518 L 899.537 -1068.355 L 903.947 -1053.193 L 908.357 -1044.922 L 912.77 -1036.652 L 921.04 -1025.9 L 929.586 -1015.15 L 945.851 -1004.674 L 961.84 -994.199 L 980.31 -987.857 L 998.78 -981.517 L 1030.482 -982.069 L 1062.186 -982.344 L 1083.689 -988.133 L 1105.192 -993.647 L 1127.798 -1004.398 L 1150.402 -1015.426 L 1163.635 -1025.074 L 1177.143 -1034.723 L 1202.23 -1027.004 L 1227.591 -1019.561 L 1243.031 -1015.976 L 1258.468 -1012.393 L 1260.397 -989.511 L 1262.327 -966.354 L 1266.462 -950.641 L 1270.597 -934.928 L 1279.144 -920.041 L 1287.414 -905.154 L 1298.165 -897.16 L 1308.917 -889.165 L 1318.566 -885.306 L 1328.215 -881.17 L 1348.063 -878.413 L 1368.187 -875.657 L 1388.036 -878.138 L 1408.161 -880.619 L 1428.836 -887.787 L 1449.511 -894.679 L 1465.501 -903.5 L 1481.215 -912.323 L 1496.378 -923.073 L 1511.54 -934.1 L 1526.149 -948.159 L 1541.037 -962.22 L 1558.405 -984.273 L 1575.772 -1006.328 L 1599.48 -1011.291 L 1623.188 -1015.976 L 1656.27 -1025.625 L 1689.626 -1035.549 L 1717.195 -1046.301 L 1744.486 -1057.328 L 1771.778 -1070.836 L 1798.795 -1084.621 L 1828.568 -1104.469 L 1858.616 -1124.594 L 1887.838 -1153.816 L 1916.784 -1183.037 L 1919.817 -1187.172 L 1922.574 -1191.031 L 1935.807 -1211.432 L 1949.314 -1231.832 L 1955.931 -1248.648 L 1962.822 -1265.464 L 1964.476 -1275.113 L 1966.132 -1284.762 L 1966.132 -1305.438 L 1965.855 -1326.113 L 1959.79 -1344.584 L 1953.726 -1362.778 L 1948.488 -1369.119 L 1942.974 -1375.184 L 1942.974 -1377.665 L 1942.974 -1380.146 L 1931.395 -1397.239 L 1919.817 -1414.055 L 1898.038 -1436.935 L 1875.985 -1459.817 L 1850.897 -1478.838 L 1825.81 -1497.86 L 1804.86 -1510.542 L 1783.908 -1523.223 L 1749.723 -1539.763 L 1715.54 -1556.028 L 1686.87 -1566.779 L 1657.923 -1577.256 L 1648.826 -1598.758 L 1640.004 -1619.985 L 1627.6 -1639.007 L 1615.195 -1658.029 L 1595.07 -1678.98 L 1575.221 -1700.207 L 1552.339 -1715.369 L 1529.458 -1730.531 L 1507.956 -1739.353 L 1486.729 -1748.451 L 1468.809 -1753.412 L 1450.89 -1758.099 L 1408.161 -1759.202 Z M 1278.867 -1553.271 L 1280.523 -1553.546 L 1270.322 -1501.719 L 1259.847 -1449.617 L 1254.884 -1416.811 L 1249.646 -1384.005 L 1249.922 -1290.275 L 1249.922 -1196.545 L 1255.987 -1152.438 L 1262.052 -1108.329 L 1265.911 -1086.274 L 1269.771 -1064.221 L 1268.944 -1063.393 L 1268.117 -1062.291 L 1228.695 -1072.215 L 1189.549 -1082.415 L 1181.003 -1086.274 L 1172.457 -1090.409 L 1168.873 -1095.923 L 1165.289 -1101.712 L 1161.429 -1131.21 L 1157.57 -1160.708 L 1154.263 -1199.853 L 1150.954 -1239 L 1152.608 -1318.394 L 1153.986 -1397.789 L 1159.776 -1435.006 L 1165.289 -1472.222 L 1169.701 -1494.276 L 1173.835 -1516.054 L 1178.246 -1522.67 L 1182.381 -1529.012 L 1188.446 -1531.493 L 1194.511 -1534.249 L 1230.349 -1542.244 L 1266.186 -1550.239 L 1271.7 -1551.618 L 1277.214 -1552.995 L 1278.867 -1553.271 Z M 1629.254 -1532.595 L 1633.939 -1531.216 L 1654.615 -1523.774 L 1675.567 -1516.054 L 1666.746 -1502.271 L 1658.2 -1488.763 L 1647.999 -1466.708 L 1637.524 -1444.654 L 1630.632 -1422.049 L 1623.465 -1399.719 L 1619.053 -1374.908 L 1614.918 -1350.098 L 1614.642 -1313.433 L 1614.642 -1276.492 L 1617.675 -1257.194 L 1620.708 -1237.897 L 1624.844 -1221.356 L 1629.254 -1204.816 L 1634.767 -1188.274 L 1640.556 -1171.734 L 1651.583 -1149.68 L 1662.611 -1127.626 L 1672.535 -1112.464 L 1682.459 -1097.301 L 1684.665 -1093.992 L 1686.87 -1090.685 L 1655.994 -1080.761 L 1625.118 -1071.112 L 1624.566 -1071.663 L 1624.29 -1072.491 L 1616.848 -1082.69 L 1609.404 -1092.891 L 1609.404 -1094.545 L 1609.404 -1096.199 L 1601.962 -1109.155 L 1594.243 -1122.113 L 1585.145 -1144.167 L 1576.049 -1166.222 L 1570.535 -1184.139 L 1565.02 -1202.058 L 1558.405 -1233.762 L 1552.063 -1265.464 L 1552.891 -1316.465 L 1553.718 -1367.465 L 1555.096 -1374.633 L 1556.474 -1381.525 L 1559.783 -1398.064 L 1563.091 -1414.329 L 1571.361 -1440.52 L 1579.632 -1466.708 L 1587.902 -1484.628 L 1596.172 -1502.547 L 1600.032 -1510.817 L 1604.167 -1519.087 L 1607.75 -1523.774 L 1611.334 -1528.46 L 1617.951 -1531.216 L 1624.566 -1533.974 L 1629.254 -1532.595 Z M 1750.827 -1404.681 L 1763.784 -1404.681 L 1773.709 -1395.86 L 1783.357 -1386.762 L 1785.839 -1376.286 L 1788.043 -1365.81 L 1785.562 -1356.437 L 1783.081 -1347.34 L 1773.157 -1338.794 L 1763.509 -1330.249 L 1756.065 -1329.972 L 1748.622 -1329.696 L 1742.005 -1330.249 L 1735.114 -1330.8 L 1728.774 -1334.935 L 1722.157 -1339.345 L 1716.643 -1349.822 L 1711.405 -1360.297 L 1711.405 -1365.81 L 1711.405 -1371.599 L 1716.091 -1382.903 L 1720.503 -1394.205 L 1729.049 -1399.443 L 1737.595 -1404.681 L 1750.827 -1404.681 Z M 847.985 -1366.638 L 855.428 -1364.707 L 879.136 -1364.707 L 902.568 -1364.984 L 902.568 -1327.492 L 902.293 -1290.275 L 904.498 -1271.806 L 906.704 -1253.059 L 899.261 -1256.091 L 891.818 -1258.848 L 875.002 -1258.848 L 858.184 -1259.124 L 851.017 -1257.194 L 843.85 -1255.54 L 841.92 -1259.95 L 840.267 -1264.637 L 838.612 -1295.513 L 836.682 -1326.113 L 838.612 -1347.616 L 840.817 -1368.843 L 847.985 -1366.638 Z" style="fill: rgb(52, 155, 220);"/>
    <path id="path-32" d="M 2367.444 -913.893 L 2324.714 -914.996 L 2307.622 -910.861 L 2290.254 -907.002 L 2273.713 -898.18 L 2256.897 -889.358 L 2243.389 -874.472 L 2229.881 -859.861 L 2224.091 -844.147 L 2218.302 -828.709 L 2216.098 -809.963 L 2213.616 -791.493 L 2214.994 -773.298 L 2216.648 -755.104 L 2211.685 -755.104 L 2206.724 -755.104 L 2175.849 -747.936 L 2144.972 -740.493 L 2132.843 -748.763 L 2120.712 -757.033 L 2103.622 -765.854 L 2086.528 -774.401 L 2062.269 -781.293 L 2038.009 -788.46 L 2010.442 -790.115 L 1982.875 -791.493 L 1963.026 -787.358 L 1942.901 -782.947 L 1924.431 -774.124 L 1905.684 -765.303 L 1890.246 -749.865 L 1875.085 -734.428 L 1867.917 -719.265 L 1861.025 -704.103 L 1857.441 -689.216 L 1853.858 -674.33 L 1855.511 -653.655 L 1857.165 -632.704 L 1867.09 -612.579 L 1877.014 -592.178 L 1870.674 -586.94 L 1864.333 -581.428 L 1852.479 -575.637 L 1840.625 -569.848 L 1829.047 -570.951 L 1817.468 -572.33 L 1762.333 -598.244 L 1707.197 -624.157 L 1679.63 -624.984 L 1652.061 -626.087 L 1631.662 -618.367 L 1611.537 -610.374 L 1594.446 -594.659 L 1577.354 -579.221 L 1568.532 -561.578 L 1559.986 -544.211 L 1555.576 -520.227 L 1551.439 -495.966 L 1551.439 -465.642 L 1551.439 -435.317 L 1555.576 -412.712 L 1559.71 -390.382 L 1567.705 -372.739 L 1575.976 -355.371 L 1590.586 -340.761 L 1605.197 -326.15 L 1618.981 -319.809 L 1632.765 -313.192 L 1646.548 -309.609 L 1660.332 -305.75 L 1675.494 -305.75 L 1690.657 -305.75 L 1702.786 -308.782 L 1715.193 -311.539 L 1767.846 -336.074 L 1820.5 -360.885 L 1834.285 -360.885 L 1848.069 -360.885 L 1860.475 -352.891 L 1872.604 -344.62 L 1876.188 -342.139 L 1879.495 -339.934 L 1872.604 -324.497 L 1865.711 -309.334 L 1860.198 -287.831 L 1854.684 -266.328 L 1854.684 -252.269 L 1854.684 -238.209 L 1858.82 -223.046 L 1863.231 -207.885 L 1867.641 -199.614 L 1872.053 -191.344 L 1880.323 -180.592 L 1888.869 -169.841 L 1905.134 -159.366 L 1921.123 -148.89 L 1939.594 -142.548 L 1958.063 -136.209 L 1989.766 -136.76 L 2021.47 -137.036 L 2042.972 -142.825 L 2064.476 -148.339 L 2087.081 -159.089 L 2109.685 -170.117 L 2122.919 -179.765 L 2136.426 -189.414 L 2161.513 -181.696 L 2186.875 -174.252 L 2202.314 -170.668 L 2217.751 -167.084 L 2219.68 -144.203 L 2221.611 -121.046 L 2225.746 -105.333 L 2229.881 -89.619 L 2238.427 -74.733 L 2246.697 -59.846 L 2257.448 -51.851 L 2268.2 -43.856 L 2277.849 -39.998 L 2287.498 -35.862 L 2307.346 -33.105 L 2327.47 -30.349 L 2347.319 -32.829 L 2367.444 -35.31 L 2388.12 -42.478 L 2408.794 -49.37 L 2424.784 -58.192 L 2440.498 -67.014 L 2455.661 -77.765 L 2470.823 -88.792 L 2485.433 -102.851 L 2500.32 -116.911 L 2517.688 -138.965 L 2535.055 -161.02 L 2558.764 -165.982 L 2582.472 -170.668 L 2615.553 -180.317 L 2648.909 -190.241 L 2676.478 -200.993 L 2703.769 -212.02 L 2731.062 -225.527 L 2758.078 -239.312 L 2787.852 -259.161 L 2817.899 -279.285 L 2847.121 -308.507 L 2876.067 -337.728 L 2879.1 -341.863 L 2881.857 -345.723 L 2895.09 -366.124 L 2908.597 -386.523 L 2915.214 -403.339 L 2922.105 -420.155 L 2923.759 -429.804 L 2925.415 -439.453 L 2925.415 -460.129 L 2925.138 -480.804 L 2919.073 -499.275 L 2913.009 -517.47 L 2907.771 -523.81 L 2902.257 -529.876 L 2902.257 -532.356 L 2902.257 -534.837 L 2890.679 -551.93 L 2879.1 -568.747 L 2857.322 -591.627 L 2835.268 -614.508 L 2810.181 -633.529 L 2785.093 -652.552 L 2764.144 -665.233 L 2743.191 -677.914 L 2709.007 -694.454 L 2674.823 -710.72 L 2646.153 -721.47 L 2617.207 -731.947 L 2608.109 -753.45 L 2599.288 -774.677 L 2586.883 -793.699 L 2574.478 -812.72 L 2554.353 -833.671 L 2534.504 -854.899 L 2511.623 -870.061 L 2488.741 -885.222 L 2467.24 -894.045 L 2446.012 -903.142 L 2428.092 -908.104 L 2410.173 -912.79 L 2367.444 -913.893 Z M 2238.151 -707.963 L 2239.806 -708.238 L 2229.605 -656.411 L 2219.13 -604.308 L 2214.167 -571.502 L 2208.93 -538.697 L 2209.205 -444.966 L 2209.205 -351.237 L 2215.27 -307.129 L 2221.336 -263.02 L 2225.194 -240.965 L 2229.054 -218.913 L 2228.227 -218.085 L 2227.4 -216.982 L 2187.978 -226.906 L 2148.832 -237.107 L 2140.286 -240.965 L 2131.74 -245.1 L 2128.156 -250.614 L 2124.572 -256.404 L 2120.712 -285.902 L 2116.853 -315.399 L 2113.546 -354.544 L 2110.237 -393.691 L 2111.892 -473.086 L 2113.27 -552.481 L 2119.059 -589.698 L 2124.572 -626.913 L 2128.984 -648.967 L 2133.118 -670.746 L 2137.529 -677.362 L 2141.664 -683.703 L 2147.729 -686.184 L 2153.794 -688.94 L 2189.633 -696.936 L 2225.469 -704.931 L 2230.983 -706.31 L 2236.497 -707.687 L 2238.151 -707.963 Z M 2588.537 -687.287 L 2593.222 -685.908 L 2613.898 -678.466 L 2634.85 -670.746 L 2626.029 -656.962 L 2617.483 -643.454 L 2607.282 -621.399 L 2596.807 -599.346 L 2589.915 -576.74 L 2582.748 -554.41 L 2578.337 -529.599 L 2574.202 -504.789 L 2573.925 -468.124 L 2573.925 -431.183 L 2576.959 -411.886 L 2579.991 -392.589 L 2584.127 -376.048 L 2588.537 -359.508 L 2594.05 -342.966 L 2599.839 -326.426 L 2610.866 -304.371 L 2621.894 -282.317 L 2631.818 -267.155 L 2641.742 -251.992 L 2643.948 -248.684 L 2646.153 -245.377 L 2615.277 -235.452 L 2584.401 -225.803 L 2583.85 -226.355 L 2583.573 -227.183 L 2576.131 -237.382 L 2568.688 -247.582 L 2568.688 -249.236 L 2568.688 -250.891 L 2561.245 -263.847 L 2553.526 -276.804 L 2544.428 -298.858 L 2535.332 -320.913 L 2529.818 -338.831 L 2524.304 -356.75 L 2517.688 -388.454 L 2511.346 -420.155 L 2512.174 -471.156 L 2513.002 -522.157 L 2514.38 -529.324 L 2515.758 -536.216 L 2519.066 -552.756 L 2522.374 -569.021 L 2530.644 -595.212 L 2538.915 -621.399 L 2547.185 -639.319 L 2555.455 -657.238 L 2559.315 -665.508 L 2563.45 -673.778 L 2567.033 -678.466 L 2570.617 -683.152 L 2577.234 -685.908 L 2583.85 -688.666 L 2588.537 -687.287 Z M 2710.111 -559.373 L 2723.067 -559.373 L 2732.992 -550.551 L 2742.64 -541.454 L 2745.122 -530.977 L 2747.326 -520.502 L 2744.846 -511.129 L 2742.364 -502.031 L 2732.441 -493.485 L 2722.792 -484.94 L 2715.348 -484.664 L 2707.905 -484.388 L 2701.288 -484.94 L 2694.397 -485.492 L 2688.057 -489.627 L 2681.44 -494.037 L 2675.926 -504.513 L 2670.688 -514.989 L 2670.688 -520.502 L 2670.688 -526.291 L 2675.374 -537.594 L 2679.786 -548.896 L 2688.332 -554.135 L 2696.878 -559.373 L 2710.111 -559.373 Z M 1807.268 -521.329 L 1814.712 -519.399 L 1838.42 -519.399 L 1861.851 -519.675 L 1861.851 -482.183 L 1861.576 -444.966 L 1863.781 -426.497 L 1865.988 -407.751 L 1858.544 -410.783 L 1851.101 -413.54 L 1834.285 -413.54 L 1817.468 -413.816 L 1810.3 -411.886 L 1803.133 -410.231 L 1801.203 -414.641 L 1799.55 -419.329 L 1797.895 -450.204 L 1795.965 -480.804 L 1797.895 -502.308 L 1800.1 -523.535 L 1807.268 -521.329 Z" style="fill: rgb(52, 155, 220);"/>
  </g>
</svg>