<?xml version="1.0" encoding="utf-8"?>
<svg viewBox="796.989 32.567 511.545 512.226" width="511.545" height="512.226" xmlns="http://www.w3.org/2000/svg">
  <g style="" transform="matrix(1.0509270429611206, 0, 0, 1.0509270429611206, 749.0982055664062, -5.98944091796875)">
    <title>NFF No Dog</title>
    <g transform="matrix(1, 0, 0, 1, 0.000033, 0.000007)">
      <title>Layout</title>
      <rect style="stroke-width: 26.237px; paint-order: stroke; fill-opacity: 0; fill: rgb(164, 165, 191); stroke: rgb(164, 165, 191);" height="286.667" x="277.357" y="-237.687" width="282.375" transform="matrix(-0.695691, 0.718341, -0.718341, -0.695691, 512.347656, -85.908348)"/>
      <ellipse style="stroke: rgb(0, 0, 0); stroke-opacity: 0; fill: rgb(164, 165, 191);" cx="117.23" cy="280.39" rx="71.66" ry="71.66"/>
      <ellipse style="stroke: rgb(0, 0, 0); stroke-opacity: 0; fill: rgb(164, 165, 191);" cx="460.666" cy="280.39" rx="71.66" ry="71.66"/>
      <ellipse style="stroke: rgb(0, 0, 0); stroke-opacity: 0; fill: rgb(164, 165, 191);" cx="288.948" cy="108.348" rx="71.66" ry="71.66"/>
      <ellipse style="stroke: rgb(0, 0, 0); stroke-opacity: 0; fill: rgb(164, 165, 191);" cx="288.948" cy="452.432" rx="71.66" ry="71.66"/>
    </g>
    <path id="path-56" d="M 289.277 218.951 C 227.624 218.863 227.185 218.863 225.43 219.741 C 224.465 220.223 223.28 221.189 222.797 221.847 C 221.92 223.032 221.92 223.822 221.788 266.518 L 221.7 310.004 L 222.666 311.452 C 223.236 312.286 224.377 313.339 225.211 313.822 C 226.703 314.743 227.317 314.743 264.572 314.875 L 302.397 314.963 L 315.737 328.566 C 323.065 336.025 329.209 342.037 329.34 341.862 C 329.516 341.73 329.648 335.587 329.648 328.302 L 329.648 315.006 L 340.53 314.875 C 349.833 314.743 351.588 314.655 352.773 313.997 C 353.519 313.558 354.616 312.593 355.186 311.803 L 356.196 310.355 L 356.196 266.913 L 356.196 223.471 L 355.186 222.023 C 354.616 221.233 353.519 220.267 352.773 219.828 C 351.456 219.126 347.244 219.083 289.277 218.951 Z M 257.288 257.04 C 258.692 257.04 260.096 257.435 261.676 258.268 C 263.387 259.146 264.397 260.067 265.318 261.559 C 266.108 262.832 266.678 264.455 266.81 265.816 C 266.942 267.264 266.766 268.668 266.283 269.941 C 265.845 271.038 264.704 272.661 263.651 273.627 C 262.597 274.592 260.974 275.601 260.052 275.865 C 259.087 276.128 257.639 276.347 256.805 276.347 C 255.971 276.347 254.479 275.952 253.514 275.513 C 252.549 275.075 251.188 274.153 250.486 273.451 C 249.784 272.749 248.863 271.389 248.424 270.423 C 247.985 269.458 247.59 267.966 247.59 267.132 C 247.59 266.298 247.81 264.85 248.073 263.929 C 248.336 263.007 249.258 261.428 250.135 260.462 C 251.013 259.453 252.549 258.312 253.514 257.873 C 254.479 257.435 256.191 257.04 257.288 257.04 Z M 288.882 257.04 C 290.286 257.04 291.691 257.435 293.27 258.268 C 294.982 259.146 295.991 260.067 296.912 261.559 C 297.702 262.832 298.273 264.455 298.404 265.816 C 298.536 267.264 298.36 268.668 297.878 269.941 C 297.439 271.038 296.298 272.661 295.245 273.627 C 294.192 274.592 292.568 275.601 291.647 275.865 C 290.681 276.128 289.233 276.347 288.399 276.347 C 287.566 276.347 286.074 275.952 285.108 275.513 C 284.143 275.075 282.783 274.153 282.081 273.451 C 281.378 272.749 280.457 271.389 280.018 270.423 C 279.579 269.458 279.184 267.966 279.184 267.132 C 279.184 266.298 279.404 264.85 279.667 263.929 C 279.93 263.007 280.852 261.428 281.73 260.462 C 282.607 259.453 284.143 258.312 285.108 257.873 C 286.074 257.435 287.785 257.04 288.882 257.04 Z M 320.476 257.04 C 321.881 257.04 323.241 257.435 324.865 258.268 C 326.576 259.146 327.585 260.067 328.507 261.559 C 329.297 262.832 329.867 264.455 329.999 265.816 C 330.13 267.264 329.955 268.668 329.472 269.941 C 329.033 271.038 327.892 272.661 326.839 273.627 C 325.786 274.592 324.162 275.601 323.241 275.865 C 322.276 276.128 320.871 276.347 320.082 276.347 C 319.292 276.347 317.931 276.04 317.01 275.645 C 316.132 275.294 314.816 274.46 314.158 273.802 C 313.456 273.144 312.49 271.827 312.007 270.906 C 311.437 269.809 311.13 268.273 311.086 266.737 C 311.086 265.07 311.393 263.709 312.007 262.525 C 312.49 261.559 313.456 260.243 314.158 259.585 C 314.816 258.926 316.088 258.093 316.922 257.742 C 317.756 257.391 319.379 257.083 320.476 257.04 Z" style="fill: rgb(255, 204, 153);"/>
    <path d="M 106.139 233.104 C 113.089 223.581 120.576 223.872 128.6 233.978 C 129.794 235.509 131.876 237.27 134.846 239.259 C 140.175 242.445 143.037 247.558 143.436 254.601 C 145.824 265.687 149.56 274.996 154.643 282.528 C 164.84 295.237 161.916 303.811 145.871 308.252 C 145.595 317.867 148.32 324.343 154.047 327.682 C 129.825 336.837 105.204 336.914 80.186 327.912 C 85.974 324.42 88.715 317.867 88.408 308.252 C 72.393 303.811 69.467 295.237 79.635 282.528 C 84.168 274.813 87.903 265.503 90.842 254.601 C 91.21 247.558 94.058 242.445 99.386 239.259 C 102.357 237.27 104.608 235.218 106.139 233.104 M 130.62 304.761 C 134.019 300.382 137.556 297.932 141.231 297.411 C 147.601 296.616 144.37 283.861 131.54 259.149 C 121.128 263.283 111.513 262.976 102.694 258.23 C 89.924 283.003 86.724 295.788 93.094 296.585 C 96.799 297.135 100.381 299.739 103.841 304.394 C 107.302 309.017 111.741 316.473 117.162 326.762 C 122.643 316.504 127.13 309.17 130.62 304.761" fill-rule="evenodd" stroke="none" style="fill: rgb(237, 218, 135);" id="path-13"/>
    <path d="M 495.037 266.082 L 494.575 264.779 L 469.083 274.243 L 470.429 297.422 L 454.653 297.422 L 456.084 274.202 L 430.802 264.779 L 430.424 265.83 C 428.628 270.71 427.169 276.502 426.049 283.204 L 429.792 284.55 L 429.792 323.968 C 424.183 321.668 418.56 318.708 412.924 315.091 C 412.924 302.724 414.507 291.056 417.676 280.091 C 418.405 277.679 419.206 275.295 420.075 272.939 C 421.364 269.35 422.851 265.83 424.534 262.38 L 424.744 261.875 C 432.484 245.863 444.977 233.424 462.225 224.561 C 478.464 233.424 490.845 245.722 499.371 261.455 L 500.044 262.717 C 501.755 266.055 503.297 269.531 504.671 273.148 L 507.027 280.343 C 510.224 291.196 511.724 302.877 511.529 315.385 C 506.256 318.807 500.632 321.668 494.659 323.968 L 494.659 284.887 L 499.413 283.12 C 498.319 276.502 496.862 270.822 495.037 266.082" fill-rule="evenodd" stroke="none" style="fill: rgb(117, 96, 0);" id="path-57"/>
    <path d="M 335.084 91.745 C 340.343 105.715 342.853 121.045 342.607 137.73 C 330.206 145.674 316.27 150.847 300.803 153.25 L 300.803 104.549 L 320.555 97.232 L 318.362 90.543 L 316.27 85.474 L 288.94 95.402 L 261.767 85.213 C 261.036 86.885 260.358 88.61 259.73 90.387 C 258.928 92.512 258.233 94.707 257.64 96.97 L 277.079 104.234 L 277.079 152.99 C 263.178 151.632 249.245 146.404 235.274 137.312 C 235.274 120.904 237.87 105.645 243.061 91.535 C 244.489 87.601 246.127 83.767 247.972 80.039 L 248.128 79.518 C 256.594 62.101 270.198 48.566 288.94 38.915 C 306.604 48.566 320.086 61.942 329.386 79.047 L 330.067 80.405 C 331.948 84.064 333.619 87.843 335.084 91.745" fill-rule="evenodd" stroke="none" style="fill: rgb(107, 117, 133);" id="path-58"/>
    <path d="M 283.898 441.642 C 284.583 440.784 285.338 440.146 286.164 439.728 C 288.246 438.44 290.667 438.029 293.43 438.494 C 299.723 439.955 302.542 444.406 301.886 451.849 C 300.227 459.891 295.885 463.937 288.861 463.986 C 282.39 463.362 277.871 458.949 275.303 450.748 C 273.548 443.773 274.465 436.513 278.053 428.968 C 262.817 449.98 264.967 473.154 284.505 498.489 C 283.232 499.375 281.484 499.375 279.26 498.489 C 260.173 483.979 254.761 455.538 263.023 413.166 L 257.183 407.975 L 320.199 407.975 L 312.976 414.166 C 327.177 461.758 321.833 493.959 296.945 510.769 C 295.41 510.674 294.851 510.106 295.27 509.067 C 307.556 495.601 312.768 478.205 310.907 456.88 C 308.357 427.737 296.484 413.065 275.287 412.863 C 273.777 415.863 277.153 418.839 285.414 421.793 C 279.996 429.374 277.078 438.063 276.66 447.86 C 276.798 453.296 279.902 457.203 285.973 459.582 C 291.752 460.696 295.821 459.049 298.179 454.641 C 299.41 449.418 298.812 446.692 296.387 446.461 C 296.465 446.986 296.504 447.546 296.504 448.142 C 296.504 450.673 295.773 452.817 294.312 454.572 C 292.887 456.388 291.157 457.295 289.121 457.295 C 287.072 457.295 285.331 456.388 283.898 454.572 C 282.473 452.817 281.76 450.673 281.76 448.142 C 281.76 445.61 282.473 443.444 283.898 441.642" fill-rule="evenodd" stroke="none" id="path-14" style="fill:#993899"/>
  </g>
</svg>