<?xml version="1.0" encoding="utf-8"?>
<svg viewBox="796.989 32.567 511.545 512.226" width="511.545px" height="512.226px" xmlns="http://www.w3.org/2000/svg">
  <g style="" transform="matrix(1.0509270429611206, 0, 0, 1.0509270429611206, 749.0982666015625, -5.9893879890441895)">
    <title>NFF No Dog</title>
    <g transform="matrix(1, 0, 0, 1, 0.000033, 0.000007)">
      <title>Layout</title>
      <rect style="stroke-width: 26.237px; paint-order: stroke; fill-opacity: 0; fill: rgb(164, 165, 191); stroke: rgb(164, 165, 191);" height="286.667" x="277.357" y="-237.687" width="282.375" transform="matrix(-0.695691, 0.718341, -0.718341, -0.695691, 512.347656, -85.908348)"/>
      <ellipse style="stroke: rgb(0, 0, 0); stroke-opacity: 0; fill: rgb(164, 165, 191);" cx="117.23" cy="280.39" rx="71.66" ry="71.66"/>
      <ellipse style="stroke: rgb(0, 0, 0); stroke-opacity: 0; fill: rgb(164, 165, 191);" cx="460.666" cy="280.39" rx="71.66" ry="71.66"/>
      <ellipse style="stroke: rgb(0, 0, 0); stroke-opacity: 0; fill: rgb(164, 165, 191);" cx="288.948" cy="108.348" rx="71.66" ry="71.66"/>
      <ellipse style="stroke: rgb(0, 0, 0); stroke-opacity: 0; fill: rgb(164, 165, 191);" cx="288.948" cy="452.432" rx="71.66" ry="71.66"/>
    </g>
    <path id="path1" d="M 246.07 191.763 C 246.736 193.094 247.506 196.807 247.821 200.204 L 248.066 202.83 L 246.21 201.009 C 244.249 199.153 240.292 196.246 240.047 196.491 C 239.942 196.561 240.047 196.947 240.222 197.297 C 241.377 199.468 241.693 209.134 240.817 216.139 C 240.082 222.092 240.082 222.092 237.7 225.209 C 232.447 232.109 226.633 244.471 220.154 262.648 C 218.228 267.971 217.598 269.337 215.671 272.104 C 211.329 278.302 210.348 281.349 210.628 287.408 C 211.013 295.358 214.2 299.035 222.641 301.242 C 228.91 302.888 233.883 300.646 236.614 294.972 C 237.28 293.607 237.91 291.786 238.05 290.98 C 238.19 290.139 238.471 289.404 238.681 289.369 C 238.891 289.299 240.257 288.984 241.693 288.669 C 245.195 287.863 250.693 285.167 254.3 282.47 C 258.048 279.703 263.126 274.8 265.928 271.263 C 267.118 269.722 268.239 268.496 268.414 268.496 C 269.185 268.496 272.652 271.193 274.753 273.399 C 277.205 275.991 278.921 279.178 280.076 283.205 C 281.092 286.743 281.022 296.163 279.936 300.996 C 278.045 309.402 274.403 317.807 269.395 325.232 C 267.784 327.648 265.823 330.87 265.087 332.411 C 261.795 339.38 260.884 348.836 262.53 359.518 C 263.056 362.88 264.632 369.639 264.982 370.024 C 265.227 370.27 272.617 369.394 278.185 368.483 C 301.3 364.596 321.472 355.525 334.64 343.093 C 343.291 334.863 351.031 321.939 354.253 310.242 C 355.934 304.148 356.284 301.767 356.459 294.938 C 356.634 289.264 356.529 287.653 355.934 284.081 C 355.093 279.178 353.902 275.185 352.186 271.438 C 351.521 269.967 350.961 268.671 350.961 268.566 C 350.961 268.216 354.007 268.916 356.424 269.862 C 357.825 270.422 360.802 271.893 363.078 273.189 C 365.319 274.485 367.211 275.465 367.281 275.395 C 367.561 275.115 365.95 271.088 364.094 267.516 C 359.506 258.69 351.311 249.479 339.823 240.339 C 335.026 236.521 328.862 232.144 324.239 229.272 L 321.192 227.345 L 322.663 227.031 C 324.379 226.715 329.457 227.206 334.325 228.186 C 336.041 228.536 337.512 228.817 337.582 228.746 C 337.862 228.501 330.018 222.267 326.62 219.991 C 310.3 209.134 289.112 204.897 269.885 208.644 C 267.959 208.994 266.348 209.31 266.313 209.31 C 266.313 209.31 265.928 208.644 265.542 207.803 C 263.756 204.161 255.771 197.192 246.876 191.589 L 245.51 190.713 L 246.07 191.763 Z" style="fill: rgb(255, 204, 153);"/>
    <path d="M 106.139 233.104 C 113.089 223.581 120.576 223.872 128.6 233.978 C 129.794 235.509 131.876 237.27 134.846 239.259 C 140.175 242.445 143.037 247.558 143.436 254.601 C 145.824 265.687 149.56 274.996 154.643 282.528 C 164.84 295.237 161.916 303.811 145.871 308.252 C 145.595 317.867 148.32 324.343 154.047 327.682 C 129.825 336.837 105.204 336.914 80.186 327.912 C 85.974 324.42 88.715 317.867 88.408 308.252 C 72.393 303.811 69.467 295.237 79.635 282.528 C 84.168 274.813 87.903 265.503 90.842 254.601 C 91.21 247.558 94.058 242.445 99.386 239.259 C 102.357 237.27 104.608 235.218 106.139 233.104 M 130.62 304.761 C 134.019 300.382 137.556 297.932 141.231 297.411 C 147.601 296.616 144.37 283.861 131.54 259.149 C 121.128 263.283 111.513 262.976 102.694 258.23 C 89.924 283.003 86.724 295.788 93.094 296.585 C 96.799 297.135 100.381 299.739 103.841 304.394 C 107.302 309.017 111.741 316.473 117.162 326.762 C 122.643 316.504 127.13 309.17 130.62 304.761" fill-rule="evenodd" stroke="none" style="fill: rgb(237, 218, 135);" id="path-13"/>
    <path d="M 495.037 266.082 L 494.575 264.779 L 469.083 274.243 L 470.429 297.422 L 454.653 297.422 L 456.084 274.202 L 430.802 264.779 L 430.424 265.83 C 428.628 270.71 427.169 276.502 426.049 283.204 L 429.792 284.55 L 429.792 323.968 C 424.183 321.668 418.56 318.708 412.924 315.091 C 412.924 302.724 414.507 291.056 417.676 280.091 C 418.405 277.679 419.206 275.295 420.075 272.939 C 421.364 269.35 422.851 265.83 424.534 262.38 L 424.744 261.875 C 432.484 245.863 444.977 233.424 462.225 224.561 C 478.464 233.424 490.845 245.722 499.371 261.455 L 500.044 262.717 C 501.755 266.055 503.297 269.531 504.671 273.148 L 507.027 280.343 C 510.224 291.196 511.724 302.877 511.529 315.385 C 506.256 318.807 500.632 321.668 494.659 323.968 L 494.659 284.887 L 499.413 283.12 C 498.319 276.502 496.862 270.822 495.037 266.082" fill-rule="evenodd" stroke="none" style="fill: rgb(117, 96, 0);" id="path-57"/>
    <path d="M 335.084 91.745 C 340.343 105.715 342.853 121.045 342.607 137.73 C 330.206 145.674 316.27 150.847 300.803 153.25 L 300.803 104.549 L 320.555 97.232 L 318.362 90.543 L 316.27 85.474 L 288.94 95.402 L 261.767 85.213 C 261.036 86.885 260.358 88.61 259.73 90.387 C 258.928 92.512 258.233 94.707 257.64 96.97 L 277.079 104.234 L 277.079 152.99 C 263.178 151.632 249.245 146.404 235.274 137.312 C 235.274 120.904 237.87 105.645 243.061 91.535 C 244.489 87.601 246.127 83.767 247.972 80.039 L 248.128 79.518 C 256.594 62.101 270.198 48.566 288.94 38.915 C 306.604 48.566 320.086 61.942 329.386 79.047 L 330.067 80.405 C 331.948 84.064 333.619 87.843 335.084 91.745" fill-rule="evenodd" stroke="none" style="fill: rgb(107, 117, 133);" id="path-58"/>
  </g>
  <g transform="matrix(0.04115600511431694, 0, 0, 0.04115600511431694, 989.4903564453125, 532.773681640625)" fill="#F02" style="">
    <path id="path-1" d="M 1840 -3005 c -6 -3 -145 128 -310 291 -165 163 -300 302 -300 308 0 6 136 147 303 314 166 166 305 302 310 302 4 0 7 -72 7 -160 0 -88 4 -160 8 -160 5 0 29 14 53 32 24 17 70 59 103 92 32 33 78 94 102 135 29 50 50 103 64 161 11 50 20 121 20 166 0 44 -5 99 -11 124 -5 25 -21 76 -36 114 -14 37 -45 98 -69 134 l -44 65 0 304 c 0 255 2 305 14 309 8 3 46 -13 85 -35 39 -23 103 -68 143 -100 40 -32 92 -78 114 -102 23 -24 60 -68 83 -98 23 -29 60 -84 81 -122 22 -37 54 -102 71 -145 17 -42 42 -120 56 -173 17 -69 26 -135 30 -236 4 -105 1 -163 -11 -231 -8 -51 -27 -129 -42 -175 -14 -46 -48 -127 -75 -179 -27 -52 -78 -134 -113 -181 -36 -47 -92 -111 -125 -142 -34 -31 -106 -86 -161 -122 -54 -37 -135 -82 -179 -100 -44 -19 -98 -39 -121 -45 l -40 -11 0 -164 c 0 -98 -4 -166 -10 -170 z M 1022 -2600 c -5 0 -46 22 -91 50 -46 27 -114 75 -153 107 -39 32 -102 94 -140 138 -38 44 -91 116 -118 160 -26 44 -64 118 -83 165 -19 47 -45 125 -58 175 -21 79 -23 113 -23 280 0 174 3 198 27 287 15 53 44 136 65 185 21 48 58 119 83 158 25 39 72 101 104 138 32 38 98 101 146 142 48 40 118 90 156 111 37 22 115 58 173 81 l 105 42 3 171 c 1 93 6 170 11 170 4 0 144 -137 310 -305 165 -168 301 -308 301 -312 0 -5 -140 -148 -310 -318 l -310 -310 0 173 0 173 -31 -18 c -17 -10 -65 -49 -106 -87 -43 -40 -90 -96 -113 -135 -21 -36 -51 -97 -66 -136 -19 -52 -27 -96 -31 -172 -4 -63 -1 -126 6 -164 7 -35 22 -87 32 -116 11 -29 42 -86 70 -128 l 49 -76 0 -314 c 0 -173 -4 -315 -8 -315 z " style="fill: rgb(0, 238, 255);"/>
  </g>
</svg>