<?xml version="1.0" encoding="UTF-8" standalone="no"?>
<svg
   viewBox="796.989 32.567 511.545 512.226"
   width="511.54501"
   height="512.22601"
   version="1.1"
   id="svg3"
   sodipodi:docname="Workspace.svg"
   xml:space="preserve"
   inkscape:export-filename="FID_Taunt Your Enemies.esp_0x001D65.svg"
   inkscape:export-xdpi="96"
   inkscape:export-ydpi="96"
   inkscape:version="1.3.2 (091e20e, 2023-11-25, custom)"
   xmlns:inkscape="http://www.inkscape.org/namespaces/inkscape"
   xmlns:sodipodi="http://sodipodi.sourceforge.net/DTD/sodipodi-0.dtd"
   xmlns="http://www.w3.org/2000/svg"
   xmlns:svg="http://www.w3.org/2000/svg"><defs
     id="defs3" /><sodipodi:namedview
     id="namedview3"
     pagecolor="#b6b6b6"
     bordercolor="#000000"
     borderopacity="0.25"
     inkscape:showpageshadow="2"
     inkscape:pageopacity="0.0"
     inkscape:pagecheckerboard="0"
     inkscape:deskcolor="#818181"
     inkscape:zoom="0.35355339"
     inkscape:cx="329.51176"
     inkscape:cy="335.16861"
     inkscape:window-width="1920"
     inkscape:window-height="1017"
     inkscape:window-x="-8"
     inkscape:window-y="-8"
     inkscape:window-maximized="1"
     inkscape:current-layer="svg3" /><g
     id="g85"
     inkscape:label="Vanilla"
     style="display:inline"
     transform="translate(507.53289)"><g
       id="g54"
       inkscape:label="Water"
       style="image-rendering:auto"
       transform="matrix(6.2940095,0,0,6.8228979,750.64905,-31.996195)"><path
         d="m 84,77.637277 c -1.9073,-0.7849 -3.9388,-1.2251 -6,-1.3 v 0 c -2.0612,0.0749 -4.0927,0.5151 -6,1.3 -1.2805,0.4994 -2.629,0.8028 -4,0.9 v 0 c -1.371,-0.0972 -2.7195,-0.4006 -4,-0.9 -1.9073,-0.7849 -3.9388,-1.2251 -6,-1.3 v 0 c -2.0612,0.0749 -4.0927,0.5151 -6,1.3 -1.2805,0.4994 -2.629,0.8028 -4,0.9 -1.371,-0.097 -2.7195,-0.4005 -4,-0.9 -1.9073,-0.7849 -3.9388,-1.2251 -6,-1.3 v 0 c -2.0612,0.0749 -4.0927,0.5151 -6,1.3 -1.2805,0.4994 -2.629,0.8028 -4,0.9 -1.371,-0.0972 -2.7195,-0.4006 -4,-0.9 -1.9073,-0.7849 -3.9388,-1.2251 -6,-1.3 v 0 c -2.0612,0.0749 -4.0927,0.5151 -6,1.3 -1.2805,0.4994 -2.629,0.8028 -4,0.9 v 6 c 2.0612,-0.0749 4.0927,-0.5151 6,-1.3 1.2658,-0.546 2.6223,-0.8512 4,-0.9 1.371,0.0972 2.7195,0.4006 4,0.9 1.9073,0.7849 3.9388,1.2251 6,1.3 v 0 c 2.0612,-0.0749 4.0927,-0.5151 6,-1.3 1.2658,-0.546 2.6223,-0.8512 4,-0.9 1.371,0.0972 2.7195,0.4006 4,0.9 1.9073,0.7849 3.9388,1.2251 6,1.3 2.0612,-0.0749 4.0927,-0.5151 6,-1.3 1.2658,-0.546 2.6223,-0.8512 4,-0.9 1.371,0.0972 2.7195,0.4006 4,0.9 1.9073,0.7849 3.9388,1.2251 6,1.3 v 0 c 2.0612,-0.0749 4.0927,-0.5151 6,-1.3 1.2658,-0.546 2.6223,-0.8512 4,-0.9 1.371,0.0972 2.7195,0.4006 4,0.9 1.9073,0.7849 3.9388,1.2251 6,1.3 v -6 c -1.371,-0.0972 -2.7195,-0.4006 -4,-0.9 z"
         id="path6"
         style="fill:#4e95d9;fill-opacity:1;stroke:none;stroke-width:0.999982;stroke-linejoin:miter;stroke-dasharray:none;stroke-opacity:1;image-rendering:auto" /><path
         d="m 84,68.553854 c -1.9073,-0.7849 -3.9388,-1.2251 -6,-1.3 v 0 c -2.0612,0.0749 -4.0927,0.5151 -6,1.3 -1.2805,0.4994 -2.629,0.8028 -4,0.9 v 0 c -1.371,-0.0972 -2.7195,-0.4006 -4,-0.9 -1.9073,-0.7849 -3.9388,-1.2251 -6,-1.3 v 0 c -2.0612,0.0749 -4.0927,0.5151 -6,1.3 -1.2805,0.4994 -2.629,0.8028 -4,0.9 -1.371,-0.097 -2.7195,-0.4005 -4,-0.9 -1.9073,-0.7849 -3.9388,-1.2251 -6,-1.3 v 0 c -2.0612,0.0749 -4.0927,0.5151 -6,1.3 -1.2805,0.4994 -2.629,0.8028 -4,0.9 -1.371,-0.0972 -2.7195,-0.4006 -4,-0.9 -1.9073,-0.7849 -3.9388,-1.2251 -6,-1.3 v 0 c -2.0612,0.0749 -4.0927,0.5151 -6,1.3 -1.2805,0.4994 -2.629,0.8028 -4,0.9 v 6 c 2.0612,-0.0749 4.0927,-0.5151 6,-1.3 1.2658,-0.546 2.6223,-0.8512 4,-0.9 1.371,0.0972 2.7195,0.4006 4,0.9 1.9073,0.7849 3.9388,1.2251 6,1.3 v 0 c 2.0612,-0.0749 4.0927,-0.5151 6,-1.3 1.2658,-0.546 2.6223,-0.8512 4,-0.9 1.371,0.0972 2.7195,0.4006 4,0.9 1.9073,0.7849 3.9388,1.2251 6,1.3 2.0612,-0.0749 4.0927,-0.5151 6,-1.3 1.2658,-0.546 2.6223,-0.8512 4,-0.9 1.371,0.0972 2.7195,0.4006 4,0.9 1.9073,0.7849 3.9388,1.2251 6,1.3 v 0 c 2.0612,-0.0749 4.0927,-0.5151 6,-1.3 1.2658,-0.546 2.6223,-0.8512 4,-0.9 1.371,0.0972 2.7195,0.4006 4,0.9 1.9073,0.7849 3.9388,1.2251 6,1.3 v -6 c -1.371,-0.0972 -2.7195,-0.4006 -4,-0.9 z"
         id="path14"
         style="fill:#4e95d9;fill-opacity:1;stroke:none;stroke-width:0.999982;stroke-linejoin:miter;stroke-dasharray:none;stroke-opacity:1;image-rendering:auto" /></g><g
       id="_326_Water_Polo"
       transform="matrix(6.2940095,0,0,6.8228979,750.64905,-31.996195)"
       style="fill:#ffcc99;fill-opacity:1;image-rendering:auto"
       inkscape:label="Body"><style
         id="style1">
.MsftOfcThm_Text2_lumMod_50_lumOff_50_Fill_v2 {
 fill:#4E95D9; 
}
</style><path
         id="circle1"
         style="fill:#ffcc99;fill-opacity:1;image-rendering:auto"
         d="m 48.000101,20.999999 c -2.199985,0 -4.400209,0.400024 -6.600194,1.000024 -3.199985,0.799995 -5.999959,2.40007 -8.399944,4.40006 -0.6,0.599995 -0.999903,1.39993 -1.199903,2.199925 l -3.160433,14.875737 c 0,0.155137 -0.117852,0.431178 -0.171862,0.733657 1.246185,0.097 2.472199,0.397328 3.629187,0.913465 0.862752,0.364752 1.771297,0.58635 2.695024,0.657343 0.08074,-0.0062 0.160585,-0.01992 0.241067,-0.02843 0.02418,-0.09226 0.0495,-0.18231 0.07297,-0.276193 l 2.894067,-14.048413 -8.37e-4,8.11497 v 4.888886 c 0.189848,-0.07255 0.381551,-0.138836 0.568067,-0.222042 0.852844,-0.398783 1.766786,-0.6217 2.695024,-0.657343 0.923722,0.07099 1.832276,0.292596 2.695024,0.657343 1.285058,0.573273 2.653995,0.894721 4.042744,0.949426 0.04176,-0.0016 0.08334,-0.0054 0.12503,-0.0079 0.04176,0.0025 0.08341,0.0063 0.125238,0.0079 1.388749,-0.05471 2.757686,-0.376154 4.042744,-0.949426 0.862748,-0.364748 1.771302,-0.58635 2.695024,-0.657343 0.928238,0.03564 1.84218,0.258559 2.695024,0.657343 0.186516,0.08321 0.378219,0.149493 0.568067,0.222042 v -4.88889 l -8.37e-4,-8.11497 2.894067,14.048413 c 0.02347,0.09388 0.04879,0.183933 0.07297,0.276193 0.08048,0.0085 0.160327,0.02223 0.241067,0.02843 0.923727,-0.07099 1.832272,-0.292592 2.695024,-0.657343 1.156988,-0.516137 2.383002,-0.816465 3.629187,-0.913465 -0.05401,-0.302479 -0.171862,-0.57852 -0.171862,-0.733657 L 64.45041,28.600008 c -0.2,-0.799995 -0.599903,-1.59993 -1.199903,-2.199925 -2.399986,-1.99999 -5.199959,-3.600065 -8.399944,-4.40006 -2.199985,-0.599999 -4.400209,-1.000024 -6.600194,-1.000024 -0.04175,0 -0.08349,0.0021 -0.125238,0.0027 -0.04168,-6.21e-4 -0.08335,-0.0027 -0.12503,-0.0027 z"
         transform="matrix(1.4842018,0,0,1.3691514,-23.241689,5.3552691)" /><path
         id="path13"
         style="fill:#ffcc99;fill-opacity:1;stroke:none;stroke-width:0.990858;stroke-linecap:round;stroke-linejoin:miter;stroke-dasharray:none;stroke-opacity:1"
         d="m 47.999833,9.4627233 a 10.765325,9.9308327 0 0 0 -10.765129,9.9309437 10.765325,9.9308327 0 0 0 10.765129,9.930657 10.765325,9.9308327 0 0 0 0.157022,-0.01031 10.765325,9.9308327 0 0 0 10.608421,-9.920352 10.765325,9.9308327 0 0 0 -10.608421,-9.9275085 10.765325,9.9308327 0 0 0 -0.157022,-0.00344 z" /></g><g
       id="g24"
       inkscape:label="Bubbles"
       transform="matrix(-16.493807,0,0,17.87979,2584.2492,-19.523912)"
       style="fill:#14f7ef;fill-opacity:1;image-rendering:auto"><path
         d="m 99.871147,21.187947 c -1.31622,0 -2.383218,0.984288 -2.383218,2.198479 0,0.04837 0,0.09527 0,0.146565 1.178755,-0.529218 2.599391,-0.07674 3.173081,1.010641 0.1361,0.25794 0.2159,0.538027 0.23492,0.824357 1.18635,-0.525891 1.68595,-1.83938 1.11587,-2.933768 -0.39564,-0.75956 -1.22715,-1.243651 -2.140653,-1.246274 z m 1.588813,2.051914 c -0.0877,0 -0.15888,-0.06562 -0.15888,-0.146566 0,-0.566621 -0.49793,-1.025957 -1.11217,-1.025957 -0.0878,0 -0.15888,-0.06562 -0.15888,-0.146565 0,-0.08095 0.0711,-0.146565 0.15888,-0.146565 0.78974,0 1.42993,0.59057 1.42993,1.319087 0,0.08095 -0.0711,0.146566 -0.15888,0.146566 z"
         class="MsftOfcThm_Text2_lumMod_50_lumOff_50_Fill_v2"
         fill="#4E95D9"
         id="path16"
         style="fill:#14f7ef;fill-opacity:1;stroke-width:0.152599" /><path
         d="m 98.520657,23.606274 c -1.14072,0 -2.065456,0.853054 -2.065456,1.905349 0,1.052294 0.924736,1.905348 2.065456,1.905348 1.140719,0 2.065453,-0.853054 2.065453,-1.905348 0,-1.052295 -0.924734,-1.905349 -2.065453,-1.905349 z m 1.27105,1.758783 c -0.08775,0 -0.158882,-0.06562 -0.158882,-0.146565 0,-0.404725 -0.355671,-0.732826 -0.794406,-0.732826 -0.08775,0 -0.158881,-0.06562 -0.158881,-0.146566 0,-0.08095 0.07113,-0.146565 0.158881,-0.146565 0.614235,0 1.112169,0.459336 1.112169,1.025957 0,0.08095 -0.07113,0.146565 -0.158881,0.146565 z"
         class="MsftOfcThm_Text2_lumMod_50_lumOff_50_Fill_v2"
         fill="#4E95D9"
         id="path17"
         style="fill:#14f7ef;fill-opacity:1;stroke-width:0.152599" /><path
         d="m 95.343032,21.261229 c -0.789735,0 -1.429931,0.59057 -1.429931,1.319088 0,0.728517 0.640196,1.319088 1.429931,1.319088 0.789735,0 1.429931,-0.590571 1.429931,-1.319088 0,-0.728518 -0.640196,-1.319088 -1.429931,-1.319088 z m 0.714966,1.245805 c -0.08775,0 -0.158882,-0.06562 -0.158882,-0.146565 0,-0.161896 -0.142262,-0.293131 -0.317762,-0.293131 -0.08775,0 -0.158881,-0.06562 -0.158881,-0.146565 0,-0.08095 0.07113,-0.146565 0.158881,-0.146565 0.350984,0 0.635525,0.262484 0.635525,0.586261 0,0.08095 -0.07113,0.146565 -0.158881,0.146565 z"
         class="MsftOfcThm_Text2_lumMod_50_lumOff_50_Fill_v2"
         fill="#4E95D9"
         id="path18"
         style="fill:#14f7ef;fill-opacity:1;stroke-width:0.152599" /><path
         d="m 102.53374,17.154008 c -0.87748,0 -1.58881,0.656188 -1.58881,1.465653 0,0.809466 0.71133,1.465653 1.58881,1.465653 0.87749,0 1.58882,-0.656187 1.58882,-1.465653 0,-0.809465 -0.71133,-1.465653 -1.58882,-1.465653 z m 0.79441,1.417287 c -0.1023,-7.92e-4 -0.18503,-0.07711 -0.18589,-0.171482 0,-0.1886 -0.16575,-0.341497 -0.3702,-0.341497 -0.10266,0 -0.18589,-0.07677 -0.18589,-0.171481 0,-0.09471 0.0832,-0.171482 0.18589,-0.171482 0.40943,8.06e-4 0.74111,0.306776 0.74198,0.68446 -8.6e-4,0.09437 -0.0836,0.17069 -0.18589,0.171482 z"
         class="MsftOfcThm_Text2_lumMod_50_lumOff_50_Fill_v2"
         fill="#4E95D9"
         id="path19"
         style="fill:#14f7ef;fill-opacity:1;stroke-width:0.152599" /><ellipse
         cx="102.81045"
         cy="20.235273"
         class="MsftOfcThm_Text2_lumMod_50_lumOff_50_Fill_v2"
         fill="#4E95D9"
         id="ellipse19"
         rx="1.1471225"
         ry="1.0582013"
         style="fill:#14f7ef;fill-opacity:1;stroke-width:0.152599" /><ellipse
         cx="96.852402"
         cy="19.06275"
         class="MsftOfcThm_Text2_lumMod_50_lumOff_50_Fill_v2"
         fill="#4E95D9"
         id="ellipse21"
         rx="0.98824126"
         ry="0.91163605"
         style="fill:#14f7ef;fill-opacity:1;stroke-width:0.152599"
         inkscape:label="ellipse21" /><ellipse
         cx="94.151421"
         cy="19.795576"
         class="MsftOfcThm_Text2_lumMod_50_lumOff_50_Fill_v2"
         fill="#4E95D9"
         id="ellipse22"
         rx="0.47664371"
         ry="0.43969586"
         style="fill:#14f7ef;fill-opacity:1;stroke-width:0.152599"
         inkscape:label="ellipse22" /></g><g
       id="g53"
       inkscape:label="Bubbles"
       transform="matrix(12.761663,0,0,13.834032,-92.108365,-81.590846)"
       style="fill:#14f7ef;fill-opacity:1;image-rendering:auto"><path
         d="m 99.871147,21.187947 c -1.31622,0 -2.383218,0.984288 -2.383218,2.198479 0,0.04837 0,0.09527 0,0.146565 1.178755,-0.529218 2.599391,-0.07674 3.173081,1.010641 0.1361,0.25794 0.2159,0.538027 0.23492,0.824357 1.18635,-0.525891 1.68595,-1.83938 1.11587,-2.933768 -0.39564,-0.75956 -1.22715,-1.243651 -2.140653,-1.246274 z m 1.588813,2.051914 c -0.0877,0 -0.15888,-0.06562 -0.15888,-0.146566 0,-0.566621 -0.49793,-1.025957 -1.11217,-1.025957 -0.0878,0 -0.15888,-0.06562 -0.15888,-0.146565 0,-0.08095 0.0711,-0.146565 0.15888,-0.146565 0.78974,0 1.42993,0.59057 1.42993,1.319087 0,0.08095 -0.0711,0.146566 -0.15888,0.146566 z"
         class="MsftOfcThm_Text2_lumMod_50_lumOff_50_Fill_v2"
         fill="#4E95D9"
         id="path48"
         style="fill:#14f7ef;fill-opacity:1;stroke-width:0.152599" /><path
         d="m 98.520657,23.606274 c -1.14072,0 -2.065456,0.853054 -2.065456,1.905349 0,1.052294 0.924736,1.905348 2.065456,1.905348 1.140719,0 2.065453,-0.853054 2.065453,-1.905348 0,-1.052295 -0.924734,-1.905349 -2.065453,-1.905349 z m 1.27105,1.758783 c -0.08775,0 -0.158882,-0.06562 -0.158882,-0.146565 0,-0.404725 -0.355671,-0.732826 -0.794406,-0.732826 -0.08775,0 -0.158881,-0.06562 -0.158881,-0.146566 0,-0.08095 0.07113,-0.146565 0.158881,-0.146565 0.614235,0 1.112169,0.459336 1.112169,1.025957 0,0.08095 -0.07113,0.146565 -0.158881,0.146565 z"
         class="MsftOfcThm_Text2_lumMod_50_lumOff_50_Fill_v2"
         fill="#4E95D9"
         id="path49"
         style="fill:#14f7ef;fill-opacity:1;stroke-width:0.152599" /><path
         d="m 95.343032,21.261229 c -0.789735,0 -1.429931,0.59057 -1.429931,1.319088 0,0.728517 0.640196,1.319088 1.429931,1.319088 0.789735,0 1.429931,-0.590571 1.429931,-1.319088 0,-0.728518 -0.640196,-1.319088 -1.429931,-1.319088 z m 0.714966,1.245805 c -0.08775,0 -0.158882,-0.06562 -0.158882,-0.146565 0,-0.161896 -0.142262,-0.293131 -0.317762,-0.293131 -0.08775,0 -0.158881,-0.06562 -0.158881,-0.146565 0,-0.08095 0.07113,-0.146565 0.158881,-0.146565 0.350984,0 0.635525,0.262484 0.635525,0.586261 0,0.08095 -0.07113,0.146565 -0.158881,0.146565 z"
         class="MsftOfcThm_Text2_lumMod_50_lumOff_50_Fill_v2"
         fill="#4E95D9"
         id="path50"
         style="fill:#14f7ef;fill-opacity:1;stroke-width:0.152599" /><ellipse
         cx="96.852402"
         cy="19.06275"
         class="MsftOfcThm_Text2_lumMod_50_lumOff_50_Fill_v2"
         fill="#4E95D9"
         id="ellipse52"
         rx="0.98824126"
         ry="0.91163605"
         style="fill:#14f7ef;fill-opacity:1;stroke-width:0.152599"
         inkscape:label="ellipse21" /><ellipse
         cx="94.151421"
         cy="19.795576"
         class="MsftOfcThm_Text2_lumMod_50_lumOff_50_Fill_v2"
         fill="#4E95D9"
         id="ellipse53"
         rx="0.47664371"
         ry="0.43969586"
         style="fill:#14f7ef;fill-opacity:1;stroke-width:0.152599"
         inkscape:label="ellipse22" /></g></g><style
     id="style1-1">
.MsftOfcThm_Accent2_Fill_v2 {
 fill:#E97132; 
}
</style><g
     id="g5"
     inkscape:label="Remote Interaction"><path
       id="circle1-3"
       style="fill:#ffcc99;fill-opacity:1;stroke-width:11.3844"
       d="m 1116.2569,178.12187 c -37.7242,1.1e-4 -68.3051,30.5809 -68.3052,68.30525 10e-5,37.72433 30.581,68.30759 68.3052,68.30771 37.7243,-1.2e-4 68.3051,-30.58338 68.3052,-68.30771 -1e-4,-37.72435 -30.5809,-68.30514 -68.3052,-68.30525 z m -90.96,147.80959 c -9.0241,0.10614 -18.3676,3.07932 -25.1624,9.87389 l -63.41882,63.41888 -45.2925,-58.88791 c -6.79451,-15.85391 -29.44598,-18.11884 -45.29992,-9.05949 -13.58916,11.32425 -15.85592,33.97382 -6.79647,47.56294 l 67.94739,90.58994 c 6.79451,6.79455 15.8537,13.59047 24.91299,13.59047 9.05943,0 20.3813,-2.26497 27.17603,-9.05949 l 65.6842,-65.6819 -36.13668,136.51422 H 1141.35 l 28.6494,-93.4798 1.9767,3.26744 50.2578,90.21236 h 70.2573 c -0.428,-1.25515 -0.9326,-2.49836 -1.6017,-3.6993 L 1201.4939,380.6265 c -3.9207,-7.03825 -9.9172,-9.04082 -18.5062,-11.34225 L 1034.107,326.74586 c -2.8309,-0.56621 -5.8019,-0.84981 -8.8101,-0.8144 z"
       sodipodi:nodetypes="ccccccccccccsccccccccccccc" /><path
       d="m 870.0488,266.30466 -1.91998,12.21094 c 10.07838,2.06235 19.66673,5.55255 27.97064,10.68826 8.81576,5.4316 16.23741,12.10202 21.95896,20.52762 2.80657,4.01079 5.31839,8.53645 7.31719,12.76372 l 11.57668,-5.26886 c -2.32339,-5.43926 -5.34364,-10.25944 -8.77075,-14.97001 -10.28122,-14.13156 -24.87327,-24.93729 -41.31431,-31.35652 -5.3098,-2.04116 -11.32121,-3.47022 -16.81843,-4.59515 z m -3.44019,24.30835 -1.92739,12.21094 c 6.41339,1.31243 13.04254,3.42812 18.7853,7.0852 5.74287,3.65704 10.89561,8.34386 15.05144,14.15808 2.07785,2.90711 3.63856,5.51389 4.90856,8.63748 l 11.57916,-5.26886 c -1.89038,-3.82333 -3.77688,-7.64829 -6.36705,-10.85114 -4.88453,-6.91792 -11.28127,-12.99639 -18.45215,-17.13679 -7.27942,-4.54424 -15.33193,-7.14751 -23.57787,-8.83491 z m -22.4698,129.02924 -10.87582,4.94804 c 1.77607,3.59185 3.55348,7.18332 5.987,10.19223 4.58877,6.4991 10.58988,12.21169 17.80804,16.37914 6.83874,4.26909 14.40967,6.71168 22.15638,8.29693 l 1.804,-11.46318 c -2.96179,-0.42683 -6.02513,-1.23763 -9.1903,-2.42343 -3.16502,-1.18576 -6.05114,-2.84921 -8.93855,-4.51618 -5.39491,-3.43563 -10.23414,-7.83214 -14.13833,-13.29432 -1.95215,-2.73104 -3.41937,-5.1848 -4.61242,-8.11923 z m -20.7127,9.21249 -10.88076,4.94805 c 4.74485,10.11808 11.18477,18.96344 19.31837,26.54669 3.87683,3.84239 8.41063,7.10792 13.22275,9.88622 9.24479,5.65833 19.69905,9.77448 30.68529,11.30524 l 1.8114,-11.47305 c -9.64433,-1.07675 -18.27917,-4.45774 -26.5615,-9.56048 -8.28223,-5.10259 -14.87414,-11.46999 -20.6288,-19.2838 -2.6366,-3.76798 -4.9874,-8.01801 -6.96675,-12.36887 z"
       style="fill:#585858;fill-opacity:1;stroke-width:1.52238"
       id="path1-3"
       sodipodi:nodetypes="ccccccscccccscccccccccccscscccccccscc"
       inkscape:label="path1-3" /><g
       id="g6"><path
         id="path1"
         style="fill:#585858;fill-opacity:1;stroke-width:3.375"
         d="m 911.17676,68.277786 c -7.42499,0 -13.5,6.075014 -13.5,13.5 v 91.125004 c 0,7.42498 6.07501,13.5 13.5,13.5 h 87.74996 l 33.74998,33.75 v -33.75 h 20.25 c 7.425,0 13.5,-6.07502 13.5,-13.5 V 81.777786 c 0,-7.424986 -6.075,-13.5 -13.5,-13.5 z m 30.87496,43.308594 a 12.020815,12.020815 0 0 1 12.0196,12.02149 12.020815,12.020815 0 0 1 -12.0196,12.01953 12.020815,12.020815 0 0 1 -12.0214,-12.01953 12.020815,12.020815 0 0 1 12.0214,-12.02149 z m 40,0 a 12.020815,12.020815 0 0 1 12.0196,12.02149 12.020815,12.020815 0 0 1 -12.0196,12.01953 12.020815,12.020815 0 0 1 -12.0214,-12.01953 12.020815,12.020815 0 0 1 12.0214,-12.02149 z m 39.99998,0 a 12.020815,12.020815 0 0 1 12.0196,12.02149 12.020815,12.020815 0 0 1 -12.0196,12.01953 12.020815,12.020815 0 0 1 -12.0214,-12.01953 12.020815,12.020815 0 0 1 12.0214,-12.02149 z" /><path
         d="m 857.3606,53.459171 c -3.3492,0 -6.0895,2.740288 -6.0895,6.089521 v 41.104268 c 0,3.34924 2.7403,6.08953 6.0895,6.08953 H 890.853 V 76.294874 c 0,-6.698466 5.4806,-12.179042 12.179,-12.179042 h 24.3581 v -4.56714 c 0,-3.349233 -2.7403,-6.089521 -6.0895,-6.089521 z"
         style="fill:#c0c0c0;fill-opacity:1;stroke-width:1.52238"
         id="path1-6" /><path
         d="m 875.23416,195.74959 c -1.98522,0 -3.60951,-1.62429 -3.60951,-3.60952 v -24.36426 c 0,-1.98524 1.62429,-3.60953 3.60951,-3.60953 h 19.85238 v 18.04761 c 0,3.97047 3.24859,7.21904 7.21902,7.21904 h 14.43809 v 2.70714 c 0,1.98523 -1.62429,3.60952 -3.60951,3.60952 z"
         style="fill:#9c9c9c;fill-opacity:1;stroke-width:0.90238"
         id="path1-2" /><path
         d="m 1141.7006,41.459171 c 6.4292,0 11.6895,5.260291 11.6895,11.68952 v 78.904259 c 0,6.42925 -5.2603,11.68954 -11.6895,11.68954 h -64.2924 V 85.29487 c 0,-12.85846 -10.5206,-23.379041 -23.379,-23.379041 h -46.7581 v -8.767138 c 0,-6.429229 5.2603,-11.68952 11.6895,-11.68952 z"
         style="fill:#808080;fill-opacity:1;stroke-width:2.92238"
         id="path1-30" /></g></g></svg>
