<?xml version="1.0" encoding="UTF-8" standalone="no"?>
<svg
   viewBox="796.989 32.567 511.545 512.226"
   width="511.54501"
   height="512.22601"
   version="1.1"
   id="svg3"
   sodipodi:docname="Workspace.svg"
   xml:space="preserve"
   inkscape:export-filename="Patches\Distinct Sunhelm Patch\SKSE\Plugins\Wheeler\Resources\Icons_custom\FID_SunHelmSurvival.esp_0X4DE9AF.svg"
   inkscape:export-xdpi="96"
   inkscape:export-ydpi="96"
   inkscape:version="1.3.2 (091e20e, 2023-11-25, custom)"
   xmlns:inkscape="http://www.inkscape.org/namespaces/inkscape"
   xmlns:sodipodi="http://sodipodi.sourceforge.net/DTD/sodipodi-0.dtd"
   xmlns="http://www.w3.org/2000/svg"
   xmlns:svg="http://www.w3.org/2000/svg"><defs
     id="defs3" /><sodipodi:namedview
     id="namedview3"
     pagecolor="#b6b6b6"
     bordercolor="#000000"
     borderopacity="0.25"
     inkscape:showpageshadow="2"
     inkscape:pageopacity="0.0"
     inkscape:pagecheckerboard="0"
     inkscape:deskcolor="#818181"
     inkscape:zoom="0.35355339"
     inkscape:cx="1257.2359"
     inkscape:cy="15.556349"
     inkscape:window-width="1920"
     inkscape:window-height="1017"
     inkscape:window-x="-8"
     inkscape:window-y="-8"
     inkscape:window-maximized="1"
     inkscape:current-layer="g2-9" /><g
     id="g85"
     inkscape:label="Vanilla"
     style="display:inline"
     transform="translate(507.53289)"><g
       id="g54"
       inkscape:label="Water"
       style="image-rendering:auto"
       transform="matrix(6.2940095,0,0,6.8228979,750.64905,-31.996195)"><path
         d="m 84,77.637277 c -1.9073,-0.7849 -3.9388,-1.2251 -6,-1.3 v 0 c -2.0612,0.0749 -4.0927,0.5151 -6,1.3 -1.2805,0.4994 -2.629,0.8028 -4,0.9 v 0 c -1.371,-0.0972 -2.7195,-0.4006 -4,-0.9 -1.9073,-0.7849 -3.9388,-1.2251 -6,-1.3 v 0 c -2.0612,0.0749 -4.0927,0.5151 -6,1.3 -1.2805,0.4994 -2.629,0.8028 -4,0.9 -1.371,-0.097 -2.7195,-0.4005 -4,-0.9 -1.9073,-0.7849 -3.9388,-1.2251 -6,-1.3 v 0 c -2.0612,0.0749 -4.0927,0.5151 -6,1.3 -1.2805,0.4994 -2.629,0.8028 -4,0.9 -1.371,-0.0972 -2.7195,-0.4006 -4,-0.9 -1.9073,-0.7849 -3.9388,-1.2251 -6,-1.3 v 0 c -2.0612,0.0749 -4.0927,0.5151 -6,1.3 -1.2805,0.4994 -2.629,0.8028 -4,0.9 v 6 c 2.0612,-0.0749 4.0927,-0.5151 6,-1.3 1.2658,-0.546 2.6223,-0.8512 4,-0.9 1.371,0.0972 2.7195,0.4006 4,0.9 1.9073,0.7849 3.9388,1.2251 6,1.3 v 0 c 2.0612,-0.0749 4.0927,-0.5151 6,-1.3 1.2658,-0.546 2.6223,-0.8512 4,-0.9 1.371,0.0972 2.7195,0.4006 4,0.9 1.9073,0.7849 3.9388,1.2251 6,1.3 2.0612,-0.0749 4.0927,-0.5151 6,-1.3 1.2658,-0.546 2.6223,-0.8512 4,-0.9 1.371,0.0972 2.7195,0.4006 4,0.9 1.9073,0.7849 3.9388,1.2251 6,1.3 v 0 c 2.0612,-0.0749 4.0927,-0.5151 6,-1.3 1.2658,-0.546 2.6223,-0.8512 4,-0.9 1.371,0.0972 2.7195,0.4006 4,0.9 1.9073,0.7849 3.9388,1.2251 6,1.3 v -6 c -1.371,-0.0972 -2.7195,-0.4006 -4,-0.9 z"
         id="path6"
         style="fill:#4e95d9;fill-opacity:1;stroke:none;stroke-width:0.999982;stroke-linejoin:miter;stroke-dasharray:none;stroke-opacity:1;image-rendering:auto" /><path
         d="m 84,68.553854 c -1.9073,-0.7849 -3.9388,-1.2251 -6,-1.3 v 0 c -2.0612,0.0749 -4.0927,0.5151 -6,1.3 -1.2805,0.4994 -2.629,0.8028 -4,0.9 v 0 c -1.371,-0.0972 -2.7195,-0.4006 -4,-0.9 -1.9073,-0.7849 -3.9388,-1.2251 -6,-1.3 v 0 c -2.0612,0.0749 -4.0927,0.5151 -6,1.3 -1.2805,0.4994 -2.629,0.8028 -4,0.9 -1.371,-0.097 -2.7195,-0.4005 -4,-0.9 -1.9073,-0.7849 -3.9388,-1.2251 -6,-1.3 v 0 c -2.0612,0.0749 -4.0927,0.5151 -6,1.3 -1.2805,0.4994 -2.629,0.8028 -4,0.9 -1.371,-0.0972 -2.7195,-0.4006 -4,-0.9 -1.9073,-0.7849 -3.9388,-1.2251 -6,-1.3 v 0 c -2.0612,0.0749 -4.0927,0.5151 -6,1.3 -1.2805,0.4994 -2.629,0.8028 -4,0.9 v 6 c 2.0612,-0.0749 4.0927,-0.5151 6,-1.3 1.2658,-0.546 2.6223,-0.8512 4,-0.9 1.371,0.0972 2.7195,0.4006 4,0.9 1.9073,0.7849 3.9388,1.2251 6,1.3 v 0 c 2.0612,-0.0749 4.0927,-0.5151 6,-1.3 1.2658,-0.546 2.6223,-0.8512 4,-0.9 1.371,0.0972 2.7195,0.4006 4,0.9 1.9073,0.7849 3.9388,1.2251 6,1.3 2.0612,-0.0749 4.0927,-0.5151 6,-1.3 1.2658,-0.546 2.6223,-0.8512 4,-0.9 1.371,0.0972 2.7195,0.4006 4,0.9 1.9073,0.7849 3.9388,1.2251 6,1.3 v 0 c 2.0612,-0.0749 4.0927,-0.5151 6,-1.3 1.2658,-0.546 2.6223,-0.8512 4,-0.9 1.371,0.0972 2.7195,0.4006 4,0.9 1.9073,0.7849 3.9388,1.2251 6,1.3 v -6 c -1.371,-0.0972 -2.7195,-0.4006 -4,-0.9 z"
         id="path14"
         style="fill:#4e95d9;fill-opacity:1;stroke:none;stroke-width:0.999982;stroke-linejoin:miter;stroke-dasharray:none;stroke-opacity:1;image-rendering:auto" /></g><g
       id="_326_Water_Polo"
       transform="matrix(6.2940095,0,0,6.8228979,750.64905,-31.996195)"
       style="fill:#ffcc99;fill-opacity:1;image-rendering:auto"
       inkscape:label="Body"><style
         id="style1">
.MsftOfcThm_Text2_lumMod_50_lumOff_50_Fill_v2 {
 fill:#4E95D9; 
}
</style><path
         id="circle1"
         style="fill:#ffcc99;fill-opacity:1;image-rendering:auto"
         d="m 48.000101,20.999999 c -2.199985,0 -4.400209,0.400024 -6.600194,1.000024 -3.199985,0.799995 -5.999959,2.40007 -8.399944,4.40006 -0.6,0.599995 -0.999903,1.39993 -1.199903,2.199925 l -3.160433,14.875737 c 0,0.155137 -0.117852,0.431178 -0.171862,0.733657 1.246185,0.097 2.472199,0.397328 3.629187,0.913465 0.862752,0.364752 1.771297,0.58635 2.695024,0.657343 0.08074,-0.0062 0.160585,-0.01992 0.241067,-0.02843 0.02418,-0.09226 0.0495,-0.18231 0.07297,-0.276193 l 2.894067,-14.048413 -8.37e-4,8.11497 v 4.888886 c 0.189848,-0.07255 0.381551,-0.138836 0.568067,-0.222042 0.852844,-0.398783 1.766786,-0.6217 2.695024,-0.657343 0.923722,0.07099 1.832276,0.292596 2.695024,0.657343 1.285058,0.573273 2.653995,0.894721 4.042744,0.949426 0.04176,-0.0016 0.08334,-0.0054 0.12503,-0.0079 0.04176,0.0025 0.08341,0.0063 0.125238,0.0079 1.388749,-0.05471 2.757686,-0.376154 4.042744,-0.949426 0.862748,-0.364748 1.771302,-0.58635 2.695024,-0.657343 0.928238,0.03564 1.84218,0.258559 2.695024,0.657343 0.186516,0.08321 0.378219,0.149493 0.568067,0.222042 v -4.88889 l -8.37e-4,-8.11497 2.894067,14.048413 c 0.02347,0.09388 0.04879,0.183933 0.07297,0.276193 0.08048,0.0085 0.160327,0.02223 0.241067,0.02843 0.923727,-0.07099 1.832272,-0.292592 2.695024,-0.657343 1.156988,-0.516137 2.383002,-0.816465 3.629187,-0.913465 -0.05401,-0.302479 -0.171862,-0.57852 -0.171862,-0.733657 L 64.45041,28.600008 c -0.2,-0.799995 -0.599903,-1.59993 -1.199903,-2.199925 -2.399986,-1.99999 -5.199959,-3.600065 -8.399944,-4.40006 -2.199985,-0.599999 -4.400209,-1.000024 -6.600194,-1.000024 -0.04175,0 -0.08349,0.0021 -0.125238,0.0027 -0.04168,-6.21e-4 -0.08335,-0.0027 -0.12503,-0.0027 z"
         transform="matrix(1.4842018,0,0,1.3691514,-23.241689,5.3552691)" /><path
         id="path13"
         style="fill:#ffcc99;fill-opacity:1;stroke:none;stroke-width:0.990858;stroke-linecap:round;stroke-linejoin:miter;stroke-dasharray:none;stroke-opacity:1"
         d="m 47.999833,9.4627233 a 10.765325,9.9308327 0 0 0 -10.765129,9.9309437 10.765325,9.9308327 0 0 0 10.765129,9.930657 10.765325,9.9308327 0 0 0 0.157022,-0.01031 10.765325,9.9308327 0 0 0 10.608421,-9.920352 10.765325,9.9308327 0 0 0 -10.608421,-9.9275085 10.765325,9.9308327 0 0 0 -0.157022,-0.00344 z" /></g><g
       id="g24"
       inkscape:label="Bubbles"
       transform="matrix(-16.493807,0,0,17.87979,2584.2492,-19.523912)"
       style="fill:#14f7ef;fill-opacity:1;image-rendering:auto"><path
         d="m 99.871147,21.187947 c -1.31622,0 -2.383218,0.984288 -2.383218,2.198479 0,0.04837 0,0.09527 0,0.146565 1.178755,-0.529218 2.599391,-0.07674 3.173081,1.010641 0.1361,0.25794 0.2159,0.538027 0.23492,0.824357 1.18635,-0.525891 1.68595,-1.83938 1.11587,-2.933768 -0.39564,-0.75956 -1.22715,-1.243651 -2.140653,-1.246274 z m 1.588813,2.051914 c -0.0877,0 -0.15888,-0.06562 -0.15888,-0.146566 0,-0.566621 -0.49793,-1.025957 -1.11217,-1.025957 -0.0878,0 -0.15888,-0.06562 -0.15888,-0.146565 0,-0.08095 0.0711,-0.146565 0.15888,-0.146565 0.78974,0 1.42993,0.59057 1.42993,1.319087 0,0.08095 -0.0711,0.146566 -0.15888,0.146566 z"
         class="MsftOfcThm_Text2_lumMod_50_lumOff_50_Fill_v2"
         fill="#4E95D9"
         id="path16"
         style="fill:#14f7ef;fill-opacity:1;stroke-width:0.152599" /><path
         d="m 98.520657,23.606274 c -1.14072,0 -2.065456,0.853054 -2.065456,1.905349 0,1.052294 0.924736,1.905348 2.065456,1.905348 1.140719,0 2.065453,-0.853054 2.065453,-1.905348 0,-1.052295 -0.924734,-1.905349 -2.065453,-1.905349 z m 1.27105,1.758783 c -0.08775,0 -0.158882,-0.06562 -0.158882,-0.146565 0,-0.404725 -0.355671,-0.732826 -0.794406,-0.732826 -0.08775,0 -0.158881,-0.06562 -0.158881,-0.146566 0,-0.08095 0.07113,-0.146565 0.158881,-0.146565 0.614235,0 1.112169,0.459336 1.112169,1.025957 0,0.08095 -0.07113,0.146565 -0.158881,0.146565 z"
         class="MsftOfcThm_Text2_lumMod_50_lumOff_50_Fill_v2"
         fill="#4E95D9"
         id="path17"
         style="fill:#14f7ef;fill-opacity:1;stroke-width:0.152599" /><path
         d="m 95.343032,21.261229 c -0.789735,0 -1.429931,0.59057 -1.429931,1.319088 0,0.728517 0.640196,1.319088 1.429931,1.319088 0.789735,0 1.429931,-0.590571 1.429931,-1.319088 0,-0.728518 -0.640196,-1.319088 -1.429931,-1.319088 z m 0.714966,1.245805 c -0.08775,0 -0.158882,-0.06562 -0.158882,-0.146565 0,-0.161896 -0.142262,-0.293131 -0.317762,-0.293131 -0.08775,0 -0.158881,-0.06562 -0.158881,-0.146565 0,-0.08095 0.07113,-0.146565 0.158881,-0.146565 0.350984,0 0.635525,0.262484 0.635525,0.586261 0,0.08095 -0.07113,0.146565 -0.158881,0.146565 z"
         class="MsftOfcThm_Text2_lumMod_50_lumOff_50_Fill_v2"
         fill="#4E95D9"
         id="path18"
         style="fill:#14f7ef;fill-opacity:1;stroke-width:0.152599" /><path
         d="m 102.53374,17.154008 c -0.87748,0 -1.58881,0.656188 -1.58881,1.465653 0,0.809466 0.71133,1.465653 1.58881,1.465653 0.87749,0 1.58882,-0.656187 1.58882,-1.465653 0,-0.809465 -0.71133,-1.465653 -1.58882,-1.465653 z m 0.79441,1.417287 c -0.1023,-7.92e-4 -0.18503,-0.07711 -0.18589,-0.171482 0,-0.1886 -0.16575,-0.341497 -0.3702,-0.341497 -0.10266,0 -0.18589,-0.07677 -0.18589,-0.171481 0,-0.09471 0.0832,-0.171482 0.18589,-0.171482 0.40943,8.06e-4 0.74111,0.306776 0.74198,0.68446 -8.6e-4,0.09437 -0.0836,0.17069 -0.18589,0.171482 z"
         class="MsftOfcThm_Text2_lumMod_50_lumOff_50_Fill_v2"
         fill="#4E95D9"
         id="path19"
         style="fill:#14f7ef;fill-opacity:1;stroke-width:0.152599" /><ellipse
         cx="102.81045"
         cy="20.235273"
         class="MsftOfcThm_Text2_lumMod_50_lumOff_50_Fill_v2"
         fill="#4E95D9"
         id="ellipse19"
         rx="1.1471225"
         ry="1.0582013"
         style="fill:#14f7ef;fill-opacity:1;stroke-width:0.152599" /><ellipse
         cx="96.852402"
         cy="19.06275"
         class="MsftOfcThm_Text2_lumMod_50_lumOff_50_Fill_v2"
         fill="#4E95D9"
         id="ellipse21"
         rx="0.98824126"
         ry="0.91163605"
         style="fill:#14f7ef;fill-opacity:1;stroke-width:0.152599"
         inkscape:label="ellipse21" /><ellipse
         cx="94.151421"
         cy="19.795576"
         class="MsftOfcThm_Text2_lumMod_50_lumOff_50_Fill_v2"
         fill="#4E95D9"
         id="ellipse22"
         rx="0.47664371"
         ry="0.43969586"
         style="fill:#14f7ef;fill-opacity:1;stroke-width:0.152599"
         inkscape:label="ellipse22" /></g><g
       id="g53"
       inkscape:label="Bubbles"
       transform="matrix(12.761663,0,0,13.834032,-92.108365,-81.590846)"
       style="fill:#14f7ef;fill-opacity:1;image-rendering:auto"><path
         d="m 99.871147,21.187947 c -1.31622,0 -2.383218,0.984288 -2.383218,2.198479 0,0.04837 0,0.09527 0,0.146565 1.178755,-0.529218 2.599391,-0.07674 3.173081,1.010641 0.1361,0.25794 0.2159,0.538027 0.23492,0.824357 1.18635,-0.525891 1.68595,-1.83938 1.11587,-2.933768 -0.39564,-0.75956 -1.22715,-1.243651 -2.140653,-1.246274 z m 1.588813,2.051914 c -0.0877,0 -0.15888,-0.06562 -0.15888,-0.146566 0,-0.566621 -0.49793,-1.025957 -1.11217,-1.025957 -0.0878,0 -0.15888,-0.06562 -0.15888,-0.146565 0,-0.08095 0.0711,-0.146565 0.15888,-0.146565 0.78974,0 1.42993,0.59057 1.42993,1.319087 0,0.08095 -0.0711,0.146566 -0.15888,0.146566 z"
         class="MsftOfcThm_Text2_lumMod_50_lumOff_50_Fill_v2"
         fill="#4E95D9"
         id="path48"
         style="fill:#14f7ef;fill-opacity:1;stroke-width:0.152599" /><path
         d="m 98.520657,23.606274 c -1.14072,0 -2.065456,0.853054 -2.065456,1.905349 0,1.052294 0.924736,1.905348 2.065456,1.905348 1.140719,0 2.065453,-0.853054 2.065453,-1.905348 0,-1.052295 -0.924734,-1.905349 -2.065453,-1.905349 z m 1.27105,1.758783 c -0.08775,0 -0.158882,-0.06562 -0.158882,-0.146565 0,-0.404725 -0.355671,-0.732826 -0.794406,-0.732826 -0.08775,0 -0.158881,-0.06562 -0.158881,-0.146566 0,-0.08095 0.07113,-0.146565 0.158881,-0.146565 0.614235,0 1.112169,0.459336 1.112169,1.025957 0,0.08095 -0.07113,0.146565 -0.158881,0.146565 z"
         class="MsftOfcThm_Text2_lumMod_50_lumOff_50_Fill_v2"
         fill="#4E95D9"
         id="path49"
         style="fill:#14f7ef;fill-opacity:1;stroke-width:0.152599" /><path
         d="m 95.343032,21.261229 c -0.789735,0 -1.429931,0.59057 -1.429931,1.319088 0,0.728517 0.640196,1.319088 1.429931,1.319088 0.789735,0 1.429931,-0.590571 1.429931,-1.319088 0,-0.728518 -0.640196,-1.319088 -1.429931,-1.319088 z m 0.714966,1.245805 c -0.08775,0 -0.158882,-0.06562 -0.158882,-0.146565 0,-0.161896 -0.142262,-0.293131 -0.317762,-0.293131 -0.08775,0 -0.158881,-0.06562 -0.158881,-0.146565 0,-0.08095 0.07113,-0.146565 0.158881,-0.146565 0.350984,0 0.635525,0.262484 0.635525,0.586261 0,0.08095 -0.07113,0.146565 -0.158881,0.146565 z"
         class="MsftOfcThm_Text2_lumMod_50_lumOff_50_Fill_v2"
         fill="#4E95D9"
         id="path50"
         style="fill:#14f7ef;fill-opacity:1;stroke-width:0.152599" /><ellipse
         cx="96.852402"
         cy="19.06275"
         class="MsftOfcThm_Text2_lumMod_50_lumOff_50_Fill_v2"
         fill="#4E95D9"
         id="ellipse52"
         rx="0.98824126"
         ry="0.91163605"
         style="fill:#14f7ef;fill-opacity:1;stroke-width:0.152599"
         inkscape:label="ellipse21" /><ellipse
         cx="94.151421"
         cy="19.795576"
         class="MsftOfcThm_Text2_lumMod_50_lumOff_50_Fill_v2"
         fill="#4E95D9"
         id="ellipse53"
         rx="0.47664371"
         ry="0.43969586"
         style="fill:#14f7ef;fill-opacity:1;stroke-width:0.152599"
         inkscape:label="ellipse22" /></g></g><style
     id="style1-1">
.MsftOfcThm_Accent2_Fill_v2 {
 fill:#E97132; 
}
</style><style
     id="style1-1-2">
.MsftOfcThm_Accent2_Fill_v2 {
 fill:#E97132; 
}
</style><style
     id="style1-1-9">
.MsftOfcThm_Accent2_Fill_v2 {
 fill:#E97132; 
}
</style><path
     d="m 901.34189,33.18596 q -24.1125,0 -47.2032,0.81737 V 73.0328 q 23.0907,0.81737 47.2032,0.81737 14.917,0 29.4253,-0.40869 v -40.0512 q -14.5083,-0.20432 -29.4253,-0.20432 v 0 m -52.7205,45.15977 q -14.0996,50.47265 -16.9604,136.29666 -0.4087,16.75611 -0.4087,33.9209 0,0.20436 0,0.40868 h 0.4087 q -1.4304,117.90582 80.1024,204.13855 84.8022,87.86739 207.40791,90.93254 33.7166,1.02173 66.8202,-5.92593 51.4944,-17.98216 75.4025,-67.43313 13.0779,-26.97328 12.8736,-56.80735 0,-54.76389 -38.6208,-93.58903 -38.6208,-38.62079 -93.3847,-38.62079 0,0 0,0 -10.0128,0 -20.0256,1.43039 0.613,-0.40868 1.4304,-0.81737 -19.8213,7.35635 -40.6642,7.35635 -54.7639,0 -93.38471,-42.70766 -30.0384,-33.10352 -36.7818,-79.28501 -4.6998,-54.55953 -14.3039,-88.6848 -16.7561,0.20432 -33.921,0.20432 -28.608,0 -55.9899,-0.81736 v 0 m 83.1675,66.82012 q 3.8825,73.56342 44.3424,123.21871 39.43821,48.22491 91.54571,46.18148 11.2388,-0.61303 22.2733,-3.88251 5.1086,-0.81737 10.0128,-2.04343 7.9694,-1.4304 15.9387,-1.83908 49.8597,-1.83909 86.4371,27.79062 36.5774,29.62971 38.2121,73.35908 1.6348,43.93371 -32.4905,76.42424 -33.9209,32.08181 -83.7806,34.12531 -2.2478,0 -4.4956,0 0,0 0,0 -3.0651,0 -6.1302,-0.20432 0.8174,0.40868 1.6347,0.81733 -31.8775,-0.40865 -62.7332,-7.76503 -63.14201,-19.41254 -109.73211,-63.9593 -76.833,-74.99386 -76.4243,-178.80003 h -0.4087 q 0,-0.20432 0,-0.40868 -0.613,-69.27219 8.7868,-121.1753 20.0256,-0.20432 40.6642,-1.02169 8.1737,-0.40868 16.3474,-0.8174 v 0"
     fill="#ffffff"
     fill-rule="evenodd"
     stroke="none"
     id="path29"
     style="fill:#ffcc99;fill-opacity:1;stroke-width:4.08688" /></svg>
