<?xml version="1.0" encoding="utf-8"?>
<svg viewBox="-6.004 -6.364 512.008 512.796" width="512.008" height="512.796" xmlns="http://www.w3.org/2000/svg" xmlns:bx="https://boxy-svg.com">
  <g style="" transform="matrix(1.1077979803085327, 0, 0, 1.1077979803085327, -70.09656524658203, -60.58147430419922)">
    <title>NFF</title>
    <path id="path-15" d="M 289.278 238.951 C 227.625 238.863 227.186 238.863 225.431 239.741 C 224.466 240.223 223.281 241.189 222.798 241.847 C 221.921 243.032 221.921 243.822 221.789 286.518 L 221.701 330.004 L 222.667 331.452 C 223.237 332.286 224.378 333.339 225.212 333.822 C 226.704 334.743 227.318 334.743 264.573 334.875 L 302.398 334.963 L 315.738 348.566 C 323.066 356.025 329.21 362.037 329.341 361.862 C 329.517 361.73 329.649 355.587 329.649 348.302 L 329.649 335.006 L 340.531 334.875 C 349.834 334.743 351.589 334.655 352.774 333.997 C 353.52 333.558 354.617 332.593 355.187 331.803 L 356.197 330.355 L 356.197 286.913 L 356.197 243.471 L 355.187 242.023 C 354.617 241.233 353.52 240.267 352.774 239.828 C 351.457 239.126 347.245 239.083 289.278 238.951 Z M 257.289 277.04 C 258.693 277.04 260.097 277.435 261.677 278.268 C 263.388 279.146 264.398 280.067 265.319 281.559 C 266.109 282.832 266.679 284.455 266.811 285.816 C 266.943 287.264 266.767 288.668 266.284 289.941 C 265.846 291.038 264.705 292.661 263.652 293.627 C 262.598 294.592 260.975 295.601 260.053 295.865 C 259.088 296.128 257.64 296.347 256.806 296.347 C 255.972 296.347 254.48 295.952 253.515 295.513 C 252.55 295.075 251.189 294.153 250.487 293.451 C 249.785 292.749 248.864 291.389 248.425 290.423 C 247.986 289.458 247.591 287.966 247.591 287.132 C 247.591 286.298 247.811 284.85 248.074 283.929 C 248.337 283.007 249.259 281.428 250.136 280.462 C 251.014 279.453 252.55 278.312 253.515 277.873 C 254.48 277.435 256.192 277.04 257.289 277.04 Z M 288.883 277.04 C 290.287 277.04 291.692 277.435 293.271 278.268 C 294.983 279.146 295.992 280.067 296.913 281.559 C 297.703 282.832 298.274 284.455 298.405 285.816 C 298.537 287.264 298.361 288.668 297.879 289.941 C 297.44 291.038 296.299 292.661 295.246 293.627 C 294.193 294.592 292.569 295.601 291.648 295.865 C 290.682 296.128 289.234 296.347 288.4 296.347 C 287.567 296.347 286.075 295.952 285.109 295.513 C 284.144 295.075 282.784 294.153 282.082 293.451 C 281.379 292.749 280.458 291.389 280.019 290.423 C 279.58 289.458 279.185 287.966 279.185 287.132 C 279.185 286.298 279.405 284.85 279.668 283.929 C 279.931 283.007 280.853 281.428 281.731 280.462 C 282.608 279.453 284.144 278.312 285.109 277.873 C 286.075 277.435 287.786 277.04 288.883 277.04 Z M 320.477 277.04 C 321.882 277.04 323.242 277.435 324.866 278.268 C 326.577 279.146 327.586 280.067 328.508 281.559 C 329.298 282.832 329.868 284.455 330 285.816 C 330.131 287.264 329.956 288.668 329.473 289.941 C 329.034 291.038 327.893 292.661 326.84 293.627 C 325.787 294.592 324.163 295.601 323.242 295.865 C 322.277 296.128 320.872 296.347 320.083 296.347 C 319.293 296.347 317.932 296.04 317.011 295.645 C 316.133 295.294 314.817 294.46 314.159 293.802 C 313.457 293.144 312.491 291.827 312.008 290.906 C 311.438 289.809 311.131 288.273 311.087 286.737 C 311.087 285.07 311.394 283.709 312.008 282.525 C 312.491 281.559 313.457 280.243 314.159 279.585 C 314.817 278.926 316.089 278.093 316.923 277.742 C 317.757 277.391 319.38 277.083 320.477 277.04 Z" style="fill: rgb(255, 204, 153);"/>
    <g>
      <title>Line</title>
      <path d="M 288.948 102.906 L 475.565 238.491 L 404.284 457.873 L 173.612 457.873 L 102.331 238.491 Z" style="fill: rgb(216, 216, 216); stroke: rgb(164, 165, 191); stroke-width: 26.1781px; paint-order: fill; fill-opacity: 0;" bx:shape="n-gon 288.948 299.127 196.221 196.221 5 0 1@70059b78"/>
      <ellipse style="stroke: rgb(0, 0, 0); stroke-opacity: 0; fill: rgb(164, 165, 191);" cx="128.2" cy="270.39" rx="71.66" ry="71.66"/>
      <ellipse style="stroke: rgb(0, 0, 0); stroke-opacity: 0; fill: rgb(164, 165, 191);" cx="449.697" cy="270.39" rx="71.66" ry="71.66"/>
      <ellipse style="stroke: rgb(0, 0, 0); stroke-opacity: 0; fill: rgb(164, 165, 191);" cx="286.43" cy="120.859" rx="71.66" ry="71.66"/>
      <ellipse style="stroke: rgb(0, 0, 0); stroke-opacity: 0; fill: rgb(164, 165, 191);" cx="178.2" cy="439.921" rx="71.66" ry="71.66"/>
      <ellipse style="stroke: rgb(0, 0, 0); stroke-opacity: 0; fill: rgb(164, 165, 191);" cx="399.697" cy="439.921" rx="71.66" ry="71.66"/>
    </g>
    <g id="g-8" transform="matrix(1.326887, 0, 0, 1.326887, 37.391785, 208.448242)" style="">
      <title>Mage</title>
      <path d="M 59.774 7.67 C 65.242 0.178 71.132 0.407 77.444 8.357 C 78.383 9.561 80.022 10.947 82.358 12.512 C 86.55 15.018 88.802 19.041 89.115 24.581 C 90.994 33.302 93.933 40.625 97.932 46.551 C 105.954 56.549 103.654 63.294 91.031 66.787 C 90.814 74.351 92.958 79.446 97.463 82.072 C 78.408 89.275 59.039 89.335 39.358 82.253 C 43.911 79.506 46.067 74.351 45.826 66.787 C 33.227 63.294 30.926 56.549 38.924 46.551 C 42.49 40.481 45.429 33.157 47.741 24.581 C 48.03 19.041 50.271 15.018 54.462 12.512 C 56.799 10.947 58.57 9.333 59.774 7.67 M 79.034 64.041 C 81.708 60.596 84.49 58.669 87.381 58.259 C 92.392 57.633 89.85 47.599 79.757 28.159 C 71.566 31.411 64.002 31.17 57.064 27.436 C 47.018 46.925 44.501 56.982 49.512 57.609 C 52.427 58.042 55.245 60.09 57.967 63.752 C 60.689 67.389 64.182 73.255 68.446 81.349 C 72.758 73.279 76.288 67.51 79.034 64.041" fill-rule="evenodd" stroke="none" style="fill: rgb(237, 218, 135);" id="path6"/>
    </g>
    <g id="g-9" transform="matrix(1.115002, 0, 0, 1.115002, 379.617859, 218.409714)" style="">
      <title>Rogue</title>
      <path d="M 95.021 30.145 L 94.586 28.918 L 70.603 37.822 L 71.869 59.628 L 57.028 59.628 L 58.374 37.783 L 34.59 28.918 L 34.234 29.907 C 32.544 34.498 31.173 39.946 30.118 46.252 L 33.64 47.518 L 33.64 84.601 C 28.362 82.438 23.073 79.653 17.77 76.25 C 17.77 64.615 19.26 53.639 22.242 43.324 C 22.927 41.054 23.68 38.811 24.497 36.595 C 25.711 33.218 27.11 29.907 28.693 26.662 L 28.891 26.187 C 36.172 11.122 47.926 -0.58 64.152 -8.917 C 79.429 -0.58 91.077 10.99 99.097 25.791 L 99.731 26.978 C 101.34 30.119 102.791 33.389 104.084 36.792 L 106.3 43.561 C 109.308 53.771 110.719 64.759 110.535 76.527 C 105.575 79.746 100.285 82.438 94.665 84.601 L 94.665 47.835 L 99.137 46.172 C 98.108 39.946 96.737 34.603 95.021 30.145" fill-rule="evenodd" stroke="none" style="fill: rgb(117, 96, 0);" id="path-8"/>
    </g>
    <g id="g-10" transform="matrix(1.271966, 0, 0, 1.271966, 193.146927, 65.798157)" style="">
      <title>Warrior</title>
      <path d="M 109.207 35.353 C 113.342 46.336 115.315 58.388 115.122 71.506 C 105.372 77.751 94.416 81.818 82.256 83.707 L 82.256 45.419 L 97.785 39.667 L 96.061 34.408 L 94.416 30.423 L 72.93 38.228 L 51.567 30.218 C 50.992 31.532 50.459 32.888 49.965 34.285 C 49.335 35.956 48.788 37.682 48.322 39.461 L 63.605 45.172 L 63.605 83.503 C 52.676 82.435 41.722 78.325 30.738 71.177 C 30.738 58.277 32.779 46.281 36.86 35.188 C 37.983 32.095 39.271 29.081 40.721 26.15 L 40.844 25.74 C 47.5 12.047 58.195 1.406 72.93 -6.181 C 86.817 1.406 97.416 11.922 104.728 25.37 L 105.263 26.438 C 106.742 29.314 108.056 32.285 109.207 35.353" fill-rule="evenodd" stroke="none" style="fill: rgb(107, 117, 133);" id="path-12"/>
    </g>
    <g transform="matrix(0.022538, 0, 0, 0.022538, 121.173035, 474.740234)" fill="#FF9A00" style="">
      <title>Dog</title>
      <path id="path1" d="M 2340 -3694.223 C 2254 -3681.223 2181 -3665.223 2108 -3644.223 C 2045 -3626.223 2040 -3622.223 2040 -3596.223 C 2040 -3542.223 2008 -3478.223 1926 -3368.223 C 1703 -3071.223 1560 -2761.223 1510 -2471.223 C 1494 -2375.223 1490 -2308.223 1490 -2116.223 C 1490 -1542.223 1422 -1098.223 1286 -791.223 C 1272 -759.223 1260 -726.223 1260 -718.223 C 1260 -711.223 1323 -580.223 1400 -427.223 C 1536 -158.223 1622 38.777 1656 159.777 C 1665 194.777 1674 274.777 1677 349.777 C 1683 497.777 1691 520.777 1751 564.777 C 1807 604.777 1878 618.777 1997 612.777 C 2137 604.777 2267 554.777 2402 457.777 L 2450 422.777 L 2450 264.777 L 2450 107.777 L 2383 68.777 C 2297 18.777 2192 -84.223 2157 -154.223 C 2128 -214.223 2120 -298.223 2141 -338.223 C 2163 -381.223 2204 -415.223 2258 -435.223 C 2379 -480.223 2741 -480.223 2862 -435.223 C 2950 -402.223 2990 -349.223 2990 -265.223 C 2990 -157.223 2883 -15.223 2737 68.777 L 2670 107.777 L 2670 264.777 L 2670 422.777 L 2720 458.777 C 2857 556.777 2983 604.777 3123 612.777 C 3242 618.777 3313 604.777 3369 564.777 C 3430 519.777 3440 492.777 3440 367.777 C 3440 172.777 3488 36.777 3706 -398.223 C 3791 -567.223 3860 -712.223 3860 -720.223 C 3860 -727.223 3847 -763.223 3830 -799.223 C 3797 -874.223 3747 -1031.223 3719 -1150.223 C 3660 -1403.223 3640 -1611.223 3630 -2055.223 C 3625 -2261.223 3617 -2451.223 3611 -2476.223 C 3538 -2812.223 3417 -3071.223 3194 -3368.223 C 3112 -3478.223 3080 -3542.223 3080 -3596.223 C 3080 -3622.223 3075 -3626.223 3012 -3644.223 C 2849 -3691.223 2737 -3705.223 2548 -3704.223 C 2464 -3703.223 2370 -3699.223 2340 -3694.223 Z M 2054 -2190.223 C 2162 -2138.223 2220 -2023.223 2198 -1904.223 C 2175 -1779.223 2070 -1693.223 1939 -1694.223 C 1714 -1695.223 1600 -1957.223 1751 -2129.223 C 1823 -2211.223 1956 -2237.223 2054 -2190.223 Z M 3265 -2198.223 C 3296 -2188.223 3332 -2164.223 3361 -2135.223 C 3524 -1972.223 3412 -1695.223 3181 -1694.223 C 2982 -1693.223 2857 -1892.223 2945 -2071.223 C 3003 -2189.223 3137 -2242.223 3265 -2198.223 Z M 1650 -3625.223 C 1440 -3573.223 1104 -3411.223 835 -3232.223 C 274 -2858.223 -22 -2448.223 3 -2080.223 C 14 -1934.223 52 -1835.223 165 -1661.223 C 419 -1268.223 554 -950.223 624 -576.223 C 638 -503.223 655 -436.223 661 -429.223 C 679 -407.223 711 -413.223 775 -450.223 C 897 -521.223 976 -608.223 1055 -758.223 C 1215 -1062.223 1290 -1465.223 1290 -2017.223 C 1290 -2320.223 1304 -2461.223 1350 -2641.223 C 1421 -2915.223 1575 -3229.223 1756 -3466.223 C 1845 -3583.223 1858 -3608.223 1840 -3630.223 C 1823 -3650.223 1745 -3649.223 1650 -3625.223 Z M 3280 -3630.223 C 3263 -3609.223 3275 -3583.223 3349 -3486.223 C 3521 -3261.223 3670 -2975.223 3744 -2732.223 C 3812 -2506.223 3830 -2362.223 3829 -2022.223 C 3829 -1604.223 3865 -1313.223 3950 -1041.223 C 4046 -735.223 4164 -556.223 4341 -452.223 C 4408 -413.223 4440 -406.223 4459 -429.223 C 4465 -436.223 4482 -502.223 4495 -574.223 C 4566 -950.223 4701 -1267.223 4956 -1661.223 C 5025 -1768.223 5075 -1867.223 5097 -1943.223 C 5121 -2023.223 5120 -2218.223 5097 -2305.223 C 5074 -2387.223 4995 -2551.223 4938 -2632.223 C 4710 -2957.223 4255 -3300.223 3766 -3517.223 C 3527 -3623.223 3315 -3672.223 3280 -3630.223 Z" style="fill: rgb(224, 224, 224);"/>
    </g>
    <g transform="matrix(0.106374, 0, 0, 0.106374, 342.024597, 398.0177)" id="g137" style="">
      <title>Daedra</title>
      <path d="m 478.55,275.45 q 9.65,-12.1 21.3,-18 29.35,-18.15 68.3,-11.6 88.75,20.6 79.5,125.55 Q 624.25,484.8 525.2,485.5 433.95,476.7 397.75,361.05 373,262.7 423.6,156.3 q -214.85,296.3 60.65,653.55 -17.95,12.5 -49.3,0 Q 165.8,605.25 282.3,7.75 l -54.9,-48.8 h 592.4 l -67.9,58.2 Q 952.15,688.25 601.2,925.3 579.55,923.95 585.45,909.3 758.7,719.4 732.45,418.7 696.5,7.75 397.6,4.9 q -21.3,42.3 95.2,83.95 -76.4,106.9 -82.3,245.05 1.95,76.65 87.55,110.2 81.5,15.7 114.75,-46.45 17.35,-73.65 -16.85,-76.9 1.1,7.4 1.1,15.8 0,35.7 -20.6,60.45 -20.1,25.6 -48.8,25.6 -28.9,0 -49.1,-25.6 -20.1,-24.75 -20.1,-60.45 0,-35.7 20.1,-61.1" fill-rule="evenodd" stroke="none" id="path135" style="fill:#993899"/>
    </g>
  </g>
</svg>