<?xml version="1.0" encoding="utf-8"?>
<svg viewBox="796.989 32.567 511.545 512.226" width="511.545px" height="512.226px" xmlns="http://www.w3.org/2000/svg">
  <g transform="matrix(0.10002099722623825, 0, 0, 0.10002099722623825, 796.7757568359375, 544.7737426757812)" fill="#FF9A00">
    <path id="path1" d="M 1335 -5091 c 19 38 41 144 50 241 l 7 75 -53 -52 c -56 -53 -169 -136 -176 -129 -3 2 0 13 5 23 33 62 42 338 17 538 -21 170 -21 170 -89 259 -150 197 -316 550 -501 1069 -55 152 -73 191 -128 270 -124 177 -152 264 -144 437 11 227 102 332 343 395 179 47 321 -17 399 -179 19 -39 37 -91 41 -114 4 -24 12 -45 18 -46 6 -2 45 -11 86 -20 100 -23 257 -100 360 -177 107 -79 252 -219 332 -320 34 -44 66 -79 71 -79 22 0 121 77 181 140 70 74 119 165 152 280 29 101 27 370 -4 508 -54 240 -158 480 -301 692 -46 69 -102 161 -123 205 -94 199 -120 469 -73 774 15 96 60 289 70 300 7 7 218 -18 377 -44 660 -111 1236 -370 1612 -725 247 -235 468 -604 560 -938 48 -174 58 -242 63 -437 5 -162 2 -208 -15 -310 -24 -140 -58 -254 -107 -361 -19 -42 -35 -79 -35 -82 0 -10 87 10 156 37 40 16 125 58 190 95 64 37 118 65 120 63 8 -8 -38 -123 -91 -225 -131 -252 -365 -515 -693 -776 -137 -109 -313 -234 -445 -316 l -87 -55 42 -9 c 49 -9 194 5 333 33 49 10 91 18 93 16 8 -7 -216 -185 -313 -250 -466 -310 -1071 -431 -1620 -324 -55 10 -101 19 -102 19 0 0 -11 -19 -22 -43 -51 -104 -279 -303 -533 -463 l -39 -25 16 30 z " style="fill: rgb(255, 204, 153);"/>
  </g>
</svg>