<?xml version="1.0" encoding="utf-8"?>
<svg viewBox="796.989 32.567 511.545 512.226" width="511.545px" height="512.226px" xmlns="http://www.w3.org/2000/svg">
  <g transform="matrix(0.09971600025892259, 0, 0, 0.09971600025892259, 750.1223144531251, 592.81494140625)" fill="#FF9A00">
    <path id="path-2" d="M 3964.332 -2015.756 C 3954.647 -2015.756 3882.975 -1947.958 3797.743 -1855.946 C 3681.518 -1731.973 3639.871 -1693.231 3608.878 -1682.578 C 3586.601 -1674.829 3417.106 -1633.182 3230.178 -1589.598 C 3043.25 -1546.013 2680.047 -1461.75 2421.446 -1400.732 C 2162.846 -1340.683 1789.957 -1253.514 1593.344 -1207.024 C 1396.73 -1161.502 1223.361 -1118.887 1208.833 -1113.075 C 1190.43 -1106.296 1177.839 -1090.799 1168.154 -1062.711 C 1160.406 -1041.403 1148.783 -1005.567 1142.972 -984.259 C 1138.129 -962.951 1133.286 -908.713 1133.286 -863.192 C 1133.286 -817.67 1139.098 -758.589 1146.846 -732.439 C 1153.626 -706.288 1169.122 -665.609 1180.745 -642.364 C 1192.367 -619.119 1216.581 -584.252 1234.983 -563.913 C 1253.386 -543.573 1288.253 -516.454 1311.498 -503.863 L 1354.114 -481.587 L 1474.213 -517.423 C 1540.074 -536.793 1722.159 -592 1879.063 -639.459 C 2035.967 -687.886 2165.751 -724.69 2168.657 -722.753 C 2170.594 -719.848 2167.688 -687.886 2160.909 -651.081 C 2155.097 -613.308 2150.255 -570.692 2150.255 -554.227 C 2150.255 -533.888 2157.034 -521.297 2171.563 -513.548 C 2184.154 -506.769 2219.021 -503.863 2263.574 -506.769 C 2302.316 -509.674 2336.215 -513.548 2338.152 -515.485 C 2340.089 -517.423 2406.918 -648.176 2485.37 -805.079 L 2629.683 -1090.799 L 2632.588 -981.354 C 2633.557 -922.273 2638.399 -872.877 2642.274 -872.877 C 2646.148 -872.877 2812.737 -922.273 3012.256 -983.291 C 3211.776 -1043.34 3624.374 -1168.282 3927.528 -1260.294 C 4230.681 -1352.305 4486.376 -1433.662 4494.124 -1441.411 C 4504.778 -1451.096 4508.652 -1478.215 4508.652 -1554.73 C 4508.652 -1649.647 4506.715 -1657.395 4474.753 -1721.319 C 4439.886 -1788.149 4439.886 -1788.149 4402.113 -1786.211 C 4380.805 -1785.243 4258.769 -1755.218 4131.89 -1721.319 C 4004.042 -1686.452 3898.471 -1659.333 3896.534 -1660.301 C 3895.566 -1662.238 3938.182 -1714.539 3991.451 -1776.526 C 4083.463 -1883.066 4089.274 -1891.782 4083.463 -1922.776 C 4079.589 -1940.209 4069.903 -1961.517 4060.218 -1969.266 C 4051.501 -1977.983 4030.193 -1991.542 4012.759 -2000.259 C 3995.326 -2008.976 3974.018 -2015.756 3964.332 -2015.756 Z M 1737.656 -1899.531 C 1731.845 -1899.531 1709.568 -1886.94 1688.261 -1871.443 C 1665.984 -1855.946 1637.896 -1827.859 1624.337 -1810.425 C 1610.777 -1792.991 1591.406 -1759.092 1581.721 -1734.879 C 1571.067 -1707.76 1564.287 -1668.049 1565.256 -1628.339 C 1565.256 -1578.944 1572.036 -1550.856 1594.312 -1503.397 L 1622.4 -1442.379 L 1776.398 -1395.889 L 1930.396 -1349.399 L 2452.44 -1471.436 C 2739.128 -1539.233 2973.515 -1596.377 2973.515 -1599.283 C 2973.515 -1602.189 2697.48 -1670.955 2361.397 -1752.313 C 2024.344 -1833.67 1743.467 -1899.531 1737.656 -1899.531 Z M 4251.989 -1289.35 C 4238.429 -1288.381 4009.854 -1221.552 3743.505 -1140.194 C 3477.156 -1058.837 3246.643 -988.134 3230.178 -982.322 C 3209.839 -974.574 3204.996 -970.7 3215.65 -966.826 C 3223.398 -962.951 3377.396 -917.43 3556.576 -863.192 C 3736.725 -809.922 4008.885 -729.533 4162.883 -683.043 C 4315.913 -637.522 4505.747 -580.378 4586.136 -556.164 L 4730.448 -511.611 L 4784.687 -569.724 C 4814.711 -601.686 4851.516 -649.144 4866.044 -675.295 C 4881.541 -701.445 4901.88 -745.998 4911.565 -775.054 C 4921.251 -804.111 4929.968 -831.23 4929.968 -835.104 C 4929.968 -839.947 4885.415 -866.097 4831.177 -894.185 L 4731.417 -945.518 L 4836.019 -948.423 C 4929.968 -950.36 4940.622 -953.266 4935.779 -967.794 C 4933.842 -976.511 4928.031 -999.756 4925.125 -1018.158 C 4921.251 -1036.561 4909.628 -1072.397 4898.974 -1097.579 L 4879.604 -1143.1 L 4578.387 -1215.741 C 4411.798 -1256.419 4265.549 -1289.35 4251.989 -1289.35 Z" style="fill: rgb(255, 204, 153);"/>
    <path id="path-3" d="M 3009.067 -5575.434 C 2994.067 -5552.434 2844.067 -5306.433 2676.066 -5028.432 C 2507.065 -4750.431 2365.065 -4516.43 2360.065 -4508.43 C 2354.065 -4500.43 2345.065 -4484.43 2340.065 -4473.43 C 2334.065 -4462.429 2322.065 -4441.429 2312.065 -4426.429 C 2303.065 -4412.429 2250.064 -4326.429 2195.064 -4237.429 C 2140.064 -4147.428 2092.064 -4067.428 2087.064 -4058.428 C 2083.064 -4050.428 2072.064 -4031.428 2062.064 -4016.428 C 2053.064 -4001.428 1973.063 -3871.427 1885.063 -3726.427 C 1797.063 -3582.426 1720.062 -3455.425 1715.062 -3446.425 C 1710.062 -3436.425 1641.062 -3324.425 1563.062 -3196.424 C 1486.061 -3068.424 1353.061 -2850.423 1270.06 -2713.422 C 1186.06 -2576.422 1114.06 -2459.421 1109.06 -2453.421 C 1103.06 -2447.421 1028.059 -2515.422 905.059 -2638.422 L 711.058 -2832.423 L 621.058 -2743.423 C 571.058 -2694.422 530.057 -2650.422 530.057 -2644.422 C 530.057 -2638.422 572.058 -2592.422 622.058 -2541.422 L 715.058 -2448.421 L 490.057 -2448.421 L 490.057 -2058.42 L 5579.965 -2058.42 L 5579.965 -2448.421 L 5354.964 -2448.421 L 5447.964 -2541.422 C 5497.964 -2592.422 5539.964 -2638.423 5539.964 -2644.423 C 5539.964 -2650.423 5498.964 -2694.422 5448.964 -2743.423 L 5358.964 -2832.423 L 5164.963 -2638.423 C 5041.962 -2515.422 4966.961 -2447.421 4960.962 -2453.421 C 4955.962 -2459.421 4883.962 -2576.422 4799.961 -2713.422 C 4716.961 -2850.423 4583.961 -3068.424 4506.959 -3196.424 C 4428.96 -3324.425 4359.96 -3436.425 4354.96 -3446.425 C 4349.96 -3455.425 4272.959 -3582.426 4184.959 -3726.427 C 4096.959 -3871.428 4016.958 -4001.428 4007.957 -4016.428 C 3997.957 -4031.428 3986.957 -4050.428 3982.957 -4058.428 C 3977.958 -4067.428 3929.958 -4147.429 3874.958 -4237.429 C 3819.957 -4326.429 3766.956 -4412.429 3757.956 -4426.429 C 3747.956 -4441.429 3735.956 -4462.429 3729.957 -4473.43 C 3724.957 -4484.43 3715.957 -4500.43 3709.957 -4508.43 C 3704.957 -4516.43 3562.956 -4750.431 3393.956 -5028.432 C 3225.955 -5306.433 3075.954 -5552.434 3060.954 -5575.435 C 3054.164 -5587.074 3047.139 -5597.538 3041.362 -5605.228 C 3041.273 -5613.925 3041.175 -5618.434 3041.068 -5618.434 C 3040.117 -5618.434 3037.96 -5616.525 3035.011 -5613.152 C 3032.062 -5616.525 3029.905 -5618.435 3028.953 -5618.435 C 3028.846 -5618.435 3028.748 -5613.925 3028.659 -5605.227 C 3022.882 -5597.537 3015.857 -5587.073 3009.067 -5575.434 Z" style="transform-origin: 3035.01px -3838.43px; fill: rgb(255, 204, 153);"/>
    <path id="path1" d="M 3613.326 -3425.767 L 3070.69 -3425.767 L 3070.69 -3328.32 L 3070.69 -3230.883 L 3208.785 -3230.883 C 3285.055 -3230.883 3346.209 -3229.538 3345.536 -3227.862 C 3344.863 -3226.517 3312.946 -3149.233 3274.305 -3056.505 L 3204.089 -2888.168 L 2984.343 -2888.168 L 2764.94 -2888.168 L 2764.94 -2827.686 L 2764.94 -2767.215 L 2958.468 -2767.215 C 3141.248 -2767.215 3152.008 -2766.874 3150.662 -2761.163 C 3149.648 -2758.142 3111.017 -2664.729 3064.648 -2553.853 C 3018.278 -2442.978 2979.636 -2349.565 2978.291 -2346.213 C 2975.942 -2340.834 2982.326 -2340.502 3081.107 -2340.502 L 3186.614 -2340.502 L 3275.319 -2553.853 L 3363.682 -2767.215 L 3613.326 -2767.215 L 3862.971 -2767.215 L 3875.406 -2737.647 C 3882.121 -2721.518 3921.765 -2626.099 3963.77 -2525.299 L 4040.039 -2342.179 L 4145.204 -2341.176 C 4202.996 -2340.834 4250.038 -2341.848 4250.038 -2343.181 C 4250.038 -2344.869 4241.637 -2366.367 4231.219 -2391.239 C 4220.8 -2416.099 4209.379 -2442.647 4206.017 -2450.364 C 4202.665 -2458.093 4199.634 -2465.149 4199.634 -2466.164 C 4199.634 -2467.166 4195.94 -2476.239 4191.232 -2486.316 C 4186.535 -2496.403 4182.842 -2505.476 4182.842 -2506.48 C 4182.842 -2507.484 4179.138 -2516.557 4174.442 -2526.644 C 4169.734 -2536.721 4166.04 -2545.794 4166.04 -2546.798 C 4166.04 -2548.143 4163.009 -2555.54 4159.315 -2563.93 C 4155.622 -2572.331 4139.834 -2609.628 4124.378 -2646.925 C 4108.922 -2684.563 4093.795 -2721.187 4090.443 -2728.574 C 4087.082 -2735.96 4082.374 -2747.051 4079.685 -2753.434 C 4077.336 -2759.486 4075.318 -2765.197 4075.318 -2765.87 C 4075.318 -2766.543 4163.009 -2767.215 4270.191 -2767.215 L 4465.075 -2767.215 L 4464.403 -2827.024 L 4463.389 -2886.492 L 4243.313 -2888.168 L 4023.579 -2889.854 L 4013.161 -2915.046 C 4007.45 -2928.827 3999.38 -2947.304 3995.356 -2956.047 C 3991.32 -2965.11 3984.265 -2980.566 3979.558 -2990.654 C 3974.861 -3001.061 3971.156 -3010.476 3971.156 -3011.821 C 3971.156 -3013.497 3967.463 -3022.57 3962.756 -3031.974 C 3958.059 -3041.72 3954.365 -3050.793 3954.365 -3052.139 C 3954.365 -3053.814 3950.662 -3062.888 3945.965 -3072.292 C 3941.257 -3082.038 3937.565 -3090.78 3937.565 -3092.126 C 3937.565 -3093.801 3924.797 -3125.045 3909.34 -3162.011 L 3881.448 -3229.207 L 4018.541 -3230.21 L 4155.953 -3230.883 L 4155.953 -3328.32 L 4155.953 -3425.767 L 3613.326 -3425.767 Z M 3612.985 -3230.883 L 3670.446 -3230.883 L 3728.568 -3090.438 C 3760.496 -3013.497 3792.743 -2936.214 3799.799 -2919.081 L 3812.907 -2888.168 L 3613.657 -2888.168 L 3414.418 -2888.168 L 3467.172 -3016.518 C 3496.068 -3087.418 3527.984 -3164.359 3537.73 -3187.876 L 3555.203 -3230.883 L 3612.985 -3230.883 Z" style="fill: rgb(164, 165, 191);"/>
    <path id="path-41" d="M 3699.834 -3798.883 C 3699.834 -3805.623 3698.037 -3815.508 3695.79 -3820.451 C 3693.544 -3825.393 3636.93 -3885.152 3570.431 -3952.999 L 3449.565 -4076.561 L 3471.582 -4099.925 C 3483.713 -4112.955 3495.845 -4128.681 3498.091 -4134.972 C 3500.787 -4141.712 3502.585 -4152.944 3502.585 -4160.134 C 3502.585 -4167.772 3499.889 -4179.005 3496.294 -4185.744 C 3492.7 -4192.484 3467.987 -4219.443 3441.028 -4245.504 C 3400.141 -4285.492 3388.908 -4294.03 3374.08 -4296.276 C 3363.746 -4298.073 3350.266 -4297.175 3343.078 -4294.479 C 3335.439 -4291.783 3319.264 -4279.202 3306.234 -4266.621 L 3282.869 -4243.706 L 3233.894 -4290.885 L 3184.469 -4338.062 L 3000.699 -4408.156 C 2900.052 -4446.797 2805.246 -4482.742 2790.868 -4488.134 C 2773.795 -4493.975 2758.967 -4496.222 2749.981 -4494.874 C 2742.342 -4493.077 2730.66 -4486.337 2723.92 -4479.597 C 2717.63 -4472.857 2709.992 -4461.624 2707.745 -4454.884 C 2705.049 -4447.696 2702.802 -4437.811 2702.802 -4432.868 C 2702.802 -4427.925 2732.907 -4330.873 2770.2 -4217.646 C 2807.044 -4104.418 2840.743 -4005.119 2844.786 -3997.032 C 2848.83 -3988.944 2869.049 -3965.13 2889.718 -3944.012 L 2927.46 -3905.821 L 2265.169 -3272.285 C 1901.223 -2923.617 1599.732 -2633.359 1595.688 -2627.068 C 1591.645 -2620.328 1588.5 -2606.4 1588.5 -2596.515 C 1588.5 -2586.18 1591.195 -2572.252 1594.79 -2565.512 C 1598.384 -2558.772 1640.171 -2514.739 1688.248 -2467.561 C 1753.848 -2402.41 1778.56 -2380.394 1789.343 -2378.147 C 1797.431 -2376.799 1810.911 -2377.248 1819.448 -2380.394 C 1830.681 -2383.988 1907.963 -2462.618 2133.07 -2698.509 C 2297.07 -2870.597 2549.586 -3136.143 2693.816 -3288.011 C 2838.496 -3440.33 2990.814 -3600.735 3033.05 -3644.319 L 3108.984 -3724.297 L 3224.009 -3610.171 C 3286.913 -3547.267 3343.527 -3492.45 3349.817 -3488.406 C 3356.108 -3484.362 3370.037 -3481.217 3382.618 -3481.217 L 3404.184 -3481.217 L 3545.27 -3618.708 C 3623.001 -3694.642 3689.5 -3762.938 3693.544 -3771.026 C 3697.139 -3779.114 3700.284 -3791.695 3699.834 -3798.883 Z" style="fill: rgb(164, 165, 191); transform-origin: 2644.19px -3436.34px;"/>
  </g>
</svg>