<?xml version="1.0" encoding="utf-8"?>
<svg viewBox="796.989 32.567 511.545 512.226" width="511.545px" height="512.226px" xmlns="http://www.w3.org/2000/svg">
  <path id="path-41" d="M 1129.771 142.327 C 1129.771 141.264 1129.487 139.706 1129.133 138.927 C 1128.78 138.148 1119.856 128.73 1109.375 118.035 L 1090.325 98.56 L 1093.795 94.877 C 1095.707 92.824 1097.618 90.345 1097.972 89.353 C 1098.397 88.29 1098.681 86.52 1098.681 85.388 C 1098.681 84.184 1098.256 82.413 1097.69 81.351 C 1097.123 80.289 1093.228 76.039 1088.979 71.932 C 1082.535 65.628 1080.764 64.283 1078.426 63.929 C 1076.798 63.646 1074.673 63.788 1073.54 64.212 C 1072.336 64.637 1069.787 66.62 1067.733 68.604 L 1064.05 72.215 L 1056.331 64.778 L 1048.541 57.343 L 1019.575 46.295 C 1003.712 40.205 988.769 34.538 986.503 33.689 C 983.811 32.768 981.474 32.414 980.058 32.627 C 978.854 32.909 977.013 33.972 975.95 35.035 C 974.959 36.096 973.755 37.867 973.401 38.929 C 972.976 40.063 972.621 41.621 972.621 42.4 C 972.621 43.179 977.367 58.476 983.245 76.322 C 989.052 94.169 994.364 109.82 995.001 111.095 C 995.638 112.37 998.825 116.123 1002.083 119.451 L 1008.032 125.471 L 903.643 225.328 C 846.279 280.283 798.759 326.033 798.122 327.025 C 797.485 328.087 796.989 330.283 796.989 331.841 C 796.989 333.47 797.414 335.664 797.98 336.727 C 798.547 337.789 805.132 344.73 812.711 352.166 C 823.05 362.434 826.945 365.905 828.645 366.259 C 829.919 366.471 832.045 366.4 833.39 365.905 C 835.161 365.339 847.342 352.945 882.823 315.764 C 908.672 288.64 948.473 246.786 971.206 222.849 C 994.01 198.84 1018.017 173.558 1024.675 166.689 L 1036.644 154.083 L 1054.772 172.07 C 1064.687 181.985 1073.611 190.626 1074.602 191.263 C 1075.594 191.9 1077.789 192.396 1079.772 192.396 L 1083.171 192.396 L 1105.409 170.726 C 1117.661 158.757 1128.142 147.992 1128.78 146.717 C 1129.346 145.442 1129.841 143.46 1129.771 142.327 Z" style="fill: rgb(164, 165, 191); transform-origin: 963.379px 199.471px;"/>
  <g transform="matrix(0.08399000763893127, 0, 0, 0.08399000763893127, 864.2268676757812, 640.5416259765625)" fill="#FF9A00" style="">
    <path id="path1" d="M 2755 -4370 l -1615 0 0 290 0 290 411 0 c 227 0 409 4 407 9 -2 4 -97 234 -212 510 l -209 501 -654 0 -653 0 0 180 0 180 576 0 c 544 0 576 1 572 18 -3 9 -118 287 -256 617 -138 330 -253 608 -257 618 -7 16 12 17 306 17 l 314 0 264 -635 263 -635 743 0 743 0 37 88 c 20 48 138 332 263 632 l 227 545 313 3 c 172 1 312 -2 312 -6 0 -5 -25 -69 -56 -143 -31 -74 -65 -153 -75 -176 -10 -23 -19 -44 -19 -47 0 -3 -11 -30 -25 -60 -14 -30 -25 -57 -25 -60 0 -3 -11 -30 -25 -60 -14 -30 -25 -57 -25 -60 0 -4 -9 -26 -20 -51 -11 -25 -58 -136 -104 -247 -46 -112 -91 -221 -101 -243 -10 -22 -24 -55 -32 -74 -7 -18 -13 -35 -13 -37 0 -2 261 -4 580 -4 l 580 0 -2 -178 -3 -177 -655 -5 -654 -5 -31 -75 c -17 -41 -41 -96 -53 -122 -12 -27 -33 -73 -47 -103 -14 -31 -25 -59 -25 -63 0 -5 -11 -32 -25 -60 -14 -29 -25 -56 -25 -60 0 -5 -11 -32 -25 -60 -14 -29 -25 -55 -25 -59 0 -5 -38 -98 -84 -208 l -83 -200 408 -3 409 -2 0 -290 0 -290 -1615 0 z m -1 580 l 171 0 173 418 c 95 229 191 459 212 510 l 39 92 -593 0 -593 0 157 -382 c 86 -211 181 -440 210 -510 l 52 -128 172 0 z " style="fill: rgb(255, 204, 153);"/>
  </g>
</svg>