<?xml version="1.0" encoding="UTF-8" standalone="no"?>
<svg
   viewBox="796.989 32.567 511.545 512.226"
   width="511.54501"
   height="512.22601"
   version="1.1"
   id="svg3"
   sodipodi:docname="Workspace.svg"
   xml:space="preserve"
   inkscape:export-filename="Patches\Distinct Sunhelm Patch\SKSE\Plugins\Wheeler\Resources\Icons_custom\FID_SunHelmSurvival.esp_0X4DE9AE.svg"
   inkscape:export-xdpi="96"
   inkscape:export-ydpi="96"
   inkscape:version="1.3.2 (091e20e, 2023-11-25, custom)"
   xmlns:inkscape="http://www.inkscape.org/namespaces/inkscape"
   xmlns:sodipodi="http://sodipodi.sourceforge.net/DTD/sodipodi-0.dtd"
   xmlns="http://www.w3.org/2000/svg"
   xmlns:svg="http://www.w3.org/2000/svg"><defs
     id="defs3" /><sodipodi:namedview
     id="namedview3"
     pagecolor="#b6b6b6"
     bordercolor="#000000"
     borderopacity="0.25"
     inkscape:showpageshadow="2"
     inkscape:pageopacity="0.0"
     inkscape:pagecheckerboard="0"
     inkscape:deskcolor="#818181"
     inkscape:zoom="0.35355339"
     inkscape:cx="1257.2359"
     inkscape:cy="15.556349"
     inkscape:window-width="1920"
     inkscape:window-height="1017"
     inkscape:window-x="-8"
     inkscape:window-y="-8"
     inkscape:window-maximized="1"
     inkscape:current-layer="g2-9" /><g
     id="g85"
     inkscape:label="Vanilla"
     style="display:inline"
     transform="translate(507.53289)"><g
       id="g54"
       inkscape:label="Water"
       style="image-rendering:auto"
       transform="matrix(6.2940095,0,0,6.8228979,750.64905,-31.996195)"><path
         d="m 84,77.637277 c -1.9073,-0.7849 -3.9388,-1.2251 -6,-1.3 v 0 c -2.0612,0.0749 -4.0927,0.5151 -6,1.3 -1.2805,0.4994 -2.629,0.8028 -4,0.9 v 0 c -1.371,-0.0972 -2.7195,-0.4006 -4,-0.9 -1.9073,-0.7849 -3.9388,-1.2251 -6,-1.3 v 0 c -2.0612,0.0749 -4.0927,0.5151 -6,1.3 -1.2805,0.4994 -2.629,0.8028 -4,0.9 -1.371,-0.097 -2.7195,-0.4005 -4,-0.9 -1.9073,-0.7849 -3.9388,-1.2251 -6,-1.3 v 0 c -2.0612,0.0749 -4.0927,0.5151 -6,1.3 -1.2805,0.4994 -2.629,0.8028 -4,0.9 -1.371,-0.0972 -2.7195,-0.4006 -4,-0.9 -1.9073,-0.7849 -3.9388,-1.2251 -6,-1.3 v 0 c -2.0612,0.0749 -4.0927,0.5151 -6,1.3 -1.2805,0.4994 -2.629,0.8028 -4,0.9 v 6 c 2.0612,-0.0749 4.0927,-0.5151 6,-1.3 1.2658,-0.546 2.6223,-0.8512 4,-0.9 1.371,0.0972 2.7195,0.4006 4,0.9 1.9073,0.7849 3.9388,1.2251 6,1.3 v 0 c 2.0612,-0.0749 4.0927,-0.5151 6,-1.3 1.2658,-0.546 2.6223,-0.8512 4,-0.9 1.371,0.0972 2.7195,0.4006 4,0.9 1.9073,0.7849 3.9388,1.2251 6,1.3 2.0612,-0.0749 4.0927,-0.5151 6,-1.3 1.2658,-0.546 2.6223,-0.8512 4,-0.9 1.371,0.0972 2.7195,0.4006 4,0.9 1.9073,0.7849 3.9388,1.2251 6,1.3 v 0 c 2.0612,-0.0749 4.0927,-0.5151 6,-1.3 1.2658,-0.546 2.6223,-0.8512 4,-0.9 1.371,0.0972 2.7195,0.4006 4,0.9 1.9073,0.7849 3.9388,1.2251 6,1.3 v -6 c -1.371,-0.0972 -2.7195,-0.4006 -4,-0.9 z"
         id="path6"
         style="fill:#4e95d9;fill-opacity:1;stroke:none;stroke-width:0.999982;stroke-linejoin:miter;stroke-dasharray:none;stroke-opacity:1;image-rendering:auto" /><path
         d="m 84,68.553854 c -1.9073,-0.7849 -3.9388,-1.2251 -6,-1.3 v 0 c -2.0612,0.0749 -4.0927,0.5151 -6,1.3 -1.2805,0.4994 -2.629,0.8028 -4,0.9 v 0 c -1.371,-0.0972 -2.7195,-0.4006 -4,-0.9 -1.9073,-0.7849 -3.9388,-1.2251 -6,-1.3 v 0 c -2.0612,0.0749 -4.0927,0.5151 -6,1.3 -1.2805,0.4994 -2.629,0.8028 -4,0.9 -1.371,-0.097 -2.7195,-0.4005 -4,-0.9 -1.9073,-0.7849 -3.9388,-1.2251 -6,-1.3 v 0 c -2.0612,0.0749 -4.0927,0.5151 -6,1.3 -1.2805,0.4994 -2.629,0.8028 -4,0.9 -1.371,-0.0972 -2.7195,-0.4006 -4,-0.9 -1.9073,-0.7849 -3.9388,-1.2251 -6,-1.3 v 0 c -2.0612,0.0749 -4.0927,0.5151 -6,1.3 -1.2805,0.4994 -2.629,0.8028 -4,0.9 v 6 c 2.0612,-0.0749 4.0927,-0.5151 6,-1.3 1.2658,-0.546 2.6223,-0.8512 4,-0.9 1.371,0.0972 2.7195,0.4006 4,0.9 1.9073,0.7849 3.9388,1.2251 6,1.3 v 0 c 2.0612,-0.0749 4.0927,-0.5151 6,-1.3 1.2658,-0.546 2.6223,-0.8512 4,-0.9 1.371,0.0972 2.7195,0.4006 4,0.9 1.9073,0.7849 3.9388,1.2251 6,1.3 2.0612,-0.0749 4.0927,-0.5151 6,-1.3 1.2658,-0.546 2.6223,-0.8512 4,-0.9 1.371,0.0972 2.7195,0.4006 4,0.9 1.9073,0.7849 3.9388,1.2251 6,1.3 v 0 c 2.0612,-0.0749 4.0927,-0.5151 6,-1.3 1.2658,-0.546 2.6223,-0.8512 4,-0.9 1.371,0.0972 2.7195,0.4006 4,0.9 1.9073,0.7849 3.9388,1.2251 6,1.3 v -6 c -1.371,-0.0972 -2.7195,-0.4006 -4,-0.9 z"
         id="path14"
         style="fill:#4e95d9;fill-opacity:1;stroke:none;stroke-width:0.999982;stroke-linejoin:miter;stroke-dasharray:none;stroke-opacity:1;image-rendering:auto" /></g><g
       id="_326_Water_Polo"
       transform="matrix(6.2940095,0,0,6.8228979,750.64905,-31.996195)"
       style="fill:#ffcc99;fill-opacity:1;image-rendering:auto"
       inkscape:label="Body"><style
         id="style1">
.MsftOfcThm_Text2_lumMod_50_lumOff_50_Fill_v2 {
 fill:#4E95D9; 
}
</style><path
         id="circle1"
         style="fill:#ffcc99;fill-opacity:1;image-rendering:auto"
         d="m 48.000101,20.999999 c -2.199985,0 -4.400209,0.400024 -6.600194,1.000024 -3.199985,0.799995 -5.999959,2.40007 -8.399944,4.40006 -0.6,0.599995 -0.999903,1.39993 -1.199903,2.199925 l -3.160433,14.875737 c 0,0.155137 -0.117852,0.431178 -0.171862,0.733657 1.246185,0.097 2.472199,0.397328 3.629187,0.913465 0.862752,0.364752 1.771297,0.58635 2.695024,0.657343 0.08074,-0.0062 0.160585,-0.01992 0.241067,-0.02843 0.02418,-0.09226 0.0495,-0.18231 0.07297,-0.276193 l 2.894067,-14.048413 -8.37e-4,8.11497 v 4.888886 c 0.189848,-0.07255 0.381551,-0.138836 0.568067,-0.222042 0.852844,-0.398783 1.766786,-0.6217 2.695024,-0.657343 0.923722,0.07099 1.832276,0.292596 2.695024,0.657343 1.285058,0.573273 2.653995,0.894721 4.042744,0.949426 0.04176,-0.0016 0.08334,-0.0054 0.12503,-0.0079 0.04176,0.0025 0.08341,0.0063 0.125238,0.0079 1.388749,-0.05471 2.757686,-0.376154 4.042744,-0.949426 0.862748,-0.364748 1.771302,-0.58635 2.695024,-0.657343 0.928238,0.03564 1.84218,0.258559 2.695024,0.657343 0.186516,0.08321 0.378219,0.149493 0.568067,0.222042 v -4.88889 l -8.37e-4,-8.11497 2.894067,14.048413 c 0.02347,0.09388 0.04879,0.183933 0.07297,0.276193 0.08048,0.0085 0.160327,0.02223 0.241067,0.02843 0.923727,-0.07099 1.832272,-0.292592 2.695024,-0.657343 1.156988,-0.516137 2.383002,-0.816465 3.629187,-0.913465 -0.05401,-0.302479 -0.171862,-0.57852 -0.171862,-0.733657 L 64.45041,28.600008 c -0.2,-0.799995 -0.599903,-1.59993 -1.199903,-2.199925 -2.399986,-1.99999 -5.199959,-3.600065 -8.399944,-4.40006 -2.199985,-0.599999 -4.400209,-1.000024 -6.600194,-1.000024 -0.04175,0 -0.08349,0.0021 -0.125238,0.0027 -0.04168,-6.21e-4 -0.08335,-0.0027 -0.12503,-0.0027 z"
         transform="matrix(1.4842018,0,0,1.3691514,-23.241689,5.3552691)" /><path
         id="path13"
         style="fill:#ffcc99;fill-opacity:1;stroke:none;stroke-width:0.990858;stroke-linecap:round;stroke-linejoin:miter;stroke-dasharray:none;stroke-opacity:1"
         d="m 47.999833,9.4627233 a 10.765325,9.9308327 0 0 0 -10.765129,9.9309437 10.765325,9.9308327 0 0 0 10.765129,9.930657 10.765325,9.9308327 0 0 0 0.157022,-0.01031 10.765325,9.9308327 0 0 0 10.608421,-9.920352 10.765325,9.9308327 0 0 0 -10.608421,-9.9275085 10.765325,9.9308327 0 0 0 -0.157022,-0.00344 z" /></g><g
       id="g24"
       inkscape:label="Bubbles"
       transform="matrix(-16.493807,0,0,17.87979,2584.2492,-19.523912)"
       style="fill:#14f7ef;fill-opacity:1;image-rendering:auto"><path
         d="m 99.871147,21.187947 c -1.31622,0 -2.383218,0.984288 -2.383218,2.198479 0,0.04837 0,0.09527 0,0.146565 1.178755,-0.529218 2.599391,-0.07674 3.173081,1.010641 0.1361,0.25794 0.2159,0.538027 0.23492,0.824357 1.18635,-0.525891 1.68595,-1.83938 1.11587,-2.933768 -0.39564,-0.75956 -1.22715,-1.243651 -2.140653,-1.246274 z m 1.588813,2.051914 c -0.0877,0 -0.15888,-0.06562 -0.15888,-0.146566 0,-0.566621 -0.49793,-1.025957 -1.11217,-1.025957 -0.0878,0 -0.15888,-0.06562 -0.15888,-0.146565 0,-0.08095 0.0711,-0.146565 0.15888,-0.146565 0.78974,0 1.42993,0.59057 1.42993,1.319087 0,0.08095 -0.0711,0.146566 -0.15888,0.146566 z"
         class="MsftOfcThm_Text2_lumMod_50_lumOff_50_Fill_v2"
         fill="#4E95D9"
         id="path16"
         style="fill:#14f7ef;fill-opacity:1;stroke-width:0.152599" /><path
         d="m 98.520657,23.606274 c -1.14072,0 -2.065456,0.853054 -2.065456,1.905349 0,1.052294 0.924736,1.905348 2.065456,1.905348 1.140719,0 2.065453,-0.853054 2.065453,-1.905348 0,-1.052295 -0.924734,-1.905349 -2.065453,-1.905349 z m 1.27105,1.758783 c -0.08775,0 -0.158882,-0.06562 -0.158882,-0.146565 0,-0.404725 -0.355671,-0.732826 -0.794406,-0.732826 -0.08775,0 -0.158881,-0.06562 -0.158881,-0.146566 0,-0.08095 0.07113,-0.146565 0.158881,-0.146565 0.614235,0 1.112169,0.459336 1.112169,1.025957 0,0.08095 -0.07113,0.146565 -0.158881,0.146565 z"
         class="MsftOfcThm_Text2_lumMod_50_lumOff_50_Fill_v2"
         fill="#4E95D9"
         id="path17"
         style="fill:#14f7ef;fill-opacity:1;stroke-width:0.152599" /><path
         d="m 95.343032,21.261229 c -0.789735,0 -1.429931,0.59057 -1.429931,1.319088 0,0.728517 0.640196,1.319088 1.429931,1.319088 0.789735,0 1.429931,-0.590571 1.429931,-1.319088 0,-0.728518 -0.640196,-1.319088 -1.429931,-1.319088 z m 0.714966,1.245805 c -0.08775,0 -0.158882,-0.06562 -0.158882,-0.146565 0,-0.161896 -0.142262,-0.293131 -0.317762,-0.293131 -0.08775,0 -0.158881,-0.06562 -0.158881,-0.146565 0,-0.08095 0.07113,-0.146565 0.158881,-0.146565 0.350984,0 0.635525,0.262484 0.635525,0.586261 0,0.08095 -0.07113,0.146565 -0.158881,0.146565 z"
         class="MsftOfcThm_Text2_lumMod_50_lumOff_50_Fill_v2"
         fill="#4E95D9"
         id="path18"
         style="fill:#14f7ef;fill-opacity:1;stroke-width:0.152599" /><path
         d="m 102.53374,17.154008 c -0.87748,0 -1.58881,0.656188 -1.58881,1.465653 0,0.809466 0.71133,1.465653 1.58881,1.465653 0.87749,0 1.58882,-0.656187 1.58882,-1.465653 0,-0.809465 -0.71133,-1.465653 -1.58882,-1.465653 z m 0.79441,1.417287 c -0.1023,-7.92e-4 -0.18503,-0.07711 -0.18589,-0.171482 0,-0.1886 -0.16575,-0.341497 -0.3702,-0.341497 -0.10266,0 -0.18589,-0.07677 -0.18589,-0.171481 0,-0.09471 0.0832,-0.171482 0.18589,-0.171482 0.40943,8.06e-4 0.74111,0.306776 0.74198,0.68446 -8.6e-4,0.09437 -0.0836,0.17069 -0.18589,0.171482 z"
         class="MsftOfcThm_Text2_lumMod_50_lumOff_50_Fill_v2"
         fill="#4E95D9"
         id="path19"
         style="fill:#14f7ef;fill-opacity:1;stroke-width:0.152599" /><ellipse
         cx="102.81045"
         cy="20.235273"
         class="MsftOfcThm_Text2_lumMod_50_lumOff_50_Fill_v2"
         fill="#4E95D9"
         id="ellipse19"
         rx="1.1471225"
         ry="1.0582013"
         style="fill:#14f7ef;fill-opacity:1;stroke-width:0.152599" /><ellipse
         cx="96.852402"
         cy="19.06275"
         class="MsftOfcThm_Text2_lumMod_50_lumOff_50_Fill_v2"
         fill="#4E95D9"
         id="ellipse21"
         rx="0.98824126"
         ry="0.91163605"
         style="fill:#14f7ef;fill-opacity:1;stroke-width:0.152599"
         inkscape:label="ellipse21" /><ellipse
         cx="94.151421"
         cy="19.795576"
         class="MsftOfcThm_Text2_lumMod_50_lumOff_50_Fill_v2"
         fill="#4E95D9"
         id="ellipse22"
         rx="0.47664371"
         ry="0.43969586"
         style="fill:#14f7ef;fill-opacity:1;stroke-width:0.152599"
         inkscape:label="ellipse22" /></g><g
       id="g53"
       inkscape:label="Bubbles"
       transform="matrix(12.761663,0,0,13.834032,-92.108365,-81.590846)"
       style="fill:#14f7ef;fill-opacity:1;image-rendering:auto"><path
         d="m 99.871147,21.187947 c -1.31622,0 -2.383218,0.984288 -2.383218,2.198479 0,0.04837 0,0.09527 0,0.146565 1.178755,-0.529218 2.599391,-0.07674 3.173081,1.010641 0.1361,0.25794 0.2159,0.538027 0.23492,0.824357 1.18635,-0.525891 1.68595,-1.83938 1.11587,-2.933768 -0.39564,-0.75956 -1.22715,-1.243651 -2.140653,-1.246274 z m 1.588813,2.051914 c -0.0877,0 -0.15888,-0.06562 -0.15888,-0.146566 0,-0.566621 -0.49793,-1.025957 -1.11217,-1.025957 -0.0878,0 -0.15888,-0.06562 -0.15888,-0.146565 0,-0.08095 0.0711,-0.146565 0.15888,-0.146565 0.78974,0 1.42993,0.59057 1.42993,1.319087 0,0.08095 -0.0711,0.146566 -0.15888,0.146566 z"
         class="MsftOfcThm_Text2_lumMod_50_lumOff_50_Fill_v2"
         fill="#4E95D9"
         id="path48"
         style="fill:#14f7ef;fill-opacity:1;stroke-width:0.152599" /><path
         d="m 98.520657,23.606274 c -1.14072,0 -2.065456,0.853054 -2.065456,1.905349 0,1.052294 0.924736,1.905348 2.065456,1.905348 1.140719,0 2.065453,-0.853054 2.065453,-1.905348 0,-1.052295 -0.924734,-1.905349 -2.065453,-1.905349 z m 1.27105,1.758783 c -0.08775,0 -0.158882,-0.06562 -0.158882,-0.146565 0,-0.404725 -0.355671,-0.732826 -0.794406,-0.732826 -0.08775,0 -0.158881,-0.06562 -0.158881,-0.146566 0,-0.08095 0.07113,-0.146565 0.158881,-0.146565 0.614235,0 1.112169,0.459336 1.112169,1.025957 0,0.08095 -0.07113,0.146565 -0.158881,0.146565 z"
         class="MsftOfcThm_Text2_lumMod_50_lumOff_50_Fill_v2"
         fill="#4E95D9"
         id="path49"
         style="fill:#14f7ef;fill-opacity:1;stroke-width:0.152599" /><path
         d="m 95.343032,21.261229 c -0.789735,0 -1.429931,0.59057 -1.429931,1.319088 0,0.728517 0.640196,1.319088 1.429931,1.319088 0.789735,0 1.429931,-0.590571 1.429931,-1.319088 0,-0.728518 -0.640196,-1.319088 -1.429931,-1.319088 z m 0.714966,1.245805 c -0.08775,0 -0.158882,-0.06562 -0.158882,-0.146565 0,-0.161896 -0.142262,-0.293131 -0.317762,-0.293131 -0.08775,0 -0.158881,-0.06562 -0.158881,-0.146565 0,-0.08095 0.07113,-0.146565 0.158881,-0.146565 0.350984,0 0.635525,0.262484 0.635525,0.586261 0,0.08095 -0.07113,0.146565 -0.158881,0.146565 z"
         class="MsftOfcThm_Text2_lumMod_50_lumOff_50_Fill_v2"
         fill="#4E95D9"
         id="path50"
         style="fill:#14f7ef;fill-opacity:1;stroke-width:0.152599" /><ellipse
         cx="96.852402"
         cy="19.06275"
         class="MsftOfcThm_Text2_lumMod_50_lumOff_50_Fill_v2"
         fill="#4E95D9"
         id="ellipse52"
         rx="0.98824126"
         ry="0.91163605"
         style="fill:#14f7ef;fill-opacity:1;stroke-width:0.152599"
         inkscape:label="ellipse21" /><ellipse
         cx="94.151421"
         cy="19.795576"
         class="MsftOfcThm_Text2_lumMod_50_lumOff_50_Fill_v2"
         fill="#4E95D9"
         id="ellipse53"
         rx="0.47664371"
         ry="0.43969586"
         style="fill:#14f7ef;fill-opacity:1;stroke-width:0.152599"
         inkscape:label="ellipse22" /></g></g><style
     id="style1-1">
.MsftOfcThm_Accent2_Fill_v2 {
 fill:#E97132; 
}
</style><style
     id="style1-1-2">
.MsftOfcThm_Accent2_Fill_v2 {
 fill:#E97132; 
}
</style><style
     id="style1-1-9">
.MsftOfcThm_Accent2_Fill_v2 {
 fill:#E97132; 
}
</style><g
     id="g4"
     inkscape:label="Waterskin_1"><path
       id="rect1"
       style="display:inline;fill:#4e95d9;fill-opacity:1;stroke-width:6.553;stroke-linecap:round"
       d="m 901.34252,33.186141 c -16.07499,0 -31.80934,0.271493 -47.20313,0.816406 v 39.029297 c 15.39379,0.544913 31.12814,0.818359 47.20313,0.818359 9.94465,0 19.75163,-0.135743 29.42382,-0.408203 V 33.391219 c -9.67219,-0.136213 -19.47917,-0.205078 -29.42382,-0.205078 z m -52.72071,45.160156 c -9.39972,33.648403 -15.05374,79.080923 -16.96093,136.296873 -0.27247,11.17073 -0.40821,22.47674 -0.40821,33.91992 v 0.40821 h 0.40821 c -0.9536,78.6038 25.74641,146.65024 80.10156,204.13867 56.53474,58.5782 125.67116,88.89016 207.40816,90.93359 22.4778,0.68116 44.7513,-1.29401 66.8204,-5.92578 34.3295,-11.98809 59.4636,-34.46631 75.4023,-67.43359 8.7186,-17.98217 13.0112,-36.91728 12.875,-56.80664 0,-36.50923 -12.8739,-67.70645 -38.6211,-93.58985 -25.7472,-25.74716 -56.8755,-38.62109 -93.3848,-38.62109 -6.6752,0 -13.3502,0.47609 -20.0254,1.42969 0.4087,-0.27246 0.8848,-0.54395 1.4297,-0.81641 -13.2142,4.90423 -26.7688,7.35547 -40.664,7.35547 -36.5093,0 -67.6376,-14.23529 -93.38479,-42.70703 -20.02558,-22.06899 -32.28566,-48.49753 -36.78125,-79.28516 -3.1332,-36.37298 -7.90196,-65.93343 -14.30469,-88.683592 -11.17072,0.136213 -22.47667,0.203125 -33.91992,0.203125 -19.07198,0 -37.73566,-0.2715 -55.99024,-0.816406 z m 83.16797,66.820313 c 2.58833,49.04223 17.36856,90.11526 44.3418,123.21875 26.29212,32.14991 56.80662,47.54197 91.54492,46.17969 7.4925,-0.40869 14.9171,-1.70121 22.2734,-3.88086 3.4058,-0.54492 6.7442,-1.22755 10.0137,-2.04492 5.3129,-0.9536 10.6246,-1.56544 15.9375,-1.83789 33.2398,-1.22606 62.0526,8.03789 86.4375,27.79101 24.3849,19.75312 37.1231,44.20454 38.2129,73.35742 1.0899,29.28911 -9.7401,54.76545 -32.4902,76.42578 -22.6139,21.38786 -50.5415,32.76267 -83.7813,34.125 h -4.4961 c -2.0434,0 -4.0855,-0.0689 -6.1289,-0.20507 0.5449,0.27245 1.088,0.54592 1.6328,0.81836 -21.2516,-0.27244 -42.1619,-2.86138 -62.7324,-7.76563 -42.0946,-12.94168 -78.67238,-34.26117 -109.73242,-63.95898 -51.22194,-49.99586 -76.69629,-109.59674 -76.42382,-178.80079 h -0.40821 v -0.4082 c -0.40866,-46.18141 2.52059,-86.57374 8.78711,-121.17578 13.35039,-0.13621 26.90501,-0.47657 40.66407,-1.02148 5.44912,-0.27246 10.89852,-0.54393 16.34765,-0.81641 z"
       inkscape:label="Water" /><path
       id="path14-4"
       style="display:inline;fill:#4e95d9;fill-opacity:1;stroke:none;stroke-width:6.553;stroke-linejoin:miter;stroke-dasharray:none;stroke-opacity:1;image-rendering:auto"
       d="m 955.15111,403.10606 c -12.97319,0.51103 -25.76104,3.51385 -37.76563,8.86914 -1.36273,0.57613 -10.25285,2.55927 -11.63867,3.0586 8.32867,11.25587 29.28321,36.53711 29.28321,36.53711 l 45.29687,32.61328 100.70311,42.35937 100.7051,-7.85937 59.3437,-65.80664 8.9395,-38.52735 c -10.7905,-4.27095 -31.6091,-10.7912 -43.1074,-11.24414 -12.9733,0.51103 -25.7591,3.51385 -37.7637,8.86914 -8.0595,3.40735 -16.5467,5.47745 -25.1758,6.14063 -8.6291,-0.66318 -17.1182,-2.73328 -25.1777,-6.14063 -12.0045,-5.35529 -24.7905,-8.35811 -37.7637,-8.86914 -12.9732,0.51103 -25.7591,3.51385 -37.7637,8.86914 -8.0594,3.40735 -16.5466,5.47745 -25.1757,6.14063 -8.6291,-0.66182 -17.1163,-2.7326 -25.17582,-6.14063 -12.00449,-5.35529 -24.79048,-8.35811 -37.76367,-8.86914 z"
       sodipodi:nodetypes="cccccccccccccccccc"
       inkscape:label="WaterskinBase" /></g></svg>
