<?xml version="1.0" encoding="utf-8"?>
<svg viewBox="-6.004 -6.364 512.008 512.796" width="512.008" height="512.796" xmlns="http://www.w3.org/2000/svg">
  <g transform="matrix(1, 0, 0, 1, -19.258296966552734, 0.6142460107802776)">
    <title>Waterskin</title>
    <path d="M 501.516 379.083 C 507.248 464.18 405.264 505.097 336.974 505.097 C 286.778 505.097 138.871 515.789 59.075 323.147 C 55.9 315.481 33.48 210.596 37.18 161.254 C 48.174 45.5 67.692 14.433 66.122 30.969 C 67.166 60.036 133.156 66.673 141.35 47.511 C 161.921 -0.601 122.109 175.766 196.803 222.441 C 243.81 251.815 334.936 227.808 354.336 227.808 C 436.804 227.808 498.109 328.503 501.516 379.083 Z" style="fill: rgb(255, 204, 153);"/>
    <path d="M 75.799 0.945 L 72.585 20.232 C 64.824 36.064 128.037 60.683 139.595 37.103 L 147.683 13.219 C 152.085 -4.133 82.377 -13.975 75.799 0.945 Z" style="fill: rgb(255, 204, 153);"/>
    <g>
      <title>Water</title>
      <path d="M 480.687 363.069 C 494.377 438.74 394.9 490.626 333.33 490.626 C 288.071 490.626 109.886 468.415 68.831 288.741 C 67.164 281.448 92.461 362.315 287.784 364.566 C 314.824 364.878 468.654 296.557 480.687 363.069 Z" style="fill: rgb(52, 155, 220); transform-box: fill-box; transform-origin: 50% 50%;"/>
      <path id="path-26" d="M 159.108 265.78 L 157.853 264.411 L 156.428 266.521 C 155.686 267.719 153.063 271.882 150.611 275.703 C 148.159 279.58 144.566 286.024 142.57 289.959 C 140.517 293.951 138.293 298.856 137.609 300.908 C 136.868 302.961 136.183 306.611 136.012 309.063 C 135.841 311.8 136.012 314.481 136.526 316.135 C 136.925 317.617 137.837 319.898 138.636 321.267 C 139.377 322.579 141.087 324.803 142.513 326.171 C 143.882 327.54 146.391 329.365 148.102 330.22 C 149.813 331.075 152.892 332.102 154.945 332.444 C 157.796 332.9 159.507 332.9 161.902 332.387 C 163.67 332.045 166.464 331.133 168.175 330.334 C 169.886 329.536 172.509 327.597 174.049 326.057 C 175.589 324.46 177.528 321.837 178.326 320.183 C 179.124 318.53 179.98 315.678 180.265 313.854 C 180.55 311.972 180.55 309.234 180.265 307.41 C 179.98 305.642 179.124 302.391 178.383 300.224 C 177.584 298 175.361 293.096 173.364 289.275 C 171.369 285.511 167.605 278.953 165.039 274.79 C 162.473 270.627 159.792 266.579 159.108 265.78 Z" style="fill: rgb(52, 155, 220);"/>
      <path id="path-27" d="M 228.697 264.758 L 227.443 263.389 L 226.017 265.499 C 225.276 266.697 222.652 270.859 220.2 274.68 C 217.748 278.558 214.156 285.002 212.16 288.937 C 210.107 292.929 207.883 297.833 207.198 299.886 C 206.457 301.939 205.773 305.589 205.602 308.041 C 205.431 310.778 205.602 313.458 206.115 315.112 C 206.514 316.595 207.426 318.876 208.225 320.245 C 208.966 321.556 210.677 323.78 212.102 325.149 C 213.471 326.517 215.98 328.342 217.691 329.198 C 219.402 330.053 222.481 331.08 224.534 331.422 C 227.386 331.878 229.096 331.878 231.491 331.365 C 233.259 331.022 236.054 330.11 237.764 329.312 C 239.475 328.513 242.098 326.575 243.638 325.035 C 245.178 323.438 247.117 320.815 247.915 319.161 C 248.713 317.507 249.569 314.656 249.854 312.831 C 250.139 310.949 250.139 308.212 249.854 306.387 C 249.569 304.619 248.713 301.369 247.972 299.202 C 247.174 296.978 244.95 292.074 242.954 288.253 C 240.958 284.489 237.194 277.931 234.628 273.768 C 232.062 269.605 229.381 265.556 228.697 264.758 Z" style="fill: rgb(52, 155, 220);"/>
      <path id="path-28" d="M 302.57 264.276 L 301.315 262.908 L 299.89 265.018 C 299.148 266.215 296.525 270.378 294.073 274.199 C 291.621 278.077 288.028 284.521 286.032 288.456 C 283.979 292.448 281.755 297.352 281.071 299.405 C 280.329 301.458 279.645 305.107 279.474 307.56 C 279.303 310.297 279.474 312.977 279.987 314.631 C 280.386 316.114 281.299 318.395 282.097 319.763 C 282.838 321.075 284.549 323.299 285.975 324.668 C 287.343 326.036 289.853 327.861 291.563 328.716 C 293.274 329.572 296.354 330.598 298.407 330.94 C 301.258 331.397 302.969 331.397 305.364 330.883 C 307.132 330.541 309.926 329.629 311.637 328.83 C 313.348 328.032 315.971 326.093 317.51 324.554 C 319.05 322.957 320.989 320.334 321.788 318.68 C 322.586 317.026 323.441 314.175 323.727 312.35 C 324.012 310.468 324.012 307.731 323.727 305.906 C 323.441 304.138 322.586 300.887 321.845 298.721 C 321.046 296.497 318.822 291.592 316.826 287.772 C 314.83 284.008 311.067 277.45 308.5 273.287 C 305.934 269.124 303.254 265.075 302.57 264.276 Z" style="fill: rgb(52, 155, 220);"/>
      <path id="path-29" d="M 373.622 263.993 L 372.367 262.625 L 370.942 264.735 C 370.2 265.932 367.577 270.095 365.125 273.916 C 362.673 277.794 359.08 284.238 357.084 288.173 C 355.031 292.165 352.807 297.069 352.123 299.122 C 351.382 301.175 350.697 304.824 350.526 307.276 C 350.355 310.014 350.526 312.694 351.04 314.348 C 351.439 315.83 352.351 318.112 353.15 319.48 C 353.891 320.792 355.601 323.016 357.027 324.384 C 358.396 325.753 360.905 327.578 362.616 328.433 C 364.327 329.289 367.406 330.315 369.459 330.657 C 372.31 331.114 374.021 331.114 376.416 330.6 C 378.184 330.258 380.978 329.346 382.689 328.547 C 384.4 327.749 387.023 325.81 388.563 324.27 C 390.103 322.674 392.042 320.05 392.84 318.397 C 393.638 316.743 394.494 313.892 394.779 312.067 C 395.064 310.185 395.064 307.448 394.779 305.623 C 394.494 303.855 393.638 300.604 392.897 298.437 C 392.099 296.213 389.875 291.309 387.878 287.488 C 385.883 283.724 382.119 277.167 379.553 273.004 C 376.987 268.841 374.306 264.792 373.622 263.993 Z" style="fill: rgb(52, 155, 220);"/>
    </g>
  </g>
</svg>