<?xml version="1.0" encoding="utf-8"?>
<svg viewBox="796.989 32.567 511.545 512.226" width="511.545" height="512.226" xmlns="http://www.w3.org/2000/svg">
  <g transform="matrix(1.14500093460083, 0, 0, 1.14500093460083, 721.9147338867188, -32.36641311645508)">
    <title>Continuance</title>
    <g transform="matrix(0.162352, 0, 0, 0.162352, 24.625349, 544.058533)" fill="#FF9A00" style="">
      <title>Stomach</title>
      <path id="path-3" d="M 1446 -3001.034 L 1272 -3001.034 L 1277 -2828 C 1279 -2804 1290 -2749 1301 -2705 C 1312 -2661 1336 -2593 1354 -2553 C 1373 -2514 1407 -2454 1430 -2420 C 1453 -2386 1520 -2308 1580 -2245 L 1687 -2131 L 1674 -2079 C 1666 -2049 1660 -1992 1660 -1950 C 1660 -1908 1666 -1849 1674 -1819 C 1682 -1789 1709 -1722 1735 -1670 C 1776 -1585 1780 -1570 1775 -1530 C 1771 -1505 1759 -1463 1748 -1437 C 1736 -1410 1708 -1364 1685 -1334 C 1662 -1304 1631 -1271 1617 -1260 C 1603 -1249 1574 -1232 1553 -1223 C 1523 -1210 1480 -1206 1355 -1206 C 1309.073 -1211.788 1182.96 -1197.826 1126 -1167 L 1058 -1129 L 996 -1150 C 963 -1161 897 -1175 850 -1182 C 786 -1190 748 -1190 700 -1182 C 664 -1175 607 -1157 574 -1140 C 533 -1120 492 -1088 453 -1047 C 417 -1008 380 -954 356 -906 C 335 -863 308 -785 294 -734 C 281 -682 265 -591 259 -530 C 253 -470 265.903 -247.082 256.054 -247.082 C 211.125 -247.082 431.305 -247.488 428 -247.488 L 597 -247.488 L 604 -468 C 607 -510 619 -582 630 -628 C 641 -673 659 -729 671 -752 C 682 -774 702 -803 715 -816 C 732 -833 750 -840 778 -840 C 800 -840 848 -831 884 -820 C 947 -800 951 -797 976 -749 C 990 -721 1022 -678 1047 -653 C 1072 -629 1111 -596 1134 -581 C 1157 -565 1209 -536 1250 -515 C 1291 -494 1354 -466 1389 -453 C 1424 -440 1491 -420 1537 -409 C 1584 -399 1665 -386 1719 -382 C 1772 -377 1860 -377 1916 -381 C 1971 -385 2052 -398 2096 -410 C 2139 -421 2212 -449 2257 -470 C 2302 -491 2374 -532 2416 -561 C 2458 -591 2525 -646 2564 -685 C 2604 -724 2657 -784 2684 -818 C 2710 -853 2756 -922 2786 -972 C 2816 -1023 2858 -1110 2880 -1167 C 2902 -1223 2931 -1311 2945 -1362 C 2958 -1413 2977 -1500 2986 -1555 C 2997 -1619 3004 -1711 3004 -1810 C 3004 -1900 2999 -1990 2991 -2025 C 2984 -2058 2970 -2114 2959 -2150 C 2948 -2186 2922 -2246 2902 -2285 C 2876 -2332 2857 -2356 2843 -2358 C 2828 -2360 2821 -2354 2816 -2334 C 2812 -2320 2802 -2298 2794 -2285 C 2786 -2272 2764 -2255 2745 -2246 C 2727 -2237 2699 -2230 2683 -2230 C 2668 -2230 2638 -2239 2618 -2250 L 2580 -2270 L 2565 -2246 C 2556 -2233 2534 -2215 2515 -2206 C 2497 -2197 2469 -2190 2453 -2190 C 2438 -2190 2409 -2198 2391 -2208 C 2372 -2218 2349 -2240 2340 -2257 C 2328 -2280 2320 -2285 2305 -2279 C 2294 -2275 2271 -2271 2255 -2271 C 2238 -2270 2209 -2278 2191 -2288 C 2172 -2298 2148 -2322 2138 -2341 C 2128 -2359 2120 -2387 2120 -2401 C 2120 -2422 2113 -2430 2090 -2438 C 2074 -2444 2049 -2461 2035 -2476 C 2022 -2490 2008 -2518 2004 -2536 C 2001 -2555 1995 -2570 1992 -2570 C 1989 -2570 1964 -2553 1935 -2531 C 1886 -2494 1882 -2493 1849 -2504 C 1829 -2511 1804 -2523 1792 -2531 C 1780 -2540 1757 -2564 1739 -2586 C 1722 -2607 1695 -2650 1680 -2680 C 1665 -2710 1647 -2753 1642 -2775 C 1636 -2797 1628 -2827 1625 -2842 L 1620 -3001.034 L 1446 -3001.034 Z" style="fill: rgb(255, 204, 153);"/>
    </g>
    <g transform="matrix(0.147602, 0, 0, 0.147602, 54.34425, 531.561829)" fill="#FF9A00" style="">
      <title>Water</title>
      <path style="stroke: rgb(0, 0, 0); stroke-opacity: 0; fill: rgb(52, 155, 220);" d="M 139.273 -182.593 C 69.348 -177.6 198.407 -974.637 454.359 -1114.005 C 642.243 -1185.414 847.782 -1166.417 926.535 -1097.888 C 1005.287 -1029.359 1050.727 -1185.095 1124.621 -1169.289 C 1571.309 -1085.984 1687.92 -1353.27 1862.423 -1297.736 C 2906.569 -965.444 2734.871 -1536.357 2900.471 -1358.162 C 2904.225 -1355.662 2617.386 -80.605 1299.673 -519.759 C 1220.724 -544.718 961.554 -745.975 947.266 -777.729 C 900.891 -826.252 572.533 -1043.558 495.815 -858.345 C 471.722 -800.179 335.523 -307.717 394.32 -179.315"/>
      <path style="stroke: rgb(0, 0, 0); stroke-opacity: 0; fill: rgb(52, 155, 220);" d="M 454.359 -1114.005 C 642.243 -1185.414 847.782 -1166.417 926.535 -1097.888 C 1005.287 -1029.359 1050.727 -1185.095 1124.621 -1169.289 C 1571.309 -1085.984 1687.92 -1353.27 1862.423 -1297.736 C 2906.569 -965.444 2734.871 -1536.357 2900.471 -1358.162 C 2904.225 -1355.662 2617.386 -80.605 1299.673 -519.759 C 1220.724 -544.718 961.554 -745.975 947.266 -777.729"/>
      <g transform="matrix(0.315287, 0, 0, 0.315287, 2168.788086, -1622.543823)" fill="#FF9A00" style="">
        <path id="path-4" d="M 397.208 -1720.288 L 331.435 -1733.077 L 245.563 -1711.154 L 159.692 -1689.229 L 97.573 -1628.936 L 33.626 -1566.816 L 15.356 -1508.352 L -4.742 -1448.059 L -6.569 -1376.804 L -6.569 -1303.722 L 15.356 -1237.948 L 35.453 -1172.175 L 110.362 -1110.055 L 183.443 -1046.109 L 269.315 -1027.838 L 355.186 -1009.568 L 419.132 -1024.184 L 481.252 -1038.801 L 517.793 -1058.899 L 554.334 -1077.169 L 607.318 -1133.807 L 660.302 -1188.619 L 682.227 -1278.144 L 705.978 -1369.496 L 689.535 -1448.059 L 671.265 -1528.449 L 625.588 -1586.914 L 579.912 -1647.206 L 521.447 -1678.267 L 462.981 -1707.498 L 397.208 -1720.288 Z M 1476.991 -1124.671 L 1394.774 -1133.807 L 1327.174 -1117.363 L 1257.746 -1099.094 L 1186.49 -1051.591 L 1115.236 -1004.087 L 1069.56 -936.486 L 1023.884 -867.059 L 1003.787 -795.804 L 983.69 -724.549 L 983.69 -666.084 L 983.69 -607.618 L 1020.23 -508.958 L 1056.77 -412.125 L 1115.236 -355.487 L 1175.528 -297.021 L 1257.746 -260.48 L 1339.963 -222.113 L 1431.315 -222.113 L 1522.667 -222.113 L 1588.44 -240.383 L 1652.387 -258.654 L 1732.777 -326.254 L 1811.34 -393.854 L 1853.362 -485.207 L 1897.211 -578.386 L 1897.211 -678.874 L 1897.211 -779.361 L 1862.497 -852.443 L 1829.61 -925.524 L 1767.491 -987.643 L 1705.371 -1049.763 L 1632.289 -1082.65 L 1559.208 -1113.709 L 1476.991 -1124.671 Z M 545.199 -331.734 L 481.252 -331.734 L 419.132 -298.848 L 357.012 -264.134 L 322.299 -202.015 L 287.586 -139.895 L 294.894 -52.198 L 302.202 35.501 L 346.05 81.177 L 389.899 128.681 L 439.23 154.258 L 488.56 179.837 L 548.853 179.837 L 609.145 179.837 L 671.265 146.95 L 733.384 112.237 L 768.098 50.117 L 800.985 -12.003 L 800.985 -75.949 L 800.985 -139.895 L 764.444 -200.188 L 727.903 -258.654 L 669.437 -295.195 L 609.145 -331.734 L 545.199 -331.734 Z" style="fill: rgb(52, 155, 220);"/>
      </g>
    </g>
    <g transform="matrix(0.110237, 0, 0, 0.110237, 65.015816, 342.025146)" fill="#FF9A00" style="">
      <title>Sunhelm</title>
      <path id="path-10" d="M 576 -1857 L 572 -1861 L 547 -1818 L 522 -1774 L 501 -1712 L 480 -1651 L 480 -1622 L 480 -1593 L 495 -1550 L 510 -1508 L 500 -1489 L 489 -1470 L 467 -1465 L 444 -1459 L 395 -1470 L 346 -1481 L 312 -1502 L 279 -1522 L 272 -1516 L 266 -1509 L 285 -1442 L 304 -1375 L 308 -1329 L 312 -1283 L 300 -1240 L 288 -1197 L 260 -1168 L 232 -1140 L 217 -1140 L 203 -1140 L 169 -1163 L 135 -1186 L 100 -1237 L 65 -1288 L 52 -1306 L 40 -1325 L 46 -1290 L 52 -1255 L 79 -1195 L 107 -1135 L 134 -1103 L 160 -1072 L 205 -1050 L 250 -1028 L 250 -1009 L 250 -990 L 211 -951 L 171 -911 L 113 -894 L 55 -876 L 47 -869 L 39 -863 L 119 -815 L 200 -768 L 226 -737 L 253 -705 L 271 -665 L 290 -625 L 290 -607 L 290 -589 L 265 -565 L 241 -540 L 193 -540 L 145 -540 L 75 -559 L 5 -579 L 25 -563 L 45 -548 L 117 -513 L 189 -478 L 262 -484 L 335 -489 L 370 -492 L 405 -495 L 408 -450 L 411 -405 L 375 -346 L 340 -288 L 340 -284 L 340 -281 L 453 -287 L 566 -293 L 604 -280 L 642 -268 L 676 -238 L 710 -208 L 710 -188 L 710 -168 L 689 -139 L 669 -110 L 587 -69 L 505 -29 L 557 -35 L 608 -40 L 666 -60 L 723 -80 L 757 -106 L 790 -131 L 805 -159 L 819 -188 L 833 -193 L 847 -198 L 886 -181 L 925 -163 L 938 -136 L 950 -109 L 950 -85 L 950 -60 L 960 -60 L 969 -60 L 980 -79 L 990 -99 L 990 -254 L 990 -410 L 952 -410 L 914 -410 L 855 -421 L 797 -432 L 721 -468 L 645 -505 L 575 -575 L 505 -645 L 477 -703 L 449 -762 L 434 -828 L 420 -895 L 420 -941 L 420 -987 L 440 -1063 L 459 -1140 L 487 -1188 L 514 -1235 L 576 -1297 L 638 -1358 L 684 -1385 L 730 -1412 L 792 -1431 L 855 -1450 L 922 -1450 L 990 -1450 L 990 -1550 L 990 -1651 L 955 -1687 L 921 -1722 L 900 -1786 L 878 -1851 L 864 -1839 L 851 -1828 L 813 -1753 L 775 -1677 L 736 -1643 L 696 -1610 L 659 -1598 L 622 -1587 L 595 -1594 L 569 -1601 L 554 -1636 L 540 -1671 L 551 -1738 L 563 -1805 L 572 -1829 L 581 -1853 L 576 -1857 Z M 1010 -20 L 1010 -1850 L 1010 -20 Z" style=""/>
      <path id="path-11" d="M 1128.89 -1850 L 1098.89 -1850 L 1098.89 -935 L 1098.89 -20 L 1128.89 -20 L 1158.89 -20 L 1158.89 -95 L 1158.89 -170 L 1162.89 -170 L 1167.89 -170 L 1261.89 -115 L 1355.89 -60 L 1365.89 -60 L 1374.89 -60 L 1397.89 -101 L 1420.89 -141 L 1417.89 -144 L 1413.89 -147 L 1288.89 -220 L 1163.89 -293 L 1159.89 -296 L 1155.89 -300 L 1161.89 -306 L 1168.89 -313 L 1282.89 -246 L 1397.89 -180 L 1406.89 -180 L 1414.89 -180 L 1437.89 -220 L 1459.89 -260 L 1426.89 -280 L 1393.89 -300 L 1278.89 -368 L 1163.89 -436 L 1160.89 -481 L 1157.89 -526 L 1283.89 -598 L 1409.89 -670 L 1425.89 -670 L 1441.89 -670 L 1474.89 -649 L 1508.89 -628 L 1508.89 -464 L 1508.89 -300 L 1553.89 -300 L 1598.89 -300 L 1598.89 -436 L 1598.89 -571 L 1616.89 -568 L 1633.89 -565 L 1636.89 -422 L 1639.89 -280 L 1688.89 -280 L 1738.89 -280 L 1737.89 -381 L 1737.89 -482 L 1741.89 -486 L 1745.89 -490 L 1818.89 -450 L 1892.89 -410 L 1900.89 -422 L 1909.89 -435 L 1923.89 -462 L 1938.89 -489 L 1938.89 -494 L 1938.89 -499 L 1868.89 -541 L 1798.89 -582 L 1798.89 -589 L 1798.89 -596 L 1828.89 -613 L 1858.89 -630 L 1928.89 -671 L 1999.89 -711 L 1976.89 -751 L 1954.89 -790 L 1945.89 -790 L 1935.89 -790 L 1816.89 -724 L 1696.89 -658 L 1692.89 -663 L 1687.89 -668 L 1745.89 -701 L 1803.89 -733 L 1856.89 -767 L 1909.89 -800 L 1887.89 -841 L 1864.89 -881 L 1848.89 -875 L 1833.89 -869 L 1702.89 -795 L 1570.89 -720 L 1564.89 -720 L 1558.89 -720 L 1518.89 -745 L 1478.89 -771 L 1480.89 -938 L 1483.89 -1105 L 1523.89 -1127 L 1564.89 -1149 L 1708.89 -1066 L 1853.89 -983 L 1861.89 -987 L 1868.89 -991 L 1888.89 -1030 L 1907.89 -1068 L 1793.89 -1136 L 1678.89 -1205 L 1678.89 -1213 L 1678.89 -1221 L 1736.89 -1189 L 1793.89 -1156 L 1828.89 -1135 L 1863.89 -1113 L 1905.89 -1091 L 1948.89 -1070 L 1974.89 -1110 L 2001.89 -1150 L 1997.89 -1154 L 1993.89 -1158 L 1893.89 -1215 L 1793.89 -1273 L 1790.89 -1275 L 1786.89 -1278 L 1851.89 -1314 L 1916.89 -1351 L 1927.89 -1364 L 1938.89 -1377 L 1915.89 -1418 L 1892.89 -1459 L 1818.89 -1414 L 1743.89 -1369 L 1740.89 -1480 L 1737.89 -1590 L 1688.89 -1590 L 1639.89 -1590 L 1636.89 -1448 L 1633.89 -1305 L 1616.89 -1302 L 1598.89 -1299 L 1598.89 -1434 L 1598.89 -1570 L 1553.89 -1570 L 1508.89 -1570 L 1508.89 -1402 L 1508.89 -1235 L 1467.89 -1212 L 1427.89 -1189 L 1295.89 -1263 L 1163.89 -1337 L 1160.89 -1382 L 1157.89 -1427 L 1308.89 -1514 L 1458.89 -1601 L 1458.89 -1607 L 1458.89 -1613 L 1436.89 -1649 L 1415.89 -1685 L 1412.89 -1689 L 1409.89 -1692 L 1296.89 -1626 L 1184.89 -1560 L 1170.89 -1560 L 1157.89 -1560 L 1162.89 -1569 L 1167.89 -1577 L 1275.89 -1639 L 1383.89 -1701 L 1402.89 -1715 L 1420.89 -1729 L 1397.89 -1767 L 1375.89 -1805 L 1372.89 -1809 L 1369.89 -1813 L 1272.89 -1756 L 1175.89 -1700 L 1167.89 -1700 L 1158.89 -1700 L 1158.89 -1775 L 1158.89 -1850 L 1128.89 -1850 Z M 1169.89 -1210 L 1179.89 -1210 L 1243.89 -1172 L 1308.89 -1135 L 1308.89 -1129 L 1308.89 -1122 L 1239.89 -1081 L 1170.89 -1040 L 1164.89 -1040 L 1158.89 -1040 L 1158.89 -1125 L 1158.89 -1210 L 1169.89 -1210 Z M 1380.89 -1027 L 1388.89 -1015 L 1388.89 -935 L 1388.89 -855 L 1379.89 -841 L 1371.89 -828 L 1289.89 -875 L 1208.89 -922 L 1203.89 -929 L 1199.89 -937 L 1286.89 -988 L 1372.89 -1039 L 1380.89 -1027 Z M 1210.89 -800 L 1263.89 -769 L 1286.89 -758 L 1308.89 -747 L 1308.89 -739 L 1308.89 -732 L 1239.89 -692 L 1169.89 -652 L 1164.89 -658 L 1158.89 -663 L 1158.89 -747 L 1158.89 -830 L 1210.89 -800 Z" style="fill: rgb(175, 253, 252);"/>
    </g>
  </g>
</svg>