<?xml version="1.0" encoding="UTF-8" standalone="no"?>
<svg
   viewBox="796.989 32.567 511.545 512.226"
   width="511.54501"
   height="512.22601"
   version="1.1"
   id="svg3"
   sodipodi:docname="Workspace.svg"
   xml:space="preserve"
   inkscape:export-filename="FID_Remote Interactions.esp_0x00180A.svg"
   inkscape:export-xdpi="96"
   inkscape:export-ydpi="96"
   inkscape:version="1.3.2 (091e20e, 2023-11-25, custom)"
   xmlns:inkscape="http://www.inkscape.org/namespaces/inkscape"
   xmlns:sodipodi="http://sodipodi.sourceforge.net/DTD/sodipodi-0.dtd"
   xmlns="http://www.w3.org/2000/svg"
   xmlns:svg="http://www.w3.org/2000/svg"><defs
     id="defs3" /><sodipodi:namedview
     id="namedview3"
     pagecolor="#b6b6b6"
     bordercolor="#000000"
     borderopacity="0.25"
     inkscape:showpageshadow="2"
     inkscape:pageopacity="0.0"
     inkscape:pagecheckerboard="0"
     inkscape:deskcolor="#818181"
     inkscape:zoom="0.25"
     inkscape:cx="26"
     inkscape:cy="702"
     inkscape:window-width="1920"
     inkscape:window-height="1017"
     inkscape:window-x="-8"
     inkscape:window-y="-8"
     inkscape:window-maximized="1"
     inkscape:current-layer="g5" /><style
     id="style1-1">
.MsftOfcThm_Accent2_Fill_v2 {
 fill:#E97132; 
}
</style><path
     id="path1-61"
     style="fill:#ffcc99;fill-opacity:1;stroke-width:2.70504"
     d="m 1053.2683,126.55528 c -37.7242,1.1e-4 -68.30459,30.58042 -68.30469,68.30469 10e-5,37.72425 30.58049,68.30847 68.30469,68.30859 37.7243,-1.2e-4 68.3046,-30.58434 68.3047,-68.30859 -1e-4,-37.72427 -30.5804,-68.30458 -68.3047,-68.30469 z m -149.47657,55.77344 c -14.04022,0.11428 -35.61031,4.46738 -42.30859,8.79883 -7.65528,4.9502 -36.94945,44.17249 -49.58203,78.44531 -12.63248,34.27282 -17.58299,62.24402 -13.52539,66.73437 4.05758,4.49037 21.77516,13.79425 33.46094,21.47657 11.68576,7.6823 30.62136,24.34594 52.26172,27.9707 9.41358,1.56892 23.72262,-2.54188 30.5664,-1.54102 0.60986,0.0892 1.27498,0.26832 1.96485,0.48438 19.17225,20.35337 70.98632,160.54883 70.98632,160.54883 h 138.50395 c 0,0 26.9207,-98.51698 54.2988,-156.83594 4.0946,-1.97909 7.7575,-3.80505 10.4394,-4.19727 6.8438,-1.00086 21.153,3.10994 30.5664,1.54102 21.6404,-3.62476 40.576,-20.2884 52.2618,-27.9707 11.6858,-7.68232 29.4033,-16.9862 33.4609,-21.47657 4.0576,-4.49035 -0.8929,-32.46155 -13.5254,-66.73437 -12.6326,-34.27282 -41.9267,-73.49511 -49.582,-78.44531 -7.6552,-4.95023 -34.7336,-9.92869 -47.7988,-8.57617 -4.1387,0.43279 -18.9354,19.15206 -14.418,27.05078 6.4651,11.27999 20.9094,9.62986 29.4844,8.27734 8.575,-1.35252 9.4415,-5.89701 14.8515,-2.70508 5.4102,3.19195 17.4198,14.74243 18.3125,24.66992 0.8926,9.92748 1.2996,31.97396 3.166,39.65625 1.8665,7.68232 5.4086,19.50445 1.8379,22.07422 -4.7609,3.3272 -16.5269,-8.49414 -33.9472,-8.49414 -18.9353,0 -27.0504,14.82227 -30.9727,14.82227 -5.4101,0 -10.8207,-9.22266 -29.2148,-9.22266 -5.9906,0 -11.2685,1.72329 -15.8106,4.17578 -56.5689,-10.98294 -116.4834,-11.99897 -172.3867,0.62891 -4.78627,-2.79279 -10.46182,-4.80469 -16.96094,-4.80469 -18.39426,0 -23.80476,9.22266 -29.21484,9.22266 -3.9223,0 -12.0374,-14.82227 -30.97266,-14.82227 -17.42046,0 -29.18637,11.82134 -33.94727,8.49414 -3.57068,-2.56977 -0.0286,-14.3919 1.83789,-22.07422 1.8664,-7.68229 2.27342,-29.72877 3.16602,-39.65625 0.8927,-9.92749 12.90232,-21.47797 18.3125,-24.66992 5.40998,-3.19193 6.27658,1.35256 14.85156,2.70508 8.57498,1.35252 23.01928,3.00265 29.48438,-8.27734 4.51738,-7.89872 -10.27929,-26.61799 -14.41797,-27.05078 -1.63317,-0.16907 -3.48449,-0.23899 -5.49024,-0.22266 z m 148.97067,144.48828 58.5762,43.93164 v 26.15039 l -58.5762,-43.93164 -58.57809,43.93164 v -26.15039 z m 0,50.20898 58.5762,43.93165 v 26.15039 l -58.5762,-43.93164 -58.57809,43.93164 v -26.15039 z m 0,50.20899 58.5762,43.93164 V 497.317 l -58.5762,-43.93164 -58.57809,43.93164 v -26.15039 z" /><path
     id="path-5-5"
     d="m 1051.6017,32.567 c -1.4712,0 -2.5535,0.54061 -3.0952,1.47005 -0.4642,1.00588 -0.7743,14.39251 -0.7743,38.30433 0,32.3466 0.155,36.83318 1.2374,37.91771 0.6203,0.69681 1.8577,1.23852 2.6321,1.23852 0.7732,0 2.0118,-0.54171 2.6299,-1.23852 1.0845,-1.08453 1.2385,-5.57111 1.2385,-37.91771 0,-23.91182 -0.3091,-37.29845 -0.7732,-38.30433 -0.5417,-0.92944 -1.6252,-1.47005 -3.0952,-1.47005 z m 57.4958,20.89307 c -0.3877,0 -1.3172,0.46417 -2.0129,0.92834 -0.8507,0.6968 -3.2491,9.05403 -7.5064,26.92946 -3.4818,14.23853 -6.0353,26.69682 -5.8026,27.62627 0.2315,1.08232 1.2374,1.9331 2.3972,2.24329 1.3936,0.38662 2.3995,0.0775 3.4054,-0.92834 0.9295,-1.00588 3.3278,-9.75083 7.2749,-26.23265 3.2503,-13.61927 5.8802,-25.69205 5.8802,-26.85303 0,-1.31495 -0.6181,-2.39838 -1.47,-2.94009 -0.8508,-0.38662 -1.8567,-0.77325 -2.1658,-0.77325 z m -113.59804,2.32084 c -0.5428,0 -1.4712,0.61926 -2.168,1.3925 -0.7732,0.77546 -1.3149,2.09042 -1.3149,2.94121 0,0.77324 2.0117,12.14922 4.5652,25.22677 2.477,13.07756 4.95304,24.29844 5.49474,24.99525 0.5417,0.61926 1.7016,1.16097 2.631,1.16097 0.9283,0 2.0882,-0.38773 2.631,-0.92944 0.5417,-0.54171 0.9283,-1.77912 0.9283,-2.9412 0,-1.08232 -2.0893,-12.68983 -4.5652,-25.84493 -3.5604,-18.64978 -4.87544,-24.2209 -5.95884,-24.99414 -0.7744,-0.54171 -1.7803,-1.00699 -2.2433,-1.00699 z m -51.7696,18.57223 c -0.4642,0 -1.4701,0.38663 -2.1669,0.8519 -0.7743,0.38551 -1.3936,1.62403 -1.3936,2.70857 0,1.08232 6.8883,13.07644 17.1022,29.55937 9.4406,15.16686 17.6428,28.24553 18.3396,28.94122 0.6192,0.77325 1.7802,1.39251 2.5535,1.39251 0.7743,0 1.9353,-0.54061 2.5534,-1.23741 0.6968,-0.61926 1.2385,-1.78024 1.2385,-2.55348 0,-0.6968 -7.893,-14.007 -17.4877,-29.48293 -9.5957,-15.5546 -18.0316,-28.7097 -18.7273,-29.25141 -0.6192,-0.46417 -1.6251,-0.92834 -2.0117,-0.92834 z m 217.98694,0 c -0.3877,0 -1.2385,0.46417 -1.9342,0.92834 -0.6957,0.54171 -9.5182,13.69681 -19.5781,29.17386 -13.8508,21.35724 -18.1845,28.63104 -18.0305,30.17863 0.1551,1.39361 0.9294,2.2444 2.3995,2.70857 1.7026,0.61926 2.3983,0.46417 3.5593,-0.69681 0.7744,-0.85079 9.4407,-14.00589 19.3466,-29.17275 11.3749,-17.56635 17.8743,-28.32196 17.8743,-29.55937 0,-1.16208 -0.6192,-2.32306 -1.47,-2.78611 -0.8519,-0.38773 -1.8578,-0.77436 -2.1669,-0.77436 z"
     style="display:inline;fill:#4f4f5a;fill-opacity:1;stroke-width:1.1078" /></svg>
