<?xml version="1.0" encoding="utf-8"?>
<svg viewBox="796.989 32.567 511.545 512.226" width="511.545" height="512.226" xmlns="http://www.w3.org/2000/svg">
  <g transform="matrix(0.09760000556707382, 0, 0, 0.09760000556707382, 774.2328491210938, 566.2588500976562)" fill="#FF9A00" style="">
    <title>Build Item</title>
    <path id="path-41" d="M 1783 -5119 C 1768 -5119 1746 -5115 1735 -5110 C 1724 -5105 1591 -4979 1440 -4831 L 1165 -4562 L 1113 -4611 C 1084 -4638 1049 -4665 1035 -4670 C 1020 -4676 995 -4680 979 -4680 C 962 -4680 937 -4674 922 -4666 C 907 -4658 847 -4603 789 -4543 C 700 -4452 681 -4427 676 -4394 C 672 -4371 674 -4341 680 -4325 C 686 -4308 714 -4272 742 -4243 L 793 -4191 L 688 -4082 L 583 -3972 L 427 -3563 C 341 -3339 261 -3128 249 -3096 C 236 -3058 231 -3025 234 -3005 C 238 -2988 253 -2962 268 -2947 C 283 -2933 308 -2916 323 -2911 C 339 -2905 361 -2900 372 -2900 C 383 -2900 599 -2967 851 -3050 C 1103 -3132 1324 -3207 1342 -3216 C 1360 -3225 1413 -3270 1460 -3316 L 1545 -3400 L 2955 -1926 C 3731 -1116 4377 -445 4391 -436 C 4406 -427 4437 -420 4459 -420 C 4482 -420 4513 -426 4528 -434 C 4543 -442 4641 -535 4746 -642 C 4891 -788 4940 -843 4945 -867 C 4948 -885 4947 -915 4940 -934 C 4932 -959 4757 -1131 4232 -1632 C 3849 -1997 3258 -2559 2920 -2880 C 2581 -3202 2224 -3541 2127 -3635 L 1949 -3804 L 2203 -4060 C 2343 -4200 2465 -4326 2474 -4340 C 2483 -4354 2490 -4385 2490 -4413 L 2490 -4461 L 2184 -4775 C 2015 -4948 1863 -5096 1845 -5105 C 1827 -5113 1799 -5120 1783 -5119 Z" style="fill: rgb(164, 165, 191);"/>
    <path id="path-43" d="M 3647 -5267 C 3609 -5270 3588 -5267 3570 -5254 C 3556 -5245 3424 -5118 3277 -4971 C 3129 -4825 3002 -4693 2994 -4678 C 2986 -4663 2980 -4633 2980 -4610 C 2980 -4578 2987 -4563 3012 -4536 C 3030 -4517 3212 -4392 3415 -4258 C 3618 -4124 3786 -4011 3787 -4007 C 3789 -4003 3602 -3821 3372 -3603 C 3143 -3384 2955 -3201 2955 -3195 C 2955 -3189 3051 -3093 3168 -2980 C 3286 -2867 3385 -2774 3389 -2772 C 3394 -2771 3559 -2937 3756 -3142 C 3954 -3347 4134 -3535 4157 -3560 C 4180 -3585 4200 -3603 4203 -3600 C 4205 -3597 4320 -3426 4458 -3219 C 4701 -2853 4710 -2842 4754 -2825 C 4785 -2813 4811 -2810 4836 -2815 C 4867 -2820 4917 -2865 5157 -3097 C 5313 -3249 5446 -3382 5452 -3393 C 5457 -3404 5466 -3426 5471 -3443 C 5477 -3463 5475 -3483 5465 -3507 C 5457 -3526 5314 -3740 5148 -3983 C 4887 -4363 4831 -4440 4741 -4532 C 4642 -4634 4619 -4651 4169 -4951 C 3724 -5247 3697 -5264 3647 -5267 Z M 2136 -2420 C 2133 -2420 1797 -2103 1388 -1715 C 979 -1327 635 -995 622 -978 C 606 -956 600 -933 600 -896 L 600 -846 L 813 -633 L 1026 -420 L 1076 -420 C 1113 -420 1136 -426 1158 -442 C 1175 -455 1507 -797 1896 -1203 L 2602 -1941 L 2534 -2013 C 2496 -2053 2392 -2160 2303 -2252 C 2214 -2345 2139 -2420 2136 -2420 Z" style="fill: rgb(224, 131, 0);"/>
  </g>
</svg>