<?xml version="1.0" encoding="utf-8"?>
<svg viewBox="796.989 32.567 511.545 512.226" width="511.545" height="512.226" xmlns="http://www.w3.org/2000/svg">
  <g transform="matrix(0.07029001414775848, 0, 0, 0.07029001414775848, 879.45458984375, 402.1884765625)" fill="#FF9A00">
    <title>Build Campfire</title>
    <path d="M 2218.528 -4371.077 C 2150.268 -4776.852 2295.623 -5092.147 2654.589 -5317.222 C 2621.676 -5159.19 2780.348 -4831.792 3130.477 -4335.093 C 3480.607 -3839.61 3553.861 -3363.72 3350.428 -2907.424 C 3662.588 -3123.598 3782.008 -3520.408 3708.755 -4098.043 C 4286.392 -3097.025 4225.049 -2371.538 3524.854 -1921.517 C 2825.876 -1474.059 2473.186 -1116.437 2466.91 -848.398 C 2238.121 -1332.547 2242.541 -1747.797 2480.164 -2094.085 C 2715.292 -2439.092 2792.323 -2784.163 2711.449 -3129.232 C 2530.75 -2822.135 2295.623 -2547.884 2006.196 -2306.416 C 1815.38 -2148.385 1762.873 -1943.096 1848.805 -1690.233 C 1240.882 -2261.593 1064.536 -2746.319 1319.833 -3144.474 C 1582.815 -3452.852 1785.028 -3770.776 1926.54 -4098.043 C 2078.233 -3894.613 2128.178 -3672.164 2076.311 -3430.698 C 2361.961 -3608.965 2409.408 -3922.403 2218.528 -4371.077" fill="#e08300" fill-rule="evenodd" stroke="none" id="path-54" style="transform-box: fill-box; transform-origin: 50% 50%;"/>
    <path id="path-38" d="M 4930.828 -1739.43 C 4909.945 -1739.43 4755.412 -1593.251 4571.643 -1394.864 C 4321.049 -1127.564 4231.253 -1044.032 4164.428 -1021.061 C 4116.398 -1004.355 3750.948 -914.559 3347.909 -820.586 C 2944.87 -726.613 2161.764 -544.932 1604.193 -413.371 C 1046.621 -283.897 242.632 -95.952 -181.29 4.286 C -605.211 102.435 -979.014 194.32 -1010.338 206.85 C -1050.016 221.468 -1077.163 254.88 -1098.046 315.44 C -1114.752 361.382 -1139.811 438.649 -1152.342 484.591 C -1162.783 530.533 -1173.224 647.478 -1173.224 745.627 C -1173.224 843.776 -1160.694 971.161 -1143.988 1027.545 C -1129.37 1083.929 -1095.958 1171.636 -1070.899 1221.756 C -1045.839 1271.874 -993.632 1347.052 -953.955 1390.906 C -914.277 1434.76 -839.099 1493.232 -788.98 1520.38 L -697.095 1568.41 L -438.149 1491.144 C -296.145 1449.378 96.453 1330.346 434.754 1228.02 C 773.056 1123.606 2071.968 724.744 2080.321 724.744 C 2088.675 724.744 2447.859 618.242 2878.045 486.68 C 3308.232 357.206 4197.84 87.817 4851.474 -110.57 C 5505.106 -308.957 6056.413 -484.372 6073.119 -501.078 C 6096.09 -521.961 6104.443 -580.433 6104.443 -745.407 C 6104.443 -950.059 6100.266 -966.765 6031.354 -1104.592 C 5956.175 -1248.684 5956.175 -1248.684 5874.732 -1244.508 C 5828.79 -1242.419 5565.666 -1177.682 5292.101 -1104.592 C 5016.448 -1029.414 4788.825 -970.942 4784.648 -973.03 C 4782.56 -977.207 4874.444 -1089.974 4989.3 -1223.625 C 5187.687 -1453.336 5200.217 -1472.13 5187.687 -1538.955 C 5179.334 -1576.544 4925.953 -1536.13 4905.071 -1552.836 C 4886.275 -1571.631 5072.831 -1687.224 5035.243 -1706.018 C 4997.653 -1724.812 4951.711 -1739.43 4930.828 -1739.43 Z" style="fill: rgb(255, 204, 153); transform-origin: 2465.61px -85.605px;"/>
    <path id="path-47" d="M 4661.349 227.654 C 4632.113 229.743 3970.987 373.834 3396.709 549.25 C 2822.431 724.666 2057.689 864.655 2080.66 873.009 C 2097.366 881.362 2607.338 1029.555 2993.67 1146.499 C 3382.091 1261.355 3968.899 1434.682 4300.936 1534.92 C 4630.885 1633.069 5040.188 1756.278 5213.516 1808.485 L 5524.67 1904.546 L 5641.614 1779.249 C 5706.35 1710.336 5785.705 1608.01 5817.03 1551.626 C 5850.442 1495.243 5894.296 1399.181 5915.178 1336.533 C 5936.061 1273.885 5954.857 1215.412 5954.857 1207.059 C 5954.857 1196.618 5858.795 1140.234 5741.851 1079.674 L 5526.758 968.995 L 5752.293 962.73 C 5954.857 958.554 5977.827 952.289 5967.386 920.965 C 5963.209 902.17 5950.679 852.051 5944.415 812.374 C 5936.061 772.696 5911.002 695.43 5888.032 641.135 L 5846.266 542.985 L 5196.809 386.364 C 4837.625 298.656 4690.585 227.654 4661.349 227.654 Z" style="fill: rgb(255, 204, 153); transform-origin: 1869.12px 315.265px;"/>
    <path id="path-48" d="M -801.501 -1312.708 C -814.03 -1312.708 -862.061 -1285.561 -908.003 -1252.148 C -956.034 -1218.735 -1016.594 -1158.175 -1045.83 -1120.586 C -1075.066 -1082.997 -671.911 -852.938 -619.963 -831.42 C -381.701 -732.728 -1175.303 -813.608 -1173.215 -727.989 C -1173.215 -621.486 -1158.598 -560.927 -1110.567 -458.6 L -1050.006 -327.039 L -717.969 -226.801 L -385.933 -126.563 L 739.652 -389.687 C 1357.784 -535.867 1863.149 -659.075 1863.149 -665.34 C 1863.149 -671.605 1267.988 -819.873 543.354 -995.289 C -183.369 -1170.705 -788.971 -1312.708 -801.501 -1312.708 Z" style="fill: rgb(255, 204, 153); transform-origin: 1995.74px 90.595px;"/>
  </g>
</svg>