<?xml version="1.0" encoding="utf-8"?>
<svg viewBox="796.989 32.567 511.545 512.226" width="511.545" height="512.226" xmlns="http://www.w3.org/2000/svg">
  <g transform="matrix(0.9185110926628113, 0, 0, 0.9185110926628113, 72.77938842773438, 23.615318298339844)" fill="#FF9A00" style="">
    <title>Build Campfire</title>
    <path id="path-49" d="M 951.548 11.182 C 941.467 -13.155 930.795 279.929 966.856 275.256 C 966.856 245.658 1045.996 204.286 1060.012 238.88 L 1060.799 254.806 L 1061.384 265.323 L 1061.501 305.869 L 1059.783 364.644 L 1114.56 343.698 C 1114.56 335.008 1114.549 307.038 1114.549 307.038 L 1117.003 246.628 L 1117.821 231.438 L 1119.339 229.686 L 1120.859 227.932 L 1121.559 218.936 L 1122.261 209.822 L 1123.429 196.735 L 1124.596 183.531 L 1126.35 160.979 L 1128.102 138.544 L 1129.153 124.758 L 1130.323 111.084 L 1131.024 99.635 L 1131.842 88.068 C 1135.237 62.615 1081.543 66.627 1079.495 81.991 C 1059.657 162.292 957.063 24.497 951.548 11.182 Z" style="fill: rgb(224, 131, 0); transform-origin: 1036.93px 187.195px;"/>
    <path id="path-60" d="M 1251.854 428.825 C 1249.763 428.676 1202.489 418.372 1161.426 405.829 C 1120.363 393.287 1065.68 383.277 1067.322 382.679 C 1068.517 382.082 1104.983 371.486 1132.606 363.124 C 1160.381 354.911 1202.341 342.517 1226.082 335.349 C 1249.676 328.331 1278.942 319.521 1291.337 315.788 L 1313.585 308.919 L 1321.947 317.879 C 1326.577 322.806 1332.25 330.123 1334.49 334.154 C 1336.88 338.186 1340.015 345.056 1341.509 349.535 C 1343.002 354.014 1344.345 358.196 1344.345 358.793 C 1344.345 359.539 1337.477 363.571 1329.115 367.902 L 1313.735 375.816 L 1329.862 376.264 C 1344.345 376.562 1345.988 377.011 1345.242 379.25 C 1344.943 380.594 1344.047 384.177 1343.599 387.015 C 1343.002 389.852 1341.21 395.377 1339.567 399.259 L 1336.582 406.277 L 1290.142 417.477 C 1264.459 423.749 1253.944 428.825 1251.854 428.825 Z" style="fill: rgb(255, 204, 153); transform-origin: 1052.2px 422.549px;"/>
    <path id="path-61" d="M 813.689 519.519 C 812.839 519.519 809.579 517.677 806.461 515.409 C 803.201 513.141 799.091 509.031 797.107 506.48 C 795.122 503.929 822.484 488.315 826.01 486.855 C 842.18 480.157 788.32 485.646 788.461 479.835 C 788.461 472.607 789.453 468.497 792.713 461.552 L 796.823 452.623 L 819.358 445.82 L 841.893 439.017 L 918.285 456.875 C 960.236 466.796 994.535 475.158 994.535 475.583 C 994.535 476.009 954.142 486.071 904.962 497.976 C 855.641 509.882 814.539 519.519 813.689 519.519 Z" style="fill: rgb(255, 204, 153); transform-origin: 1003.53px 424.246px;"/>
    <path id="path-55" d="M 1234.239 552.529 C 1232.821 552.529 1222.334 542.608 1209.861 529.144 C 1192.854 511.002 1186.76 505.333 1182.224 503.774 C 1178.965 502.64 1154.162 496.546 1126.808 490.168 C 1099.455 483.79 1046.307 471.46 1008.465 462.531 C 970.624 453.744 916.058 440.988 887.287 434.185 C 858.516 427.524 833.147 421.288 831.021 420.438 C 828.328 419.446 826.486 417.178 825.068 413.068 C 823.934 409.95 822.234 404.706 821.383 401.588 C 820.675 398.47 819.966 390.533 819.966 383.872 C 819.966 377.21 820.816 368.565 821.95 364.738 C 822.942 360.912 825.21 354.959 826.911 351.558 C 828.612 348.156 832.155 343.054 834.848 340.078 C 837.54 337.101 842.643 333.133 846.044 331.29 L 852.28 328.031 L 869.855 333.275 C 879.492 336.109 906.137 344.188 929.097 351.132 C 952.057 358.219 1040.212 385.289 1040.779 385.289 C 1041.346 385.289 1065.723 392.517 1094.92 401.446 C 1124.116 410.233 1184.492 428.516 1228.853 441.98 C 1273.214 455.445 1310.63 467.35 1311.764 468.484 C 1313.323 469.901 1313.89 473.869 1313.89 485.066 C 1313.89 498.955 1313.607 500.089 1308.93 509.443 C 1303.827 519.223 1303.827 519.223 1298.3 518.939 C 1295.182 518.797 1277.324 514.404 1258.758 509.443 C 1240.05 504.341 1224.601 500.373 1224.318 500.514 C 1224.176 500.798 1230.412 508.451 1238.207 517.522 C 1251.671 533.112 1252.522 534.387 1251.671 538.923 C 1251.104 541.474 1249.687 544.592 1248.27 545.726 C 1246.994 547.001 1243.876 548.986 1241.325 550.261 C 1238.774 551.537 1235.656 552.529 1234.239 552.529 Z" style="fill: rgb(255, 204, 153); transform-origin: 1066.93px 440.296px;"/>
  </g>
</svg>