<?xml version="1.0" encoding="utf-8"?>
<svg viewBox="796.989 32.567 511.545 512.226" width="511.545" height="512.226" xmlns="http://www.w3.org/2000/svg">
  <g style="visibility: visible;" transform="matrix(1.0509270429611206, 0, 0, 1.0509270429611206, 749.0982666015625, -5.989415168762207)">
    <title>Instincts</title>
    <g>
      <title>Layout</title>
      <rect style="stroke-width: 26.237px; fill: rgb(255, 204, 153); paint-order: stroke; stroke: rgb(255, 204, 153); fill-opacity: 0;" height="286.667" x="277.357" y="-237.687" width="282.375" transform="matrix(-0.695691, 0.718341, -0.718341, -0.695691, 512.347656, -85.908348)"/>
      <ellipse style="stroke: rgb(0, 0, 0); stroke-opacity: 0; fill: rgb(255, 204, 153);" cx="117.23" cy="280.39" rx="71.66" ry="71.66"/>
      <ellipse style="stroke: rgb(0, 0, 0); stroke-opacity: 0; fill: rgb(255, 204, 153);" cx="460.666" cy="280.39" rx="71.66" ry="71.66"/>
      <ellipse style="stroke: rgb(0, 0, 0); stroke-opacity: 0; fill: rgb(255, 204, 153);" cx="288.948" cy="108.348" rx="71.66" ry="71.66"/>
      <ellipse style="stroke: rgb(0, 0, 0); stroke-opacity: 0; fill: rgb(255, 204, 153);" cx="288.948" cy="452.432" rx="71.66" ry="71.66"/>
    </g>
    <path id="path-39" d="M 465.182 225.299 L 462.874 225.156 L 459.572 225.441 L 456.269 225.725 L 452.824 226.647 L 449.38 227.571 L 445.687 229.312 L 442.03 231.087 L 439.651 232.755 L 437.308 234.424 L 434.679 236.909 L 432.052 239.43 L 430.063 242.095 L 428.039 244.792 L 426.548 247.669 L 425.057 250.546 L 423.849 254.203 L 422.607 257.895 L 422.18 260.878 L 421.754 263.897 L 421.968 267.448 L 422.18 271.034 L 422.749 273.697 L 423.281 276.36 L 424.382 279.733 L 425.482 283.108 L 427.755 288.718 L 430.028 294.328 L 430.738 296.885 L 431.412 299.442 L 432.158 304.412 L 432.904 309.384 L 433.791 314.071 L 434.645 318.758 L 435.39 321.173 L 436.136 323.587 L 437.342 325.932 L 438.515 328.311 L 440.007 329.553 L 441.497 330.832 L 444.196 332.252 L 446.93 333.673 L 450.091 334.631 L 453.286 335.624 L 458.79 335.59 L 464.294 335.59 L 467.739 334.666 L 471.183 333.743 L 474.13 332.216 L 477.077 330.69 L 479.598 328.203 L 482.119 325.718 L 483.398 323.411 L 484.676 321.102 L 485.636 317.907 L 486.558 314.71 L 486.807 308.248 L 487.02 301.785 L 490.996 297.063 L 495.01 292.34 L 497.317 289.144 L 499.59 285.949 L 501.402 282.716 L 503.212 279.449 L 504.207 276.467 L 505.236 273.484 L 505.662 270.715 L 506.088 267.945 L 505.84 264.891 L 505.591 261.802 L 505.129 259.281 L 504.668 256.76 L 503.709 253.955 L 502.786 251.15 L 501.082 247.917 L 499.377 244.686 L 497.246 241.881 L 495.08 239.076 L 492.843 236.909 L 490.57 234.78 L 488.263 233.146 L 485.954 231.513 L 483.291 230.057 L 480.592 228.636 L 476.865 227.393 L 473.136 226.187 L 470.295 225.795 L 467.49 225.441 L 465.182 225.299 Z M 466.069 238.401 L 468.91 238.579 L 471.395 239.147 L 473.882 239.68 L 476.899 241.1 L 479.918 242.485 L 482.545 244.508 L 485.208 246.533 L 487.269 249.161 L 489.363 251.788 L 490.536 254.132 L 491.742 256.476 L 492.488 258.891 L 493.199 261.27 L 492.879 262.122 L 492.559 262.973 L 491.742 263.541 L 490.962 264.109 L 490.18 264.109 L 489.434 264.109 L 488.511 263.399 L 487.623 262.69 L 487.02 260.808 L 486.416 258.961 L 485.138 256.476 L 483.86 253.99 L 480.984 251.114 L 478.143 248.237 L 475.124 246.746 L 472.107 245.29 L 469.62 244.758 L 467.135 244.225 L 464.436 244.225 L 461.737 244.225 L 459.074 244.9 L 456.375 245.61 L 453.819 246.888 L 451.263 248.167 L 448.316 251.078 L 445.403 253.99 L 443.912 257.008 L 442.456 260.026 L 441.888 262.654 L 441.355 265.282 L 441.462 266.702 L 441.568 268.122 L 443.947 265.353 L 446.362 262.583 L 448.032 261.34 L 449.735 260.133 L 452.221 258.961 L 454.707 257.825 L 456.375 257.399 L 458.08 257.008 L 460.707 256.795 L 463.336 256.546 L 465.75 257.008 L 468.2 257.434 L 469.976 258.179 L 471.751 258.925 L 473.952 260.275 L 476.154 261.66 L 478.107 263.791 L 480.06 265.886 L 481.303 268.122 L 482.511 270.324 L 483.327 272.987 L 484.144 275.651 L 484.144 279.379 L 484.108 283.108 L 483.398 285.273 L 482.687 287.44 L 481.374 289.428 L 480.06 291.381 L 477.681 293.654 L 475.302 295.891 L 472.213 297.986 L 469.124 300.08 L 468.378 302.602 L 467.597 305.123 L 466.745 306.933 L 465.891 308.744 L 464.508 310.342 L 463.122 311.905 L 461.417 312.829 L 459.678 313.752 L 457.548 314.178 L 455.453 314.604 L 453.25 314.39 L 451.085 314.178 L 449.309 313.645 L 447.57 313.113 L 446.113 311.869 L 444.621 310.591 L 443.699 308.674 L 442.74 306.757 L 442.562 304.696 L 442.384 302.637 L 442.776 301.181 L 443.166 299.726 L 443.912 298.766 L 444.621 297.844 L 445.865 297.844 L 447.108 297.844 L 448.032 298.766 L 448.954 299.69 L 448.67 301.323 L 448.386 302.992 L 448.422 304.128 L 448.458 305.265 L 449.061 306.329 L 449.665 307.36 L 450.553 307.857 L 451.44 308.318 L 454.707 308.318 L 457.974 308.318 L 459.252 307.325 L 460.565 306.329 L 461.241 305.016 L 461.915 303.702 L 462.838 300.684 L 463.762 297.666 L 464.294 296.885 L 464.862 296.103 L 468.946 293.156 L 473.065 290.245 L 474.946 288.22 L 476.829 286.161 L 477.397 284.457 L 478.001 282.752 L 478.213 280.445 L 478.391 278.136 L 478.001 276.112 L 477.575 274.087 L 476.473 271.85 L 475.338 269.613 L 473.207 267.484 L 471.041 265.353 L 469.016 264.359 L 466.993 263.399 L 465.146 263.009 L 463.264 262.583 L 460.565 262.796 L 457.902 262.973 L 456.127 263.577 L 454.352 264.181 L 452.008 265.743 L 449.665 267.306 L 447.996 269.295 L 446.362 271.318 L 444.907 274.229 L 443.45 277.142 L 444.196 278.526 L 444.907 279.911 L 445.971 281.509 L 447.072 283.108 L 447.072 284.03 L 447.072 284.953 L 446.149 285.913 L 445.191 286.836 L 444.125 286.836 L 443.06 286.836 L 441.71 285.379 L 440.361 283.924 L 438.976 281.19 L 437.556 278.491 L 436.81 276.076 L 436.1 273.697 L 435.709 270.715 L 435.355 267.732 L 435.709 264.429 L 436.1 261.162 L 436.988 258.463 L 437.876 255.766 L 439.367 253.103 L 440.858 250.438 L 444.231 247.065 L 447.604 243.692 L 450.267 242.201 L 452.932 240.71 L 455.665 239.822 L 458.364 238.898 L 460.815 238.579 L 463.228 238.224 L 466.069 238.401 Z" style="fill: rgb(224, 131, 0);"/>
    <path id="path-40" d="M 289.163 390.575 L 286.119 390.503 L 285.009 390.826 L 283.863 391.184 L 282.144 392.366 L 280.39 393.548 L 278.491 396.054 L 276.629 398.525 L 275.053 401.569 L 273.478 404.613 L 272.225 407.657 L 270.971 410.737 L 269.646 414.64 L 268.357 418.579 L 267.318 422.518 L 266.28 426.458 L 265.563 430.289 L 264.812 434.121 L 263.558 443.539 L 262.269 452.957 L 261.553 456.109 L 260.801 459.26 L 259.511 461.838 L 258.222 464.417 L 252.887 469.788 L 247.515 475.16 L 246.155 477.237 L 244.794 479.314 L 244.364 481.212 L 243.934 483.11 L 244.113 485.438 L 244.256 487.801 L 245.617 490.594 L 247.014 493.387 L 249.556 495.93 L 252.099 498.472 L 254.391 499.797 L 256.647 501.159 L 258.688 501.982 L 260.693 502.842 L 262.591 503.378 L 264.454 503.952 L 264.454 503.665 L 264.454 503.414 L 263.379 501.409 L 262.305 499.404 L 261.589 497.326 L 260.873 495.286 L 260.873 493.889 L 260.873 492.492 L 261.374 491.49 L 261.911 490.487 L 263.164 489.377 L 264.418 488.267 L 266.029 488.052 L 267.641 487.801 L 268.894 488.231 L 270.147 488.624 L 271.186 489.842 L 272.26 491.024 L 273.013 493.352 L 273.8 495.644 L 274.803 497.219 L 275.806 498.795 L 277.453 500.442 L 279.136 502.089 L 280.855 503.02 L 282.574 503.952 L 284.687 504.524 L 286.8 505.062 L 288.984 505.062 L 291.132 505.062 L 292.923 504.56 L 294.713 504.095 L 296.325 503.271 L 297.937 502.484 L 299.512 501.194 L 301.088 499.905 L 302.448 497.828 L 303.81 495.715 L 304.597 493.316 L 305.385 490.916 L 306.531 489.806 L 307.641 488.66 L 309.109 488.231 L 310.578 487.765 L 311.795 488.016 L 312.977 488.231 L 314.123 488.947 L 315.269 489.627 L 316.021 491.06 L 316.737 492.492 L 316.737 493.925 L 316.737 495.393 L 315.842 497.756 L 314.947 500.12 L 313.98 501.875 L 313.048 503.63 L 313.227 503.844 L 313.442 504.023 L 316.2 503.092 L 318.922 502.197 L 320.783 501.266 L 322.646 500.335 L 324.866 498.759 L 327.051 497.183 L 328.877 495.178 L 330.668 493.137 L 331.885 490.773 L 333.139 488.41 L 333.532 486.584 L 333.962 484.721 L 333.604 482.644 L 333.21 480.532 L 332.243 478.562 L 331.276 476.593 L 325.296 470.505 L 319.315 464.381 L 318.169 462.089 L 317.023 459.833 L 316.2 456.574 L 315.376 453.279 L 314.409 445.974 L 313.479 438.633 L 312.941 435.231 L 312.404 431.829 L 311.509 427.568 L 310.613 423.342 L 309.253 418.794 L 307.856 414.282 L 306.531 410.701 L 305.206 407.12 L 303.666 403.861 L 302.126 400.567 L 300.551 398.131 L 298.975 395.661 L 297.292 393.977 L 295.609 392.33 L 293.926 391.506 L 292.207 390.682 L 289.163 390.575 Z" style="fill: rgb(224, 131, 0);"/>
    <path id="path-42" d="M 288.171 230.287 L 282.4 230.323 L 279.187 230.807 L 275.974 231.255 L 272.448 232.12 L 268.925 232.983 L 266.16 233.882 L 263.396 234.781 L 259.25 236.542 L 255.103 238.27 L 252.166 239.86 L 249.229 241.414 L 246.327 243.108 L 243.424 244.801 L 240.799 246.598 L 238.172 248.359 L 235.062 250.641 L 231.918 252.956 L 228.67 255.685 L 225.422 258.415 L 220.827 262.664 L 216.265 266.914 L 211.843 271.718 L 207.421 276.556 L 206.384 278.559 L 205.348 280.529 L 205.348 282.947 L 205.382 285.366 L 206.349 287.163 L 207.351 288.959 L 211.705 293.245 L 216.06 297.493 L 219.618 300.5 L 223.142 303.506 L 226.425 306.063 L 229.672 308.62 L 234.371 311.765 L 239.036 314.908 L 242.907 317.12 L 246.811 319.366 L 250.439 321.093 L 254.101 322.822 L 257.59 324.203 L 261.117 325.586 L 265.677 327.003 L 270.237 328.384 L 274.937 329.283 L 279.637 330.181 L 286.788 330.353 L 293.906 330.527 L 297.223 330.147 L 300.54 329.765 L 303.961 329.076 L 307.381 328.384 L 311.494 327.175 L 315.606 326.001 L 319.372 324.549 L 323.173 323.062 L 329.392 319.953 L 335.611 316.808 L 339.24 314.494 L 342.868 312.213 L 347.014 309.242 L 351.161 306.305 L 354.098 303.956 L 357.035 301.606 L 361.526 297.563 L 366.019 293.555 L 368.541 290.963 L 371.029 288.372 L 371.789 286.714 L 372.514 285.02 L 372.548 282.877 L 372.548 280.77 L 372.1 280.218 L 371.65 279.665 L 371.858 279.665 L 372.1 279.665 L 371.684 278.904 L 371.27 278.145 L 370.995 277.799 L 370.717 277.419 L 368.886 275.172 L 367.09 272.927 L 360.353 266.188 L 353.579 259.451 L 348.846 255.581 L 344.078 251.712 L 340.691 249.293 L 337.305 246.874 L 333.71 244.593 L 330.084 242.346 L 325.418 239.963 L 320.753 237.578 L 317.369 236.162 L 314.016 234.781 L 310.664 233.709 L 307.348 232.638 L 304.548 231.982 L 301.75 231.325 L 297.845 230.807 L 293.941 230.253 L 288.171 230.287 Z M 289.828 247.324 L 294.493 247.496 L 296.912 248.152 L 299.331 248.843 L 300.748 249.361 L 302.165 249.881 L 303.685 250.641 L 305.206 251.435 L 307.727 253.162 L 310.25 254.89 L 312.911 257.724 L 315.572 260.556 L 317.403 263.631 L 319.234 266.672 L 320.236 269.852 L 321.237 273.029 L 321.617 275.208 L 321.963 277.419 L 321.963 280.356 L 321.963 283.293 L 321.584 285.538 L 321.237 287.785 L 320.098 291.171 L 318.957 294.522 L 317.263 297.321 L 315.572 300.119 L 313.325 302.573 L 311.08 305.026 L 308.385 307.031 L 305.69 309.034 L 303.133 310.244 L 300.574 311.453 L 297.535 312.351 L 294.493 313.216 L 290.451 313.423 L 286.408 313.63 L 283.713 313.181 L 281.018 312.766 L 278.15 311.798 L 275.282 310.797 L 273.001 309.552 L 270.687 308.274 L 268.786 306.789 L 266.852 305.303 L 264.743 303.126 L 262.67 300.915 L 261.219 298.738 L 259.769 296.595 L 258.939 294.938 L 258.144 293.313 L 257.418 291.205 L 256.693 289.132 L 256.139 286.022 L 255.553 282.947 L 255.725 278.973 L 255.897 275 L 256.624 272.27 L 257.348 269.506 L 258.454 267.088 L 259.561 264.635 L 261.117 262.25 L 262.67 259.867 L 264.571 257.827 L 266.471 255.754 L 268.475 254.233 L 270.479 252.678 L 273.348 251.158 L 276.216 249.637 L 277.736 249.051 L 279.291 248.498 L 282.227 247.841 L 285.164 247.184 L 289.828 247.324 Z M 323.173 254.441 L 326.283 256.238 L 330.084 258.761 L 333.884 261.316 L 338.376 264.91 L 342.868 268.503 L 347.878 273.169 L 352.888 277.833 L 355.065 280.287 L 357.208 282.741 L 353.406 286.195 L 349.605 289.65 L 345.529 292.898 L 341.485 296.112 L 338.548 298.219 L 335.611 300.292 L 332.227 302.434 L 328.805 304.612 L 323.76 307.203 L 318.681 309.829 L 319.924 308.482 L 321.134 307.135 L 322.343 305.579 L 323.553 304.024 L 324.624 302.297 L 325.73 300.569 L 326.905 297.977 L 328.079 295.386 L 328.494 294.35 L 328.874 293.313 L 329.047 292.623 L 329.184 291.931 L 329.704 289.996 L 330.221 288.061 L 330.532 285.33 L 330.878 282.601 L 330.739 278.973 L 330.636 275.346 L 330.256 273.445 L 329.876 271.546 L 329.704 270.681 L 329.532 269.817 L 328.702 267.364 L 327.872 264.91 L 327.042 263.045 L 326.213 261.178 L 324.037 257.896 L 321.895 254.615 L 320.962 253.645 L 320.064 252.644 L 323.173 254.441 Z M 256.589 253.405 L 256.727 253.405 L 256.001 254.373 L 255.242 255.304 L 253.826 257.343 L 252.443 259.383 L 250.922 262.526 L 249.437 265.671 L 248.574 268.641 L 247.709 271.614 L 247.364 274.275 L 246.983 276.935 L 246.983 280.804 L 246.983 284.675 L 247.502 287.681 L 248.054 290.688 L 248.954 293.382 L 249.852 296.077 L 251.233 298.84 L 252.616 301.606 L 253.722 303.368 L 254.861 305.164 L 256.796 307.445 L 258.732 309.726 L 256.209 308.55 L 253.686 307.41 L 249.921 305.234 L 246.119 303.057 L 242.768 300.88 L 239.418 298.668 L 235.961 296.077 L 232.471 293.487 L 228.946 290.514 L 225.387 287.509 L 222.901 285.09 L 220.412 282.671 L 223.211 279.63 L 225.975 276.589 L 230.709 272.27 L 235.408 267.986 L 238.172 265.774 L 240.937 263.563 L 243.528 261.662 L 246.119 259.762 L 248.712 258.069 L 251.302 256.376 L 253.894 254.89 L 256.485 253.405 L 256.589 253.405 Z M 289.657 259.451 L 286.546 259.279 L 284.301 259.797 L 282.054 260.314 L 279.187 261.698 L 276.318 263.114 L 274.003 265.464 L 271.654 267.777 L 270.411 270.197 L 269.167 272.581 L 268.544 274.655 L 267.922 276.728 L 267.922 280.356 L 267.888 283.984 L 268.648 286.402 L 269.409 288.821 L 270.756 291.032 L 272.07 293.245 L 274.003 295.178 L 275.938 297.113 L 277.839 298.254 L 279.739 299.394 L 282.158 300.258 L 284.543 301.087 L 287.445 301.295 L 290.348 301.503 L 292.939 300.95 L 295.496 300.396 L 297.949 299.256 L 300.368 298.081 L 302.165 296.665 L 303.961 295.214 L 305.342 293.416 L 306.726 291.585 L 307.763 289.444 L 308.833 287.301 L 309.386 284.95 L 309.938 282.601 L 309.766 279.319 L 309.628 276.036 L 308.764 273.583 L 307.901 271.13 L 306.621 269.195 L 305.342 267.294 L 303.477 265.429 L 301.611 263.598 L 299.746 262.457 L 297.845 261.316 L 295.323 260.453 L 292.801 259.589 L 289.657 259.451 Z" style="fill: rgb(224, 131, 0);"/>
    <path id="path-50" d="M 270.27 49.059 C 268.813 49.059 267.356 49.334 266.53 49.767 C 265.781 50.121 264.522 51.066 263.735 51.854 C 262.946 52.642 261.844 54.216 261.254 55.398 C 260.703 56.579 259.954 58.784 259.639 60.28 C 259.325 61.815 259.049 63.941 259.049 65.004 C 259.049 66.068 259.246 68.154 259.442 69.611 C 259.639 71.068 260.19 73.351 260.663 74.651 C 261.096 75.95 261.962 77.879 262.513 78.903 C 263.065 79.927 264.6 81.816 265.899 83.155 C 267.592 84.848 268.891 85.753 270.23 86.187 C 271.294 86.541 273.026 86.855 274.05 86.855 C 275.31 86.855 276.57 86.501 277.987 85.753 C 279.483 84.966 280.546 84.021 281.609 82.525 C 282.396 81.344 283.46 79.218 283.893 77.8 C 284.326 76.383 284.798 73.863 284.917 72.21 C 285.034 70.477 284.917 67.839 284.641 66.106 C 284.365 64.414 283.736 61.894 283.223 60.516 C 282.712 59.138 281.491 56.854 280.546 55.398 C 279.561 53.98 278.144 52.288 277.356 51.697 C 276.609 51.066 275.231 50.24 274.286 49.846 C 273.262 49.373 271.766 49.059 270.27 49.059 Z M 306.885 49.098 C 305.311 49.098 303.972 49.373 302.791 49.924 C 301.846 50.397 300.114 51.697 299.011 52.839 C 297.87 54.02 296.335 56.185 295.546 57.799 C 294.759 59.374 293.814 61.736 293.5 63.036 C 293.145 64.335 292.79 67.012 292.633 68.981 C 292.476 71.619 292.594 73.313 293.066 75.556 C 293.459 77.21 294.208 79.415 294.719 80.439 C 295.271 81.462 296.373 82.998 297.161 83.864 C 297.948 84.691 299.326 85.715 300.192 86.107 C 301.137 86.541 302.673 86.855 303.933 86.855 C 305.39 86.855 306.768 86.541 308.145 85.912 C 309.248 85.36 310.901 84.218 311.768 83.312 C 312.674 82.367 313.973 80.635 314.72 79.415 C 315.469 78.194 316.571 75.792 317.163 74.06 C 317.91 71.816 318.265 69.808 318.422 67.092 C 318.54 64.808 318.422 62.249 318.106 60.792 C 317.871 59.414 317.201 57.326 316.611 56.145 C 316.06 54.964 314.879 53.232 314.012 52.247 C 313.106 51.302 311.689 50.2 310.823 49.807 C 309.839 49.334 308.342 49.098 306.885 49.098 Z M 249.245 81.069 C 246.804 80.91 245.977 81.029 244.757 81.659 C 243.929 82.091 242.67 82.918 241.921 83.469 C 241.173 84.06 240.071 85.596 239.362 87.014 C 238.379 88.942 238.063 90.242 237.905 92.604 C 237.787 94.376 237.905 96.7 238.143 97.959 C 238.418 99.219 239.126 101.266 239.756 102.526 C 240.386 103.786 241.567 105.558 242.355 106.463 C 243.143 107.369 244.521 108.629 245.426 109.259 C 246.371 109.928 248.182 110.794 249.521 111.228 C 250.859 111.699 252.434 112.054 253.064 112.054 C 253.694 112.054 255.111 111.779 256.253 111.424 C 257.552 111.031 258.971 110.242 260.073 109.22 C 261.017 108.353 262.277 106.621 262.868 105.4 C 263.892 103.392 263.97 102.802 263.97 98.628 L 263.97 94.061 L 262.277 90.714 C 261.175 88.431 259.914 86.62 258.537 85.281 C 257.434 84.179 255.544 82.801 254.364 82.25 C 252.828 81.462 251.49 81.186 249.245 81.069 Z M 328.541 80.989 C 327.241 80.989 325.508 81.226 324.681 81.54 C 323.856 81.816 322.202 82.682 321.021 83.469 C 319.839 84.257 318.106 85.95 317.122 87.25 C 316.178 88.549 314.996 90.636 314.525 91.895 C 313.776 93.746 313.619 94.927 313.619 98.668 C 313.579 102.487 313.737 103.471 314.446 105.046 C 314.918 106.03 315.903 107.566 316.689 108.393 C 317.438 109.22 318.894 110.361 319.957 110.873 C 321.454 111.661 322.438 111.858 324.643 111.858 C 326.965 111.818 327.872 111.62 330.037 110.558 C 331.729 109.692 333.305 108.511 334.683 107.015 C 335.825 105.794 337.321 103.51 338.069 101.975 C 338.817 100.44 339.604 97.998 339.801 96.541 C 340.116 94.652 340.116 93.155 339.801 91.462 C 339.565 90.124 338.895 88.115 338.304 86.934 C 337.714 85.753 336.69 84.375 336.021 83.824 C 335.391 83.234 333.934 82.367 332.871 81.896 C 331.493 81.226 330.194 80.951 328.541 80.989 Z M 289.168 91.305 C 286.609 91.226 284.641 91.384 283.577 91.738 C 282.672 92.014 281.334 92.644 280.625 93.076 C 279.877 93.549 278.302 94.927 277.12 96.187 C 275.861 97.486 274.443 99.573 273.734 101.03 C 273.065 102.447 272.317 104.494 272.042 105.558 C 271.766 106.621 270.978 108.786 270.23 110.282 C 269.522 111.779 268.065 114.18 267.002 115.598 C 265.939 117.015 263.93 119.22 262.552 120.52 C 261.175 121.819 259.167 123.787 258.065 124.889 C 256.962 125.992 255.506 127.96 254.836 129.221 C 254.166 130.519 253.301 132.686 252.947 134.103 C 252.434 135.953 252.316 137.686 252.434 140.442 C 252.591 143.631 252.828 144.654 253.852 146.82 C 254.521 148.276 255.899 150.324 256.923 151.427 C 257.985 152.568 259.797 153.906 261.214 154.616 C 262.552 155.285 264.64 155.954 265.86 156.111 C 267.081 156.27 269.127 156.27 270.427 156.111 C 272.12 155.914 274.207 155.206 277.474 153.63 C 279.995 152.411 283.144 151.23 284.444 150.993 C 285.743 150.757 288.538 150.639 290.665 150.717 C 294.405 150.914 294.602 150.954 299.405 153.316 C 302.634 154.892 305.232 155.875 306.885 156.19 C 309.012 156.545 309.957 156.505 312.201 155.994 C 313.698 155.678 315.665 155.009 316.571 154.537 C 317.477 154.104 319.091 152.844 320.154 151.781 C 321.257 150.678 322.595 148.749 323.305 147.292 C 323.934 145.874 324.681 143.474 324.919 141.977 C 325.233 139.929 325.194 138.433 324.879 136.15 C 324.565 134.181 323.895 132.055 322.949 130.165 C 321.729 127.646 320.746 126.424 316.139 121.897 C 313.185 118.984 310.193 115.755 309.485 114.692 C 308.776 113.668 307.713 111.818 307.123 110.558 C 306.492 109.337 305.666 107.172 305.272 105.754 C 304.918 104.337 304.012 102.014 303.263 100.557 C 302.516 98.983 301.099 97.014 299.837 95.793 C 298.656 94.652 296.689 93.195 295.429 92.565 C 293.421 91.581 292.594 91.423 289.168 91.305 Z" style="fill: rgb(117, 96, 0);"/>
    <path id="path-45" d="M 161.924 235.484 C 161.809 235.484 161.037 236.005 160.226 236.623 C 159.415 237.242 157.967 238.168 157.021 238.67 C 156.017 239.171 154.492 239.77 153.488 240.021 C 152.503 240.272 150.998 240.523 150.167 240.601 C 149.28 240.678 147.967 240.639 147.117 240.523 C 146.287 240.408 144.936 240.079 144.125 239.809 C 143.314 239.538 142.04 238.978 141.325 238.554 C 140.611 238.129 139.588 237.396 139.047 236.913 C 138.487 236.43 137.889 236.063 137.638 236.063 C 137.387 236.063 137.079 236.198 136.943 236.353 C 136.808 236.507 136.635 237.357 136.538 238.226 C 136.442 239.094 136.229 240.311 136.074 240.909 C 135.92 241.508 135.649 242.337 135.476 242.743 C 135.321 243.149 134.858 244.095 134.492 244.847 C 134.106 245.6 133.43 246.72 132.966 247.357 C 132.522 247.994 131.557 249.095 130.824 249.79 C 130.109 250.485 128.97 251.411 128.314 251.856 C 127.658 252.3 126.441 252.956 125.611 253.323 C 124.781 253.689 123.545 254.133 122.87 254.307 C 122.194 254.481 120.823 254.693 119.839 254.771 C 118.854 254.848 117.908 255.041 117.734 255.176 C 117.58 255.311 117.444 255.582 117.444 255.775 C 117.444 255.987 117.753 256.759 118.14 257.512 C 118.507 258.265 118.989 259.539 119.202 260.349 C 119.453 261.315 119.568 262.454 119.568 263.748 C 119.568 264.867 119.453 266.199 119.279 266.817 C 119.125 267.435 118.989 268.014 118.989 268.091 C 118.989 268.169 119.8 268.304 120.804 268.381 C 121.808 268.439 123.275 268.67 124.105 268.883 C 124.916 269.095 126.113 269.501 126.769 269.79 C 127.426 270.08 128.545 270.698 129.259 271.161 C 129.993 271.624 131.094 272.532 131.75 273.188 C 132.406 273.844 133.198 274.751 133.527 275.215 C 133.855 275.659 134.183 276.026 134.26 276.026 C 134.356 276.026 134.549 275.833 134.685 275.601 C 134.839 275.35 135.707 273.922 136.615 272.435 C 137.542 270.929 139.047 268.593 139.974 267.223 C 140.92 265.871 142.079 264.327 142.562 263.825 C 143.102 263.245 143.604 262.898 143.874 262.898 C 144.105 262.898 144.491 262.994 144.723 263.11 C 144.955 263.245 145.284 263.516 145.477 263.748 C 145.67 263.98 145.805 264.481 145.824 264.887 C 145.824 265.504 145.554 266.006 144.009 268.169 C 143.005 269.578 141.441 271.914 140.534 273.381 C 139.608 274.829 138.275 277.068 137.58 278.362 L 136.306 280.678 L 136.538 281.972 C 136.654 282.686 136.77 284.095 136.77 285.1 C 136.789 286.103 136.693 287.493 136.558 288.169 C 136.442 288.845 136.132 289.925 135.9 290.582 C 135.649 291.239 135.302 292.088 135.128 292.493 C 134.877 293.053 134.858 293.227 135.051 293.285 C 135.186 293.323 136.016 293.497 136.905 293.671 C 137.773 293.864 139.086 294.231 139.801 294.54 C 140.515 294.829 141.847 295.486 142.735 296.026 C 143.758 296.625 144.897 297.532 145.843 298.459 C 146.905 299.54 147.464 299.965 147.812 299.965 C 148.063 299.965 148.373 299.849 148.488 299.733 C 148.585 299.598 148.739 299.096 148.816 298.613 C 148.874 298.131 149.087 297.224 149.241 296.586 C 149.415 295.949 149.839 294.81 150.187 294.057 C 150.515 293.304 151.23 292.03 151.77 291.239 C 152.31 290.447 153.295 289.289 153.971 288.69 C 154.647 288.073 155.785 287.242 156.538 286.817 C 157.292 286.393 158.585 285.852 159.434 285.582 C 160.496 285.254 161.654 285.061 163.102 284.965 C 164.28 284.907 165.341 284.772 165.476 284.656 C 165.592 284.559 165.708 284.327 165.708 284.134 C 165.708 283.941 165.457 283.227 165.168 282.551 C 164.859 281.895 164.415 280.601 164.145 279.694 C 163.759 278.284 163.701 277.647 163.701 275.253 C 163.72 273.015 163.797 272.145 164.145 270.91 C 164.357 270.061 164.936 268.574 165.399 267.628 C 165.843 266.682 166.635 265.311 167.118 264.616 C 167.62 263.922 168.662 262.724 169.454 261.972 C 170.265 261.219 171.519 260.176 172.273 259.693 C 173.431 258.921 173.624 258.709 173.624 258.227 C 173.624 257.763 173.508 257.608 172.89 257.376 C 172.504 257.222 171.654 256.836 171.017 256.508 C 170.38 256.199 169.261 255.485 168.527 254.945 C 167.813 254.403 166.732 253.38 166.172 252.686 C 165.592 252.01 164.743 250.678 164.28 249.771 C 163.797 248.863 163.18 247.338 162.909 246.373 C 162.581 245.233 162.368 243.96 162.291 242.589 C 162.214 241.064 162.272 239.925 162.523 238.264 C 162.87 236.063 162.87 236.005 162.523 235.754 C 162.33 235.6 162.059 235.484 161.924 235.484 Z M 73.795 257.338 C 73.331 257.28 73.215 257.434 72.366 259.172 C 71.594 260.755 71.189 261.315 69.876 262.628 C 69.007 263.477 67.714 264.539 66.961 264.983 C 66.208 265.408 64.954 265.987 64.161 266.257 C 63.37 266.508 61.98 266.837 61.111 266.953 C 60.223 267.068 59.007 267.107 58.408 267.049 C 57.791 266.972 56.748 266.798 56.073 266.643 C 55.146 266.431 54.779 266.431 54.586 266.585 C 54.432 266.701 54.316 266.933 54.316 267.088 C 54.316 267.223 54.76 267.918 55.3 268.632 C 55.822 269.327 56.575 270.505 56.941 271.238 C 57.327 271.991 57.81 273.265 58.022 274.076 C 58.292 275.118 58.408 276.181 58.428 277.763 C 58.447 279.501 58.35 280.312 58.003 281.509 C 57.771 282.358 57.308 283.593 56.98 284.269 C 56.633 284.945 55.938 286.007 55.435 286.624 C 54.933 287.261 54.509 287.957 54.509 288.189 C 54.509 288.439 54.682 288.652 55.011 288.768 C 55.281 288.883 55.822 288.961 56.208 288.961 C 56.594 288.961 57.617 289.134 58.466 289.347 C 59.316 289.559 60.648 290.041 61.439 290.408 C 62.231 290.795 63.409 291.49 64.065 291.953 C 64.741 292.416 65.783 293.362 66.401 294.057 C 67.038 294.733 67.83 295.775 68.197 296.374 C 68.544 296.953 69.046 297.976 69.316 298.613 C 69.567 299.27 69.914 300.37 70.049 301.084 C 70.204 301.798 70.339 302.784 70.339 303.285 C 70.339 303.787 70.416 304.405 70.532 304.694 C 70.629 304.964 70.861 305.235 71.015 305.312 C 71.189 305.37 72 305.1 72.81 304.733 C 73.621 304.347 74.895 303.884 75.648 303.71 C 76.614 303.498 77.54 303.42 78.833 303.498 C 80.05 303.556 81.092 303.729 81.922 304.019 C 82.618 304.27 83.776 304.829 84.509 305.254 C 85.243 305.699 86.46 306.644 87.212 307.397 C 87.965 308.131 88.834 309.077 89.124 309.482 C 89.529 310.003 89.799 310.196 90.089 310.158 C 90.475 310.1 90.513 309.965 90.648 308.053 C 90.706 306.915 90.957 305.312 91.189 304.482 C 91.402 303.671 91.904 302.378 92.271 301.625 C 92.657 300.872 93.255 299.868 93.602 299.386 C 93.95 298.903 94.8 297.995 95.475 297.339 C 96.131 296.702 96.903 296.026 97.174 295.852 C 97.464 295.659 97.56 295.466 97.464 295.37 C 97.348 295.273 96.363 294.54 95.244 293.749 C 94.123 292.937 92.213 291.644 90.996 290.853 C 89.78 290.061 87.637 288.768 86.267 287.957 C 84.895 287.165 82.695 285.949 81.382 285.293 C 80.07 284.617 78.833 283.844 78.621 283.593 C 78.409 283.304 78.255 282.821 78.255 282.358 C 78.255 281.741 78.37 281.47 78.853 281.026 C 79.277 280.62 79.645 280.466 80.147 280.466 C 80.629 280.466 81.652 280.891 83.544 281.895 C 85.05 282.667 87.444 283.999 88.873 284.849 C 90.301 285.698 92.637 287.145 94.046 288.053 C 95.437 288.98 97.773 290.602 99.201 291.663 C 101.769 293.575 101.827 293.613 102.541 293.42 C 102.927 293.323 103.661 293.188 104.163 293.111 C 104.684 293.053 105.089 292.956 105.089 292.937 C 105.089 292.899 104.877 292.397 104.626 291.837 C 104.375 291.258 103.97 290.003 103.738 289.057 C 103.41 287.764 103.294 286.779 103.313 285.196 C 103.313 283.902 103.448 282.493 103.642 281.625 C 103.835 280.833 104.201 279.636 104.452 278.961 C 104.722 278.284 104.915 277.725 104.877 277.686 C 104.838 277.647 104.24 277.358 103.545 277.01 C 102.849 276.682 101.885 276.103 101.383 275.737 C 100.881 275.369 99.992 274.501 99.433 273.806 C 98.854 273.111 98.12 271.991 97.773 271.296 C 97.444 270.601 97.038 269.501 96.884 268.825 C 96.73 268.169 96.595 266.953 96.595 266.141 C 96.595 265.06 96.517 264.578 96.286 264.366 C 96.131 264.192 95.881 264.057 95.726 264.057 C 95.591 264.057 95.051 264.25 94.529 264.462 C 94.027 264.694 93.081 265.041 92.444 265.253 C 91.73 265.485 90.436 265.659 89.027 265.736 C 87.56 265.813 86.344 265.774 85.552 265.601 C 84.876 265.485 83.815 265.195 83.178 264.983 C 82.54 264.771 81.324 264.192 80.475 263.69 C 79.529 263.149 78.332 262.203 77.367 261.257 C 76.517 260.407 75.474 259.191 75.05 258.555 C 74.49 257.705 74.162 257.376 73.795 257.338 Z" style="fill: rgb(0, 172, 0);"/>
    <path id="path-46" d="M 96.069 297.376 C 96.381 297.168 91.849 301.7 92.223 301.18 C 92.597 300.661 93.512 299.683 94.239 298.976 C 94.947 298.291 95.778 297.563 96.069 297.376 Z M 120.495 273.552 C 119.685 273.573 118.562 273.657 118 273.781 C 117.44 273.885 116.172 274.342 115.194 274.82 C 113.843 275.465 113.074 276.027 111.951 277.149 C 110.953 278.147 110.226 279.103 109.706 280.143 C 109.29 280.953 108.812 282.263 108.625 283.053 C 108.397 284.051 108.313 285.049 108.397 286.524 C 108.459 287.896 108.646 289.04 108.958 289.892 C 109.208 290.599 109.769 291.763 110.226 292.47 C 110.683 293.156 111.515 294.174 112.055 294.715 C 112.617 295.235 113.677 296.025 114.405 296.461 C 115.112 296.898 116.358 297.438 117.169 297.688 C 118.25 298.021 119.165 298.145 120.703 298.145 C 122.096 298.145 123.198 298.021 124.029 297.771 C 124.716 297.563 125.922 297.064 126.732 296.648 C 127.605 296.17 128.728 295.338 129.538 294.528 C 130.37 293.696 131.202 292.616 131.659 291.7 C 132.096 290.89 132.595 289.684 132.761 288.998 C 132.947 288.313 133.094 286.919 133.094 285.859 C 133.114 284.675 132.989 283.51 132.761 282.761 C 132.573 282.096 132.116 280.953 131.763 280.205 C 131.305 279.27 130.599 278.334 129.538 277.274 C 128.395 276.131 127.564 275.485 126.399 274.925 C 125.526 274.488 124.154 274.01 123.385 273.843 C 122.595 273.677 121.306 273.552 120.495 273.552 Z M 105.424 300.162 C 104.447 300.162 103.241 300.286 102.722 300.432 C 102.202 300.577 101.225 300.972 100.539 301.305 C 99.811 301.659 98.771 302.428 98.044 303.155 C 97.358 303.841 96.505 304.964 96.131 305.671 C 95.757 306.356 95.321 307.479 95.134 308.144 C 94.967 308.83 94.822 310.078 94.822 310.951 C 94.822 311.803 94.967 313.009 95.134 313.632 C 95.279 314.235 95.674 315.233 95.986 315.857 C 96.298 316.459 97.004 317.479 97.545 318.081 C 98.106 318.705 99.021 319.516 99.603 319.89 C 100.185 320.264 101.266 320.784 101.994 321.054 C 102.722 321.324 103.928 321.594 104.655 321.678 C 105.424 321.761 106.609 321.698 107.482 321.553 C 108.417 321.407 109.623 320.992 110.579 320.514 C 111.577 320.015 112.617 319.266 113.323 318.559 C 113.947 317.935 114.779 316.917 115.132 316.314 C 115.507 315.712 116.005 314.464 116.234 313.57 C 116.462 312.655 116.65 311.491 116.65 310.972 C 116.65 310.452 116.504 309.391 116.338 308.602 C 116.172 307.833 115.735 306.627 115.36 305.899 C 114.987 305.192 114.114 304.049 113.427 303.363 C 112.742 302.677 111.619 301.804 110.912 301.45 C 110.226 301.076 109.104 300.64 108.438 300.453 C 107.752 300.286 106.421 300.141 105.424 300.162 Z M 134.943 300.369 C 134.195 300.369 132.989 300.515 132.241 300.681 C 131.493 300.827 130.225 301.284 129.434 301.679 C 128.624 302.074 127.397 302.927 126.691 303.571 C 125.984 304.195 125.027 305.317 124.55 306.024 C 124.092 306.731 123.468 308.061 123.157 308.976 C 122.72 310.327 122.616 311.054 122.595 312.822 C 122.595 314.526 122.678 315.337 123.032 316.459 C 123.302 317.25 123.842 318.518 124.279 319.246 C 124.716 319.973 125.693 321.158 126.483 321.886 C 127.272 322.655 128.499 323.528 129.331 323.943 C 130.121 324.338 131.368 324.817 132.074 324.983 C 132.802 325.149 134.153 325.295 135.089 325.295 C 136.024 325.295 137.292 325.191 137.895 325.066 C 138.499 324.941 139.767 324.484 140.702 324.027 C 141.762 323.528 142.884 322.779 143.654 322.052 C 144.34 321.407 145.296 320.305 145.753 319.62 C 146.211 318.913 146.834 317.582 147.125 316.667 C 147.541 315.42 147.666 314.526 147.687 313.133 C 147.687 312.094 147.583 310.743 147.437 310.119 C 147.271 309.495 146.896 308.414 146.585 307.729 C 146.273 307.043 145.608 305.941 145.109 305.276 C 144.61 304.589 143.633 303.633 142.947 303.113 C 142.261 302.594 141.139 301.887 140.432 301.554 C 139.745 301.242 138.519 300.827 137.729 300.661 C 136.939 300.494 135.692 300.369 134.943 300.369 Z" style="fill: rgb(221, 21, 51);"/>
  </g>
</svg>