<?xml version="1.0" encoding="utf-8"?>
<svg viewBox="796.989 32.567 511.545 512.226" width="511.545px" height="512.226px" xmlns="http://www.w3.org/2000/svg">
  <g transform="matrix(0.11958499997854233, 0, 0, 0.11958499997854233, 687.1751098632812, 656.80126953125)" fill="#FF9A00">
    <path id="path-2" d="M 3581 -5220 C 3260 -5220 3212 -5218 3191 -5204 C 3169 -5188 3168 -5183 3172 -5076 C 3175 -4989 3181 -4952 3200 -4905 C 3217 -4862 3240 -4828 3284 -4784 C 3326 -4742 3365 -4715 3411 -4695 L 3477 -4667 L 3483 -4496 C 3487 -4402 3490 -4179 3490 -4000 C 3490 -3821 3493 -3550 3497 -3398 L 3503 -3120 L 3593 -3120 L 3683 -3120 L 3679 -3896 L 3675 -4672 L 3727 -4692 C 3758 -4703 3803 -4733 3835 -4762 C 3866 -4790 3902 -4831 3915 -4854 C 3928 -4877 3947 -4916 3956 -4940 C 3967 -4971 3972 -5017 3971 -5089 C 3971 -5152 3966 -5197 3959 -5206 C 3950 -5218 3883 -5220 3581 -5220 Z M 3699 -5068 L 3793 -5070 L 3787 -5019 C 3783 -4991 3769 -4948 3755 -4924 C 3739 -4897 3712 -4870 3684 -4854 C 3658 -4839 3617 -4825 3590 -4822 C 3564 -4820 3526 -4823 3505 -4830 C 3485 -4837 3453 -4856 3434 -4873 C 3414 -4889 3390 -4920 3380 -4940 C 3370 -4960 3360 -4994 3358 -5016 L 3355 -5055 L 3480 -5060 C 3549 -5063 3647 -5067 3699 -5068 Z M 3628 -3048 C 3599 -3047 3558 -3045 3538 -3043 L 3500 -3039 L 3500 -2932 C 3501 -2873 3509 -2688 3519 -2521 C 3537 -2226 3538 -2216 3560 -2198 C 3573 -2187 3595 -2180 3608 -2182 C 3622 -2184 3641 -2196 3651 -2210 C 3666 -2232 3670 -2281 3681 -2626 C 3688 -2841 3690 -3024 3687 -3033 C 3682 -3046 3669 -3050 3628 -3048 Z M 3937 -2830 L 3762 -2830 L 3756 -2728 C 3753 -2671 3748 -2537 3744 -2430 C 3741 -2323 3734 -2221 3729 -2204 C 3724 -2187 3706 -2161 3690 -2145 C 3669 -2125 3648 -2116 3613 -2113 C 3577 -2110 3557 -2114 3533 -2129 C 3515 -2140 3494 -2161 3484 -2175 C 3471 -2195 3464 -2259 3449 -2508 C 3439 -2677 3430 -2816 3430 -2818 C 3430 -2819 3351 -2820 3255 -2820 C 3122 -2820 3072 -2816 3051 -2806 C 3036 -2798 3019 -2780 3012 -2765 C 3004 -2748 3000 -2671 3000 -2532 C 3000 -2418 3003 -2295 3006 -2259 L 3013 -2193 L 3059 -2181 C 3084 -2175 3136 -2158 3174 -2143 C 3212 -2129 3282 -2091 3329 -2059 C 3376 -2027 3443 -1973 3477 -1938 C 3510 -1903 3559 -1844 3584 -1806 C 3609 -1768 3643 -1702 3659 -1661 C 3674 -1619 3690 -1578 3693 -1569 C 3696 -1560 3713 -1550 3731 -1546 C 3757 -1541 3772 -1545 3804 -1566 C 3827 -1581 3920 -1647 4012 -1714 C 4124 -1795 4183 -1844 4191 -1863 C 4200 -1885 4201 -1999 4196 -2327 C 4192 -2583 4185 -2770 4179 -2781 C 4174 -2791 4156 -2807 4140 -2815 C 4117 -2827 4073 -2830 3937 -2830 Z" style="fill: rgb(192, 192, 192);"/>
    <path id="path-1" d="M 2801 -2039 C 2770 -2038 2718 -2034 2685 -2029 C 2652 -2024 2596 -2011 2560 -1999 C 2524 -1988 2459 -1960 2415 -1937 C 2354 -1906 2314 -1875 2245 -1806 C 2181 -1742 2144 -1694 2119 -1645 C 2099 -1607 2075 -1552 2066 -1524 L 2049 -1472 L 1982 -1466 C 1945 -1462 1879 -1452 1835 -1443 C 1791 -1435 1723 -1415 1685 -1400 C 1646 -1385 1597 -1362 1575 -1349 C 1553 -1336 1512 -1308 1483 -1287 C 1455 -1266 1416 -1230 1397 -1207 C 1378 -1184 1352 -1147 1338 -1125 C 1324 -1103 1306 -1062 1297 -1035 C 1289 -1008 1278 -966 1275 -942 C 1275 -942 4837 -935 4839 -937 C 4842 -939 4817 -968 4784 -1001 C 4752 -1034 4686 -1087 4639 -1119 C 4589 -1153 4517 -1190 4466 -1208 C 4418 -1226 4347 -1245 4307 -1251 C 4264 -1258 4195 -1260 4135 -1256 C 4080 -1252 4019 -1246 4000 -1241 C 3968 -1234 3961 -1237 3913 -1280 C 3885 -1306 3838 -1338 3808 -1352 C 3779 -1366 3712 -1391 3659 -1409 L 3563 -1441 L 3551 -1493 C 3545 -1522 3526 -1574 3510 -1608 C 3494 -1643 3467 -1690 3451 -1713 C 3435 -1736 3398 -1779 3369 -1809 C 3339 -1838 3288 -1881 3256 -1903 C 3223 -1925 3160 -1958 3116 -1976 C 3071 -1994 2995 -2016 2946 -2025 C 2897 -2033 2832 -2039 2801 -2039 Z" style="fill: rgb(255, 204, 153);"/>
  </g>
</svg>