<?xml version="1.0" encoding="utf-8"?>
<svg viewBox="796.989 32.567 511.545 512.226" width="511.545px" height="512.226px" xmlns="http://www.w3.org/2000/svg">
  <g transform="matrix(0.13002295792102814, 0, 0, 0.13002295792102814, 719.9628295898439, 571.8377685546875)" fill="#FF9A00">
    <path id="path1" d="M 2558 -1580 C 2576 -1580 2664 -1556 2753 -1526 C 2842 -1496 2981 -1449 3061 -1420 L 3208 -1369 L 3212 -1326 C 3215 -1302 3228 -1261 3241 -1235 C 3254 -1209 3290 -1161 3320 -1130 C 3350 -1099 3413 -1046 3459 -1012 C 3505 -978 3637 -891 3754 -819 C 3870 -747 3982 -677 4002 -663 C 4022 -649 4056 -622 4076 -602 C 4096 -583 4121 -548 4131 -526 C 4141 -503 4150 -463 4149 -435 C 4149 -408 4144 -375 4137 -363 C 4130 -351 4113 -332 4098 -320 C 4083 -309 4050 -290 4024 -279 C 3998 -267 3936 -249 3886 -237 C 3798 -217 3762 -216 2933 -213 C 2335 -210 2059 -212 2031 -220 C 2009 -226 1977 -243 1959 -257 C 1942 -272 1921 -299 1914 -317 C 1906 -335 1900 -369 1900 -393 C 1900 -423 1907 -446 1921 -464 C 1932 -478 1960 -501 1983 -514 C 2006 -528 2054 -548 2088 -560 C 2123 -571 2195 -590 2248 -601 C 2302 -612 2526 -652 2746 -689 C 3010 -733 3156 -762 3173 -773 C 3189 -783 3203 -806 3210 -829 C 3217 -855 3217 -876 3210 -896 C 3204 -912 3188 -933 3174 -943 C 3159 -954 3132 -962 3107 -962 C 3084 -961 2903 -934 2705 -901 C 2507 -868 2289 -829 2220 -815 C 2151 -801 2066 -781 2030 -769 C 1994 -758 1936 -734 1902 -717 C 1867 -700 1816 -667 1790 -643 C 1762 -618 1729 -574 1713 -542 C 1688 -491 1685 -475 1686 -390 C 1687 -331 1694 -279 1704 -252 L 1720 -208 L 1472 -212 C 1277 -215 1214 -220 1175 -233 C 1148 -242 1100 -264 1070 -282 C 1035 -303 1007 -329 993 -355 C 977 -383 970 -412 970 -448 C 970 -478 977 -517 986 -536 C 995 -555 1026 -592 1055 -619 C 1084 -645 1173 -707 1252 -755 C 1330 -803 1472 -893 1565 -955 C 1689 -1037 1754 -1087 1804 -1140 C 1841 -1180 1881 -1231 1891 -1254 C 1901 -1276 1910 -1311 1910 -1332 C 1910 -1367 1912 -1369 1968 -1388 C 1999 -1399 2138 -1447 2275 -1494 C 2412 -1541 2540 -1580 2558 -1580 Z" style="fill: rgb(255, 204, 153);"/>
    <path id="path1" d="M 2549 -2989 C 2635 -2990 2735 -2984 2799 -2974 C 2857 -2966 2964 -2943 3036 -2925 C 3107 -2907 3230 -2871 3307 -2845 C 3413 -2810 3459 -2789 3489 -2763 C 3513 -2743 3542 -2703 3559 -2667 C 3575 -2633 3670 -2372 3769 -2087 C 3899 -1714 3950 -1556 3950 -1524 C 3950 -1499 3943 -1466 3935 -1450 C 3927 -1435 3904 -1412 3885 -1400 C 3852 -1380 3844 -1379 3795 -1388 C 3765 -1394 3625 -1443 3483 -1496 C 3341 -1549 3135 -1624 3025 -1662 C 2915 -1700 2782 -1746 2730 -1762 C 2659 -1785 2616 -1793 2560 -1793 C 2504 -1793 2461 -1785 2390 -1762 C 2338 -1746 2204 -1700 2092 -1661 C 1981 -1622 1775 -1547 1635 -1495 C 1494 -1442 1355 -1394 1325 -1388 C 1276 -1379 1268 -1380 1235 -1400 C 1216 -1412 1193 -1435 1185 -1450 C 1177 -1466 1170 -1499 1170 -1524 C 1170 -1556 1218 -1706 1340 -2055 C 1434 -2322 1524 -2578 1542 -2622 C 1565 -2683 1585 -2716 1619 -2750 C 1656 -2787 1683 -2803 1745 -2824 C 1789 -2839 1884 -2869 1955 -2891 C 2026 -2913 2130 -2939 2185 -2950 C 2240 -2961 2312 -2974 2345 -2979 C 2378 -2984 2470 -2988 2549 -2989 Z M 2559 -2820 C 2515 -2820 2494 -2814 2457 -2790 C 2432 -2774 2400 -2744 2386 -2722 C 2373 -2701 2350 -2650 2336 -2609 C 2321 -2568 2293 -2468 2272 -2385 L 2234 -2235 L 1972 -2130 C 1828 -2072 1699 -2016 1684 -2005 C 1666 -1991 1657 -1972 1653 -1942 C 1649 -1915 1652 -1890 1661 -1874 C 1668 -1860 1687 -1842 1702 -1834 C 1717 -1826 1740 -1820 1754 -1820 C 1767 -1820 1915 -1874 2081 -1940 C 2248 -2006 2392 -2068 2403 -2078 C 2414 -2089 2438 -2162 2464 -2266 C 2488 -2359 2517 -2468 2529 -2508 C 2541 -2547 2554 -2580 2559 -2580 C 2563 -2580 2577 -2550 2589 -2513 C 2600 -2475 2629 -2371 2652 -2280 C 2675 -2189 2702 -2103 2712 -2088 C 2726 -2067 2789 -2039 3022 -1947 C 3183 -1883 3327 -1828 3342 -1824 C 3358 -1821 3381 -1821 3395 -1824 C 3408 -1827 3431 -1843 3445 -1858 C 3468 -1881 3471 -1892 3467 -1933 C 3465 -1959 3455 -1989 3445 -2000 C 3435 -2011 3312 -2065 3171 -2120 C 3030 -2175 2909 -2224 2901 -2228 C 2893 -2233 2868 -2307 2844 -2399 C 2821 -2489 2792 -2590 2780 -2624 C 2767 -2657 2744 -2704 2728 -2727 C 2712 -2751 2680 -2781 2656 -2795 C 2624 -2813 2599 -2820 2559 -2820 Z" style="fill: rgb(255, 204, 153);"/>
    <path id="path1" d="M 2575 -4147 C 2666 -4145 2681 -4142 2751 -4108 C 2801 -4085 2846 -4054 2883 -4017 C 2914 -3985 2952 -3934 2970 -3897 C 2988 -3860 3006 -3802 3013 -3760 C 3021 -3707 3021 -3671 3013 -3623 C 3006 -3587 2988 -3530 2971 -3496 C 2955 -3462 2925 -3416 2906 -3394 C 2886 -3371 2845 -3335 2814 -3315 C 2783 -3294 2730 -3268 2696 -3258 C 2659 -3246 2606 -3239 2560 -3239 C 2514 -3239 2461 -3246 2424 -3258 C 2390 -3268 2337 -3294 2306 -3315 C 2275 -3335 2234 -3371 2214 -3394 C 2195 -3416 2165 -3462 2149 -3496 C 2132 -3530 2114 -3587 2107 -3623 C 2099 -3671 2099 -3707 2107 -3760 C 2114 -3802 2132 -3860 2150 -3897 C 2168 -3933 2206 -3985 2236 -4016 C 2266 -4045 2314 -4082 2343 -4097 C 2371 -4111 2413 -4129 2435 -4136 C 2460 -4145 2512 -4149 2575 -4147 Z" style="fill: rgb(255, 204, 153);"/>
  </g>
</svg>