<?xml version="1.0" encoding="utf-8"?>
<svg viewBox="796.989 32.567 511.545 512.226" width="511.545px" height="512.226px" xmlns="http://www.w3.org/2000/svg">
  <g transform="matrix(0.10924101620912552, 0, 0, 0.10924101620912552, 987.1310424804688, 815.671142578125)" fill="#FF9A00" style="">
    <path id="path-9" d="M 1587.442 -5789.625 C 1604.931 -5819.919 1607.372 -5836.869 1597.143 -5872.151 L 1585.114 -5917.039 L 1334.074 -6054.635 C 1195.17 -6129.936 852.798 -6326.389 852.497 -6324.106 C 846.263 -6276.754 731.747 -6211.203 695.83 -6201.577 C 683.165 -6198.183 914.576 -6067.94 1120.21 -5949.217 L 1494.757 -5732.972 L 1530.04 -5743.204 C 1557.022 -5749.657 1571.54 -5762.082 1587.442 -5789.625 Z M 1526.464 -6258.544 C 1529.643 -6264.052 1533.395 -6279.025 1535.551 -6291.24 C 1536.792 -6303.989 1533.48 -6327.932 1528.295 -6344.391 C 1519.085 -6372.964 1505.846 -6381.833 1181.79 -6568.925 C 922.911 -6718.389 835.946 -6764.927 801.658 -6771.258 C 777.752 -6776.492 -302.697 -6878.862 -321.768 -6877.634 C -342.284 -6876.016 -774.67 -6915.76 -806.241 -6911.957 C -837.815 -6908.153 -891.846 -6909.971 -925.216 -6915.775 C -979.208 -6926.137 -1011.483 -6942.322 -1192.327 -7046.734 C -1305.243 -7111.926 -1405.976 -7166.413 -1415.83 -7168.429 C -1431.331 -7171.26 -1452.248 -7139.272 -1587.401 -6905.179 L -1740.574 -6639.876 L -1290.996 -6383.983 C -846.927 -6131.274 -841.419 -6128.094 -770.476 -6115.286 C -730.538 -6108.141 -668.248 -6101.551 -631.308 -6099.809 C -594.756 -6099.515 -527.552 -6103.555 -481.501 -6111.238 C -435.978 -6118.003 -363.575 -6137.403 -319.321 -6154.694 C -276.516 -6171.594 -209.974 -6204.169 -173.45 -6227.146 C -10.56 -6365.969 -91.217 -6319.523 -70.437 -6324.821 C -37.36 -6333.255 92.903 -6368.851 295.406 -6313.608 C 388.852 -6288.116 444.662 -6274.111 589.772 -6307.589 C 604.782 -6312.388 718.753 -6361.656 728.825 -6379.102 C 742.073 -6402.05 744.27 -6422.815 736.121 -6453.224 C 728.996 -6476.921 714.773 -6501.044 701.919 -6508.466 C 689.068 -6515.885 573.906 -6518.011 340.238 -6541.536 C 59.78 -6568.818 17.718 -6625.824 7.906 -6636.387 C 0.844 -6645.358 -98.954 -6697.689 -94.287 -6712.131 C -127.552 -6738.521 461.389 -6708.112 786.931 -6620.9 C 864.622 -6600.087 922.214 -6495.004 908.728 -6484.303 C 911.756 -6455.624 947.795 -6460.446 1175.215 -6332.816 C 1346.107 -6236.6 1411.569 -6203.701 1435.76 -6203.201 C 1453.24 -6201.675 1479.975 -6211.942 1494.493 -6224.37 C 1509.543 -6237.713 1524.205 -6252.505 1526.464 -6258.544 Z M 1158.49 -5640.271 C 1170.15 -5660.468 1172.345 -5681.232 1164.832 -5706.377 L 1153.683 -5742.191 L 782.564 -5960.129 L 410.525 -6178.6 L 209.452 -6199.217 C 98.531 -6210.621 3.36 -6215.385 -3.103 -6210.548 C -10.627 -6203.877 101.615 -6135.401 516.554 -5895.834 C 962.704 -5638.251 1050.056 -5590.265 1078.98 -5589.478 C 1097.908 -5588.344 1119.098 -5593.246 1127.011 -5598.47 C 1134.534 -5605.141 1148.95 -5623.747 1158.49 -5640.271 Z M 502.12 -5575.141 C 507.422 -5584.321 512.76 -5602.048 514.919 -5614.266 C 516.157 -5627.014 512.846 -5650.959 507.66 -5667.417 C 498.451 -5695.989 483.377 -5705.918 193.041 -5877.215 L -162.583 -6086.206 C -263.978 -6021.217 -449.193 -5996.948 -440.679 -6004.47 L 79.836 -5700.221 C 290.978 -5578.317 386.205 -5527.009 407.498 -5525.733 C 424.98 -5524.207 450.514 -5530.274 465.808 -5539.804 C 481.631 -5550.253 497.739 -5565.432 502.12 -5575.141 Z" style="fill: rgb(255, 204, 153); transform-origin: 41.439px -6419.17px;"/>
    <path id="path1" d="M 827.74 -5363.894 L 1036.801 -5156.132 L 1245.863 -4948.37 L 1345.848 -4948.37 C 1406.878 -4948.37 1465.312 -4940.578 1493.879 -4928.892 C 1522.446 -4915.907 1641.909 -4809.428 1801.626 -4651.01 L 2062.628 -4392.605 L 2247.017 -4360.142 C 2348.302 -4340.665 2445.69 -4317.292 2462.572 -4305.605 C 2479.452 -4295.217 2500.228 -4270.545 2508.019 -4252.366 C 2517.108 -4234.186 2523.601 -4162.768 2523.601 -4092.649 L 2523.601 -3965.393 L 2720.976 -3771.915 C 2796.519 -3698.491 2855.555 -3644.259 2902.469 -3605.463 C 2863.19 -3607.527 2833.919 -3607.241 2832.171 -3602.001 C 2826.915 -3586.248 2931.128 -3416.249 2942.146 -3403.052 C 2923.652 -3411.429 2638.072 -3463.187 2638.072 -3457.818 C 2638.072 -3452.268 2754.527 -3258.178 2743.437 -3263.718 C 2732.347 -3269.259 2443.972 -3258.17 2443.972 -3258.17 C 2443.972 -3258.17 2521.601 -3086.249 2516.059 -3091.798 C 2510.519 -3097.348 2105.681 -3158.353 2105.681 -3158.353 L 2216.596 -2914.338 L 1833.946 -2986.433 L 1878.313 -2720.239 L 1512.293 -2853.34 C 1512.293 -2853.34 1540.013 -2620.414 1534.473 -2620.414 C 1528.932 -2620.414 1185.101 -2703.6 1185.101 -2703.6 L 1159.058 -2479.638 C 1137.239 -2510.953 1113.061 -2545.692 1090.04 -2578.579 C 1035.503 -2657.789 984.861 -2743.491 977.07 -2766.864 C 969.278 -2791.536 961.487 -2817.506 958.89 -2825.297 C 957.592 -2833.089 956.293 -2840.88 956.293 -2844.775 C 956.293 -2848.67 949.801 -2864.253 940.711 -2881.133 C 931.622 -2896.716 922.532 -2929.179 918.637 -2952.552 C 914.741 -2975.926 909.547 -3003.194 908.248 -3013.582 C 905.651 -3023.97 900.458 -3047.344 896.562 -3065.522 C 891.367 -3083.702 884.875 -3114.867 879.681 -3136.941 C 875.786 -3159.016 870.591 -3187.583 867.995 -3201.867 C 866.696 -3216.15 857.607 -3253.807 848.516 -3284.972 C 840.725 -3317.435 831.636 -3355.092 829.039 -3369.375 C 827.74 -3384.958 822.547 -3405.734 818.651 -3416.122 C 814.756 -3426.51 799.173 -3495.332 783.59 -3569.347 C 769.308 -3642.063 753.725 -3718.676 749.83 -3738.153 C 747.233 -3757.631 727.755 -3851.125 705.68 -3947.215 C 684.903 -4042.006 664.127 -4132.902 658.934 -4147.185 C 653.739 -4161.469 595.306 -4230.291 527.783 -4300.41 C 460.26 -4369.232 395.335 -4447.143 382.349 -4471.814 C 366.768 -4502.979 360.274 -4540.636 362.872 -4588.681 C 364.17 -4628.935 369.365 -4673.084 374.558 -4687.368 C 378.454 -4700.353 400.529 -4718.533 422.604 -4726.324 C 444.679 -4734.114 496.619 -4740.608 538.171 -4740.608 L 614.784 -4740.608 L 614.784 -5023.684 C 614.784 -5178.206 619.977 -5311.954 625.172 -5319.745 C 630.367 -5327.537 645.948 -5340.521 660.232 -5348.313 C 674.515 -5356.103 717.367 -5363.894 756.322 -5363.894 L 827.74 -5363.894 Z" style="fill: rgb(192, 192, 192);"/>
  </g>
</svg>