<?xml version="1.0" encoding="utf-8"?>
<svg viewBox="796.989 32.567 511.545 512.226" width="511.545px" height="512.226px" xmlns="http://www.w3.org/2000/svg">
  <g transform="matrix(0.11738899350166321, 0, 0, 0.11738899350166321, 1003.1389770507812, 854.70458984375)" fill="#FF9A00" style="">
    <path id="path-9" d="M 1343.849 -5725.502 C 1360.058 -5753.579 1362.321 -5769.288 1352.84 -5801.988 L 1341.692 -5843.59 L 1109.027 -5971.115 C 980.29 -6040.904 662.978 -6222.978 662.699 -6220.862 C 656.921 -6176.976 550.787 -6116.223 517.499 -6107.301 C 505.761 -6104.156 720.234 -5983.446 910.817 -5873.413 L 1257.949 -5672.996 L 1290.649 -5682.479 C 1315.656 -5688.46 1329.111 -5699.975 1343.849 -5725.502 Z M 1287.335 -6160.099 C 1290.281 -6165.203 1293.758 -6179.08 1295.757 -6190.401 C 1296.907 -6202.217 1293.837 -6224.408 1289.032 -6239.662 C 1280.496 -6266.144 1268.226 -6274.363 967.889 -6447.761 C 727.959 -6586.285 647.36 -6629.417 615.581 -6635.284 C 593.425 -6640.135 -407.94 -6735.012 -425.615 -6733.874 C -444.629 -6732.374 -845.367 -6769.209 -874.627 -6765.685 C -903.89 -6762.159 -953.966 -6763.844 -984.893 -6769.223 C -1034.933 -6778.827 -1064.846 -6793.827 -1232.453 -6890.597 C -1337.104 -6951.017 -1430.464 -7001.516 -1439.597 -7003.384 C -1453.963 -7006.008 -1473.349 -6976.361 -1598.609 -6759.403 L -1740.571 -6513.519 L -1323.9 -6276.356 C -912.335 -6042.144 -907.23 -6039.197 -841.48 -6027.326 C -804.465 -6020.704 -746.734 -6014.597 -712.498 -6012.982 C -678.622 -6012.71 -616.337 -6016.454 -573.656 -6023.575 C -531.465 -6029.845 -464.362 -6047.825 -423.347 -6063.85 C -383.675 -6079.513 -322.004 -6109.704 -288.153 -6130.999 C -137.186 -6259.661 -211.939 -6216.614 -192.68 -6221.524 C -162.024 -6229.341 -41.296 -6262.332 146.385 -6211.132 C 232.991 -6187.506 284.716 -6174.526 419.204 -6205.554 C 433.116 -6210.001 538.745 -6255.663 548.079 -6271.832 C 560.358 -6293.101 562.394 -6312.346 554.841 -6340.529 C 548.238 -6362.491 535.056 -6384.849 523.143 -6391.727 C 511.232 -6398.603 404.5 -6400.574 187.935 -6422.377 C -71.995 -6447.662 -110.978 -6500.495 -120.072 -6510.285 C -126.617 -6518.6 -219.11 -6567.1 -214.785 -6580.485 C -245.615 -6604.943 300.218 -6576.76 601.932 -6495.932 C 673.937 -6476.642 727.313 -6379.251 714.814 -6369.333 C 717.621 -6342.753 751.022 -6347.222 961.796 -6228.934 C 1120.179 -6139.761 1180.85 -6109.27 1203.27 -6108.806 C 1219.47 -6107.392 1244.249 -6116.908 1257.704 -6128.426 C 1271.652 -6140.792 1285.241 -6154.502 1287.335 -6160.099 Z M 946.295 -5587.08 C 957.101 -5605.799 959.136 -5625.043 952.173 -5648.348 L 941.84 -5681.54 L 597.885 -5883.526 L 253.077 -6086.006 L 66.722 -6105.114 C -36.08 -6115.683 -124.285 -6120.099 -130.275 -6115.616 C -137.248 -6109.433 -33.222 -6045.969 351.346 -5823.937 C 764.839 -5585.208 845.798 -5540.735 872.605 -5540.005 C 890.147 -5538.954 909.786 -5543.497 917.12 -5548.339 C 924.092 -5554.522 937.453 -5571.766 946.295 -5587.08 Z M 337.968 -5526.718 C 342.882 -5535.226 347.829 -5551.655 349.83 -5562.979 C 350.978 -5574.794 347.909 -5596.986 343.103 -5612.239 C 334.568 -5638.72 320.597 -5647.922 51.512 -5806.681 L -278.082 -6000.375 C -372.055 -5940.143 -543.713 -5917.65 -535.822 -5924.622 L -53.407 -5642.642 C 142.281 -5529.661 230.538 -5482.109 250.272 -5480.926 C 266.474 -5479.512 290.139 -5485.135 304.314 -5493.967 C 318.979 -5503.651 333.908 -5517.719 337.968 -5526.718 Z" style="transform-origin: -88.993px -6308.96px; fill: rgb(255, 204, 153);"/>
  </g>
  <g transform="matrix(0.7434750199317932, 0, 0, 0.7434750199317932, 963.4740600585938, 180.0515441894531)" style="">
    <path d="M289.2 22.7 Q287.95 22.75 286.75 22.85 285.55 23.0 284.4 23.2 283.2 23.45 282.05 23.75 280.85 24.1 279.75 24.5 278.6 24.95 277.55 25.5 276.45 26.05 275.45 26.7 274.4 27.35 273.45 28.15 272.5 28.95 271.6 29.85 271.5 29.95 271.4 30.05 271.35 30.1 271.25 30.2 271.15 30.3 271.05 30.4 271.0 30.5 270.9 30.6 270.8 30.7 270.75 30.75 270.65 30.85 270.55 30.95 270.5 31.05 270.4 31.15 270.35 31.25 270.25 31.35 L270.05 31.15 Q266.6 35.5 263.4 39.9 259.95 44.55 256.8 49.2 253.45 54.1 250.4 59.0 247.2 64.1 244.25 69.25 241.2 74.6 238.5 79.9 235.65 85.45 233.2 91.0 230.65 96.75 228.45 102.45 226.2 108.35 224.35 114.25 222.2 121.05 220.6 127.8 218.95 134.75 217.9 141.6 216.8 148.7 216.35 155.7 215.85 162.9 216.05 170.0 216.25 177.3 217.15 184.55 218.1 191.95 219.75 199.2 221.5 206.7 224.0 214.05 226.6 221.6 230.05 229.05 L213.05 236.9 Q210.4 231.15 208.2 225.3 206.0 219.55 204.3 213.7 202.6 207.95 201.3 202.15 200.05 196.45 199.2 190.65 198.35 185.0 197.9 179.3 197.5 173.7 197.4 168.0 197.35 162.5 197.65 156.9 197.9 151.4 198.55 145.9 196.95 146.85 195.4 147.85 193.85 148.8 192.3 149.85 190.75 150.9 189.25 152.0 187.75 153.1 186.25 154.25 184.75 155.4 183.3 156.6 181.85 157.8 180.4 159.05 179.0 160.3 177.6 161.6 176.2 162.9 174.85 164.2 170.65 158.75 166.25 153.35 161.8 148.0 157.2 142.75 152.6 137.5 147.8 132.45 143.05 127.4 138.15 122.55 133.25 117.7 128.3 113.1 123.35 108.5 118.35 104.15 113.3 99.85 108.35 95.85 103.3 91.85 98.35 88.2 98.1 87.95 97.8 87.7 97.55 87.45 97.25 87.2 96.95 86.95 96.7 86.7 96.4 86.45 96.1 86.25 95.8 86.0 95.5 85.8 95.15 85.55 94.85 85.35 94.55 85.15 94.2 84.95 93.85 84.7 93.55 84.55 92.9 84.2 92.25 83.85 91.65 83.55 90.95 83.3 90.3 83.0 89.65 82.8 89.0 82.55 88.3 82.35 87.65 82.15 87.0 82.05 86.3 81.9 85.65 81.75 84.95 81.65 84.25 81.6 83.6 81.55 82.9 81.5 82.25 81.45 81.8 81.45 81.25 81.5 80.65 81.5 79.65 81.55 78.65 81.65 77.65 81.75 76.65 81.95 75.65 82.1 74.65 82.35 73.7 82.55 72.7 82.85 71.75 83.15 70.75 83.5 69.8 83.85 68.85 84.25 67.95 84.65 67.0 85.1 66.1 85.55 65.2 86.05 63.55 86.95 61.95 88.0 60.4 89.05 58.85 90.25 57.3 91.45 55.8 92.75 54.35 94.05 52.9 95.5 51.5 96.95 50.15 98.55 48.75 100.1 47.5 101.8 46.2 103.5 45.0 105.3 43.8 107.1 42.7 109.0 41.6 110.9 40.6 112.85 39.6 114.75 38.75 116.7 37.95 118.65 37.2 120.6 36.5 122.55 35.95 124.5 35.4 126.45 35.0 128.35 34.55 130.3 34.3 132.2 34.0 134.15 33.9 136.05 33.75 137.9 33.8 139.8 33.8 141.7 34.0 143.5 34.2 145.4 34.6 147.2 35.0 149.05 35.55 150.75 36.15 152.55 36.9 154.15 37.7 155.85 38.7 157.35 39.7 158.9 40.9 160.25 42.15 161.65 43.55 162.8 45.05 164.0 46.7 164.95 46.9 165.05 47.8 165.55 L47.7 165.8 Q54.15 169.75 58.3 172.35 64.35 176.15 69.5 179.5 75.55 183.45 80.95 187.15 87.05 191.3 92.5 195.3 98.5 199.7 103.9 204.05 109.7 208.7 114.8 213.3 120.3 218.2 125.05 223.1 130.05 228.25 134.3 233.4 133.05 237.7 132.1 242.05 131.1 246.4 130.4 250.75 129.65 255.1 129.2 259.4 128.75 263.7 128.6 268.0 128.4 272.25 128.5 276.45 128.6 280.7 129.0 284.8 129.35 288.95 130.05 292.9 130.7 296.95 131.7 300.8 134.55 312.0 138.85 323.3 143.1 334.2 148.7 345.05 154.15 355.6 160.85 365.95 167.35 376.05 174.95 385.85 182.4 395.35 190.75 404.5 198.95 413.4 207.85 421.75 216.65 429.95 225.95 437.5 235.15 444.9 244.7 451.45 249.45 454.7 254.25 457.75 259.0 460.75 263.8 463.55 268.55 466.3 273.3 468.85 278.05 471.35 282.75 473.6 287.45 475.85 292.1 477.8 296.75 479.8 301.3 481.45 305.8 483.15 310.25 484.5 314.65 485.9 318.95 486.95 323.2 488.0 327.3 488.8 331.4 489.55 335.3 489.95 339.2 490.4 342.85 490.55 346.5 490.65 349.95 490.5 353.35 490.3 356.5 489.8 359.7 489.35 362.55 488.55 365.45 487.8 368.0 486.75 370.6 485.65 372.85 484.3 377.9 481.3 382.6 477.6 387.25 474.0 391.55 469.75 395.8 465.65 399.7 460.9 403.55 456.25 407.05 451.05 410.5 445.95 413.65 440.3 416.75 434.8 419.55 428.8 422.25 422.9 424.7 416.6 427.1 410.4 429.15 403.8 427.85 404.55 426.55 405.25 425.3 406.0 423.95 406.65 422.65 407.35 421.3 408.0 419.95 408.65 418.6 409.25 417.25 409.9 415.9 410.45 414.55 411.05 413.15 411.6 411.75 412.15 410.35 412.65 408.95 413.2 407.55 413.65 400.85 415.9 393.85 417.45 386.9 419.0 379.7 419.85 372.5 420.65 365.25 420.75 357.95 420.85 350.65 420.2 343.3 419.6 336.05 418.25 328.75 416.85 321.6 414.8 314.45 412.7 307.5 409.9 300.55 407.1 293.9 403.6 287.2 400.05 280.95 395.8 274.6 391.5 268.8 386.5 262.9 381.4 257.7 375.75 252.35 369.9 247.75 363.5 243.05 356.95 239.15 349.85 235.2 342.55 232.1 334.75 228.95 326.75 226.8 318.25 224.55 309.55 223.4 300.35 L241.9 297.95 Q242.95 306.05 244.9 313.65 246.75 321.1 249.45 328.0 252.1 334.8 255.5 341.05 258.8 347.15 262.85 352.75 266.8 358.25 271.4 363.2 275.85 368.05 280.95 372.4 285.9 376.65 291.45 380.35 296.8 383.95 302.65 387.05 308.4 390.1 314.5 392.55 320.55 394.95 326.85 396.8 333.05 398.55 339.45 399.75 345.8 400.95 352.25 401.5 358.65 402.05 365.0 401.95 371.35 401.9 377.55 401.2 383.8 400.5 389.8 399.2 395.85 397.85 401.55 395.95 407.3 394.0 412.6 391.5 418.0 389.0 422.85 385.95 427.8 382.8 432.2 379.15 436.65 375.45 440.45 371.2 444.35 366.9 447.55 362.05 450.85 357.1 453.35 351.65 455.95 346.05 457.75 340.0 459.55 333.75 460.55 327.05 461.4 321.35 461.6 315.3 461.8 309.1 461.35 302.55 460.9 295.85 459.7 288.85 458.5 281.65 456.55 274.15 454.55 266.5 451.8 258.5 448.95 250.3 445.3 241.85 441.55 233.2 436.95 224.25 432.3 215.05 426.75 205.65 423.2 206.05 419.55 206.55 415.95 207.05 412.35 207.65 408.75 208.25 405.15 208.9 401.55 209.55 397.95 210.3 394.45 211.05 390.85 211.85 387.35 212.65 383.85 213.55 380.35 214.4 376.9 215.3 373.5 216.25 370.1 217.2 L364.9 199.3 Q367.3 198.6 369.7 197.95 372.15 197.25 374.6 196.6 377.05 196.0 379.5 195.35 382.0 194.75 384.5 194.15 387.0 193.55 389.5 193.0 392.05 192.45 394.55 191.95 397.1 191.4 399.65 190.95 402.25 190.45 404.8 190.0 405.3 190.05 405.8 190.05 406.3 190.1 406.8 190.1 407.3 190.1 407.75 190.05 408.3 190.05 408.8 190.0 409.3 189.95 409.8 189.9 410.3 189.8 410.8 189.75 411.3 189.65 411.8 189.55 412.3 189.4 412.8 189.3 413.0 189.25 413.2 189.2 413.4 189.15 413.55 189.05 413.75 189.0 413.95 188.95 414.15 188.9 414.3 188.8 414.5 188.75 414.7 188.7 414.85 188.6 415.05 188.55 415.2 188.45 415.4 188.4 415.6 188.3 415.75 188.25 415.75 188.25 415.8 188.25 415.85 188.2 415.85 188.2 415.85 188.2 415.85 188.2 415.85 188.2 415.85 188.2 417.35 187.55 418.8 186.65 420.2 185.8 421.45 184.75 422.7 183.75 423.85 182.55 424.95 181.4 425.95 180.05 426.95 178.75 427.8 177.3 428.65 175.9 429.4 174.4 430.1 172.9 430.7 171.35 431.3 169.8 431.75 168.15 432.25 166.35 432.65 164.5 433.05 162.65 433.3 160.7 433.55 158.75 433.65 156.8 433.8 154.8 433.75 152.8 433.75 150.75 433.6 148.7 433.45 146.6 433.15 144.5 432.9 142.4 432.45 140.3 432.05 138.15 431.5 136.05 430.95 133.9 430.25 131.85 429.6 129.8 428.8 127.8 428.05 125.85 427.15 123.95 426.25 122.1 425.3 120.3 424.3 118.55 423.25 116.9 422.15 115.2 421.0 113.65 419.85 112.1 418.6 110.7 417.35 109.25 416.0 107.95 415.0 106.95 413.95 106.1 412.85 105.15 411.75 104.35 410.6 103.55 409.4 102.8 408.2 102.1 407.0 101.45 405.75 100.85 404.45 100.35 403.15 99.85 401.85 99.45 400.55 99.1 399.2 98.85 397.85 98.6 396.5 98.55 396.1 98.5 395.65 98.5 395.25 98.5 394.8 98.5 394.4 98.5 393.95 98.55 393.55 98.55 393.1 98.6 392.7 98.6 392.25 98.7 391.85 98.75 391.4 98.8 391.0 98.85 390.55 98.95 390.1 99.05 389.7 99.15 L389.6 98.75 Q386.55 99.85 383.5 101.05 380.4 102.25 377.3 103.5 374.1 104.85 370.95 106.2 367.75 107.65 364.55 109.1 361.3 110.65 358.1 112.2 354.8 113.85 351.6 115.55 348.3 117.3 345.1 119.1 341.8 120.95 338.6 122.85 336.9 125.0 335.35 127.1 333.75 129.25 332.25 131.35 330.75 133.45 329.4 135.55 328.0 137.65 326.7 139.75 325.4 141.85 324.2 143.9 323.05 146.0 321.95 148.05 320.9 150.1 319.9 152.15 318.95 154.2 318.1 156.25 316.75 159.45 315.7 162.55 314.65 165.75 313.9 168.85 313.1 172.0 312.65 175.15 312.15 178.3 311.95 181.45 311.8 184.65 311.9 187.8 312.05 191.05 312.5 194.3 312.95 197.6 313.75 200.9 314.55 204.25 315.65 207.7 L297.95 213.6 Q296.55 209.4 295.6 205.2 294.65 201.05 294.05 196.85 293.5 192.75 293.35 188.6 293.2 184.55 293.45 180.45 293.65 176.45 294.25 172.4 294.85 168.45 295.8 164.5 296.75 160.6 298.0 156.7 299.25 152.9 300.85 149.05 302.25 145.75 303.85 142.4 305.45 139.15 307.3 135.85 309.1 132.65 311.15 129.4 313.15 126.2 315.35 123.0 317.55 119.85 319.95 116.6 322.25 113.5 324.85 110.3 327.3 107.2 330.05 104.0 332.65 100.9 335.5 97.7 L335.35 97.55 Q336.5 96.55 337.15 95.9 338.5 94.55 339.6 93.0 340.65 91.5 341.5 89.8 342.3 88.2 342.85 86.4 343.4 84.7 343.7 82.85 344.05 81.1 344.15 79.2 344.25 77.4 344.15 75.5 344.05 73.65 343.75 71.8 343.45 69.95 343.0 68.15 342.55 66.35 341.95 64.5 341.35 62.7 340.6 60.9 339.85 59.1 338.95 57.35 338.1 55.55 337.05 53.8 336.05 52.05 334.85 50.35 333.7 48.65 332.4 46.95 331.1 45.3 329.65 43.65 328.25 42.05 326.7 40.45 L326.65 40.45 Q325.1 38.9 323.5 37.45 321.9 36.0 320.2 34.7 318.55 33.35 316.85 32.2 315.15 31.0 313.45 29.95 311.7 28.9 309.95 28.0 308.2 27.1 306.4 26.35 304.65 25.6 302.85 24.95 301.05 24.35 299.25 23.9 298.8 23.8 298.35 23.7 297.9 23.6 297.45 23.5 297.0 23.4 296.55 23.3 296.05 23.25 295.6 23.15 295.15 23.1 294.7 23.05 294.25 22.95 293.75 22.95 293.3 22.9 292.85 22.85 292.4 22.8 291.9 22.8 291.8 22.8 291.75 22.8 291.65 22.8 291.55 22.75 291.45 22.75 291.4 22.75 291.3 22.75 291.2 22.75 291.1 22.75 291.05 22.75 290.95 22.75 290.85 22.75 290.75 22.7 290.7 22.7 290.6 22.7 290.5 22.7 290.3 22.7 289.85 22.7 289.4 22.7 289.2 22.7 L289.2 22.7 M289.85 41.35 Q290.55 41.35 291.0 41.35 291.2 41.35 291.4 41.4 291.6 41.4 291.85 41.45 292.05 41.5 292.25 41.5 292.5 41.55 292.7 41.6 292.95 41.65 293.2 41.7 293.4 41.75 293.65 41.8 293.9 41.85 294.15 41.9 294.4 41.95 294.65 42.05 295.7 42.3 296.8 42.7 297.9 43.05 299.05 43.55 300.2 44.05 301.4 44.65 302.6 45.3 303.75 46.0 305.0 46.75 306.2 47.55 307.45 48.4 308.65 49.35 309.85 50.3 311.05 51.35 312.25 52.45 313.4 53.6 314.55 54.75 315.6 55.95 316.65 57.15 317.6 58.4 318.5 59.6 319.35 60.85 320.15 62.1 320.9 63.35 321.6 64.55 322.2 65.75 322.85 66.95 323.35 68.15 323.8 69.3 324.2 70.45 324.6 71.55 324.85 72.65 325.1 73.7 325.25 74.65 325.4 75.55 325.45 76.4 325.55 77.2 325.5 77.95 325.5 78.65 325.4 79.3 325.3 79.9 325.15 80.45 325.0 80.95 324.75 81.4 324.6 81.85 324.35 82.2 324.1 82.5 323.85 82.8 323.6 83.05 323.25 83.3 322.9 83.55 322.5 83.7 322.1 83.9 321.6 84.05 321.1 84.2 320.5 84.3 319.9 84.4 319.2 84.45 318.5 84.45 317.75 84.4 316.9 84.3 316.0 84.15 315.1 84.0 314.05 83.75 313.0 83.5 311.9 83.1 310.8 82.7 309.65 82.25 308.5 81.7 307.35 81.1 306.15 80.5 304.95 79.75 303.7 79.05 302.5 78.2 301.3 77.35 300.1 76.4 298.85 75.45 297.7 74.4 296.5 73.3 295.35 72.15 294.2 71.0 293.15 69.8 292.1 68.6 291.15 67.35 290.2 66.15 289.4 64.9 288.55 63.65 287.85 62.4 287.1 61.2 286.5 60.0 285.9 58.8 285.4 57.6 284.9 56.45 284.5 55.3 284.15 54.2 283.85 53.15 283.6 52.1 283.45 51.15 283.3 50.2 283.25 49.35 283.2 48.55 283.2 47.8 283.25 47.1 283.35 46.45 283.45 45.85 283.6 45.3 283.75 44.8 283.95 44.35 284.15 43.95 284.4 43.6 284.6 43.25 284.85 43.0 285.05 42.85 285.2 42.65 285.45 42.5 285.65 42.35 285.9 42.2 286.15 42.1 286.45 41.95 286.75 41.85 287.05 41.7 287.4 41.65 287.75 41.55 288.15 41.5 288.5 41.4 288.95 41.4 289.4 41.35 289.85 41.35 L289.85 41.35 M81.7 100.1 Q81.9 100.1 82.1 100.15 82.3 100.15 82.45 100.2 82.65 100.2 82.8 100.25 83.0 100.3 83.15 100.35 83.3 100.35 83.45 100.4 83.6 100.45 83.75 100.55 83.9 100.6 84.05 100.65 84.15 100.7 84.3 100.8 84.6 101.0 84.9 101.25 85.25 101.5 85.55 101.85 85.85 102.2 86.1 102.6 86.4 103.05 86.6 103.6 86.85 104.15 87.05 104.8 87.25 105.5 87.4 106.25 87.55 107.1 87.65 108.0 87.75 108.95 87.75 109.95 87.75 111.05 87.7 112.2 87.6 113.35 87.4 114.6 87.25 115.85 86.95 117.15 86.65 118.45 86.25 119.8 85.85 121.15 85.4 122.55 84.85 123.95 84.3 125.35 83.65 126.8 82.95 128.2 82.25 129.65 81.4 131.05 80.6 132.45 79.7 133.8 78.8 135.1 77.85 136.35 76.9 137.55 75.95 138.7 74.95 139.8 73.95 140.85 72.95 141.85 71.95 142.75 70.95 143.65 69.95 144.45 68.95 145.2 67.95 145.9 66.95 146.55 66.0 147.05 65.05 147.55 64.2 147.95 63.3 148.35 62.5 148.65 61.75 148.9 61.0 149.05 60.35 149.25 59.7 149.3 59.1 149.35 58.5 149.35 58.0 149.35 57.5 149.25 57.05 149.2 56.65 149.05 56.25 148.9 55.95 148.7 55.6 148.5 55.3 148.25 55.0 148.0 54.7 147.65 54.4 147.3 54.1 146.9 53.85 146.45 53.6 145.9 53.35 145.35 53.15 144.7 52.95 144.0 52.8 143.25 52.65 142.4 52.55 141.5 52.5 140.55 52.45 139.55 52.45 138.45 52.55 137.3 52.6 136.15 52.8 134.9 53.0 133.65 53.25 132.35 53.55 131.05 53.95 129.7 54.35 128.3 54.85 126.95 55.35 125.5 55.95 124.1 56.55 122.7 57.25 121.3 58.0 119.85 58.8 118.45 59.6 117.05 60.55 115.7 61.4 114.4 62.35 113.15 63.3 111.95 64.3 110.8 65.25 109.7 66.25 108.65 67.25 107.65 68.25 106.75 69.25 105.85 70.3 105.05 71.3 104.3 72.3 103.6 73.25 102.95 74.2 102.45 74.7 102.2 75.15 101.95 75.6 101.7 76.05 101.5 76.45 101.35 76.9 101.15 77.3 101.0 77.7 100.85 78.1 100.7 78.45 100.6 78.85 100.5 79.2 100.4 79.55 100.35 79.9 100.3 80.2 100.2 80.55 100.2 80.6 100.2 80.7 100.2 80.75 100.15 80.85 100.15 80.9 100.15 81.0 100.15 81.05 100.15 81.15 100.15 81.2 100.15 81.25 100.15 81.35 100.15 81.4 100.1 81.5 100.1 81.55 100.1 81.6 100.1 81.7 100.15 L81.7 100.1 M191.65 101.4 Q189.2 101.4 186.75 101.7 184.3 101.95 181.9 102.45 179.5 102.9 177.15 103.65 174.8 104.35 172.6 105.25 170.35 106.2 168.3 107.3 166.2 108.4 164.3 109.7 162.4 111.0 160.7 112.45 159.05 113.95 157.6 115.55 158.9 116.9 160.15 118.25 161.45 119.55 162.7 120.95 163.95 122.3 165.2 123.65 166.5 125.0 167.7 126.35 168.95 127.75 170.2 129.1 171.4 130.5 172.6 131.85 173.85 133.25 175.0 134.65 176.2 136.0 177.4 137.4 178.9 136.3 180.35 135.25 181.85 134.25 183.4 133.25 184.9 132.2 186.45 131.25 188.0 130.3 189.6 129.4 191.15 128.45 192.75 127.6 194.4 126.75 196.0 125.9 197.65 125.1 199.25 124.3 200.95 123.55 202.6 122.8 202.8 121.9 203.05 121.0 203.25 120.1 203.5 119.25 203.7 118.35 203.95 117.45 204.2 116.55 204.45 115.7 204.65 114.8 204.95 113.9 205.2 113.05 205.45 112.15 205.7 111.3 205.95 110.4 206.25 109.55 206.5 108.65 206.9 107.35 207.85 104.55 206.9 104.15 205.95 103.8 205.0 103.45 204.0 103.15 203.05 102.85 202.0 102.6 201.0 102.35 200.0 102.15 199.0 101.95 197.95 101.8 196.9 101.65 195.85 101.6 194.8 101.5 193.75 101.45 192.7 101.4 191.6 101.4 L191.65 101.4 M394.75 117.2 Q394.8 117.2 394.85 117.2 394.9 117.2 394.95 117.2 395.0 117.2 395.05 117.2 395.1 117.15 395.2 117.15 395.25 117.15 395.3 117.15 395.35 117.15 395.4 117.15 395.45 117.2 395.5 117.2 395.55 117.2 395.6 117.2 395.95 117.2 396.3 117.3 396.7 117.35 397.1 117.5 397.5 117.6 397.95 117.8 398.35 118.0 398.8 118.2 399.3 118.45 399.75 118.8 400.25 119.1 400.75 119.5 401.3 119.9 401.8 120.35 402.35 120.85 402.95 121.4 403.7 122.15 404.45 123.0 405.25 123.9 406.0 124.9 406.75 125.9 407.45 127.0 408.2 128.15 408.85 129.4 409.55 130.6 410.15 131.95 410.8 133.3 411.4 134.7 411.95 136.15 412.45 137.65 412.95 139.2 413.4 140.75 413.8 142.3 414.1 143.9 414.4 145.45 414.6 147.0 414.8 148.55 414.9 150.05 415.0 151.5 415.0 152.95 415.0 154.35 414.95 155.7 414.85 157.05 414.7 158.35 414.55 159.6 414.3 160.75 414.1 161.9 413.8 162.95 413.5 164.0 413.15 164.9 412.8 165.75 412.45 166.55 412.1 167.3 411.7 167.9 411.3 168.5 410.9 169.05 410.55 169.5 410.1 169.9 409.75 170.25 409.35 170.55 408.95 170.8 408.55 171.0 408.2 171.2 407.85 171.3 407.5 171.4 407.1 171.45 406.7 171.45 406.25 171.45 405.75 171.4 405.25 171.25 404.75 171.15 404.2 170.95 403.65 170.7 403.05 170.4 402.4 170.05 401.75 169.6 401.1 169.15 400.4 168.55 399.65 167.95 398.9 167.2 398.15 166.45 397.4 165.6 396.6 164.7 395.85 163.7 395.1 162.7 394.4 161.6 393.65 160.45 393.0 159.2 392.3 157.95 391.65 156.65 391.05 155.3 390.45 153.9 389.9 152.45 389.4 150.95 388.9 149.4 388.45 147.85 388.05 146.3 387.75 144.7 387.45 143.15 387.25 141.6 387.05 140.05 386.95 138.55 386.85 137.1 386.85 135.65 386.8 134.25 386.9 132.9 386.95 131.55 387.15 130.25 387.3 129.0 387.55 127.85 387.75 126.7 388.05 125.6 388.35 124.6 388.7 123.65 389.05 122.8 389.4 122.05 389.75 121.3 390.15 120.65 390.55 120.05 390.95 119.55 391.3 119.1 391.7 118.7 392.1 118.35 392.5 118.05 392.9 117.75 393.25 117.6 393.65 117.4 394.0 117.3 394.05 117.3 394.1 117.3 394.15 117.25 394.2 117.25 394.2 117.25 394.25 117.25 394.3 117.25 394.35 117.25 394.4 117.2 394.45 117.2 394.5 117.2 394.55 117.2 394.6 117.2 394.65 117.2 394.7 117.2 394.75 117.2 L394.75 117.2" fill-rule="evenodd" stroke="none" style="fill: rgb(255, 107, 109);"/>
  </g>
</svg>