<?xml version="1.0" encoding="UTF-8" standalone="no"?>
<svg
   viewBox="796.989 32.567 511.545 512.226"
   width="511.54501"
   height="512.22601"
   version="1.1"
   id="svg3"
   sodipodi:docname="FID_SkillsOfTheWild.esp_0x00094D.svg"
   xml:space="preserve"
   inkscape:export-filename="FID_Taunt Your Enemies.esp_0x001D65.svg"
   inkscape:export-xdpi="96"
   inkscape:export-ydpi="96"
   xmlns:inkscape="http://www.inkscape.org/namespaces/inkscape"
   xmlns:sodipodi="http://sodipodi.sourceforge.net/DTD/sodipodi-0.dtd"
   xmlns="http://www.w3.org/2000/svg"
   xmlns:svg="http://www.w3.org/2000/svg"><defs
     id="defs3" /><sodipodi:namedview
     id="namedview3"
     pagecolor="#b6b6b6"
     bordercolor="#000000"
     borderopacity="0.25"
     inkscape:showpageshadow="2"
     inkscape:pageopacity="0.0"
     inkscape:pagecheckerboard="0"
     inkscape:deskcolor="#818181"
     inkscape:zoom="0.70710678"
     inkscape:cx="92.630988"
     inkscape:cy="267.99347"
     inkscape:window-width="1920"
     inkscape:window-height="1017"
     inkscape:window-x="-8"
     inkscape:window-y="-8"
     inkscape:window-maximized="1"
     inkscape:current-layer="g85" /><g
     id="g85"
     inkscape:label="Vanilla"
     style="display:inline"
     transform="translate(507.53289)"><g
       id="g54"
       inkscape:label="Water"
       style="image-rendering:auto"
       transform="matrix(6.2940095,0,0,6.8228979,750.64905,-31.996195)"><path
         d="m 84,77.637277 c -1.9073,-0.7849 -3.9388,-1.2251 -6,-1.3 v 0 c -2.0612,0.0749 -4.0927,0.5151 -6,1.3 -1.2805,0.4994 -2.629,0.8028 -4,0.9 v 0 c -1.371,-0.0972 -2.7195,-0.4006 -4,-0.9 -1.9073,-0.7849 -3.9388,-1.2251 -6,-1.3 v 0 c -2.0612,0.0749 -4.0927,0.5151 -6,1.3 -1.2805,0.4994 -2.629,0.8028 -4,0.9 -1.371,-0.097 -2.7195,-0.4005 -4,-0.9 -1.9073,-0.7849 -3.9388,-1.2251 -6,-1.3 v 0 c -2.0612,0.0749 -4.0927,0.5151 -6,1.3 -1.2805,0.4994 -2.629,0.8028 -4,0.9 -1.371,-0.0972 -2.7195,-0.4006 -4,-0.9 -1.9073,-0.7849 -3.9388,-1.2251 -6,-1.3 v 0 c -2.0612,0.0749 -4.0927,0.5151 -6,1.3 -1.2805,0.4994 -2.629,0.8028 -4,0.9 v 6 c 2.0612,-0.0749 4.0927,-0.5151 6,-1.3 1.2658,-0.546 2.6223,-0.8512 4,-0.9 1.371,0.0972 2.7195,0.4006 4,0.9 1.9073,0.7849 3.9388,1.2251 6,1.3 v 0 c 2.0612,-0.0749 4.0927,-0.5151 6,-1.3 1.2658,-0.546 2.6223,-0.8512 4,-0.9 1.371,0.0972 2.7195,0.4006 4,0.9 1.9073,0.7849 3.9388,1.2251 6,1.3 2.0612,-0.0749 4.0927,-0.5151 6,-1.3 1.2658,-0.546 2.6223,-0.8512 4,-0.9 1.371,0.0972 2.7195,0.4006 4,0.9 1.9073,0.7849 3.9388,1.2251 6,1.3 v 0 c 2.0612,-0.0749 4.0927,-0.5151 6,-1.3 1.2658,-0.546 2.6223,-0.8512 4,-0.9 1.371,0.0972 2.7195,0.4006 4,0.9 1.9073,0.7849 3.9388,1.2251 6,1.3 v -6 c -1.371,-0.0972 -2.7195,-0.4006 -4,-0.9 z"
         id="path6"
         style="fill:#4e95d9;fill-opacity:1;stroke:none;stroke-width:0.999982;stroke-linejoin:miter;stroke-dasharray:none;stroke-opacity:1;image-rendering:auto" /><path
         d="m 84,68.553854 c -1.9073,-0.7849 -3.9388,-1.2251 -6,-1.3 v 0 c -2.0612,0.0749 -4.0927,0.5151 -6,1.3 -1.2805,0.4994 -2.629,0.8028 -4,0.9 v 0 c -1.371,-0.0972 -2.7195,-0.4006 -4,-0.9 -1.9073,-0.7849 -3.9388,-1.2251 -6,-1.3 v 0 c -2.0612,0.0749 -4.0927,0.5151 -6,1.3 -1.2805,0.4994 -2.629,0.8028 -4,0.9 -1.371,-0.097 -2.7195,-0.4005 -4,-0.9 -1.9073,-0.7849 -3.9388,-1.2251 -6,-1.3 v 0 c -2.0612,0.0749 -4.0927,0.5151 -6,1.3 -1.2805,0.4994 -2.629,0.8028 -4,0.9 -1.371,-0.0972 -2.7195,-0.4006 -4,-0.9 -1.9073,-0.7849 -3.9388,-1.2251 -6,-1.3 v 0 c -2.0612,0.0749 -4.0927,0.5151 -6,1.3 -1.2805,0.4994 -2.629,0.8028 -4,0.9 v 6 c 2.0612,-0.0749 4.0927,-0.5151 6,-1.3 1.2658,-0.546 2.6223,-0.8512 4,-0.9 1.371,0.0972 2.7195,0.4006 4,0.9 1.9073,0.7849 3.9388,1.2251 6,1.3 v 0 c 2.0612,-0.0749 4.0927,-0.5151 6,-1.3 1.2658,-0.546 2.6223,-0.8512 4,-0.9 1.371,0.0972 2.7195,0.4006 4,0.9 1.9073,0.7849 3.9388,1.2251 6,1.3 2.0612,-0.0749 4.0927,-0.5151 6,-1.3 1.2658,-0.546 2.6223,-0.8512 4,-0.9 1.371,0.0972 2.7195,0.4006 4,0.9 1.9073,0.7849 3.9388,1.2251 6,1.3 v 0 c 2.0612,-0.0749 4.0927,-0.5151 6,-1.3 1.2658,-0.546 2.6223,-0.8512 4,-0.9 1.371,0.0972 2.7195,0.4006 4,0.9 1.9073,0.7849 3.9388,1.2251 6,1.3 v -6 c -1.371,-0.0972 -2.7195,-0.4006 -4,-0.9 z"
         id="path14"
         style="fill:#4e95d9;fill-opacity:1;stroke:none;stroke-width:0.999982;stroke-linejoin:miter;stroke-dasharray:none;stroke-opacity:1;image-rendering:auto" /></g><g
       id="_326_Water_Polo"
       transform="matrix(6.2940095,0,0,6.8228979,750.64905,-31.996195)"
       style="fill:#ffcc99;fill-opacity:1;image-rendering:auto"
       inkscape:label="Body"><style
         id="style1">
.MsftOfcThm_Text2_lumMod_50_lumOff_50_Fill_v2 {
 fill:#4E95D9; 
}
</style><path
         id="circle1"
         style="fill:#ffcc99;fill-opacity:1;image-rendering:auto"
         d="m 48.000101,20.999999 c -2.199985,0 -4.400209,0.400024 -6.600194,1.000024 -3.199985,0.799995 -5.999959,2.40007 -8.399944,4.40006 -0.6,0.599995 -0.999903,1.39993 -1.199903,2.199925 l -3.160433,14.875737 c 0,0.155137 -0.117852,0.431178 -0.171862,0.733657 1.246185,0.097 2.472199,0.397328 3.629187,0.913465 0.862752,0.364752 1.771297,0.58635 2.695024,0.657343 0.08074,-0.0062 0.160585,-0.01992 0.241067,-0.02843 0.02418,-0.09226 0.0495,-0.18231 0.07297,-0.276193 l 2.894067,-14.048413 -8.37e-4,8.11497 v 4.888886 c 0.189848,-0.07255 0.381551,-0.138836 0.568067,-0.222042 0.852844,-0.398783 1.766786,-0.6217 2.695024,-0.657343 0.923722,0.07099 1.832276,0.292596 2.695024,0.657343 1.285058,0.573273 2.653995,0.894721 4.042744,0.949426 0.04176,-0.0016 0.08334,-0.0054 0.12503,-0.0079 0.04176,0.0025 0.08341,0.0063 0.125238,0.0079 1.388749,-0.05471 2.757686,-0.376154 4.042744,-0.949426 0.862748,-0.364748 1.771302,-0.58635 2.695024,-0.657343 0.928238,0.03564 1.84218,0.258559 2.695024,0.657343 0.186516,0.08321 0.378219,0.149493 0.568067,0.222042 v -4.88889 l -8.37e-4,-8.11497 2.894067,14.048413 c 0.02347,0.09388 0.04879,0.183933 0.07297,0.276193 0.08048,0.0085 0.160327,0.02223 0.241067,0.02843 0.923727,-0.07099 1.832272,-0.292592 2.695024,-0.657343 1.156988,-0.516137 2.383002,-0.816465 3.629187,-0.913465 -0.05401,-0.302479 -0.171862,-0.57852 -0.171862,-0.733657 L 64.45041,28.600008 c -0.2,-0.799995 -0.599903,-1.59993 -1.199903,-2.199925 -2.399986,-1.99999 -5.199959,-3.600065 -8.399944,-4.40006 -2.199985,-0.599999 -4.400209,-1.000024 -6.600194,-1.000024 -0.04175,0 -0.08349,0.0021 -0.125238,0.0027 -0.04168,-6.21e-4 -0.08335,-0.0027 -0.12503,-0.0027 z"
         transform="matrix(1.4842018,0,0,1.3691514,-23.241689,5.3552691)" /><path
         id="path13"
         style="fill:#ffcc99;fill-opacity:1;stroke:none;stroke-width:0.990858;stroke-linecap:round;stroke-linejoin:miter;stroke-dasharray:none;stroke-opacity:1"
         d="m 47.999833,9.4627233 a 10.765325,9.9308327 0 0 0 -10.765129,9.9309437 10.765325,9.9308327 0 0 0 10.765129,9.930657 10.765325,9.9308327 0 0 0 0.157022,-0.01031 10.765325,9.9308327 0 0 0 10.608421,-9.920352 10.765325,9.9308327 0 0 0 -10.608421,-9.9275085 10.765325,9.9308327 0 0 0 -0.157022,-0.00344 z" /></g><g
       id="g24"
       inkscape:label="Bubbles"
       transform="matrix(-16.493807,0,0,17.87979,2584.2492,-19.523912)"
       style="fill:#14f7ef;fill-opacity:1;image-rendering:auto"><path
         d="m 99.871147,21.187947 c -1.31622,0 -2.383218,0.984288 -2.383218,2.198479 0,0.04837 0,0.09527 0,0.146565 1.178755,-0.529218 2.599391,-0.07674 3.173081,1.010641 0.1361,0.25794 0.2159,0.538027 0.23492,0.824357 1.18635,-0.525891 1.68595,-1.83938 1.11587,-2.933768 -0.39564,-0.75956 -1.22715,-1.243651 -2.140653,-1.246274 z m 1.588813,2.051914 c -0.0877,0 -0.15888,-0.06562 -0.15888,-0.146566 0,-0.566621 -0.49793,-1.025957 -1.11217,-1.025957 -0.0878,0 -0.15888,-0.06562 -0.15888,-0.146565 0,-0.08095 0.0711,-0.146565 0.15888,-0.146565 0.78974,0 1.42993,0.59057 1.42993,1.319087 0,0.08095 -0.0711,0.146566 -0.15888,0.146566 z"
         class="MsftOfcThm_Text2_lumMod_50_lumOff_50_Fill_v2"
         fill="#4E95D9"
         id="path16"
         style="fill:#14f7ef;fill-opacity:1;stroke-width:0.152599" /><path
         d="m 98.520657,23.606274 c -1.14072,0 -2.065456,0.853054 -2.065456,1.905349 0,1.052294 0.924736,1.905348 2.065456,1.905348 1.140719,0 2.065453,-0.853054 2.065453,-1.905348 0,-1.052295 -0.924734,-1.905349 -2.065453,-1.905349 z m 1.27105,1.758783 c -0.08775,0 -0.158882,-0.06562 -0.158882,-0.146565 0,-0.404725 -0.355671,-0.732826 -0.794406,-0.732826 -0.08775,0 -0.158881,-0.06562 -0.158881,-0.146566 0,-0.08095 0.07113,-0.146565 0.158881,-0.146565 0.614235,0 1.112169,0.459336 1.112169,1.025957 0,0.08095 -0.07113,0.146565 -0.158881,0.146565 z"
         class="MsftOfcThm_Text2_lumMod_50_lumOff_50_Fill_v2"
         fill="#4E95D9"
         id="path17"
         style="fill:#14f7ef;fill-opacity:1;stroke-width:0.152599" /><path
         d="m 95.343032,21.261229 c -0.789735,0 -1.429931,0.59057 -1.429931,1.319088 0,0.728517 0.640196,1.319088 1.429931,1.319088 0.789735,0 1.429931,-0.590571 1.429931,-1.319088 0,-0.728518 -0.640196,-1.319088 -1.429931,-1.319088 z m 0.714966,1.245805 c -0.08775,0 -0.158882,-0.06562 -0.158882,-0.146565 0,-0.161896 -0.142262,-0.293131 -0.317762,-0.293131 -0.08775,0 -0.158881,-0.06562 -0.158881,-0.146565 0,-0.08095 0.07113,-0.146565 0.158881,-0.146565 0.350984,0 0.635525,0.262484 0.635525,0.586261 0,0.08095 -0.07113,0.146565 -0.158881,0.146565 z"
         class="MsftOfcThm_Text2_lumMod_50_lumOff_50_Fill_v2"
         fill="#4E95D9"
         id="path18"
         style="fill:#14f7ef;fill-opacity:1;stroke-width:0.152599" /><path
         d="m 102.53374,17.154008 c -0.87748,0 -1.58881,0.656188 -1.58881,1.465653 0,0.809466 0.71133,1.465653 1.58881,1.465653 0.87749,0 1.58882,-0.656187 1.58882,-1.465653 0,-0.809465 -0.71133,-1.465653 -1.58882,-1.465653 z m 0.79441,1.417287 c -0.1023,-7.92e-4 -0.18503,-0.07711 -0.18589,-0.171482 0,-0.1886 -0.16575,-0.341497 -0.3702,-0.341497 -0.10266,0 -0.18589,-0.07677 -0.18589,-0.171481 0,-0.09471 0.0832,-0.171482 0.18589,-0.171482 0.40943,8.06e-4 0.74111,0.306776 0.74198,0.68446 -8.6e-4,0.09437 -0.0836,0.17069 -0.18589,0.171482 z"
         class="MsftOfcThm_Text2_lumMod_50_lumOff_50_Fill_v2"
         fill="#4E95D9"
         id="path19"
         style="fill:#14f7ef;fill-opacity:1;stroke-width:0.152599" /><ellipse
         cx="102.81045"
         cy="20.235273"
         class="MsftOfcThm_Text2_lumMod_50_lumOff_50_Fill_v2"
         fill="#4E95D9"
         id="ellipse19"
         rx="1.1471225"
         ry="1.0582013"
         style="fill:#14f7ef;fill-opacity:1;stroke-width:0.152599" /><ellipse
         cx="96.852402"
         cy="19.06275"
         class="MsftOfcThm_Text2_lumMod_50_lumOff_50_Fill_v2"
         fill="#4E95D9"
         id="ellipse21"
         rx="0.98824126"
         ry="0.91163605"
         style="fill:#14f7ef;fill-opacity:1;stroke-width:0.152599"
         inkscape:label="ellipse21" /><ellipse
         cx="94.151421"
         cy="19.795576"
         class="MsftOfcThm_Text2_lumMod_50_lumOff_50_Fill_v2"
         fill="#4E95D9"
         id="ellipse22"
         rx="0.47664371"
         ry="0.43969586"
         style="fill:#14f7ef;fill-opacity:1;stroke-width:0.152599"
         inkscape:label="ellipse22" /></g><g
       id="g53"
       inkscape:label="Bubbles"
       transform="matrix(12.761663,0,0,13.834032,-92.108365,-81.590846)"
       style="fill:#14f7ef;fill-opacity:1;image-rendering:auto"><path
         d="m 99.871147,21.187947 c -1.31622,0 -2.383218,0.984288 -2.383218,2.198479 0,0.04837 0,0.09527 0,0.146565 1.178755,-0.529218 2.599391,-0.07674 3.173081,1.010641 0.1361,0.25794 0.2159,0.538027 0.23492,0.824357 1.18635,-0.525891 1.68595,-1.83938 1.11587,-2.933768 -0.39564,-0.75956 -1.22715,-1.243651 -2.140653,-1.246274 z m 1.588813,2.051914 c -0.0877,0 -0.15888,-0.06562 -0.15888,-0.146566 0,-0.566621 -0.49793,-1.025957 -1.11217,-1.025957 -0.0878,0 -0.15888,-0.06562 -0.15888,-0.146565 0,-0.08095 0.0711,-0.146565 0.15888,-0.146565 0.78974,0 1.42993,0.59057 1.42993,1.319087 0,0.08095 -0.0711,0.146566 -0.15888,0.146566 z"
         class="MsftOfcThm_Text2_lumMod_50_lumOff_50_Fill_v2"
         fill="#4E95D9"
         id="path48"
         style="fill:#14f7ef;fill-opacity:1;stroke-width:0.152599" /><path
         d="m 98.520657,23.606274 c -1.14072,0 -2.065456,0.853054 -2.065456,1.905349 0,1.052294 0.924736,1.905348 2.065456,1.905348 1.140719,0 2.065453,-0.853054 2.065453,-1.905348 0,-1.052295 -0.924734,-1.905349 -2.065453,-1.905349 z m 1.27105,1.758783 c -0.08775,0 -0.158882,-0.06562 -0.158882,-0.146565 0,-0.404725 -0.355671,-0.732826 -0.794406,-0.732826 -0.08775,0 -0.158881,-0.06562 -0.158881,-0.146566 0,-0.08095 0.07113,-0.146565 0.158881,-0.146565 0.614235,0 1.112169,0.459336 1.112169,1.025957 0,0.08095 -0.07113,0.146565 -0.158881,0.146565 z"
         class="MsftOfcThm_Text2_lumMod_50_lumOff_50_Fill_v2"
         fill="#4E95D9"
         id="path49"
         style="fill:#14f7ef;fill-opacity:1;stroke-width:0.152599" /><path
         d="m 95.343032,21.261229 c -0.789735,0 -1.429931,0.59057 -1.429931,1.319088 0,0.728517 0.640196,1.319088 1.429931,1.319088 0.789735,0 1.429931,-0.590571 1.429931,-1.319088 0,-0.728518 -0.640196,-1.319088 -1.429931,-1.319088 z m 0.714966,1.245805 c -0.08775,0 -0.158882,-0.06562 -0.158882,-0.146565 0,-0.161896 -0.142262,-0.293131 -0.317762,-0.293131 -0.08775,0 -0.158881,-0.06562 -0.158881,-0.146565 0,-0.08095 0.07113,-0.146565 0.158881,-0.146565 0.350984,0 0.635525,0.262484 0.635525,0.586261 0,0.08095 -0.07113,0.146565 -0.158881,0.146565 z"
         class="MsftOfcThm_Text2_lumMod_50_lumOff_50_Fill_v2"
         fill="#4E95D9"
         id="path50"
         style="fill:#14f7ef;fill-opacity:1;stroke-width:0.152599" /><ellipse
         cx="96.852402"
         cy="19.06275"
         class="MsftOfcThm_Text2_lumMod_50_lumOff_50_Fill_v2"
         fill="#4E95D9"
         id="ellipse52"
         rx="0.98824126"
         ry="0.91163605"
         style="fill:#14f7ef;fill-opacity:1;stroke-width:0.152599"
         inkscape:label="ellipse21" /><ellipse
         cx="94.151421"
         cy="19.795576"
         class="MsftOfcThm_Text2_lumMod_50_lumOff_50_Fill_v2"
         fill="#4E95D9"
         id="ellipse53"
         rx="0.47664371"
         ry="0.43969586"
         style="fill:#14f7ef;fill-opacity:1;stroke-width:0.152599"
         inkscape:label="ellipse22" /></g></g><style
     id="style1-1">
.MsftOfcThm_Accent2_Fill_v2 {
 fill:#E97132; 
}
</style><g
     id="g94"
     inkscape:label="Taunt"
     transform="translate(-4.5022011e-6,-2.20519)"><path
       style="fill:#ffcc99;fill-opacity:1;fill-rule:nonzero;stroke:none;stroke-width:0.831967"
       d="m 1027.1312,321.02796 -1.4064,-2.43603 -6.9596,0.39835 c -3.8436,0.25642 -10.0987,0.7985 -13.937,1.17386 -3.8386,0.37653 -8.36639,0.72061 -10.03509,0.70223 -1.6408,0.0299 -4.3379,0.36026 -5.9391,0.67183 -1.6194,0.38161 -2.9723,0.91681 -3.0943,1.23313 -0.051,0.33732 0.6202,3.62973 1.5775,7.30972 0.9139,3.70601 2.1639,8.31707 2.7843,10.35187 0.6681,2.00732 2.2339,7.91253 3.5484,13.16265 1.3129,5.25577 2.5224,9.5856 2.6428,9.57948 0.073,0.0176 5.32749,-0.1323 11.62559,-0.39367 6.3234,-0.21742 14.5263,-0.47567 18.3058,-0.6317 3.8049,-0.11209 7.3308,-0.49446 7.9303,-0.84054 0.6881,-0.39727 1.0443,-1.27447 1.085,-2.58818 0.026,-1.11905 -0.3621,-4.45111 -0.8673,-7.3479 -0.5074,-2.90034 -1.9575,-9.66683 -3.2704,-14.9226 -1.3408,-5.29739 -2.4288,-10.37471 -2.4585,-11.27497 -0.054,-0.94985 -0.7358,-2.76848 -1.532,-4.14753 z m 10.2466,49.66 c -1.7272,-2.99154 -2.0591,-3.35327 -3.3981,-3.43802 -0.8124,-0.0228 -5.3668,0.27703 -10.1754,0.78222 -4.7863,0.43374 -12.5398,1.04451 -17.2844,1.33118 -7.64339,0.48857 -8.58579,0.66479 -8.43659,1.56046 0.081,0.56618 1.2559,5.47019 2.58099,10.96009 1.3271,5.49165 2.7662,10.85616 3.1887,11.9024 0.4261,1.16235 0.522,2.82273 0.2822,4.0064 -0.5048,1.88616 -0.7272,2.13658 -4.25619,4.11068 -2.0744,1.19763 -5.6345,3.00811 -7.9237,4.14818 -2.3653,1.11966 -4.1874,2.10832 -4.1068,2.24809 0.079,0.13689 8.6513,0.83264 19.07869,1.55719 10.4303,0.72771 21.0916,1.32118 23.6892,1.35274 2.5994,0.0344 5.4146,0.12675 6.2984,0.16504 0.8649,0.11355 1.9545,-0.0207 2.3673,-0.25914 0.4151,-0.23963 1.1055,-2.23678 1.5001,-4.42536 0.4212,-2.14241 0.8479,-5.33702 0.9892,-7.0124 0.1108,-1.71824 -0.055,-6.8994 -0.4033,-11.54404 -0.4212,-4.66299 -1.0086,-9.72378 -1.3843,-11.22459 -0.353,-1.57152 -1.5186,-4.33773 -2.606,-6.22112 z m 2.9412,49.02729 -1.2776,-2.63722 -3.7054,-0.24985 c -2.0589,-0.16007 -9.2775,-0.53449 -16.0118,-0.81575 -6.7622,-0.3295 -20.00719,-0.71758 -29.40479,-0.93289 -9.4001,-0.21778 -19.2643,-0.28768 -21.9279,-0.22061 -2.6661,0.0627 -6.8781,0.10533 -9.3859,0.018 -2.4804,-0.0397 -4.5723,0.0643 -4.6774,0.30647 -0.056,0.21952 0.6326,2.58311 1.4778,5.22018 0.8952,2.61208 2.9967,8.69796 4.6836,13.4285 1.6873,4.73124 3.9266,10.31015 5.0035,12.38687 1.7017,3.37326 1.9835,3.76002 3.6106,4.23376 0.971,0.2973 6.1668,1.53117 11.5445,2.65908 5.4049,1.17174 12.54,2.57137 15.8617,3.11 3.3647,0.50997 10.10169,1.22194 15.00019,1.51796 4.9491,0.2725 12.3164,0.37555 16.4329,0.26901 4.1341,-0.17916 7.9691,-0.5536 8.5685,-0.89968 0.6441,-0.3719 1.7028,-1.84108 2.4209,-3.35943 0.7209,-1.52011 1.8158,-4.72871 2.4779,-7.1994 0.6379,-2.51257 1.2981,-6.57698 1.4543,-9.17835 0.1366,-2.53237 0.013,-7.00188 -0.2771,-9.8415 -0.3886,-3.33207 -1.053,-6.07836 -1.8685,-7.81521 z m -61.37639,-99.8163 c -1.2099,-2.30844 -2.5322,-4.4885 -2.8807,-4.77817 -0.3523,-0.2875 -1.5686,-1.11947 -2.6128,-1.86638 -1.0444,-0.74577 -2.8498,-1.42017 -3.9962,-1.49412 -1.1465,-0.0739 -9.4526,1.28714 -18.3743,3.06424 -8.9494,1.73252 -20.8656,4.07029 -26.4942,5.17672 -5.6283,1.10044 -14.0697,2.96725 -18.8134,4.11225 -4.743,1.14459 -9.428,2.0684 -10.4773,2.0613 -1.0212,0.04 -2.6049,0.27712 -3.5388,0.57136 -1.0015,0.39669 -2.1665,1.25086 -2.8941,2.22525 -0.729,0.97038 -4.3252,13.35273 -9.7615,33.72778 -4.7289,17.75996 -9.732,36.96359 -11.1093,42.66488 l -2.5256,10.41452 -4.7892,2.76504 c -2.6262,1.51626 -6.9314,3.63388 -9.6296,4.70085 -2.6546,1.04272 -9.5752,4.05645 -15.3049,6.68823 -5.7513,2.58461 -15.0749,6.86377 -20.6641,9.41443 -5.5888,2.55324 -11.948,5.36779 -14.1144,6.18627 -2.3505,0.93054 -3.9458,1.78816 -3.9702,2.17019 -0.05,0.33736 0.5278,3.68301 1.3015,7.46904 0.7741,3.78677 1.9292,8.76093 2.6172,11.12564 0.6609,2.31603 2.283,7.14736 3.5982,10.80323 2.1002,5.65918 3.4204,8.267 9.9817,19.63151 5.8486,10.23988 8.346,14.13455 11.227,17.74527 2.0833,2.54002 5.5152,6.57241 7.7789,9.0073 2.2663,2.42951 6.3899,6.49009 9.2354,9.08091 2.892,2.56304 7.4795,6.35573 10.3433,8.4441 l 5.1312,3.78242 2.7631,-1.5953 c 1.4484,-0.89574 6.5472,-4.08457 11.2332,-7.03499 4.7307,-2.97623 11.9312,-8.0557 16.1,-11.258 4.1671,-3.20517 8.9451,-6.63526 10.5562,-7.5654 1.6586,-0.95759 4.3346,-2.81192 5.8987,-4.14626 l 2.9308,-2.36464 2.2716,0.52824 c 1.2836,0.30316 5.83,1.90811 10.1436,3.52739 4.3415,1.66758 9.6379,3.39192 11.7889,3.93115 2.1261,0.48925 5.544,1.09144 7.5107,1.30474 2.6396,0.3157 6.0278,0.0177 12.3423,-1.17547 4.8293,-0.88512 12.923,-2.61549 18.0146,-3.89686 5.1647,-1.26425 12.2068,-3.4317 16.0271,-4.9015 5.8855,-2.35375 7.3214,-3.05976 10.6491,-5.59396 2.0984,-1.58041 3.93019,-3.19134 4.02989,-3.55439 0.077,-0.28983 -7.67789,-3.72422 -17.29709,-7.61788 -9.5442,-3.8735 -18.9925,-7.68414 -20.9205,-8.46932 -1.9286,-0.78962 -3.6539,-1.75619 -3.866,-2.12365 -0.24,-0.41572 0.019,-6.88259 0.5231,-14.41045 0.5513,-7.55788 0.8777,-15.29051 0.7381,-17.23117 -0.1781,-2.96748 -0.9304,-5.23067 -5.1871,-15.8997 -2.7164,-6.83472 -6.4653,-15.77566 -8.2558,-19.82867 -1.7889,-4.05869 -3.587,-7.80859 -4.0225,-8.35162 -0.5977,-0.82217 -0.8171,0.28536 -1.1221,5.92192 -0.2063,3.79752 -0.7107,9.3033 -1.1992,12.28767 -0.443,2.95331 -1.6901,8.45558 -2.6766,12.27794 -1.0135,3.77367 -2.8099,9.59776 -4.0009,12.86101 -1.1867,3.26073 -3.185,8.09281 -4.4616,10.6705 -1.2284,2.55281 -3.6681,6.41393 -5.3009,8.5825 -1.6794,2.19631 -4.3794,5.29031 -6.0489,6.86805 -1.6437,1.62055 -4.4024,4.07212 -6.133,5.43921 -1.7281,1.36468 -4.4315,3.17147 -6.0039,3.95727 -2.7964,1.43291 -2.8439,1.46037 -4.4243,0.10082 -0.8326,-0.80472 -2.7169,-2.78714 -4.072,-4.39393 -2.1026,-2.47026 -2.8181,-3.70954 -3.994,-7.0193 -0.818,-2.1657 -1.6431,-4.019 -1.8361,-4.03052 -0.2169,-0.0611 -4.4124,3.5274 -9.3861,7.99463 -5.0003,4.42111 -14.5618,13.07035 -21.3276,19.1208 -6.7361,6.09676 -12.3738,11.00973 -12.5188,10.97148 -0.193,-0.0115 4.836,-6.41284 11.0448,-14.16681 6.2542,-7.78018 15.6653,-19.35048 20.911,-25.6895 5.2459,-6.34017 9.7878,-11.66486 10.1084,-11.84997 0.3235,-0.18678 1.6412,1.13711 3.3967,3.43887 1.5988,2.02044 4.3429,5.71019 6.0884,8.1993 1.9217,2.69284 3.7644,4.82126 4.5521,5.22537 1.0291,0.50964 1.7124,0.41867 3.3271,-0.51355 1.1038,-0.63728 3.5311,-2.71114 5.3697,-4.6315 1.839,-1.91965 4.7391,-5.61906 6.491,-8.22528 1.7689,-2.67843 4.299,-7.02022 5.6415,-9.6984 1.3864,-2.70355 3.5091,-7.85247 4.8003,-11.35989 1.5545,-4.33096 2.8602,-9.62204 3.8438,-15.89535 0.8379,-5.14783 1.9576,-13.95235 2.4364,-19.50281 0.4781,-5.55302 0.6955,-12.30141 0.4898,-15.00222 -0.2565,-3.10478 -1.1565,-7.43078 -2.458,-11.70847 -1.1065,-3.71685 -3.3855,-10.00864 -4.9769,-13.93644 -1.6196,-3.97008 -2.8666,-7.3013 -2.8719,-7.42026 0.068,-0.0983 1.4765,1.60397 3.1525,3.76141 1.7065,2.20705 3.7062,4.60895 4.4691,5.39623 0.8342,0.8076 2.4977,1.56393 4.281,1.88403 1.59,0.30787 3.3555,0.39237 3.9437,0.23816 0.6785,-0.2092 2.3802,-2.05054 4.2077,-4.51778 1.7022,-2.26813 4.0443,-5.33805 5.2456,-6.76655 l 2.1808,-2.60886 -0.4108,1.95395 c -0.2465,1.0607 -0.938,4.22088 -1.5439,6.90032 -0.619,2.75143 -1.0657,6.44372 -1.0349,8.20604 0.078,1.73114 0.3983,4.30729 0.769,5.68803 0.3663,1.38322 1.2131,3.1644 1.7833,3.939 0.5969,0.82259 2.5223,3.20399 4.1954,5.24493 1.6694,2.04303 4.5426,5.10778 6.3771,6.68767 1.8126,1.65201 6.0582,4.96388 9.399,7.45414 l 6.1055,4.51004 4.0919,-1.32208 c 2.2447,-0.68302 5.7894,-1.99276 7.8346,-2.80656 2.0778,-0.76733 4.5696,-2.08394 5.5234,-2.87954 1.5728,-1.21747 1.7996,-1.77492 1.7147,-3.62903 -0.096,-1.22985 -1.3321,-6.77504 -2.7581,-12.32967 -1.5019,-5.57321 -5.2793,-20.6287 -8.4499,-33.45993 -5.1133,-20.66212 -6.0165,-23.82388 -8.0007,-27.58344 z m 54.42679,147.56426 c -0.4483,-1.09093 -1.3755,-2.27238 -2.2215,-2.88767 -0.845,-0.61499 -4.3694,-1.40164 -8.6212,-1.95376 -3.958,-0.4759 -18.3288,-2.17662 -31.88139,-3.73487 -18.4477,-2.1713 -24.815,-2.66541 -25.1629,-2.09661 -0.2803,0.46635 -1.0061,2.72509 -1.6001,5.09406 -0.5808,2.297 -1.214,5.66951 -1.3993,7.37025 -0.1099,1.72155 -0.04,4.50169 0.2323,6.24765 0.4639,2.61225 0.771,3.35718 2.0072,4.54656 0.9083,0.82439 5.4602,2.85654 11.4045,5.06564 5.4543,2.00596 13.1483,4.79967 17.1635,6.22327 4.0152,1.4255 11.49899,3.85347 16.64159,5.42264 5.1428,1.56804 9.9383,2.8505 10.6313,2.8779 0.7387,0.005 2.1134,-0.48432 3.2007,-1.0487 1.1989,-0.6922 2.6529,-2.20889 3.9869,-4.26447 1.599,-2.33536 2.6896,-5.23702 4.3841,-11.55184 1.2516,-4.646 2.2202,-9.56086 2.1168,-10.90959 -0.034,-1.33381 -0.4375,-3.30861 -0.8825,-4.40046 z m 0,0"
       id="path1-8-6" /><path
       style="fill:#ffcc99;fill-opacity:1;fill-rule:nonzero;stroke:none;stroke-width:0.831967"
       d="m 1078.3917,321.02796 1.4064,-2.43603 6.9596,0.39835 c 3.8436,0.25642 10.0987,0.7985 13.937,1.17386 3.8386,0.37653 8.3664,0.72061 10.0351,0.70223 1.6408,0.0299 4.3379,0.36026 5.9391,0.67183 1.6194,0.38161 2.9724,0.91681 3.0943,1.23313 0.051,0.33732 -0.6201,3.62973 -1.5774,7.30972 -0.9139,3.70601 -2.1639,8.31707 -2.7843,10.35187 -0.6681,2.00732 -2.234,7.91253 -3.5484,13.16265 -1.3129,5.25577 -2.5225,9.5856 -2.6429,9.57948 -0.073,0.0176 -5.3275,-0.1323 -11.6256,-0.39367 -6.3234,-0.21742 -14.5263,-0.47567 -18.3058,-0.6317 -3.8049,-0.11209 -7.3308,-0.49446 -7.9303,-0.84054 -0.6881,-0.39727 -1.0443,-1.27447 -1.085,-2.58818 -0.026,-1.11905 0.3621,-4.45111 0.8673,-7.3479 0.5074,-2.90034 1.9575,-9.66683 3.2704,-14.9226 1.3408,-5.29739 2.4288,-10.37471 2.4585,-11.27497 0.054,-0.94985 0.7358,-2.76848 1.532,-4.14753 z m -10.2466,49.66 c 1.7272,-2.99154 2.0591,-3.35327 3.3981,-3.43802 0.8124,-0.0228 5.3668,0.27703 10.1754,0.78222 4.7863,0.43374 12.5398,1.04451 17.2844,1.33118 7.6434,0.48857 8.5858,0.66479 8.4367,1.56046 -0.081,0.56618 -1.256,5.47019 -2.5811,10.96009 -1.3271,5.49165 -2.7662,10.85616 -3.1887,11.9024 -0.4261,1.16235 -0.522,2.82273 -0.2822,4.0064 0.5048,1.88616 0.7272,2.13658 4.2563,4.11068 2.0744,1.19763 5.6345,3.00811 7.9236,4.14818 2.3653,1.11966 4.1875,2.10832 4.1068,2.24809 -0.079,0.13689 -8.6512,0.83264 -19.0787,1.55719 -10.4303,0.72771 -21.0916,1.32118 -23.6892,1.35274 -2.5994,0.0344 -5.4146,0.12675 -6.2984,0.16504 -0.8649,0.11355 -1.9545,-0.0207 -2.3673,-0.25914 -0.4151,-0.23963 -1.1055,-2.23678 -1.5001,-4.42536 -0.4212,-2.14241 -0.8479,-5.33702 -0.9892,-7.0124 -0.1108,-1.71824 0.055,-6.8994 0.4033,-11.54404 0.4212,-4.66299 1.0086,-9.72378 1.3843,-11.22459 0.353,-1.57152 1.5186,-4.33773 2.606,-6.22112 z m -2.9412,49.02729 1.2776,-2.63722 3.7054,-0.24985 c 2.0589,-0.16007 9.2775,-0.53449 16.0118,-0.81575 6.7622,-0.3295 20.0072,-0.71758 29.4048,-0.93289 9.4001,-0.21778 19.2643,-0.28768 21.9279,-0.22061 2.6662,0.0627 6.8781,0.10533 9.386,0.018 2.4803,-0.0397 4.5722,0.0643 4.6773,0.30647 0.056,0.21952 -0.6326,2.58311 -1.4778,5.22018 -0.8951,2.61208 -2.9966,8.69796 -4.6835,13.4285 -1.6874,4.73124 -3.9266,10.31015 -5.0036,12.38687 -1.7016,3.37326 -1.9835,3.76002 -3.6106,4.23376 -0.971,0.2973 -6.1668,1.53117 -11.5444,2.65908 -5.4049,1.17174 -12.54,2.57137 -15.8618,3.11 -3.3647,0.50997 -10.1017,1.22194 -15.0002,1.51796 -4.9491,0.2725 -12.3164,0.37555 -16.4329,0.26901 -4.1341,-0.17916 -7.9691,-0.5536 -8.5685,-0.89968 -0.6441,-0.3719 -1.7028,-1.84108 -2.4209,-3.35943 -0.7209,-1.52011 -1.8158,-4.72871 -2.4779,-7.1994 -0.6379,-2.51257 -1.2981,-6.57698 -1.4543,-9.17835 -0.1366,-2.53237 -0.013,-7.00188 0.2771,-9.8415 0.3886,-3.33207 1.053,-6.07836 1.8685,-7.81521 z m 61.3765,-99.8163 c 1.2098,-2.30844 2.5322,-4.4885 2.8806,-4.77817 0.3524,-0.2875 1.5687,-1.11947 2.6128,-1.86638 1.0444,-0.74577 2.8498,-1.42017 3.9963,-1.49412 1.1465,-0.0739 9.4525,1.28714 18.3742,3.06424 8.9495,1.73252 20.8656,4.07029 26.4942,5.17672 5.6283,1.10044 14.0698,2.96725 18.8134,4.11225 4.743,1.14459 9.4281,2.0684 10.4773,2.0613 1.0212,0.04 2.6049,0.27712 3.5388,0.57136 1.0016,0.39669 2.1666,1.25086 2.8942,2.22525 0.729,0.97038 4.3251,13.35273 9.7615,33.72778 4.7289,17.75996 9.732,36.96359 11.1092,42.66488 l 2.5256,10.41452 4.7892,2.76504 c 2.6262,1.51626 6.9314,3.63388 9.6297,4.70085 2.6546,1.04272 9.5751,4.05645 15.3049,6.68823 5.7512,2.58461 15.0748,6.86377 20.6641,9.41443 5.5887,2.55324 11.9479,5.36779 14.1143,6.18627 2.3505,0.93054 3.9458,1.78816 3.9702,2.17019 0.051,0.33736 -0.5278,3.68301 -1.3015,7.46904 -0.7741,3.78677 -1.9292,8.76093 -2.6172,11.12564 -0.6609,2.31603 -2.283,7.14736 -3.5982,10.80323 -2.1002,5.65918 -3.4204,8.267 -9.9817,19.63151 -5.8486,10.23988 -8.346,14.13455 -11.227,17.74527 -2.0832,2.54002 -5.5152,6.57241 -7.7788,9.0073 -2.2664,2.42951 -6.3899,6.49009 -9.2354,9.08091 -2.892,2.56304 -7.4796,6.35573 -10.3434,8.4441 l -5.1312,3.78242 -2.7631,-1.5953 c -1.4484,-0.89574 -6.5472,-4.08457 -11.2331,-7.03499 -4.7307,-2.97623 -11.9312,-8.0557 -16.1001,-11.258 -4.1671,-3.20517 -8.9451,-6.63526 -10.5562,-7.5654 -1.6586,-0.95759 -4.3345,-2.81192 -5.8987,-4.14626 l -2.9308,-2.36464 -2.2715,0.52824 c -1.2837,0.30316 -5.8301,1.90811 -10.1436,3.52739 -4.3415,1.66758 -9.638,3.39192 -11.789,3.93115 -2.126,0.48925 -5.544,1.09144 -7.5107,1.30474 -2.6396,0.3157 -6.0278,0.0177 -12.3423,-1.17547 -4.8293,-0.88512 -12.923,-2.61549 -18.0145,-3.89686 -5.1648,-1.26425 -12.2068,-3.4317 -16.0272,-4.9015 -5.8855,-2.35375 -7.3213,-3.05976 -10.6491,-5.59396 -2.0983,-1.58041 -3.9302,-3.19134 -4.0299,-3.55439 -0.077,-0.28983 7.6779,-3.72422 17.2971,-7.61788 9.5442,-3.8735 18.9925,-7.68414 20.9206,-8.46932 1.9285,-0.78962 3.6538,-1.75619 3.866,-2.12365 0.2399,-0.41572 -0.019,-6.88259 -0.5232,-14.41045 -0.5513,-7.55788 -0.8776,-15.29051 -0.7381,-17.23117 0.1781,-2.96748 0.9305,-5.23067 5.1871,-15.8997 2.7165,-6.83472 6.4653,-15.77566 8.2558,-19.82867 1.789,-4.05869 3.587,-7.80859 4.0225,-8.35162 0.5977,-0.82217 0.8171,0.28536 1.1221,5.92192 0.2064,3.79752 0.7108,9.3033 1.1992,12.28767 0.443,2.95331 1.6901,8.45558 2.6766,12.27794 1.0136,3.77367 2.8099,9.59776 4.0009,12.86101 1.1868,3.26073 3.185,8.09281 4.4616,10.6705 1.2285,2.55281 3.6682,6.41393 5.301,8.5825 1.6793,2.19631 4.3793,5.29031 6.0488,6.86805 1.6437,1.62055 4.4024,4.07212 6.133,5.43921 1.7281,1.36468 4.4316,3.17147 6.004,3.95727 2.7964,1.43291 2.8439,1.46037 4.4242,0.10082 0.8326,-0.80472 2.7169,-2.78714 4.0721,-4.39393 2.1025,-2.47026 2.818,-3.70954 3.9939,-7.0193 0.8181,-2.1657 1.6432,-4.019 1.8362,-4.03052 0.2168,-0.0611 4.4124,3.5274 9.3861,7.99463 5.0003,4.42111 14.5617,13.07035 21.3276,19.1208 6.7361,6.09676 12.3737,11.00973 12.5187,10.97148 0.193,-0.0115 -4.836,-6.41284 -11.0448,-14.16681 -6.2542,-7.78018 -15.6653,-19.35048 -20.9109,-25.6895 -5.2459,-6.34017 -9.7879,-11.66486 -10.1085,-11.84997 -0.3235,-0.18678 -1.6412,1.13711 -3.3967,3.43887 -1.5988,2.02044 -4.3429,5.71019 -6.0884,8.1993 -1.9217,2.69284 -3.7644,4.82126 -4.552,5.22537 -1.0292,0.50964 -1.7125,0.41867 -3.3272,-0.51355 -1.1038,-0.63728 -3.5311,-2.71114 -5.3697,-4.6315 -1.839,-1.91965 -4.739,-5.61906 -6.491,-8.22528 -1.7688,-2.67843 -4.299,-7.02022 -5.6414,-9.6984 -1.3865,-2.70355 -3.5092,-7.85247 -4.8004,-11.35989 -1.5545,-4.33096 -2.8602,-9.62204 -3.8438,-15.89535 -0.8379,-5.14783 -1.9576,-13.95235 -2.4363,-19.50281 -0.4782,-5.55302 -0.6956,-12.30141 -0.4898,-15.00222 0.2564,-3.10478 1.1564,-7.43078 2.458,-11.70847 1.1064,-3.71685 3.3854,-10.00864 4.9768,-13.93644 1.6197,-3.97008 2.8666,-7.3013 2.8719,-7.42026 -0.068,-0.0983 -1.4765,1.60397 -3.1525,3.76141 -1.7065,2.20705 -3.7062,4.60895 -4.4691,5.39623 -0.8342,0.8076 -2.4976,1.56393 -4.281,1.88403 -1.59,0.30787 -3.3555,0.39237 -3.9437,0.23816 -0.6785,-0.2092 -2.3802,-2.05054 -4.2076,-4.51778 -1.7022,-2.26813 -4.0443,-5.33805 -5.2457,-6.76655 l -2.1808,-2.60886 0.4108,1.95395 c 0.2466,1.0607 0.938,4.22088 1.5439,6.90032 0.619,2.75143 1.0657,6.44372 1.0349,8.20604 -0.078,1.73114 -0.3983,4.30729 -0.7689,5.68803 -0.3663,1.38322 -1.2132,3.1644 -1.7834,3.939 -0.5968,0.82259 -2.5222,3.20399 -4.1953,5.24493 -1.6694,2.04303 -4.5427,5.10778 -6.3771,6.68767 -1.8127,1.65201 -6.0583,4.96388 -9.3991,7.45414 l -6.1055,4.51004 -4.0919,-1.32208 c -2.2446,-0.68302 -5.7894,-1.99276 -7.8346,-2.80656 -2.0778,-0.76733 -4.5695,-2.08394 -5.5233,-2.87954 -1.5729,-1.21747 -1.7997,-1.77492 -1.7148,-3.62903 0.096,-1.22985 1.3321,-6.77504 2.7581,-12.32967 1.5019,-5.57321 5.2793,-20.6287 8.4499,-33.45993 5.1134,-20.66212 6.0165,-23.82388 8.0008,-27.58344 z m -54.4269,147.56426 c 0.4483,-1.09093 1.3755,-2.27238 2.2215,-2.88767 0.845,-0.61499 4.3694,-1.40164 8.6212,-1.95376 3.958,-0.4759 18.3288,-2.17662 31.8815,-3.73487 18.4476,-2.1713 24.8149,-2.66541 25.1628,-2.09661 0.2804,0.46635 1.0061,2.72509 1.6001,5.09406 0.5808,2.297 1.214,5.66951 1.3993,7.37025 0.1099,1.72155 0.04,4.50169 -0.2323,6.24765 -0.4639,2.61225 -0.771,3.35718 -2.0072,4.54656 -0.9082,0.82439 -5.4602,2.85654 -11.4044,5.06564 -5.4543,2.00596 -13.1483,4.79967 -17.1635,6.22327 -4.0153,1.4255 -11.4991,3.85347 -16.6417,5.42264 -5.1428,1.56804 -9.9383,2.8505 -10.6313,2.8779 -0.7387,0.005 -2.1134,-0.48432 -3.2007,-1.0487 -1.1989,-0.6922 -2.6529,-2.20889 -3.9869,-4.26447 -1.599,-2.33536 -2.6896,-5.23702 -4.3841,-11.55184 -1.2516,-4.646 -2.2202,-9.56086 -2.1168,-10.90959 0.034,-1.33381 0.4375,-3.30861 0.8825,-4.40046 z m 0,0"
       id="path87" /><path
       id="path92"
       style="fill:#ff3b3b;fill-opacity:1;stroke:none;stroke-width:0.308891"
       d="m 1041.8757,32.567112 -19.4336,70.259768 -40.69724,-41.74219 0.29883,43.07422 -98.10351,-34.396486 65.46093,92.333986 -93.63281,50.70312 102.375,5.0625 -59.6875,75.69922 111.9316,-41.65039 -12.38277,52.82813 60.37497,-46.39063 90.8633,43.89453 -32.7637,-60.20117 78.1661,33.73242 -36.5059,-77.85937 100.0996,-28.83594 -101.1406,-26.31445 57.5234,-65.962893 -79.4687,22.798828 20.6972,-43.529297 -84.8593,43.285156 z m 52.5821,79.279298 18.8066,0.1289 0.025,18.70313 -41.8496,42.00195 10.5859,10.58985 -5.5762,5.57617 5.3907,5.38476 7.4062,-7.41015 1.4922,-3.98438 1.1777,-0.92383 c 1.1626,-1.16643 2.3609,-1.13127 3.5938,0.10547 l 3.5859,3.58203 c 1.2293,1.23283 1.2621,2.43116 0.1,3.59766 l -1.0468,1.04102 -3.8868,1.23047 -8.2207,8.2207 21.2305,21.2207 1.8906,-1.89062 4.125,4.11914 -10.3632,10.35937 -4.127,-4.12109 1.8086,-1.80664 -21.2246,-21.22071 -8.3203,8.32032 -1.336,3.99804 -0.9121,0.91211 c -0.8192,0.81823 -1.6377,1.09537 -2.4531,0.82618 -0.4331,-0.12094 -0.8561,-0.38919 -1.2695,-0.80274 l -3.5801,-3.58008 c -0.4135,-0.41746 -0.6837,-0.8443 -0.8086,-1.27734 -0.2653,-0.81149 0.013,-1.62604 0.832,-2.44922 l 0.9121,-0.91406 3.9981,-1.75586 7.4883,-7.49219 -5.3887,-5.38281 -5.4766,5.47265 -10.5332,-10.57226 -10.0781,10.11719 -5.4785,-5.47266 -5.3887,5.38281 7.4902,7.49219 3.9981,1.75391 0.9121,0.91406 c 0.8185,0.8232 1.0953,1.63968 0.8301,2.45117 -0.1249,0.43304 -0.393,0.85989 -0.8067,1.27734 l -3.58,3.58008 c -0.4136,0.41356 -0.8405,0.6818 -1.2735,0.80274 -0.8154,0.26919 -1.6298,-0.007 -2.4492,-0.82617 l -0.9141,-0.91211 -1.3339,-3.99805 -8.3223,-8.32227 -21.2246,21.22266 1.8086,1.80664 -4.127,4.12109 -10.36325,-10.35937 4.125,-4.11914 1.89062,1.88867 21.23243,-21.21875 -8.2227,-8.2207 -3.8867,-1.23047 -1.0469,-1.04102 c -1.1622,-1.16651 -1.1293,-2.36481 0.1,-3.59765 l 3.5878,-3.58203 c 1.2327,-1.23679 2.4293,-1.27196 3.5918,-0.10547 l 1.1778,0.92187 1.4922,3.98633 7.4082,7.41016 5.3906,-5.38477 -5.5781,-5.57617 10.1347,-10.13477 -41.3945,-41.54492 0.0215,-18.70508 18.8086,-0.1289 41.4687,41.47265 z" /></g></svg>
