<?xml version="1.0" encoding="utf-8"?>
<svg viewBox="796.989 32.567 511.545 512.226" width="511.545" height="512.226" xmlns="http://www.w3.org/2000/svg">
  <g transform="matrix(0.13808299601078033, 0, 0, 0.13808299601078033, 953.3421630859375, 280.362548828125)" fill="#FF9A00" style="">
    <title>Pilgrim</title>
    <path id="path-2" d="M 730.999 -1072.313 C 664.999 -1073.313 617.999 -1070.313 604.999 -1063.313 C 593.999 -1057.313 569.999 -1037.313 551.999 -1020.313 C 532.999 -1003.313 511.999 -977.313 503.999 -962.313 L 488.999 -934.313 L 309.999 -934.313 C 154.999 -934.313 129.999 -932.313 129.999 -919.313 C 129.999 -910.313 154.999 -853.313 184.999 -791.313 C 214.999 -729.313 248.999 -664.313 259.999 -646.313 C 272.999 -624.313 286.999 -614.313 303.999 -614.313 C 316.999 -614.313 331.999 -608.313 336.999 -602.313 C 343.999 -593.313 340.999 -521.313 328.999 -384.313 C 317.999 -271.313 298.999 -65.313 284.999 74.687 C 270.999 214.687 256.999 332.687 253.999 337.687 C 250.999 341.687 217.999 345.687 178.999 345.687 L 109.999 345.687 L 109.999 505.687 L 109.999 665.687 L 719.999 665.687 L 1329.999 665.687 L 1329.999 506.687 L 1329.999 348.687 L 1263.999 342.687 C 1226.999 339.687 1193.999 332.687 1189.999 325.687 C 1185.999 319.687 1177.999 263.687 1171.999 202.687 C 1164.999 140.687 1146.999 -48.313 1129.999 -219.313 C 1113.999 -390.313 1097.999 -548.313 1094.999 -572.313 L 1089.999 -614.313 L 1127.999 -614.313 L 1164.999 -614.313 L 1237.999 -759.313 C 1276.999 -839.313 1309.999 -911.313 1309.999 -919.313 C 1309.999 -932.313 1282.999 -934.313 1131.999 -934.313 L 954.999 -934.313 L 931.999 -974.313 C 919.999 -995.313 892.999 -1026.313 872.999 -1041.313 C 838.999 -1067.313 828.999 -1069.313 730.999 -1072.313 Z M 719.999 -364.313 C 723.999 -364.313 732.999 -352.313 739.999 -336.313 C 746.999 -321.313 766.999 -268.313 784.999 -219.313 C 802.999 -170.313 822.999 -88.313 828.999 -39.313 C 835.999 9.687 841.999 127.687 842.999 222.687 C 843.999 316.687 841.999 397.687 836.999 401.687 C 832.999 405.687 776.999 411.687 712.999 413.687 L 596.999 418.687 L 602.999 189.687 C 605.999 63.687 613.999 -64.313 620.999 -94.313 C 626.999 -124.313 649.999 -197.313 671.999 -256.313 C 693.999 -316.313 715.999 -364.313 719.999 -364.313 Z" style="fill: rgb(79, 79, 90);"/>
  </g>
  <g transform="matrix(1.1077979803085327, 0, 0, 1.1077979803085327, 732.6648559570312, -21.935571670532227)">
    <title>Pray</title>
    <path id="path-5" d="M 287.901 49.199 C 286.573 49.199 285.596 49.687 285.107 50.526 C 284.688 51.434 284.408 63.518 284.408 85.103 C 284.408 114.302 284.548 118.352 285.525 119.331 C 286.085 119.96 287.202 120.449 287.901 120.449 C 288.599 120.449 289.717 119.96 290.275 119.331 C 291.254 118.352 291.393 114.302 291.393 85.103 C 291.393 63.518 291.114 51.434 290.695 50.526 C 290.206 49.687 289.228 49.199 287.901 49.199 Z M 339.802 68.059 C 339.452 68.059 338.613 68.478 337.985 68.897 C 337.217 69.526 335.052 77.07 331.209 93.206 C 328.066 106.059 325.761 117.305 325.971 118.144 C 326.18 119.121 327.088 119.889 328.135 120.169 C 329.393 120.518 330.301 120.239 331.209 119.331 C 332.048 118.423 334.213 110.529 337.776 95.651 C 340.71 83.357 343.084 72.459 343.084 71.411 C 343.084 70.224 342.526 69.246 341.757 68.757 C 340.989 68.408 340.081 68.059 339.802 68.059 Z M 237.258 70.154 C 236.768 70.154 235.93 70.713 235.301 71.411 C 234.603 72.111 234.114 73.298 234.114 74.066 C 234.114 74.764 235.93 85.033 238.235 96.838 C 240.471 108.643 242.706 118.772 243.195 119.401 C 243.684 119.96 244.731 120.449 245.57 120.449 C 246.408 120.449 247.455 120.099 247.945 119.61 C 248.434 119.121 248.783 118.004 248.783 116.955 C 248.783 115.978 246.897 105.5 244.662 93.625 C 241.448 76.79 240.261 71.761 239.283 71.063 C 238.584 70.574 237.676 70.154 237.258 70.154 Z M 190.526 86.919 C 190.107 86.919 189.199 87.268 188.57 87.688 C 187.871 88.036 187.312 89.154 187.312 90.133 C 187.312 91.11 193.53 101.937 202.75 116.816 C 211.272 130.507 218.676 142.313 219.305 142.941 C 219.864 143.639 220.912 144.198 221.61 144.198 C 222.309 144.198 223.357 143.71 223.915 143.081 C 224.544 142.522 225.033 141.474 225.033 140.776 C 225.033 140.147 217.908 128.132 209.247 114.162 C 200.585 100.121 192.97 88.246 192.342 87.757 C 191.783 87.338 190.875 86.919 190.526 86.919 Z M 387.301 86.919 C 386.951 86.919 386.183 87.338 385.555 87.757 C 384.927 88.246 376.963 100.121 367.882 114.092 C 355.379 133.371 351.467 139.937 351.606 141.334 C 351.746 142.592 352.445 143.36 353.772 143.779 C 355.309 144.338 355.937 144.198 356.985 143.15 C 357.684 142.382 365.507 130.507 374.449 116.816 C 384.717 100.959 390.584 91.25 390.584 90.133 C 390.584 89.084 390.025 88.036 389.257 87.618 C 388.488 87.268 387.58 86.919 387.301 86.919 Z" style="fill: rgb(192, 192, 192);"/>
    <path id="path-6" d="M 102.034 216.053 C 98.91 216.053 97.487 216.622 95.216 218.989 L 92.277 221.927 L 92.847 247.499 C 93.225 261.613 93.509 277.622 93.509 282.926 L 93.509 292.777 L 96.162 293.345 C 97.581 293.63 99.856 294.292 101.372 294.861 C 102.791 295.429 105.16 297.229 106.676 298.933 C 109.327 301.966 109.423 302.06 109.989 300.071 C 110.275 298.933 110.559 280.557 110.559 259.341 L 110.559 220.695 L 108.192 218.421 C 106.485 216.622 104.876 216.053 102.034 216.053 Z M 74.187 241.723 C 73.619 241.723 72.292 242.102 71.25 242.48 C 70.209 242.954 68.502 244.279 67.461 245.417 C 65.662 247.406 65.567 248.827 65.567 282.263 C 65.567 308.973 65.851 317.784 66.892 320.719 C 67.556 322.803 76.932 343.736 87.542 367.133 C 98.245 390.527 107.907 410.987 108.854 412.409 C 109.896 413.924 118.894 422.354 128.934 431.163 C 138.881 440.067 148.447 449.16 150.152 451.432 C 151.857 453.706 154.131 457.97 155.173 460.81 C 156.782 465.452 156.971 468.672 156.971 487.333 C 156.971 498.982 157.256 509.212 157.54 510.065 C 158.013 511.39 161.424 511.581 185.578 511.581 L 212.953 511.581 L 212.667 465.357 C 212.383 419.703 212.383 419.134 210.205 413.071 C 208.973 409.662 206.699 404.547 205.183 401.61 C 203.573 398.769 200.259 393.748 197.607 390.527 C 195.05 387.307 190.313 382.572 186.998 379.919 C 183.777 377.362 178.284 373.667 174.873 371.869 L 168.527 368.553 L 152.141 368.553 C 137.459 368.553 135.376 368.363 131.682 366.564 C 128.934 365.236 126.945 363.439 125.714 361.07 C 124.766 359.175 118.8 345.82 112.453 331.612 C 106.202 317.309 100.14 304.807 99.003 303.953 C 97.96 303.007 95.593 302.249 93.793 302.249 C 91.425 302.249 89.721 303.007 87.731 304.995 C 86.215 306.606 84.984 308.785 84.984 310.111 C 84.984 311.437 91.993 328.107 100.613 347.241 C 111.033 370.163 116.147 382.572 115.768 383.804 C 115.39 384.75 114.064 385.887 112.737 386.171 C 111.127 386.645 109.896 386.265 108.664 385.034 C 107.718 383.992 100.14 367.984 91.709 349.325 C 78.638 320.152 76.459 314.658 76.459 310.679 C 76.459 307.838 77.217 304.522 78.355 302.249 C 79.396 300.259 81.195 297.891 82.333 297.133 C 84.417 295.619 84.417 295.524 84.133 272.222 C 83.942 254.7 83.564 248.164 82.522 246.269 C 81.858 244.848 79.869 243.238 78.259 242.67 C 76.554 242.102 74.755 241.628 74.187 241.723 Z M 127.23 242.575 C 125.146 242.575 123.441 243.333 121.831 245.037 L 119.557 247.499 L 119.273 285.957 L 118.99 324.508 L 126.377 340.989 C 130.451 350.082 134.334 357.661 134.996 357.944 C 135.848 358.229 136.134 346.483 136.134 303.669 C 136.134 257.635 135.943 248.731 134.711 246.458 C 133.955 244.943 132.628 243.523 131.87 243.143 C 131.017 242.859 128.934 242.575 127.23 242.575 Z M 154.414 290.03 C 153.467 290.03 151.857 290.409 150.816 290.788 C 149.773 291.261 148.069 292.587 147.026 293.724 C 145.226 295.713 145.132 297.324 144.848 327.444 L 144.563 359.081 L 154.131 359.081 L 163.602 359.081 L 163.602 328.297 C 163.602 306.511 163.318 296.849 162.465 295.146 C 161.803 293.724 160.193 292.019 158.771 291.261 C 157.256 290.504 155.361 289.936 154.414 290.03 Z" style="fill: rgb(255, 204, 153);"/>
    <path id="path-7" d="M 475.863 216.053 C 473.022 216.053 471.412 216.622 469.705 218.421 L 467.339 220.695 L 467.339 258.488 C 467.339 279.326 467.622 297.608 467.908 299.218 L 468.474 302.06 L 471.221 298.933 C 472.737 297.229 475.106 295.429 476.526 294.861 C 478.041 294.292 480.316 293.63 481.735 293.345 L 484.388 292.777 L 484.388 282.926 C 484.388 277.622 484.673 261.613 485.05 247.499 L 485.62 221.927 L 482.681 218.989 C 480.41 216.622 478.987 216.053 475.863 216.053 Z M 504.752 242.102 C 503.237 241.817 500.584 242.195 499.069 242.954 C 497.458 243.618 495.66 245.228 495.092 246.553 C 494.428 248.069 493.955 257.54 493.764 272.222 C 493.48 295.524 493.48 295.619 495.564 297.133 C 496.702 297.891 498.501 300.259 499.542 302.249 C 500.68 304.522 501.438 307.838 501.438 310.679 C 501.438 314.751 499.354 320.152 486.188 349.325 C 477.757 367.984 470.18 383.992 469.233 385.034 C 468.001 386.265 466.77 386.645 465.16 386.171 C 463.833 385.887 462.507 384.75 462.13 383.804 C 461.75 382.572 466.865 370.163 477.284 347.241 C 485.904 328.107 492.913 311.342 492.913 309.827 C 492.913 308.026 491.965 306.416 489.977 304.711 C 488.176 303.101 485.904 302.249 483.913 302.249 C 482.209 302.249 479.937 303.007 478.894 303.953 C 477.757 304.807 471.695 317.309 465.444 331.612 C 459.097 345.82 453.131 359.175 452.183 361.07 C 450.952 363.439 448.963 365.236 446.215 366.564 C 442.521 368.363 440.439 368.553 425.662 368.553 L 409.274 368.553 L 403.212 371.869 C 399.803 373.763 394.783 376.983 391.845 379.161 C 388.91 381.436 384.079 386.076 381.144 389.676 C 378.111 393.18 374.417 398.579 372.807 401.516 C 371.198 404.452 368.924 409.662 367.787 413.071 C 365.609 419.134 365.609 419.986 365.23 465.357 L 364.945 511.581 L 392.319 511.581 C 416.473 511.581 419.884 511.39 420.357 510.065 C 420.642 509.212 420.926 498.982 420.926 487.333 C 420.926 468.672 421.115 465.452 422.724 460.81 C 423.767 457.97 426.04 453.706 427.745 451.432 C 429.45 449.16 439.017 440.067 448.963 431.163 C 459.003 422.354 468.001 413.924 469.043 412.409 C 470.085 410.987 479.652 390.527 490.356 367.133 C 500.965 343.736 510.341 322.803 511.005 320.719 C 512.046 317.784 512.33 308.973 512.33 282.168 L 512.33 247.312 L 509.963 244.943 C 508.636 243.712 506.362 242.386 504.752 242.102 Z M 450.383 242.67 C 448.489 242.67 446.404 242.954 445.743 243.238 C 445.079 243.523 443.942 244.943 443.186 246.364 C 441.954 248.731 441.764 257.352 441.764 303.669 C 441.764 346.483 442.049 358.229 442.901 357.944 C 443.563 357.661 447.446 350.082 451.52 340.989 L 458.907 324.508 L 458.624 285.957 L 458.34 247.499 L 456.066 245.037 C 454.361 243.238 452.847 242.575 450.383 242.67 Z M 424.43 290.219 C 421.398 289.745 420.546 290.124 417.61 293.061 L 414.295 296.377 L 414.295 327.728 L 414.295 359.081 L 423.767 359.081 L 433.334 359.081 L 433.049 327.35 L 432.765 295.619 L 430.303 293.25 C 428.977 291.924 426.325 290.598 424.43 290.219 Z" style="fill: rgb(255, 204, 153);"/>
  </g>
</svg>