<?xml version="1.0" encoding="utf-8"?>
<svg viewBox="796.989 32.567 511.545 512.226" width="511.545px" height="512.226px" xmlns="http://www.w3.org/2000/svg">
  <path d="M 1073.883 69.153 C 1104.115 71.303 1167.5 76.053 1167.5 76.053 L 1172.851 76.449 L 1175.944 80.831 C 1175.944 80.831 1212.129 132.036 1229.709 157.054 L 1276.62 157.054 L 1253.415 197.238 C 1267.383 226.304 1294.382 286 1294.382 286 L 1296.573 290.837 L 1294.264 295.628 C 1294.264 295.628 1266.691 352.891 1253.429 380.149 L 1276.62 420.306 L 1229.718 420.306 C 1212.498 444.308 1175.716 492.813 1175.716 492.813 L 1172.847 496.593 L 1168.137 497.217 C 1168.137 497.217 1104.88 505.543 1073.896 508.184 L 1053.31 543.837 L 1053.31 543.846 L 1052.764 544.793 L 1052.759 544.788 L 1052.759 544.793 L 1052.213 543.846 L 1052.213 543.837 L 1031.627 508.184 C 1000.643 505.543 937.386 497.217 937.386 497.217 L 932.676 496.593 L 929.807 492.813 C 929.807 492.813 893.025 444.308 875.805 420.306 L 828.903 420.306 L 852.094 380.149 C 838.832 352.891 811.259 295.628 811.259 295.628 L 808.95 290.837 L 811.141 286 C 811.141 286 838.14 226.304 852.108 197.238 L 828.903 157.054 L 875.814 157.054 C 893.394 132.036 929.579 80.831 929.579 80.831 L 932.672 76.449 L 938.023 76.053 C 938.023 76.053 1001.408 71.303 1031.64 69.153 L 1052.213 33.523 L 1052.213 33.514 L 1052.759 32.567 L 1052.764 32.572 L 1052.764 32.567 L 1053.31 33.514 L 1053.31 33.523 L 1073.883 69.153 Z M 1066.268 485.949 C 1093.308 484.137 1144.04 477.401 1160.454 475.269 C 1170.187 462.398 1199.686 423.544 1214.529 402.389 L 1249.726 404.507 L 1230.328 375.604 C 1242.052 351.611 1263.945 306.121 1271.455 290.541 C 1264.218 274.591 1243.003 227.612 1230.328 201.788 L 1251.812 171.464 L 1214.474 174.971 C 1198.761 152.563 1170.351 112.361 1160.449 98.347 C 1143.152 97.054 1092.907 93.287 1066.263 91.438 L 1052.764 59.999 L 1039.26 91.438 C 1012.616 93.287 962.372 97.054 945.074 98.347 C 935.172 112.361 906.762 152.563 891.049 174.971 L 853.711 171.464 L 875.195 201.788 C 862.52 227.612 841.305 274.591 834.068 290.541 C 841.578 306.121 863.472 351.611 875.195 375.604 L 855.797 404.507 L 890.994 402.389 C 905.837 423.544 935.336 462.398 945.069 475.269 C 961.483 477.401 1012.215 484.137 1039.255 485.949 L 1052.764 517.557 L 1066.268 485.949 Z" style="fill: rgb(15, 82, 186);"/>
  <path d="M 1069.484 114.868 C 1093.422 116.57 1143.606 120.331 1143.606 120.331 L 1147.843 120.645 L 1150.292 124.114 C 1150.292 124.114 1178.942 164.657 1192.861 184.464 L 1230.003 184.464 L 1211.63 216.28 C 1222.69 239.293 1244.066 286.557 1244.066 286.557 L 1245.8 290.387 L 1243.972 294.181 C 1243.972 294.181 1222.141 339.519 1211.641 361.101 L 1230.003 392.895 L 1192.868 392.895 C 1179.234 411.899 1150.111 450.303 1150.111 450.303 L 1147.84 453.296 L 1144.111 453.79 C 1144.111 453.79 1094.027 460.382 1069.495 462.473 L 1053.197 490.701 L 1053.197 490.708 L 1052.764 491.458 L 1052.76 491.454 L 1052.76 491.458 L 1052.327 490.708 L 1052.327 490.701 L 1036.028 462.473 C 1011.496 460.382 961.413 453.79 961.413 453.79 L 957.684 453.296 L 955.412 450.303 C 955.412 450.303 926.29 411.899 912.656 392.895 L 875.521 392.895 L 893.882 361.101 C 883.382 339.519 861.551 294.181 861.551 294.181 L 859.723 290.387 L 861.457 286.557 C 861.457 286.557 882.834 239.293 893.894 216.28 L 875.521 184.464 L 912.663 184.464 C 926.582 164.657 955.232 124.114 955.232 124.114 L 957.681 120.645 L 961.917 120.331 C 961.917 120.331 1012.102 116.57 1036.039 114.868 L 1052.327 86.658 L 1052.327 86.651 L 1052.76 85.901 L 1052.764 85.905 L 1052.764 85.901 L 1053.197 86.651 L 1053.197 86.658 L 1069.484 114.868 Z" style="fill: rgb(52, 155, 220);"/>
  <g transform="matrix(0.27008000016212463, 0, 0, 0.27008000016212463, 905.1629638671875, 151.9147491455078)" id="g641" style="">
    <title>Illusion</title>
    <path d="M 685.55,124.1 Q 627.9,65.55 545.25,65.55 l -20.3,1.05 q -94.2,19.9 -119.55,90.8 -9.4,26.45 -9.4,56.55 0,68.8 48.25,117.5 48.85,48.85 117.65,48.85 65.55,0 150.95,-57.85 -62.8,133.05 -186,128.3 Q 396.65,431.1 340,323.3 323.4,290.85 323.4,248.4 323.4,145.65 396,72.45 428.65,39.7 467.75,22 472.65,19.9 478,17.75 521.55,0 571.95,0 q 102.7,0 175.3,72.45 73.05,73.2 73.05,175.95 0,99.25 -61.1,178.25 -25.45,28 -77.1,67.7 -51.9,39.45 -70.9,117.45 -8.75,28 -8.75,59.6 0,79.6 56.15,135.35 56.4,56.8 136.05,56.8 47.65,0 87.35,-20.3 25.85,-13.85 48.85,-36.5 56,-55.75 56,-135.35 0,-10.05 -3.45,-20.3 Q 955.65,565 913.85,546.45 872.2,527.7 824.75,527.7 q -47.4,-0.5 -94.15,46.05 -47.4,47.25 -47.4,113.4 0,63.45 70.45,142.45 -142.9,-57.25 -138.6,-176.15 18.85,-125.75 123.45,-180.3 31.15,-15.95 71.95,-15.95 99.05,0 169.95,70 31.6,31.45 48.9,69.2 l 4.3,9.6 q 16.65,42.3 16.65,91 0,99.3 -69.85,169.6 -70.9,69.75 -169.95,69.75 -95.65,0 -171.9,-58.45 -73.25,-63.45 -89.7,-136.5 -14.9,-70.9 -39.05,-121.45 -24.4,-51.5 -46.8,-74.2 -58.7,-58 -140.25,-57.35 -83.75,-0.45 -141.8,57.85 -34.85,34.55 -49.15,78.55 -8.95,29.5 -8.75,62.8 -0.2,72.15 45.5,126.4 122.55,85.45 223.55,7.45 47.85,-45.65 48.3,-110.4 0,-68.7 -48.7,-117.4 -46.3,-46.3 -151.2,-52.3 133.25,-61.1 225.1,27.1 78.55,106.15 42.45,222.25 -10.7,34.65 -40.95,64.7 -72.4,72.9 -175.55,73.55 -46.55,0 -86.9,-15.25 -4.9,-2.1 -10.05,-4.65 Q 151.45,891.3 115.75,855.4 43,782.8 42.75,680.1 43,576.5 115.75,503.95 185.4,434.15 283.65,421.7 343.7,411.05 483.5,455.5 l 2.15,0.2 q 28,8.55 59.6,8.55 82.65,0 140.3,-58.3 58.85,-58.55 58.85,-141.15 0,-49.35 -20.85,-90.3 -14.55,-27.15 -38,-50.4 m -158.1,394.8 q 7.95,27.35 30.15,54.2 17.5,-26.85 22.4,-54.2 h -52.55" fill-rule="evenodd" stroke="none" id="path639" style="fill: rgb(58, 121, 125);"/>
  </g>
</svg>