<?xml version="1.0" encoding="utf-8"?>
<svg viewBox="796.989 32.567 511.545 512.226" width="511.545px" height="512.226px" xmlns="http://www.w3.org/2000/svg">
  <path d="M 1073.883 69.153 C 1104.115 71.303 1167.5 76.053 1167.5 76.053 L 1172.851 76.449 L 1175.944 80.831 C 1175.944 80.831 1212.129 132.036 1229.709 157.054 L 1276.62 157.054 L 1253.415 197.238 C 1267.383 226.304 1294.382 286 1294.382 286 L 1296.573 290.837 L 1294.264 295.628 C 1294.264 295.628 1266.691 352.891 1253.429 380.149 L 1276.62 420.306 L 1229.718 420.306 C 1212.498 444.308 1175.716 492.813 1175.716 492.813 L 1172.847 496.593 L 1168.137 497.217 C 1168.137 497.217 1104.88 505.543 1073.896 508.184 L 1053.31 543.837 L 1053.31 543.846 L 1052.764 544.793 L 1052.759 544.788 L 1052.759 544.793 L 1052.213 543.846 L 1052.213 543.837 L 1031.627 508.184 C 1000.643 505.543 937.386 497.217 937.386 497.217 L 932.676 496.593 L 929.807 492.813 C 929.807 492.813 893.025 444.308 875.805 420.306 L 828.903 420.306 L 852.094 380.149 C 838.832 352.891 811.259 295.628 811.259 295.628 L 808.95 290.837 L 811.141 286 C 811.141 286 838.14 226.304 852.108 197.238 L 828.903 157.054 L 875.814 157.054 C 893.394 132.036 929.579 80.831 929.579 80.831 L 932.672 76.449 L 938.023 76.053 C 938.023 76.053 1001.408 71.303 1031.64 69.153 L 1052.213 33.523 L 1052.213 33.514 L 1052.759 32.567 L 1052.764 32.572 L 1052.764 32.567 L 1053.31 33.514 L 1053.31 33.523 L 1073.883 69.153 Z M 1066.268 485.949 C 1093.308 484.137 1144.04 477.401 1160.454 475.269 C 1170.187 462.398 1199.686 423.544 1214.529 402.389 L 1249.726 404.507 L 1230.328 375.604 C 1242.052 351.611 1263.945 306.121 1271.455 290.541 C 1264.218 274.591 1243.003 227.612 1230.328 201.788 L 1251.812 171.464 L 1214.474 174.971 C 1198.761 152.563 1170.351 112.361 1160.449 98.347 C 1143.152 97.054 1092.907 93.287 1066.263 91.438 L 1052.764 59.999 L 1039.26 91.438 C 1012.616 93.287 962.372 97.054 945.074 98.347 C 935.172 112.361 906.762 152.563 891.049 174.971 L 853.711 171.464 L 875.195 201.788 C 862.52 227.612 841.305 274.591 834.068 290.541 C 841.578 306.121 863.472 351.611 875.195 375.604 L 855.797 404.507 L 890.994 402.389 C 905.837 423.544 935.336 462.398 945.069 475.269 C 961.483 477.401 1012.215 484.137 1039.255 485.949 L 1052.764 517.557 L 1066.268 485.949 Z" style="fill: rgb(15, 82, 186);"/>
  <path d="M 1069.484 114.868 C 1093.422 116.57 1143.606 120.331 1143.606 120.331 L 1147.843 120.645 L 1150.292 124.114 C 1150.292 124.114 1178.942 164.657 1192.861 184.464 L 1230.003 184.464 L 1211.63 216.28 C 1222.69 239.293 1244.066 286.557 1244.066 286.557 L 1245.8 290.387 L 1243.972 294.181 C 1243.972 294.181 1222.141 339.519 1211.641 361.101 L 1230.003 392.895 L 1192.868 392.895 C 1179.234 411.899 1150.111 450.303 1150.111 450.303 L 1147.84 453.296 L 1144.111 453.79 C 1144.111 453.79 1094.027 460.382 1069.495 462.473 L 1053.197 490.701 L 1053.197 490.708 L 1052.764 491.458 L 1052.76 491.454 L 1052.76 491.458 L 1052.327 490.708 L 1052.327 490.701 L 1036.028 462.473 C 1011.496 460.382 961.413 453.79 961.413 453.79 L 957.684 453.296 L 955.412 450.303 C 955.412 450.303 926.29 411.899 912.656 392.895 L 875.521 392.895 L 893.882 361.101 C 883.382 339.519 861.551 294.181 861.551 294.181 L 859.723 290.387 L 861.457 286.557 C 861.457 286.557 882.834 239.293 893.894 216.28 L 875.521 184.464 L 912.663 184.464 C 926.582 164.657 955.232 124.114 955.232 124.114 L 957.681 120.645 L 961.917 120.331 C 961.917 120.331 1012.102 116.57 1036.039 114.868 L 1052.327 86.658 L 1052.327 86.651 L 1052.76 85.901 L 1052.764 85.905 L 1052.764 85.901 L 1053.197 86.651 L 1053.197 86.658 L 1069.484 114.868 Z" style="fill: rgb(52, 155, 220);"/>
  <g transform="matrix(0.3157899975776673, 0, 0, 0.3157899975776673, 956.7139282226562, 124.93489074707031)" id="g894" style="">
    <title>Destruction</title>
    <path d="m 368.3,90.65 q -16.45,74 42.3,100 -69.15,82.5 -68.3,183.6 6.95,145.3 1.05,282.9 -31.7,-13.65 -66.15,-15.15 -14.8,-89.45 -4.5,-181 3.2,-82.25 -15.45,-166.45 -21.5,-57.85 8.9,-98 7.2,38.2 40.55,44.65 34.3,-4.95 24.3,-79.6 -22.5,-70.95 -19.7,-121.5 17.1,26.05 53.8,27.1 13.2,7.4 3.2,23.45 m 128.9,149.9 q -80.7,125 -54.9,175.75 37.6,69.45 77.1,15 14.25,-18.65 11.2,-41.45 51.65,63.55 -5.8,102.15 -110.25,61 -97.45,140.45 16.25,59 5.45,95.65 -12.6,-15.8 -26.3,-28.2 l -8,-7.15 Q 384.4,676.5 379.85,641.35 366.4,530 372.25,416.3 q 3.7,-98 82.25,-188.1 40.5,-54.2 22.75,-110 52.05,50.35 19.95,122.35 m -486.8,7.2 q 1,-28.6 48.95,-51.45 -23.45,44.9 -6.9,56 118.65,98.75 100.25,233.9 -17.8,127.1 5.4,206.35 l 3.3,9.7 q -37.75,40.4 -37.75,97.25 0,57.5 38.3,97.65 38.9,40.8 94,40.8 55.15,0 93.55,-40.8 30.35,-31.7 30.75,-77.7 -3,-37.3 -26.45,-60.75 5.25,16.95 5.25,36.25 0,46.35 -30.4,79.35 -29.95,33 -72.7,33 -42.75,0 -73.15,-33 -29.9,-33 -29.9,-79.35 0,-42.8 25.4,-74.2 44.65,-58.35 109.55,-54.65 51,5.15 88.95,43.35 49.45,49.25 49.45,119.15 0,69.4 -49.45,119.1 -49.45,49.25 -118.85,49.25 -69.9,0 -118.95,-49.25 -20.4,-20.65 -32.3,-44.25 -25.85,-40.2 -31.05,-80.3 -16,-135.85 1.55,-305.5 9.5,-160.3 -32.15,-214.8 -31.5,-21.9 -34.65,-55.1 m 164.4,119.75 -0.4,-2.6 q 1.05,-85.45 -11.8,-99.8 -56.35,-35.55 -21.65,-88.55 58.6,-50.75 48.85,-94.8 40.3,55.8 20.2,119.75 -31.3,99.4 22.7,130 l 15,311.35 q -29.25,2.6 -60.55,14.1 L 174.8,367.5 m 376,364.75 q 2.4,211.5 -141.2,231.45 79.35,-74.15 83.55,-203.05 4.7,-128.85 104.75,-204.8 -47.95,69.4 -47.1,176.4" fill-rule="evenodd" stroke="none" id="path892" style="fill:#f5c81c"/>
  </g>
</svg>