<?xml version="1.0" encoding="utf-8"?>
<svg viewBox="796.989 32.567 511.545 512.226" width="511.545px" height="512.226px" xmlns="http://www.w3.org/2000/svg">
  <path d="M 1001.539 121.319 L 1052.778 32.567 L 1103.592 120.582 L 1178.149 46.029 L 1300.693 503.372 L 1054.939 544.793 L 804.83 504.587 L 927.393 47.173 L 1001.539 121.319 Z M 826.244 490.715 L 1054.873 527.468 L 1279.315 489.639 L 1169.299 79.053 L 1099.926 148.422 L 1052.778 66.757 L 1005.205 149.161 L 936.242 80.198 L 826.244 490.715 Z" style="fill: rgb(199, 54, 54);"/>
  <path d="M 952.502 120.219 L 1011.818 179.532 L 1052.778 108.591 L 1093.381 178.917 L 1153.039 119.264 L 1249.433 479.016 L 1054.541 511.859 L 856.108 479.962 L 952.502 120.219 Z" style="fill-rule: evenodd; stroke-width: 3px; fill: rgb(255, 107, 109);"/>
  <g transform="matrix(0.023000001907348633, 0, 0, 0.023000001907348633, 811.7975463867188, 556.4697265625)" fill="#1000FF" style="">
    <title>2Handed</title>
    <path id="path-2" d="M 10429 -18200 C 10292 -18056 10094 -17537 10031 -17158 C 9999 -16966 9990 -16788 9990 -16350 C 9990 -15705 9971 -15088 9935 -14545 C 9899 -14004 9890 -13859 9881 -13615 C 9875 -13472 9853 -13137 9831 -12870 C 9809 -12603 9779 -12205 9765 -11985 C 9734 -11497 9706 -11157 9680 -10945 C 9669 -10857 9656 -10693 9650 -10580 C 9644 -10467 9635 -10333 9629 -10281 C 9604 -10058 9543 -9922 9444 -9864 C 9420 -9850 9389 -9824 9374 -9807 C 9349 -9777 9348 -9771 9354 -9703 C 9360 -9628 9388 -9507 9417 -9432 C 9437 -9378 9460 -9366 9579 -9346 C 9677 -9329 9854 -9267 9925 -9225 C 10062 -9145 10115 -8983 10108 -8670 C 10105 -8525 10102 -8500 10082 -8460 C 10070 -8435 10051 -8409 10040 -8402 C 9966 -8356 9729 -8376 9498 -8449 C 9368 -8489 9225 -8565 9026 -8697 C 8860 -8806 8849 -8816 8655 -9016 C 8474 -9202 8450 -9223 8405 -9237 C 8341 -9256 8223 -9265 7931 -9275 C 7663 -9284 7677 -9292 7747 -9183 C 7860 -9006 8253 -8717 8672 -8502 C 8994 -8338 9442 -8181 9808 -8102 C 9988 -8064 10037 -8046 10061 -8006 C 10080 -7977 10081 -7963 10074 -7788 C 10068 -7601 10068 -7601 10094 -7577 C 10195 -7484 10470 -7404 10596 -7430 C 10708 -7453 10736 -7506 10751 -7714 C 10762 -7884 10773 -7943 10802 -7982 C 10833 -8027 10877 -8040 11006 -8045 C 11219 -8054 11532 -8117 11804 -8206 C 12119 -8308 12352 -8427 12582 -8601 C 12768 -8742 13100 -9098 13100 -9156 C 13100 -9174 13053 -9174 12835 -9155 C 12604 -9134 12517 -9121 12488 -9102 C 12460 -9082 12415 -9032 12285 -8876 C 12162 -8726 12106 -8673 11997 -8598 C 11774 -8446 11562 -8372 11255 -8339 C 11109 -8324 10926 -8331 10883 -8353 C 10829 -8382 10827 -8419 10870 -8584 C 10886 -8647 10908 -8752 10920 -8817 C 10951 -9003 10964 -9037 11024 -9096 C 11090 -9160 11176 -9196 11392 -9251 C 11481 -9274 11564 -9296 11577 -9301 C 11612 -9314 11631 -9394 11637 -9560 C 11643 -9706 11643 -9706 11610 -9744 C 11592 -9764 11552 -9799 11521 -9820 C 11347 -9939 11296 -10065 11231 -10532 C 11198 -10771 11159 -11283 11114 -12095 C 11102 -12310 11096 -12738 11090 -13930 C 11078 -15997 11066 -16476 11014 -16930 C 10947 -17515 10814 -17893 10576 -18172 C 10506 -18255 10485 -18259 10429 -18200 Z" style="fill: rgb(164, 165, 191);"/>
    <path id="path-2" d="M 10330 -3544 C 10256 -3526 10071 -3500 10010 -3500 C 9955 -3500 9947 -3492 9935 -3427 C 9929 -3395 9917 -3382 9846 -3331 C 9694 -3221 9620 -3121 9605 -3004 C 9598 -2945 9613 -2852 9666 -2631 C 9704 -2469 9738 -2396 9807 -2327 C 9846 -2287 9859 -2280 9891 -2280 C 9920 -2280 9933 -2286 9949 -2306 C 9974 -2338 9976 -2379 9954 -2491 C 9914 -2697 9981 -2895 10076 -2852 C 10106 -2838 10125 -2796 10145 -2699 C 10165 -2606 10187 -2561 10215 -2554 C 10274 -2539 10299 -2568 10335 -2695 C 10364 -2794 10389 -2830 10430 -2830 C 10513 -2830 10543 -2680 10501 -2476 C 10460 -2282 10477 -2232 10583 -2239 C 10610 -2241 10693 -2323 10739 -2394 C 10865 -2587 10870 -2868 10753 -3106 C 10715 -3184 10675 -3230 10542 -3350 C 10487 -3400 10481 -3409 10475 -3455 C 10465 -3544 10459 -3555 10420 -3557 C 10401 -3558 10360 -3552 10330 -3544 Z" style="fill: rgb(164, 165, 191);"/>
    <path id="path-2" d="M 9968 -5598 C 9946 -5580 9930 -5517 9930 -5443 C 9930 -5360 9939 -5355 10079 -5363 C 10184 -5369 10304 -5396 10362 -5426 C 10408 -5450 10469 -5510 10464 -5525 C 10454 -5549 10406 -5558 10314 -5553 C 10237 -5549 10209 -5552 10107 -5579 C 9968 -5615 9987 -5613 9968 -5598 Z" style="fill: rgb(164, 165, 191);"/>
    <path id="path-2" d="M 10652 -5608 C 10625 -5581 10649 -5535 10687 -5542 C 10714 -5547 10712 -5614 10685 -5618 C 10674 -5619 10659 -5615 10652 -5608 Z" style="fill: rgb(255, 204, 153);"/>
    <path id="path-2" d="M 9680 -5665 C 9651 -5630 9699 -5530 9745 -5530 C 9771 -5530 9780 -5547 9780 -5594 C 9780 -5658 9713 -5705 9680 -5665 Z" style="fill: rgb(255, 204, 153);"/>
    <path id="path-2" d="M 8416 -5790 C 8345 -5767 8315 -5740 8240 -5630 C 8090 -5408 8037 -5219 8038 -4915 C 8039 -4664 8085 -4451 8180 -4256 C 8254 -4106 8334 -4024 8436 -3994 C 8551 -3961 8549 -4019 8426 -4264 C 8358 -4399 8335 -4457 8315 -4540 C 8276 -4704 8260 -4833 8260 -4983 C 8260 -5217 8286 -5299 8417 -5475 C 8553 -5658 8611 -5751 8608 -5779 C 8605 -5804 8602 -5805 8540 -5807 C 8498 -5809 8454 -5803 8416 -5790 Z" style="fill: rgb(237, 218, 135);"/>
    <path id="path-2" d="M 9039 -5858 C 8849 -5760 8845 -5757 8831 -5707 C 8813 -5646 8757 -5555 8631 -5385 C 8570 -5302 8515 -5219 8509 -5200 C 8492 -5146 8486 -4901 8500 -4794 C 8521 -4622 8555 -4506 8619 -4385 C 8684 -4263 8726 -4166 8736 -4114 C 8742 -4081 8744 -4080 8789 -4080 C 8860 -4080 8933 -4055 9050 -3990 C 9253 -3878 9419 -3801 9511 -3775 C 9562 -3760 9648 -3729 9701 -3704 C 9882 -3621 10016 -3621 10376 -3705 C 10612 -3760 10922 -3846 10970 -3870 C 11021 -3896 11051 -3933 11057 -3978 C 11063 -4026 11047 -4060 11017 -4060 C 11004 -4060 10956 -4041 10909 -4019 C 10838 -3984 10815 -3977 10759 -3976 C 10683 -3975 10650 -3994 10650 -4040 C 10650 -4077 10674 -4096 10758 -4125 C 10853 -4158 10913 -4189 10980 -4239 C 11060 -4299 11090 -4343 11090 -4401 C 11090 -4442 11086 -4452 11055 -4479 C 11035 -4496 11011 -4510 11001 -4510 C 10991 -4510 10931 -4485 10869 -4455 C 10806 -4425 10736 -4398 10713 -4394 C 10677 -4389 10668 -4391 10645 -4414 C 10621 -4438 10620 -4441 10635 -4469 C 10654 -4507 10683 -4527 10809 -4589 C 10926 -4646 10989 -4690 11048 -4754 C 11126 -4839 11141 -4902 11093 -4952 C 11053 -4994 11020 -4989 10869 -4915 C 10797 -4880 10716 -4847 10691 -4841 C 10629 -4828 10596 -4843 10592 -4887 C 10588 -4932 10614 -4954 10770 -5034 C 11041 -5171 11147 -5247 11193 -5334 C 11225 -5396 11223 -5479 11187 -5553 C 11155 -5617 11063 -5723 11019 -5746 C 10974 -5769 10908 -5764 10882 -5737 C 10853 -5706 10854 -5685 10890 -5625 C 10925 -5567 10928 -5523 10900 -5488 C 10852 -5426 10622 -5336 10325 -5261 C 10047 -5191 9949 -5190 9820 -5253 C 9724 -5300 9602 -5423 9555 -5520 C 9521 -5591 9519 -5600 9522 -5680 C 9525 -5764 9525 -5764 9430 -5815 C 9378 -5842 9317 -5878 9294 -5893 C 9219 -5944 9201 -5941 9039 -5858 Z" style="fill: rgb(255, 204, 153);"/>
    <path id="path-2" d="M 7274 -6350 C 7237 -6335 7183 -6261 7156 -6189 C 7125 -6105 7097 -5953 7073 -5735 C 7059 -5607 7056 -5498 7057 -5185 C 7058 -4768 7066 -4651 7106 -4471 C 7177 -4153 7325 -3919 7504 -3845 C 7596 -3807 7638 -3832 7736 -3982 C 7801 -4082 7847 -4123 7927 -4152 C 7945 -4159 7960 -4169 7960 -4175 C 7960 -4181 7944 -4225 7925 -4273 C 7846 -4468 7808 -4684 7808 -4930 C 7809 -5256 7874 -5483 8039 -5738 C 8099 -5830 8099 -5830 8077 -5844 C 8065 -5852 8001 -5890 7935 -5930 C 7801 -6010 7727 -6065 7560 -6211 C 7407 -6344 7339 -6377 7274 -6350 Z" style="fill: rgb(107, 117, 133);"/>
    <path id="path-2" d="M 10911 -7701 C 10899 -7689 10890 -7667 10890 -7650 C 10890 -7625 10894 -7620 10914 -7620 C 10946 -7620 10962 -7642 10958 -7681 C 10954 -7721 10938 -7728 10911 -7701 Z" style="fill: rgb(255, 204, 153);"/>
    <path id="path-2" d="M 12006 -7788 C 11990 -7775 11989 -7769 11999 -7739 C 12005 -7720 12027 -7684 12048 -7659 C 12094 -7603 12133 -7519 12162 -7413 C 12190 -7308 12193 -7049 12167 -6918 C 12123 -6697 12050 -6504 11945 -6331 C 11875 -6214 11823 -6103 11834 -6093 C 11837 -6090 11867 -6087 11902 -6086 C 11985 -6085 12040 -6116 12097 -6197 C 12173 -6306 12265 -6515 12310 -6680 C 12397 -7004 12370 -7483 12252 -7694 C 12232 -7732 12213 -7750 12177 -7768 C 12117 -7798 12032 -7807 12006 -7788 Z" style="fill: rgb(237, 218, 135);"/>
    <path id="path-2" d="M 9662 -7931 C 9567 -7886 9383 -7714 9339 -7629 C 9296 -7543 9335 -7435 9440 -7353 C 9470 -7329 9525 -7282 9562 -7249 C 9599 -7216 9666 -7169 9712 -7144 C 9802 -7095 9860 -7042 9860 -7010 C 9860 -6998 9849 -6978 9835 -6965 C 9788 -6917 9733 -6935 9588 -7047 C 9502 -7113 9446 -7135 9400 -7121 C 9350 -7106 9329 -7080 9323 -7025 C 9314 -6948 9339 -6901 9437 -6816 C 9485 -6775 9550 -6727 9583 -6708 C 9670 -6660 9720 -6613 9720 -6581 C 9720 -6525 9681 -6504 9605 -6520 C 9553 -6531 9539 -6538 9449 -6608 C 9380 -6661 9331 -6646 9309 -6566 C 9283 -6472 9353 -6385 9534 -6285 C 9667 -6212 9720 -6166 9720 -6122 C 9720 -6045 9653 -6043 9513 -6115 C 9465 -6140 9415 -6160 9403 -6160 C 9375 -6160 9360 -6133 9360 -6085 C 9360 -6029 9396 -6004 9596 -5918 C 9938 -5772 10171 -5709 10360 -5709 C 10488 -5709 10538 -5724 10732 -5821 C 10904 -5907 11262 -6061 11356 -6089 C 11394 -6100 11465 -6115 11514 -6122 C 11602 -6135 11602 -6135 11634 -6221 C 11651 -6268 11695 -6355 11732 -6416 C 11818 -6560 11832 -6587 11873 -6706 C 11989 -7040 11986 -7378 11865 -7525 C 11819 -7581 11781 -7655 11774 -7702 C 11768 -7736 11758 -7746 11654 -7820 C 11505 -7926 11464 -7944 11386 -7937 C 11352 -7934 11276 -7918 11216 -7901 C 11156 -7884 11094 -7870 11078 -7870 C 11050 -7870 11050 -7870 11075 -7820 C 11135 -7701 11116 -7614 11006 -7505 C 10926 -7425 10843 -7377 10704 -7331 C 10542 -7277 10432 -7280 10250 -7344 C 9746 -7521 9650 -7573 9650 -7668 C 9650 -7722 9675 -7755 9755 -7807 C 9806 -7839 9860 -7890 9860 -7905 C 9860 -7922 9812 -7941 9755 -7946 C 9719 -7950 9693 -7945 9662 -7931 Z" style="fill: rgb(255, 204, 153);"/>
    <path id="path-2" d="M 13174 -8274 C 13147 -8260 13058 -8197 12975 -8135 C 12845 -8038 12676 -7931 12508 -7840 C 12482 -7826 12460 -7810 12460 -7804 C 12460 -7798 12471 -7768 12484 -7737 C 12519 -7658 12557 -7513 12576 -7380 C 12596 -7239 12591 -6913 12566 -6782 C 12534 -6609 12456 -6379 12377 -6224 C 12351 -6172 12351 -6172 12394 -6156 C 12448 -6135 12464 -6119 12547 -5995 C 12585 -5940 12630 -5885 12649 -5872 C 12690 -5845 12761 -5843 12838 -5865 C 12903 -5885 13023 -5964 13083 -6029 C 13204 -6158 13322 -6400 13364 -6602 C 13372 -6643 13384 -6759 13389 -6860 C 13395 -6962 13407 -7177 13416 -7339 C 13443 -7803 13425 -8072 13359 -8208 C 13313 -8303 13263 -8321 13174 -8274 Z" style="fill: rgb(107, 117, 133);"/>
  </g>
</svg>