<?xml version="1.0" encoding="utf-8"?>
<svg viewBox="796.989 32.567 511.545 512.226" width="511.545px" height="512.226px" xmlns="http://www.w3.org/2000/svg">
  <path d="M 843.924 128.43 L 843.924 79.838 L 892.512 79.838 L 905.09 32.908 L 1052.764 72.472 L 1200.429 32.908 L 1213.016 79.838 L 1261.608 79.838 L 1261.608 128.43 L 1308.529 141.003 L 1268.965 288.673 L 1308.534 436.352 L 1261.608 448.935 L 1261.608 497.522 L 1213.007 497.522 L 1200.424 544.448 L 1052.774 504.883 L 905.09 544.452 L 892.512 497.522 L 843.924 497.522 L 843.924 448.925 L 796.989 436.352 L 836.554 288.682 L 796.989 141.003 L 843.924 128.43 Z M 851.556 288.682 L 814.735 426.102 L 858.415 437.806 L 858.415 483.031 L 903.631 483.031 L 915.339 526.706 L 1052.774 489.881 L 1190.184 526.701 L 1201.887 483.031 L 1247.118 483.031 L 1247.118 437.816 L 1290.788 426.112 L 1253.962 288.673 L 1290.783 151.253 L 1247.118 139.549 L 1247.118 94.329 L 1201.897 94.329 L 1190.189 50.654 L 1052.764 87.475 L 915.339 50.654 L 903.631 94.329 L 858.415 94.329 L 858.415 139.549 L 814.735 151.253 L 851.556 288.682 Z" style="fill: rgb(5, 145, 66);"/>
  <path d="M 852.556 173.09 L 889.295 163.246 L 889.295 125.208 L 927.328 125.208 L 937.172 88.475 L 1052.764 119.446 L 1168.351 88.475 L 1178.2 125.208 L 1216.233 125.208 L 1216.233 163.246 L 1252.962 173.09 L 1221.996 288.673 L 1252.967 404.27 L 1216.233 414.119 L 1216.233 452.152 L 1178.19 452.152 L 1168.346 488.881 L 1052.769 457.914 L 937.172 488.886 L 927.328 452.152 L 889.295 452.152 L 889.295 414.109 L 852.556 404.27 L 883.527 288.682 L 852.556 173.09 Z" style="stroke-width: 3px; fill: rgb(165, 208, 151);"/>
  <g transform="matrix(0.020551001653075218, 0, 0, 0.020551001653075218, 863.0430908203125, 500.0571594238282)" fill="#1000FF" style="">
    <path id="path-12" d="M 11305 -18224 c -158 29 -315 86 -565 207 -316 153 -788 477 -1345 926 -285 229 -450 376 -745 665 -460 450 -594 596 -955 1036 -540 659 -942 1207 -1060 1443 -29 57 -42 93 -35 95 6 2 48 -1 93 -8 538 -77 1130 -77 1452 -1 48 12 95 21 106 21 11 0 53 -40 107 -102 352 -407 478 -545 717 -784 293 -294 433 -421 710 -643 223 -179 355 -267 510 -341 199 -95 354 -136 550 -146 268 -14 463 50 772 256 313 208 575 460 902 867 67 83 147 175 179 203 143 128 379 188 634 161 178 -19 319 -69 415 -147 51 -42 102 -137 84 -158 -21 -26 -112 -57 -249 -87 -159 -34 -231 -65 -344 -151 -273 -207 -532 -584 -503 -736 17 -90 126 -142 296 -142 248 1 368 65 678 364 189 183 293 264 429 332 77 39 114 42 159 14 46 -27 117 -122 163 -215 45 -92 83 -260 101 -449 19 -214 1 -243 -261 -422 -63 -43 -135 -99 -160 -125 -71 -72 -157 -206 -316 -491 -236 -424 -357 -593 -530 -740 -47 -40 -125 -106 -172 -146 -337 -284 -803 -482 -1313 -556 -133 -20 -394 -20 -504 0 z m 1081 909 c 27 8 92 40 144 71 52 31 158 86 235 120 164 75 208 104 229 149 29 61 2 95 -107 135 -64 24 -98 61 -80 89 17 28 86 61 128 61 62 0 105 -16 196 -72 121 -74 188 -108 215 -108 22 0 24 4 24 43 0 68 -26 138 -79 213 -80 113 -196 215 -315 277 -54 28 -70 32 -141 32 -68 0 -92 -5 -159 -35 -227 -96 -429 -298 -493 -490 -14 -42 -18 -86 -18 -185 0 -144 16 -210 63 -266 42 -51 77 -58 158 -34 z M 12391 -16982 c 3 58 11 90 31 132 27 55 92 140 107 140 5 0 21 -35 36 -78 15 -42 35 -92 46 -110 22 -39 23 -42 6 -42 -7 0 -59 -27 -116 -60 -57 -33 -106 -60 -109 -60 -2 0 -3 35 -1 78 z M 16704 -15649 c -240 225 -415 354 -645 473 -295 153 -665 263 -994 297 -372 38 -831 -58 -1270 -265 -159 -76 -214 -110 -387 -248 -151 -119 -251 -180 -327 -197 -41 -9 -41 -9 -41 29 0 138 259 452 516 625 203 137 538 267 849 330 258 52 430 69 720 69 284 1 369 -6 580 -49 425 -86 783 -256 1063 -505 130 -116 233 -236 277 -324 63 -125 45 -128 -110 -15 -94 68 -177 109 -223 109 -28 0 -32 -3 -32 -28 0 -36 47 -134 110 -227 74 -110 101 -195 61 -195 -10 0 -76 54 -147 121 z M 7235 -13670 c -1516 63 -2707 843 -3380 2215 -158 323 -250 573 -331 903 -91 371 -119 617 -118 1017 1 319 15 460 74 752 166 825 576 1536 1321 2294 219 222 483 405 1159 799 421 246 581 361 760 545 156 162 272 330 370 540 88 186 117 370 100 623 -26 354 -110 706 -326 1349 -107 320 -126 393 -105 393 21 0 330 -280 551 -499 317 -316 452 -473 629 -735 192 -284 278 -522 296 -821 28 -451 -166 -1057 -496 -1550 -162 -242 -633 -646 -1691 -1453 -399 -304 -453 -349 -598 -498 -380 -394 -596 -841 -687 -1424 -26 -168 -26 -641 0 -790 58 -329 147 -594 298 -890 134 -262 298 -490 499 -691 392 -393 878 -627 1455 -700 144 -18 483 -16 633 4 423 58 803 204 1102 425 100 74 258 228 335 327 379 483 473 1084 269 1706 -104 315 -289 614 -484 784 -187 162 -460 294 -711 345 -598 121 -1297 -165 -1548 -632 -79 -145 -144 -356 -172 -558 -22 -153 -17 -467 9 -624 41 -236 103 -452 194 -666 109 -257 232 -461 502 -833 43 -59 75 -111 72 -115 -14 -14 -221 -5 -306 12 -289 60 -735 266 -1057 488 -177 122 -405 417 -562 728 -119 235 -170 399 -208 670 -21 156 -24 528 -5 680 64 506 261 977 570 1362 142 177 364 377 556 500 331 212 799 356 1294 399 150 13 478 4 630 -17 536 -75 1068 -296 1518 -632 281 -209 532 -518 729 -896 202 -391 318 -802 356 -1274 16 -193 6 -596 -20 -790 -61 -447 -171 -832 -321 -1117 -162 -309 -339 -553 -566 -779 -628 -626 -1499 -921 -2589 -876 z " style="fill: rgb(0, 172, 0);"/>
  </g>
</svg>