<?xml version="1.0" encoding="utf-8"?>
<svg viewBox="796.989 32.567 511.545 512.226" width="511.545px" height="512.226px" xmlns="http://www.w3.org/2000/svg">
  <path d="M 1001.539 121.319 L 1052.778 32.567 L 1103.592 120.582 L 1178.149 46.029 L 1300.693 503.372 L 1054.939 544.793 L 804.83 504.587 L 927.393 47.173 L 1001.539 121.319 Z M 826.244 490.715 L 1054.873 527.468 L 1279.315 489.639 L 1169.299 79.053 L 1099.926 148.422 L 1052.778 66.757 L 1005.205 149.161 L 936.242 80.198 L 826.244 490.715 Z" style="fill: rgb(199, 54, 54);" transform="matrix(1, 0, 0, 1, 0, 1.4210854715202004e-14)"/>
  <path d="M 952.502 120.219 L 1011.818 179.532 L 1052.778 108.591 L 1093.381 178.917 L 1153.039 119.264 L 1249.433 479.016 L 1054.541 511.859 L 856.108 479.962 L 952.502 120.219 Z" style="fill-rule: evenodd; stroke-width: 3px; fill: rgb(255, 107, 109);" transform="matrix(1, 0, 0, 1, 0, 1.4210854715202004e-14)"/>
  <g transform="matrix(0.019523998722434044, 0, 0, 0.019523998722434044, 852.8763427734375, 537.21826171875)" fill="#1000FF" style="">
    <title>HeavyArmory</title>
    <path id="path-3" d="M 5122 -18239 c -49 6 -69 23 -167 144 -384 473 -743 1207 -960 1960 -262 915 -334 1895 -209 2885 135 1076 529 2131 1131 3023 203 301 312 430 732 859 392 402 487 505 505 543 25 52 17 155 -27 367 -20 98 -44 232 -52 298 -65 518 -33 1311 91 2280 47 367 49 395 30 450 -9 25 -67 150 -128 278 -139 292 -139 288 -70 445 165 381 516 935 838 1322 189 227 435 473 642 641 200 164 478 334 695 424 86 36 99 39 124 28 45 -21 209 -179 515 -498 469 -488 676 -681 811 -756 52 -29 52 -29 337 -33 297 -4 888 13 988 28 31 4 71 14 87 20 49 19 211 169 715 666 508 500 636 616 697 627 10 1 36 -3 58 -10 61 -19 379 -180 481 -244 105 -66 304 -215 436 -326 100 -85 350 -332 440 -436 219 -251 477 -610 638 -886 86 -147 254 -486 268 -540 16 -62 -3 -120 -143 -455 -103 -246 -101 -232 -76 -390 65 -419 81 -532 100 -697 64 -573 89 -1173 72 -1747 -12 -401 -21 -541 -63 -1051 -3 -27 23 -55 258 -287 346 -343 493 -518 716 -855 171 -258 248 -393 383 -668 439 -897 665 -1718 725 -2638 13 -199 13 -735 0 -934 -35 -549 -132 -1128 -278 -1660 -56 -206 -168 -531 -233 -675 -118 -264 -448 -883 -600 -1127 -103 -167 -127 -192 -192 -206 -221 -45 -1159 -36 -1516 16 -44 7 -44 7 -38 63 12 109 105 343 333 839 244 532 302 673 369 906 165 573 217 1316 139 1996 -36 320 -78 497 -174 739 -184 462 -634 1262 -830 1473 -36 39 -11 67 -220 -247 -273 -408 -446 -627 -707 -895 -222 -228 -411 -389 -634 -543 -411 -284 -919 -495 -1351 -563 -139 -22 -508 -30 -651 -14 -747 80 -1488 477 -2078 1112 -298 321 -477 561 -884 1183 -52 80 -102 148 -112 152 -21 8 -72 -48 -191 -206 -312 -420 -667 -1030 -803 -1381 -84 -217 -162 -586 -205 -970 -21 -188 -29 -628 -15 -825 33 -445 119 -877 260 -1301 100 -303 197 -536 398 -964 178 -376 187 -400 188 -485 0 -70 0 -70 -45 -92 -59 -29 -203 -57 -442 -88 -377 -47 -996 -89 -1106 -74 z m 5530 4795 c 718 93 1365 534 1918 1310 463 649 873 1585 1140 2599 131 498 188 975 197 1651 11 784 -49 1477 -203 2360 -43 250 -45 242 72 469 105 205 108 223 59 341 -132 321 -420 719 -783 1082 -158 158 -314 292 -408 351 -55 35 -55 35 -99 13 -133 -65 -454 -384 -526 -522 -24 -45 -24 -47 -28 -465 -3 -418 11 -1017 29 -1254 9 -108 13 -128 33 -149 12 -13 93 -85 179 -158 321 -273 383 -329 610 -556 324 -324 504 -556 638 -819 91 -179 130 -301 150 -462 13 -105 7 -120 -58 -150 -44 -21 -62 -22 -267 -21 -240 0 -394 17 -690 74 -710 137 -1288 371 -1422 574 -34 52 -41 84 -189 878 -180 971 -275 1441 -345 1706 -17 64 -33 127 -36 139 -6 24 -15 26 -168 44 -110 13 -242 6 -285 -16 -33 -17 -42 -41 -85 -231 -58 -261 -261 -1445 -371 -2164 -25 -168 -53 -322 -62 -343 -53 -129 -391 -301 -868 -442 -678 -201 -1354 -281 -1586 -188 -35 14 -38 19 -38 53 0 63 28 203 60 299 67 204 223 471 405 696 141 174 560 583 853 833 144 123 269 233 277 245 10 16 16 73 21 207 7 203 -10 1122 -26 1387 -10 163 -11 168 -43 217 -77 121 -385 411 -503 472 -50 27 -50 27 -92 -1 -189 -124 -1066 -1165 -1212 -1437 -31 -57 -31 -59 -19 -120 8 -41 39 -115 86 -208 41 -80 81 -167 90 -194 20 -64 14 -161 -31 -504 -110 -817 -151 -1465 -128 -2017 7 -157 16 -328 22 -380 78 -738 338 -1758 653 -2555 629 -1595 1478 -2497 2490 -2644 132 -20 438 -19 589 0 z " style="fill: rgb(68, 75, 85);"/>
  </g>
</svg>