<?xml version="1.0" encoding="utf-8"?>
<svg viewBox="796.989 32.567 511.545 512.226" width="511.545px" height="512.226px" xmlns="http://www.w3.org/2000/svg">
  <path d="M 843.924 128.43 L 843.924 79.838 L 892.512 79.838 L 905.09 32.908 L 1052.764 72.472 L 1200.429 32.908 L 1213.016 79.838 L 1261.608 79.838 L 1261.608 128.43 L 1308.529 141.003 L 1268.965 288.673 L 1308.534 436.352 L 1261.608 448.935 L 1261.608 497.522 L 1213.007 497.522 L 1200.424 544.448 L 1052.774 504.883 L 905.09 544.452 L 892.512 497.522 L 843.924 497.522 L 843.924 448.925 L 796.989 436.352 L 836.554 288.682 L 796.989 141.003 L 843.924 128.43 Z M 851.556 288.682 L 814.735 426.102 L 858.415 437.806 L 858.415 483.031 L 903.631 483.031 L 915.339 526.706 L 1052.774 489.881 L 1190.184 526.701 L 1201.887 483.031 L 1247.118 483.031 L 1247.118 437.816 L 1290.788 426.112 L 1253.962 288.673 L 1290.783 151.253 L 1247.118 139.549 L 1247.118 94.329 L 1201.897 94.329 L 1190.189 50.654 L 1052.764 87.475 L 915.339 50.654 L 903.631 94.329 L 858.415 94.329 L 858.415 139.549 L 814.735 151.253 L 851.556 288.682 Z" style="fill: rgb(5, 145, 66);"/>
  <path d="M 852.556 173.09 L 889.295 163.246 L 889.295 125.208 L 927.328 125.208 L 937.172 88.475 L 1052.764 119.446 L 1168.351 88.475 L 1178.2 125.208 L 1216.233 125.208 L 1216.233 163.246 L 1252.962 173.09 L 1221.996 288.673 L 1252.967 404.27 L 1216.233 414.119 L 1216.233 452.152 L 1178.19 452.152 L 1168.346 488.881 L 1052.769 457.914 L 937.172 488.886 L 927.328 452.152 L 889.295 452.152 L 889.295 414.109 L 852.556 404.27 L 883.527 288.682 L 852.556 173.09 Z" style="stroke-width: 3px; fill: rgb(165, 208, 151);"/>
  <g transform="matrix(0.03197099640965462, 0, 0, 0.03197099640965462, 569.589111328125, 637.07470703125)" fill="#1000FF">
    <path id="path-13" d="M 15041.535 -15859.285 C 14964.764 -15854.487 14814.101 -15850.648 14705.663 -15850.648 C 14317.01 -15851.608 14081.9 -15809.384 13744.108 -15676.954 C 13379.447 -15534.928 13095.395 -15346.84 12800.787 -15051.272 C 12614.618 -14865.103 12523.453 -14752.826 12377.588 -14535.948 C 12326.728 -14460.137 12266.271 -14370.891 12243.24 -14337.304 C 12160.711 -14219.269 12134.801 -14138.66 12162.63 -14085.88 C 12176.065 -14059.969 12240.361 -14025.423 12332.486 -13994.714 C 12376.629 -13979.36 12425.57 -13956.329 12442.844 -13941.934 C 12473.552 -13916.024 12473.552 -13916.024 12426.53 -13806.626 C 12401.579 -13746.169 12354.557 -13617.578 12323.849 -13519.695 C 12292.181 -13421.812 12240.361 -13262.513 12209.652 -13164.63 C 12176.065 -13061.949 12125.204 -12931.439 12088.738 -12854.668 C 12054.192 -12781.736 12023.483 -12704.005 12021.564 -12681.934 C 12016.766 -12641.629 12018.685 -12638.75 12094.496 -12555.262 C 12137.68 -12509.2 12183.742 -12447.783 12197.177 -12419.954 C 12242.28 -12326.869 12238.441 -12215.551 12183.742 -12095.597 C 12170.307 -12063.929 12050.353 -11875.841 11917.923 -11677.196 C 11549.424 -11126.366 11494.724 -11026.564 11484.168 -10884.538 C 11474.572 -10756.906 11527.352 -10651.346 11618.517 -10617.759 C 11640.589 -10609.123 11701.046 -10595.688 11751.907 -10588.011 C 11894.892 -10565.939 11947.672 -10548.666 11990.856 -10509.321 C 12070.505 -10437.348 12082.981 -10374.012 12041.716 -10255.977 C 11997.573 -10131.224 12020.604 -10060.211 12127.124 -9988.239 C 12159.751 -9966.167 12222.128 -9938.338 12274.908 -9921.064 C 12376.629 -9888.437 12560.879 -9853.89 12633.811 -9853.89 C 12693.308 -9853.89 12740.33 -9839.495 12762.402 -9815.505 C 12778.716 -9797.271 12778.716 -9795.352 12752.806 -9761.765 C 12694.268 -9684.035 12561.838 -9627.416 12364.154 -9594.789 C 12300.818 -9584.233 12233.643 -9568.878 12214.451 -9561.201 C 12178.944 -9546.807 12178.944 -9546.807 12185.661 -9479.632 C 12196.217 -9365.436 12233.643 -9289.625 12353.598 -9140.881 C 12479.31 -8984.461 12511.937 -8914.407 12547.444 -8721.521 C 12586.789 -8506.563 12626.134 -8419.236 12724.017 -8329.99 C 12819.98 -8241.703 12927.459 -8209.076 13093.476 -8217.713 C 13200.955 -8223.47 13318.031 -8245.542 13638.549 -8323.272 C 14082.86 -8431.711 14203.774 -8450.904 14251.755 -8424.994 C 14296.858 -8401.003 14343.88 -8327.111 14440.803 -8121.749 C 14573.233 -7840.576 14625.053 -7716.783 14711.42 -7472.076 C 14834.254 -7123.729 14831.375 -7091.101 14672.075 -6990.34 C 14604.901 -6948.116 14556.919 -6872.304 14486.866 -6693.812 C 14339.082 -6318.595 14257.513 -6161.215 14163.469 -6068.131 C 14109.729 -6015.351 14062.707 -5952.974 14062.707 -5936.661 C 14062.707 -5931.862 15002.19 -5928.983 16149.913 -5928.983 C 18237.119 -5928.983 18237.119 -5928.983 18237.119 -6282.129 C 18237.119 -6647.75 18224.644 -7065.191 18208.33 -7260.957 C 18192.016 -7462.48 18164.187 -7542.13 18095.093 -7586.273 C 18074.94 -7599.708 18041.353 -7604.506 17946.349 -7608.344 C 17822.557 -7613.143 17822.557 -7613.143 17811.041 -7646.73 C 17804.323 -7664.963 17761.14 -7745.572 17715.077 -7826.182 C 17570.173 -8078.565 17483.805 -8292.564 17433.904 -8529.594 C 17410.873 -8638.033 17407.994 -8668.741 17407.994 -8851.072 C 17407.994 -9021.887 17410.873 -9066.989 17429.106 -9149.518 C 17463.653 -9311.696 17506.837 -9426.852 17610.477 -9636.053 C 17719.876 -9856.769 17796.646 -10044.857 17848.467 -10213.753 C 17994.331 -10691.651 18065.344 -11244.401 18050.95 -11774.119 C 18045.192 -11991.956 18045.192 -11991.956 18080.698 -11982.36 C 18127.72 -11970.844 18341.719 -11967.966 18410.813 -11977.562 C 18505.817 -11990.997 18499.099 -11959.329 18503.897 -12380.608 C 18508.695 -12771.18 18501.978 -12928.56 18467.431 -13191.5 C 18275.504 -14653.983 17408.954 -15562.758 15972.381 -15807.464 C 15692.167 -15855.446 15302.555 -15877.518 15041.535 -15859.285 Z" style="fill: rgb(255, 224, 194);"/>
  </g>
</svg>