<?xml version="1.0" encoding="utf-8"?>
<svg viewBox="796.989 32.567 511.545 512.226" width="511.545px" height="512.226px" xmlns="http://www.w3.org/2000/svg">
  <path d="M 843.924 128.43 L 843.924 79.838 L 892.512 79.838 L 905.09 32.908 L 1052.764 72.472 L 1200.429 32.908 L 1213.016 79.838 L 1261.608 79.838 L 1261.608 128.43 L 1308.529 141.003 L 1268.965 288.673 L 1308.534 436.352 L 1261.608 448.935 L 1261.608 497.522 L 1213.007 497.522 L 1200.424 544.448 L 1052.774 504.883 L 905.09 544.452 L 892.512 497.522 L 843.924 497.522 L 843.924 448.925 L 796.989 436.352 L 836.554 288.682 L 796.989 141.003 L 843.924 128.43 Z M 851.556 288.682 L 814.735 426.102 L 858.415 437.806 L 858.415 483.031 L 903.631 483.031 L 915.339 526.706 L 1052.774 489.881 L 1190.184 526.701 L 1201.887 483.031 L 1247.118 483.031 L 1247.118 437.816 L 1290.788 426.112 L 1253.962 288.673 L 1290.783 151.253 L 1247.118 139.549 L 1247.118 94.329 L 1201.897 94.329 L 1190.189 50.654 L 1052.764 87.475 L 915.339 50.654 L 903.631 94.329 L 858.415 94.329 L 858.415 139.549 L 814.735 151.253 L 851.556 288.682 Z" style="fill: rgb(5, 145, 66);"/>
  <path d="M 852.556 173.09 L 889.295 163.246 L 889.295 125.208 L 927.328 125.208 L 937.172 88.475 L 1052.764 119.446 L 1168.351 88.475 L 1178.2 125.208 L 1216.233 125.208 L 1216.233 163.246 L 1252.962 173.09 L 1221.996 288.673 L 1252.967 404.27 L 1216.233 414.119 L 1216.233 452.152 L 1178.19 452.152 L 1168.346 488.881 L 1052.769 457.914 L 937.172 488.886 L 927.328 452.152 L 889.295 452.152 L 889.295 414.109 L 852.556 404.27 L 883.527 288.682 L 852.556 173.09 Z" style="stroke-width: 3px; fill: rgb(165, 208, 151);"/>
  <g transform="matrix(0.01697000116109848, 0, 0, 0.01697000116109848, 878.9777221679688, 462.4369506835938)" fill="#1000FF" style="">
    <path id="path-11" d="M 10307.829 -18969.434 C 10072.786 -18960.564 9883.199 -18938.39 9653.7 -18892.934 C 9048.353 -18772.086 8491.789 -18496.021 8133.68 -18136.804 C 8044.985 -18049.218 8018.376 -18013.739 7980.681 -17937.24 C 7956.289 -17887.348 7927.463 -17815.283 7918.594 -17778.696 C 7897.529 -17695.544 7897.529 -17554.74 7918.594 -17464.936 C 7951.855 -17324.132 8001.746 -17260.936 8191.332 -17117.915 C 8489.571 -16892.85 8618.18 -16678.872 8672.506 -16320.764 C 8723.506 -15989.264 8654.767 -15448.222 8522.832 -15136.679 C 8500.658 -15084.57 8500.658 -15084.57 8380.919 -15060.179 C 8241.224 -15031.353 8067.159 -14950.418 7879.789 -14826.244 C 7516.138 -14584.549 7354.269 -14339.528 7372.008 -14054.593 C 7381.986 -13901.594 7439.638 -13767.442 7560.486 -13615.551 C 7615.92 -13546.811 7618.138 -13541.268 7617.029 -13476.964 C 7615.92 -13355.007 7560.486 -13217.529 7429.66 -13004.66 C 7396.399 -12951.443 7359.812 -12886.03 7348.725 -12860.53 C 7333.203 -12827.269 7265.573 -12756.313 7108.138 -12607.748 C 6384.161 -11927.01 5467.271 -10827.185 4886.316 -9943.556 C 4655.707 -9594.318 4626.881 -9514.492 4625.773 -9247.296 C 4625.773 -9075.449 4651.273 -8903.601 4676.773 -8903.601 C 4682.316 -8903.601 4733.316 -8942.405 4789.859 -8990.079 C 4946.185 -9120.905 5130.228 -9256.166 5170.141 -9269.47 C 5216.707 -9284.992 5276.576 -9261.709 5307.62 -9214.035 C 5356.402 -9140.862 5333.119 -9089.862 5203.402 -8995.623 C 5035.989 -8873.666 4826.446 -8698.493 4716.686 -8590.949 C 4493.838 -8369.211 4386.295 -8102.015 4401.817 -7805.994 C 4409.577 -7676.277 4428.425 -7600.886 4479.425 -7501.103 C 4514.903 -7434.582 4630.207 -7282.691 4680.099 -7239.452 C 4705.599 -7217.278 4705.599 -7217.278 4773.229 -7325.93 C 4972.794 -7646.342 5231.12 -7930.168 5516.054 -8141.928 C 5639.119 -8232.841 5690.119 -8247.254 5744.445 -8204.015 C 5791.01 -8167.428 5810.967 -8113.102 5795.445 -8065.429 C 5785.467 -8036.603 5755.532 -8007.776 5661.293 -7939.037 C 5521.597 -7835.929 5315.38 -7636.364 5194.533 -7484.473 C 5021.576 -7268.278 4838.642 -6958.952 4786.533 -6794.865 C 4656.816 -6382.431 4772.12 -5859.128 5061.489 -5543.15 C 5123.576 -5475.519 5226.685 -5411.215 5234.446 -5435.606 C 5236.663 -5443.367 5259.946 -5516.541 5284.337 -5597.476 C 5468.38 -6193.953 5779.923 -6734.996 6180.162 -7151.865 C 6303.227 -7280.473 6339.814 -7307.082 6390.814 -7307.082 C 6465.096 -7305.973 6528.292 -7226.147 6510.552 -7155.191 C 6507.226 -7139.669 6445.14 -7065.387 6371.966 -6989.995 C 6084.814 -6689.539 5875.271 -6375.779 5700.097 -5985.519 C 5570.38 -5696.15 5461.728 -5352.454 5439.554 -5162.868 C 5432.902 -5107.433 5398.532 -4882.368 5361.946 -4662.847 C 5282.12 -4186.108 5264.38 -4053.065 5264.38 -3917.804 C 5262.163 -3730.435 5299.859 -3630.653 5407.402 -3526.435 C 5472.815 -3464.349 5799.88 -3249.262 6170.183 -3027.523 C 6793.269 -2652.785 7234.53 -2469.85 7569.355 -2445.459 C 7646.964 -2439.915 7646.964 -2439.915 7691.312 -2486.481 C 7748.964 -2546.35 7766.703 -2601.785 7748.964 -2668.306 C 7680.225 -2924.415 7671.355 -2941.045 7543.855 -3100.697 C 7459.594 -3206.023 7377.551 -3280.305 7223.443 -3393.392 C 6959.574 -3586.305 6803.248 -3743.74 6727.856 -3894.522 C 6666.878 -4015.37 6661.335 -4070.804 6697.922 -4217.152 C 6829.856 -4744.89 7142.508 -5416.759 7525.007 -5993.28 C 7632.551 -6156.258 7808.833 -6392.409 7888.659 -6478.888 C 8178.028 -6797.083 8503.984 -7136.343 8570.506 -7188.452 C 8808.875 -7376.93 9058.331 -7463.408 9356.57 -7462.299 C 9519.548 -7462.299 9616.004 -7450.103 9762.352 -7411.299 C 9973.004 -7355.864 10076.112 -7280.473 10150.395 -7125.256 C 10232.438 -6955.626 10266.808 -6766.039 10285.655 -6382.431 C 10292.308 -6249.388 10304.503 -6107.475 10313.373 -6066.453 C 10367.699 -5809.236 10509.612 -5513.215 10700.307 -5264.868 C 10766.829 -5177.281 10924.263 -5018.738 11009.633 -4953.325 C 11053.98 -4918.955 11100.545 -4880.151 11112.741 -4865.738 C 11157.089 -4816.955 11406.545 -4658.412 11567.306 -4578.586 C 11799.023 -4464.391 11857.783 -4464.391 11909.892 -4578.586 C 11949.805 -4668.39 11914.327 -4873.499 11780.175 -5322.52 C 11701.458 -5583.063 11701.458 -5583.063 11701.458 -5760.454 C 11700.349 -6062.019 11729.175 -6158.475 12009.674 -6808.17 C 12111.674 -7043.213 12211.457 -7280.473 12231.413 -7335.908 C 12309.022 -7544.342 12357.804 -7745.016 12382.196 -7949.016 C 12401.043 -8116.428 12388.848 -8614.232 12357.804 -8931.319 C 12335.631 -9158.601 12333.413 -9257.275 12331.196 -9829.361 C 12330.087 -10412.534 12326.761 -10507.881 12300.152 -10852.685 C 12283.522 -11061.12 12266.891 -11363.793 12262.457 -11524.554 C 12255.805 -11817.249 12255.805 -11817.249 12340.065 -11823.901 C 12453.152 -11832.771 12490.848 -11844.966 12562.913 -11899.292 C 12699.282 -12000.183 12810.152 -12226.357 12868.912 -12525.704 C 12897.738 -12668.726 12911.043 -12965.856 12892.195 -13033.486 C 12881.108 -13074.508 12882.217 -13080.051 12932.108 -13160.986 C 12998.629 -13267.421 13125.021 -13434.833 13208.173 -13525.746 C 13284.673 -13608.898 13402.194 -13709.789 14273.628 -14431.549 C 15321.343 -15299.657 15867.929 -15765.308 15939.995 -15849.569 C 15978.799 -15896.134 16032.016 -15998.134 16059.734 -16079.068 C 16088.56 -16168.873 16086.342 -16400.59 16055.299 -16503.698 C 15990.994 -16711.024 15854.625 -16907.263 15669.473 -17054.719 C 15173.887 -17451.632 14299.128 -17954.979 13528.585 -18285.369 C 12590.63 -18688.934 11567.306 -18940.608 10773.481 -18966.108 C 10672.59 -18968.325 10572.807 -18972.76 10551.742 -18973.868 C 10530.677 -18974.977 10420.916 -18972.76 10307.829 -18969.434 Z" style="fill: rgb(255, 224, 194);"/>
    <path id="path-11" d="M 9475.2 -5128.498 C 9092.701 -5076.39 8744.571 -4906.759 8464.071 -4635.129 C 8159.18 -4342.434 7978.463 -3990.978 7917.485 -3577.435 C 7894.203 -3416.675 7901.963 -3116.219 7934.115 -2959.893 C 8081.572 -2238.133 8623.723 -1692.656 9354.352 -1528.569 C 9458.57 -1505.286 9497.374 -1503.069 9731.308 -1503.069 C 9977.438 -1504.178 9999.612 -1505.286 10124.895 -1535.221 C 10734.676 -1678.243 11212.524 -2089.568 11434.262 -2663.872 C 11516.306 -2876.741 11551.784 -3076.306 11550.675 -3325.762 C 11548.458 -4172.804 10986.35 -4885.694 10153.721 -5095.237 C 9964.134 -5142.911 9684.743 -5157.324 9475.2 -5128.498 Z" style="fill: rgb(220, 178, 10);"/>
    <path id="path-11" d="M 9664.787 -14818.483 C 10096.069 -14765.266 10563.938 -14644.418 10841.111 -14515.81 C 10955.307 -14462.593 11213.632 -14311.81 11403.219 -14187.637 C 11956.457 -13823.985 12388.848 -13401.573 12586.195 -13032.377 C 12627.217 -12955.878 12627.217 -12955.878 12621.674 -12811.747 C 12613.913 -12644.335 12582.869 -12485.791 12531.869 -12351.639 C 12493.065 -12248.531 12440.956 -12158.727 12425.435 -12168.705 C 12421 -12172.031 12372.217 -12248.531 12317.891 -12338.335 C 12017.435 -12835.03 11766.871 -13158.769 11469.741 -13434.833 C 10843.328 -14014.68 10048.395 -14294.071 9221.309 -14226.441 C 8817.745 -14193.18 8490.68 -14120.006 7981.789 -13948.159 C 7722.355 -13861.681 7722.355 -13861.681 7687.985 -13934.854 C 7658.051 -13998.05 7652.507 -14022.441 7652.507 -14092.289 C 7652.507 -14210.919 7696.855 -14300.723 7813.268 -14413.81 C 7936.333 -14534.658 8183.572 -14697.636 8333.245 -14756.397 C 8394.223 -14780.788 8593.788 -14817.375 8762.31 -14834.005 C 8918.636 -14850.636 9490.722 -14840.657 9664.787 -14818.483 Z" style="fill: rgb(220, 178, 10);"/>
  </g>
</svg>