<?xml version="1.0" encoding="utf-8"?>
<svg viewBox="796.989 32.567 511.545 512.226" width="511.545px" height="512.226px" xmlns="http://www.w3.org/2000/svg">
  <path d="M 1001.539 121.319 L 1052.778 32.567 L 1103.592 120.582 L 1178.149 46.029 L 1300.693 503.372 L 1054.939 544.793 L 804.83 504.587 L 927.393 47.173 L 1001.539 121.319 Z M 826.244 490.715 L 1054.873 527.468 L 1279.315 489.639 L 1169.299 79.053 L 1099.926 148.422 L 1052.778 66.757 L 1005.205 149.161 L 936.242 80.198 L 826.244 490.715 Z" style="fill: rgb(199, 54, 54);" transform="matrix(0.9999999999999999, 0, 0, 0.9999999999999999, -5.684341886080802e-14, -5.684341886080802e-14)"/>
  <path d="M 952.502 120.219 L 1011.818 179.532 L 1052.778 108.591 L 1093.381 178.917 L 1153.039 119.264 L 1249.433 479.016 L 1054.541 511.859 L 856.108 479.962 L 952.502 120.219 Z" style="fill-rule: evenodd; stroke-width: 3px; fill: rgb(255, 107, 109);" transform="matrix(0.9999999999999999, 0, 0, 0.9999999999999999, -5.684341886080802e-14, -5.684341886080802e-14)"/>
  <g transform="matrix(0.02020600065588951, 0, 0, 0.02020600065588951, 845.9209594726562, 552.7711181640624)" fill="#1000FF" style="">
    <title>Blocking</title>
    <path d="M 16524.947 -10206.699 A 6227.823 6227.823 0 0 1 10297.124 -3978.876 A 6227.823 6227.823 0 0 1 4069.301 -10206.699 A 6227.823 6227.823 0 0 1 10297.124 -16434.522 A 6227.823 6227.823 0 0 1 16524.947 -10206.699 Z" style="stroke: rgb(0, 0, 0); fill: rgb(146, 119, 94);"/>
    <path id="path-4" d="M 9809.998 -17233.997 C 8192.998 -17121.997 6752.999 -16519.997 5558.999 -15452.998 C 5311.999 -15232.998 4941.999 -14838.998 4734 -14574.998 C 4369 -14110.998 4062 -13598.998 3827 -13061.998 C 3743 -12871.998 3743 -12870.998 3655 -12633.999 C 3409 -11968.999 3261 -11201.999 3241 -10481.999 C 3225 -9891 3262 -9433 3370 -8872 C 3569 -7848 3994 -6894.001 4636 -6032.001 C 4811 -5798.001 4980.999 -5601.001 5227.999 -5348.001 C 5831.999 -4725.001 6548.999 -4219.002 7320.999 -3870.002 C 8054.998 -3537.002 8805.998 -3337.002 9602.998 -3263.002 C 9860.998 -3239.002 10673.997 -3239.002 10904.997 -3264.002 C 12243.997 -3406.002 13405.996 -3856.002 14452.996 -4641.001 C 14908.996 -4983.001 15329.996 -5394.001 15724.996 -5882.001 C 15827.996 -6010.001 15880.996 -6081.001 16051.995 -6322.001 C 16077.995 -6360.001 16141.995 -6459.001 16193.995 -6542.001 C 16773.995 -7488 17101.995 -8465 17216.995 -9588 C 17241.995 -9831 17241.995 -10651.999 17216.995 -10894.999 C 17112.995 -11895.999 16836.995 -12789.998 16371.995 -13631.998 C 16058.995 -14197.998 15697.996 -14678.998 15235.996 -15147.998 C 14949.996 -15438.998 14739.996 -15622.997 14446.996 -15841.997 C 13400.996 -16625.997 12222.997 -17081.997 10899.997 -17215.997 C 10778.997 -17227.997 10617.997 -17232.997 10299.998 -17234.997 C 10060.998 -17235.997 9839.998 -17235.997 9809.998 -17233.997 Z M 10519.997 -16359.997 C 10976.997 -16335.997 11345.997 -16279.997 11779.997 -16168.997 C 12506.997 -15981.997 13203.997 -15654.997 13819.996 -15210.998 C 13948.996 -15117.998 14159.996 -14950.998 14159.996 -14941.998 C 14159.996 -14937.998 14063.996 -14839.998 13947.996 -14723.998 C 13761.996 -14538.998 13717.996 -14500.998 13597.996 -14420.998 C 12625.997 -13769.998 11334.997 -12478.999 10654.997 -11476.999 C 10597.997 -11391.999 10593.997 -11388.999 10564.997 -11394.999 C 10548.997 -11397.999 10505.997 -11406.999 10470.997 -11414.999 C 10324.998 -11446.999 10115.998 -11441.999 9951.998 -11402.999 C 9886.998 -11387.999 9876.998 -11387.999 9869.998 -11400.999 C 9864.998 -11408.999 9822.998 -11470.999 9775.998 -11537.999 C 9508.998 -11917.999 9211.998 -12281.999 8842.998 -12679.999 C 8654.998 -12882.998 8204.998 -13332.998 8010.998 -13508.998 C 7626.999 -13860.998 7203.999 -14199.998 6849.999 -14439.998 C 6722.999 -14526.998 6680.999 -14562.998 6505.999 -14737.998 C 6306.999 -14937.998 6306.999 -14937.998 6430.999 -15035.998 C 7501.999 -15888.997 8813.998 -16351.997 10204.998 -16367.997 C 10270.998 -16368.997 10412.998 -16364.997 10519.997 -16359.997 Z M 15037.996 -14047.998 C 15483.996 -13486.998 15820.996 -12866.998 16049.995 -12179.999 C 16471.995 -10918.999 16471.995 -9566 16049.995 -8300 C 15853.996 -7713 15586.996 -7187 15231.996 -6691.001 C 15119.996 -6535.001 14951.996 -6320.001 14941.996 -6320.001 C 14937.996 -6320.001 14840.996 -6413.001 14726.996 -6528.001 C 14556.996 -6697.001 14503.996 -6757.001 14437.996 -6853.001 C 14195.996 -7208 13859.996 -7627 13516.996 -8002 C 13317.996 -8219 12851.997 -8686 12633.997 -8885 C 12221.997 -9263 11809.997 -9595 11501.997 -9800 C 11373.997 -9885 11382.997 -9864 11416.997 -10011.999 C 11427.997 -10062.999 11432.997 -10131.999 11432.997 -10239.999 C 11432.997 -10347.999 11427.997 -10416.999 11416.997 -10467.999 C 11382.997 -10615.999 11373.997 -10594.999 11501.997 -10679.999 C 12159.997 -11118.999 13077.997 -11961.999 13775.996 -12769.998 C 14001.996 -13031.998 14277.996 -13389.998 14439.996 -13631.998 C 14508.996 -13733.998 14556.996 -13789.998 14728.996 -13961.998 C 14841.996 -14076.998 14935.996 -14169.998 14936.996 -14169.998 C 14938.996 -14169.998 14983.996 -14114.998 15037.996 -14047.998 Z M 5750.999 -13951.998 C 5923.999 -13778.998 5970.999 -13723.998 6044.999 -13614.998 C 6282.999 -13263.998 6634.999 -12827.998 6999.999 -12429.999 C 7171.999 -12242.999 7633.999 -11780.999 7819.998 -11609.999 C 8214.998 -11247.999 8652.998 -10893.999 8997.998 -10659.999 C 9103.998 -10588.999 9095.998 -10611.999 9062.998 -10464.999 C 9040.998 -10366.999 9040.998 -10110.999 9062.998 -10011.999 C 9095.998 -9871 9102.998 -9892 9002.998 -9824 C 8636.998 -9572 8185.998 -9209 7817.998 -8868 C 7633.999 -8699 7170.999 -8236 7001.999 -8052 C 6649.999 -7672 6259.999 -7187 6025.999 -6838.001 C 5941.999 -6712.001 5906.999 -6671.001 5735.999 -6501.001 C 5541.999 -6307.001 5541.999 -6307.001 5440.999 -6434.001 C 4722 -7332 4266 -8450 4146 -9613 C 4104 -10014.999 4104 -10464.999 4146 -10866.999 C 4257 -11937.999 4645 -12955.998 5272.999 -13824.998 C 5369.999 -13958.998 5528.999 -14159.998 5537.999 -14159.998 C 5541.999 -14159.998 5637.999 -14066.998 5750.999 -13951.998 Z M 10009.998 -9064 C 10112.998 -9040 10365.998 -9040 10469.997 -9064 C 10510.997 -9073 10555.997 -9083 10569.997 -9086 C 10592.997 -9091 10601.997 -9082 10654.997 -9003 C 11343.997 -7988 12605.997 -6729.001 13624.996 -6040.001 C 13769.996 -5942.001 13803.996 -5913.001 13978.996 -5737.001 C 14172.996 -5542.001 14172.996 -5542.001 14043.996 -5440.001 C 13480.996 -4992.001 12866.997 -4659.001 12177.997 -4429.001 C 10913.997 -4007.002 9557.998 -4008.002 8294.998 -4431.001 C 7696.998 -4632.001 7162.999 -4906.001 6654.999 -5273.001 C 6520.999 -5370.001 6319.999 -5529.001 6319.999 -5538.001 C 6319.999 -5542.001 6417.999 -5642.001 6537.999 -5761.001 C 6721.999 -5945.001 6774.999 -5990.001 6883.999 -6065.001 C 7229.999 -6298.001 7647.999 -6637.001 8060.998 -7018.001 C 8257.998 -7199 8717.998 -7660 8890.998 -7850 C 9232.998 -8223 9609.998 -8692 9810.998 -8995 C 9882.998 -9103 9864.998 -9097 10009.998 -9064 Z" style="fill: rgb(164, 165, 191); transform-box: fill-box; transform-origin: 50% 50%;"/>
  </g>
</svg>