<?xml version="1.0" encoding="utf-8"?>
<svg viewBox="796.989 32.567 511.545 512.226" width="511.545px" height="512.226px" xmlns="http://www.w3.org/2000/svg">
  <path d="M 843.924 128.43 L 843.924 79.838 L 892.512 79.838 L 905.09 32.908 L 1052.764 72.472 L 1200.429 32.908 L 1213.016 79.838 L 1261.608 79.838 L 1261.608 128.43 L 1308.529 141.003 L 1268.965 288.673 L 1308.534 436.352 L 1261.608 448.935 L 1261.608 497.522 L 1213.007 497.522 L 1200.424 544.448 L 1052.774 504.883 L 905.09 544.452 L 892.512 497.522 L 843.924 497.522 L 843.924 448.925 L 796.989 436.352 L 836.554 288.682 L 796.989 141.003 L 843.924 128.43 Z M 851.556 288.682 L 814.735 426.102 L 858.415 437.806 L 858.415 483.031 L 903.631 483.031 L 915.339 526.706 L 1052.774 489.881 L 1190.184 526.701 L 1201.887 483.031 L 1247.118 483.031 L 1247.118 437.816 L 1290.788 426.112 L 1253.962 288.673 L 1290.783 151.253 L 1247.118 139.549 L 1247.118 94.329 L 1201.897 94.329 L 1190.189 50.654 L 1052.764 87.475 L 915.339 50.654 L 903.631 94.329 L 858.415 94.329 L 858.415 139.549 L 814.735 151.253 L 851.556 288.682 Z" style="fill: rgb(5, 145, 66);" transform="matrix(1, 0, 0, 1, 0, 1.1368683772161603e-13)"/>
  <path d="M 852.556 173.09 L 889.295 163.246 L 889.295 125.208 L 927.328 125.208 L 937.172 88.475 L 1052.764 119.446 L 1168.351 88.475 L 1178.2 125.208 L 1216.233 125.208 L 1216.233 163.246 L 1252.962 173.09 L 1221.996 288.673 L 1252.967 404.27 L 1216.233 414.119 L 1216.233 452.152 L 1178.19 452.152 L 1168.346 488.881 L 1052.769 457.914 L 937.172 488.886 L 927.328 452.152 L 889.295 452.152 L 889.295 414.109 L 852.556 404.27 L 883.527 288.682 L 852.556 173.09 Z" style="stroke-width: 3px; fill: rgb(165, 208, 151);" transform="matrix(1, 0, 0, 1, 0, 1.1368683772161603e-13)"/>
  <g transform="matrix(0.02049200050532818, 0, 0, 0.02049200050532818, 842.8945312500002, 498.5292968750001)" fill="#1000FF" style="">
    <path id="path-10" d="M 13725 -18291 C 13696 -18279 13675 -18252 13641 -18184 C 13600 -18100 13560 -17944 13553 -17834 C 13548 -17752 13550 -17737 13569 -17696 C 13609 -17615 13694 -17563 13870 -17515 C 14072 -17459 14142 -17436 14148 -17422 C 14194 -17301 13345 -14951 11870 -11115 C 11336 -9728 10740 -8200 10655 -8000 C 10601 -7874 10520 -7760 10379 -7615 C 10234 -7465 10191 -7411 10150 -7329 C 10084 -7200 9464 -5531 9096 -4492 C 8718 -3428 8530 -2839 8530 -2719 C 8530 -2578 8822 -2404 9330 -2242 C 9474 -2196 9603 -2171 9628 -2186 C 9707 -2234 9910 -2649 10220 -3395 C 10598 -4305 11129 -5707 11408 -6528 C 11505 -6815 11505 -6815 11501 -7055 C 11490 -7656 11488 -7624 11554 -7815 C 11713 -8278 11918 -8843 12659 -10868 C 14346 -15471 14936 -17141 15075 -17712 C 15109 -17852 15108 -17881 15068 -17915 C 14903 -18054 14086 -18302 13804 -18299 C 13771 -18299 13736 -18295 13725 -18291 Z" style="fill: rgb(168, 158, 140);"/>
    <path id="path-10" d="M 10109 -11039 C 10166 -11040 10182 -11035 10249 -10999 C 10360 -10938 10537 -10820 10598 -10765 C 10645 -10723 10650 -10714 10650 -10677 C 10650 -10497 10438 -9718 10275 -9299 C 10215 -9146 10189 -9090 10153 -9042 C 10129 -9010 10128 -9010 10046 -9010 C 9888 -9010 9654 -9086 9345 -9238 C 9009 -9404 8631 -9650 8560 -9750 C 8517 -9810 8541 -9861 8692 -10030 C 9052 -10434 9700 -10929 9989 -11021 C 10020 -11031 10074 -11039 10109 -11039 Z M 8548 -11566 C 8630 -11562 8633 -11561 8823 -11467 C 9009 -11375 9150 -11292 9179 -11256 C 9200 -11231 9178 -11193 9073 -11075 C 8815 -10788 8381 -10399 8145 -10245 C 7932 -10106 7838 -10093 7594 -10171 C 7338 -10252 6999 -10464 6946 -10575 C 6929 -10609 6929 -10613 6949 -10653 C 6994 -10745 7221 -10941 7492 -11121 C 7834 -11348 8166 -11507 8399 -11556 C 8436 -11563 8501 -11568 8548 -11566 Z M 7180 -12085 C 7260 -12061 7486 -11947 7551 -11898 C 7657 -11819 7676 -11762 7612 -11712 C 7438 -11574 6639 -11095 6353 -10957 C 6245 -10905 6245 -10905 6130 -10906 C 6029 -10907 6003 -10911 5916 -10939 C 5782 -10983 5686 -11028 5587 -11093 C 5502 -11149 5414 -11230 5391 -11274 C 5378 -11297 5380 -11303 5404 -11334 C 5440 -11381 5616 -11527 5753 -11623 C 6115 -11877 6459 -12037 6765 -12094 C 6871 -12114 7102 -12109 7180 -12085 Z M 11240 -13823 C 11580 -13683 11807 -13424 11775 -13212 C 11748 -13028 11484 -12420 11386 -12315 C 11344 -12271 11343 -12270 11279 -12270 C 11197 -12270 11085 -12297 10924 -12356 C 10487 -12514 9904 -12855 9782 -13025 C 9727 -13100 9726 -13098 9847 -13219 C 10002 -13373 10223 -13535 10494 -13690 C 10605 -13754 10868 -13884 10905 -13893 C 10962 -13908 11110 -13877 11240 -13823 Z M 9606 -14390 C 9742 -14390 9847 -14366 10039 -14290 C 10178 -14235 10200 -14221 10200 -14187 C 10200 -13969 9134 -13220 8823 -13220 C 8777 -13220 8750 -13230 8620 -13295 C 8348 -13431 8250 -13499 8250 -13553 C 8250 -13586 8305 -13635 8526 -13801 C 8876 -14064 9265 -14310 9413 -14361 C 9484 -14386 9510 -14390 9606 -14390 Z M 8220 -14897 C 8312 -14894 8337 -14889 8425 -14856 C 8572 -14801 8779 -14696 8827 -14652 C 8868 -14614 8887 -14573 8877 -14546 C 8856 -14491 8430 -14198 8080 -13998 C 7681 -13769 7406 -13662 7245 -13672 C 7080 -13684 6750 -13839 6661 -13947 C 6606 -14014 6624 -14060 6753 -14167 C 7114 -14471 7676 -14784 8022 -14876 C 8099 -14896 8133 -14900 8220 -14897 Z M 12763 -16313 C 12993 -16195 13039 -16124 13027 -15908 C 13016 -15717 12954 -15519 12815 -15235 C 12725 -15050 12635 -14901 12570 -14827 C 12538 -14791 12521 -14780 12498 -14780 C 12454 -14780 12245 -14869 11990 -14996 C 11553 -15215 11256 -15401 11214 -15482 C 11199 -15510 11200 -15513 11236 -15563 C 11444 -15854 12049 -16315 12350 -16411 C 12465 -16448 12530 -16433 12763 -16313 Z M 11654 -16746 C 11746 -16679 11784 -16637 11775 -16608 C 11741 -16503 11431 -16223 10950 -15865 C 10764 -15727 10639 -15683 10455 -15694 C 10400 -15697 10328 -15706 10295 -15715 C 10158 -15752 9989 -15858 9917 -15953 C 9889 -15990 9889 -15990 9910 -16037 C 9923 -16068 9965 -16118 10033 -16185 C 10353 -16503 10910 -16843 11185 -16889 C 11314 -16911 11506 -16852 11654 -16746 Z M 10325 -17278 C 10392 -17238 10530 -17117 10530 -17097 C 10530 -17023 10132 -16765 9531 -16449 C 9201 -16276 9027 -16197 8960 -16192 C 8864 -16185 8731 -16241 8639 -16327 C 8580 -16382 8560 -16424 8560 -16492 C 8560 -16561 8592 -16613 8687 -16697 C 8879 -16866 9091 -17004 9504 -17230 C 9708 -17341 9762 -17365 9843 -17380 C 9983 -17405 10181 -17363 10325 -17278 Z" style="fill: rgb(220, 178, 10);"/>
  </g>
</svg>