<?xml version="1.0" encoding="utf-8"?>
<svg viewBox="796.989 32.567 511.545 512.226" width="511.545px" height="512.226px" xmlns="http://www.w3.org/2000/svg">
  <path d="M 1001.539 121.319 L 1052.778 32.567 L 1103.592 120.582 L 1178.149 46.029 L 1300.693 503.372 L 1054.939 544.793 L 804.83 504.587 L 927.393 47.173 L 1001.539 121.319 Z M 826.244 490.715 L 1054.873 527.468 L 1279.315 489.639 L 1169.299 79.053 L 1099.926 148.422 L 1052.778 66.757 L 1005.205 149.161 L 936.242 80.198 L 826.244 490.715 Z" style="fill: rgb(199, 54, 54);"/>
  <path d="M 952.502 120.219 L 1011.818 179.532 L 1052.778 108.591 L 1093.381 178.917 L 1153.039 119.264 L 1249.433 479.016 L 1054.541 511.859 L 856.108 479.962 L 952.502 120.219 Z" style="fill-rule: evenodd; stroke-width: 3px; fill: rgb(255, 107, 109);"/>
  <g transform="matrix(0.022266000509262085, 0, 0, 0.022266000509262085, 865.7598876953125, 551.3121337890625)" fill="#1000FF" style="">
    <title>1Handed</title>
    <path id="path-5" d="M 7815 -18118 C 7638 -17729 7500 -17167 7451 -16630 C 7432 -16422 7420 -16194 7390 -15405 C 7312 -13389 7274 -12061 7250 -10628 C 7245 -10288 7233 -9649 7224 -9208 C 7215 -8766 7210 -8223 7212 -8000 C 7215 -7777 7213 -7566 7209 -7530 C 7199 -7458 7168 -7367 7142 -7333 C 7125 -7310 7125 -7310 7033 -7335 C 6767 -7408 6550 -7534 6337 -7739 C 6171 -7899 6013 -8103 5840 -8380 C 5812 -8424 5788 -8463 5786 -8466 C 5779 -8476 5535 -8354 5498 -8321 C 5478 -8304 5454 -8269 5444 -8245 C 5407 -8148 5446 -8055 5621 -7823 C 5687 -7736 5771 -7622 5809 -7570 C 5985 -7326 6356 -7019 6666 -6861 C 6861 -6762 6988 -6736 7144 -6764 C 7263 -6785 7368 -6783 7452 -6759 C 7490 -6749 7546 -6740 7578 -6740 C 7655 -6740 7686 -6762 7779 -6884 C 7876 -7011 7946 -7053 8028 -7031 C 8073 -7018 8128 -6963 8200 -6857 C 8289 -6727 8341 -6699 8458 -6718 C 8559 -6735 8642 -6767 8843 -6867 C 9149 -7019 9290 -7115 9489 -7306 C 9797 -7602 10000 -7877 10000 -7998 C 10000 -8095 9951 -8145 9762 -8244 C 9668 -8293 9634 -8307 9628 -8298 C 9624 -8291 9575 -8225 9520 -8152 C 9179 -7700 8890 -7461 8542 -7344 C 8427 -7304 8290 -7274 8267 -7283 C 8259 -7286 8248 -7314 8241 -7349 C 8213 -7490 8210 -7708 8220 -8759 C 8225 -9345 8234 -10633 8240 -11620 C 8250 -13343 8258 -13948 8281 -14755 C 8294 -15183 8287 -16287 8271 -16495 C 8228 -17033 8178 -17342 8065 -17752 C 7971 -18097 7927 -18200 7876 -18200 C 7857 -18200 7847 -18187 7815 -18118 Z" style="fill: rgb(164, 165, 191);"/>
    <path id="path-5" d="M 7600 -4478 C 7557 -4456 7555 -4452 7547 -4400 C 7533 -4307 7548 -4018 7600 -3410 C 7629 -3067 7633 -2982 7621 -2893 C 7608 -2791 7590 -2753 7543 -2733 C 7497 -2714 7461 -2721 7342 -2772 C 7158 -2850 7080 -2835 7080 -2721 C 7080 -2650 7112 -2626 7326 -2536 C 7461 -2479 7505 -2443 7571 -2335 C 7599 -2289 7633 -2242 7645 -2230 C 7675 -2202 7723 -2192 7780 -2202 C 7833 -2211 7855 -2235 7903 -2335 C 7965 -2463 8001 -2491 8185 -2549 C 8291 -2583 8344 -2611 8360 -2640 C 8372 -2662 8373 -2730 8362 -2746 C 8334 -2789 8251 -2790 8059 -2750 C 7901 -2717 7853 -2714 7827 -2732 C 7804 -2750 7783 -2864 7770 -3051 C 7762 -3168 7762 -3275 7772 -3495 C 7787 -3824 7788 -4382 7774 -4450 C 7765 -4495 7765 -4495 7705 -4498 C 7658 -4500 7635 -4495 7600 -4478 Z" style="fill: rgb(164, 165, 191);"/>
    <path id="path-5" d="M 7045 -5054 C 6849 -5005 6643 -4844 6555 -4670 C 6498 -4558 6484 -4411 6516 -4267 C 6558 -4075 6687 -3907 6851 -3831 C 6897 -3810 6960 -3786 6990 -3779 C 7058 -3762 7314 -3760 7330 -3776 C 7356 -3802 7363 -3912 7346 -4047 C 7337 -4120 7330 -4219 7330 -4267 C 7330 -4436 7302 -4539 7249 -4560 C 7195 -4583 7155 -4566 7082 -4490 C 7010 -4413 6995 -4405 6957 -4419 C 6900 -4441 6884 -4535 6920 -4637 C 6943 -4702 6969 -4734 7024 -4762 C 7082 -4792 7163 -4795 7329 -4775 C 7483 -4757 7567 -4760 7576 -4785 C 7585 -4807 7537 -4900 7491 -4952 C 7465 -4981 7424 -5012 7382 -5032 C 7321 -5062 7307 -5065 7210 -5067 C 7143 -5069 7084 -5064 7045 -5054 Z" style="fill: rgb(255, 204, 153);"/>
    <path id="path-5" d="M 7135 -5516 C 6945 -5479 6796 -5378 6717 -5231 C 6701 -5202 6690 -5177 6692 -5175 C 6694 -5173 6743 -5195 6801 -5224 C 6859 -5253 6938 -5285 6976 -5295 C 7078 -5321 7250 -5326 7344 -5306 C 7486 -5274 7554 -5228 7695 -5067 C 7757 -4997 7790 -4991 7841 -5042 C 7882 -5084 7900 -5127 7900 -5188 C 7900 -5252 7862 -5304 7770 -5365 C 7576 -5494 7326 -5553 7135 -5516 Z" style="fill: rgb(255, 204, 153);"/>
    <path id="path-5" d="M 7291 -6109 C 7097 -6084 6917 -5988 6835 -5867 C 6802 -5819 6760 -5709 6760 -5673 C 6760 -5643 6860 -5662 6949 -5708 C 7062 -5767 7138 -5783 7280 -5777 C 7473 -5769 7606 -5716 7913 -5526 C 8000 -5472 8073 -5430 8075 -5432 C 8078 -5434 8087 -5465 8096 -5500 C 8118 -5588 8112 -5717 8081 -5785 C 7976 -6021 7647 -6155 7291 -6109 Z" style="fill: rgb(255, 204, 153);"/>
    <path id="path-5" d="M 7150 -6532 C 6929 -6470 6753 -6312 6733 -6158 C 6727 -6117 6727 -6117 6786 -6157 C 6900 -6234 7017 -6284 7179 -6325 C 7294 -6354 7484 -6380 7581 -6380 C 7620 -6380 7650 -6384 7650 -6390 C 7650 -6414 7572 -6482 7512 -6512 C 7450 -6543 7438 -6545 7330 -6547 C 7243 -6549 7199 -6545 7150 -6532 Z" style="fill: rgb(255, 204, 153);"/>
    <path id="path-5" d="M 11965 -9612 C 11968 -9597 11977 -9529 11985 -9460 C 11992 -9391 12008 -9256 12019 -9160 C 12030 -9064 12051 -8876 12065 -8743 C 12121 -8210 12201 -7860 12410 -7250 C 12633 -6599 12794 -6019 12910 -5442 C 12956 -5214 12970 -5081 12959 -4987 C 12950 -4910 12933 -4872 12890 -4837 C 12827 -4784 12745 -4791 12582 -4864 C 12317 -4983 11941 -5039 11485 -5027 C 11093 -5016 10797 -4978 10232 -4865 C 10028 -4824 9814 -4785 9759 -4779 C 9611 -4762 9439 -4772 9367 -4800 C 9226 -4854 9135 -5007 9027 -5370 C 8952 -5623 8933 -5676 8883 -5772 C 8834 -5867 8728 -5978 8531 -6139 C 8312 -6318 8258 -6378 8169 -6545 C 8128 -6621 8075 -6705 8052 -6731 C 8014 -6773 8003 -6780 7971 -6780 C 7925 -6780 7888 -6745 7865 -6681 C 7831 -6583 7851 -6537 7998 -6372 C 8151 -6200 8239 -6043 8292 -5847 C 8310 -5781 8314 -5737 8314 -5620 C 8315 -5398 8301 -5359 8142 -5138 C 7960 -4886 7930 -4828 7930 -4735 C 7930 -4608 8000 -4517 8211 -4373 C 8358 -4273 8423 -4211 8460 -4138 C 8476 -4104 8490 -4071 8490 -4064 C 8490 -4057 8472 -4045 8449 -4039 C 8391 -4021 8333 -4039 8240 -4104 C 8157 -4162 8093 -4197 8056 -4205 C 8033 -4210 8031 -4206 8021 -4157 C 7996 -4039 7990 -3985 7990 -3887 C 7990 -3709 8018 -3656 8150 -3590 C 8244 -3543 8339 -3517 8722 -3430 C 9126 -3340 9311 -3309 9591 -3285 C 9927 -3256 9973 -3251 10288 -3205 C 10675 -3148 10702 -3144 10950 -3125 C 11328 -3096 11543 -3088 11925 -3087 C 12455 -3087 12761 -3110 13252 -3189 C 13784 -3274 13935 -3309 14095 -3385 C 14271 -3468 14359 -3556 14455 -3741 C 14600 -4021 14686 -4375 14805 -5170 C 14824 -5299 14851 -5480 14865 -5572 C 14901 -5812 14932 -6123 14995 -6883 C 15025 -7250 15055 -7579 15060 -7615 C 15070 -7676 15068 -7686 15044 -7748 C 14949 -7987 14715 -8190 14410 -8298 C 14284 -8342 14164 -8373 13876 -8435 C 13458 -8526 13259 -8591 12990 -8728 C 12563 -8944 12238 -9224 12027 -9557 C 11998 -9602 11972 -9639 11968 -9640 C 11964 -9640 11963 -9628 11965 -9612 Z" style="fill: rgb(255, 204, 153);"/>
  </g>
</svg>