<?xml version="1.0" encoding="utf-8"?>
<svg viewBox="796.989 32.567 511.545 512.226" width="511.545px" height="512.226px" xmlns="http://www.w3.org/2000/svg">
  <path d="M 1001.539 121.319 L 1052.778 32.567 L 1103.592 120.582 L 1178.149 46.029 L 1300.693 503.372 L 1054.939 544.793 L 804.83 504.587 L 927.393 47.173 L 1001.539 121.319 Z M 826.244 490.715 L 1054.873 527.468 L 1279.315 489.639 L 1169.299 79.053 L 1099.926 148.422 L 1052.778 66.757 L 1005.205 149.161 L 936.242 80.198 L 826.244 490.715 Z" style="fill: rgb(199, 54, 54);" transform="matrix(1, 0, 0, 1, 7.105427357601002e-15, 0)"/>
  <path d="M 952.502 120.219 L 1011.818 179.532 L 1052.778 108.591 L 1093.381 178.917 L 1153.039 119.264 L 1249.433 479.016 L 1054.541 511.859 L 856.108 479.962 L 952.502 120.219 Z" style="fill-rule: evenodd; stroke-width: 3px; fill: rgb(255, 107, 109);" transform="matrix(1, 0, 0, 1, 7.105427357601002e-15, 0)"/>
  <g transform="matrix(0.019551001489162445, 0, 0, 0.019551001489162445, 852.5460815429688, 618.0923461914062)" fill="#1000FF" style="">
    <title>Smithing</title>
    <path id="path-6" d="M 2262 -13243 c -6 38 -13 94 -17 127 -9 89 -6 677 3 711 10 35 -159 -24 1727 601 1764 585 1952 656 2348 891 417 248 624 528 668 904 27 235 -45 539 -198 842 -155 304 -379 521 -713 691 -124 63 -230 106 -453 182 -90 30 -178 64 -195 74 -109 67 -220 498 -225 870 -3 204 -95 180 693 180 680 0 680 0 787 -62 223 -128 548 -266 746 -317 290 -75 642 -125 1137 -163 219 -16 1209 -17 1380 0 690 66 1246 253 1467 494 44 48 44 48 782 48 618 0 740 -2 744 -14 3 -7 13 -63 23 -124 24 -155 16 -441 -16 -560 -60 -227 -152 -368 -288 -440 -110 -58 -192 -75 -547 -112 -52 -6 -123 -19 -157 -31 -221 -74 -449 -340 -510 -597 -25 -102 -28 -304 -5 -404 94 -425 367 -740 758 -876 209 -73 390 -102 1634 -257 1266 -158 1437 -182 1636 -234 271 -71 592 -222 1063 -502 714 -424 1576 -1091 1689 -1307 55 -106 -13 -172 -220 -212 -163 -32 -369 -39 -1243 -44 -784 -5 -1034 -10 -2100 -36 -1253 -31 -2160 -68 -2183 -89 -4 -4 -14 -50 -21 -102 -8 -53 -24 -116 -37 -144 -24 -50 -24 -50 -5086 -53 -5061 -2 -5061 -2 -5071 65 z m 8103 1353 c 508 22 840 57 890 94 17 12 17 14 1 39 -28 42 -168 153 -564 449 -205 153 -403 309 -441 346 -63 61 -76 83 -154 242 -95 195 -179 402 -388 952 -173 457 -190 495 -223 508 -45 17 -266 27 -417 19 -147 -8 -173 -11 -232 -29 -34 -11 -34 -11 -41 -363 -11 -547 -35 -905 -71 -1051 -19 -73 -100 -220 -448 -808 -190 -320 -174 -284 -137 -307 86 -52 470 -92 1015 -105 211 -5 961 4 1210 14 z " style="fill: rgb(164, 165, 191);"/>
  </g>
</svg>