<?xml version="1.0" encoding="utf-8"?>
<svg viewBox="796.989 32.567 511.545 512.226" width="511.545px" height="512.226px" xmlns="http://www.w3.org/2000/svg">
  <path d="M 1073.883 69.153 C 1104.115 71.303 1167.5 76.053 1167.5 76.053 L 1172.851 76.449 L 1175.944 80.831 C 1175.944 80.831 1212.129 132.036 1229.709 157.054 L 1276.62 157.054 L 1253.415 197.238 C 1267.383 226.304 1294.382 286 1294.382 286 L 1296.573 290.837 L 1294.264 295.628 C 1294.264 295.628 1266.691 352.891 1253.429 380.149 L 1276.62 420.306 L 1229.718 420.306 C 1212.498 444.308 1175.716 492.813 1175.716 492.813 L 1172.847 496.593 L 1168.137 497.217 C 1168.137 497.217 1104.88 505.543 1073.896 508.184 L 1053.31 543.837 L 1053.31 543.846 L 1052.764 544.793 L 1052.759 544.788 L 1052.759 544.793 L 1052.213 543.846 L 1052.213 543.837 L 1031.627 508.184 C 1000.643 505.543 937.386 497.217 937.386 497.217 L 932.676 496.593 L 929.807 492.813 C 929.807 492.813 893.025 444.308 875.805 420.306 L 828.903 420.306 L 852.094 380.149 C 838.832 352.891 811.259 295.628 811.259 295.628 L 808.95 290.837 L 811.141 286 C 811.141 286 838.14 226.304 852.108 197.238 L 828.903 157.054 L 875.814 157.054 C 893.394 132.036 929.579 80.831 929.579 80.831 L 932.672 76.449 L 938.023 76.053 C 938.023 76.053 1001.408 71.303 1031.64 69.153 L 1052.213 33.523 L 1052.213 33.514 L 1052.759 32.567 L 1052.764 32.572 L 1052.764 32.567 L 1053.31 33.514 L 1053.31 33.523 L 1073.883 69.153 Z M 1066.268 485.949 C 1093.308 484.137 1144.04 477.401 1160.454 475.269 C 1170.187 462.398 1199.686 423.544 1214.529 402.389 L 1249.726 404.507 L 1230.328 375.604 C 1242.052 351.611 1263.945 306.121 1271.455 290.541 C 1264.218 274.591 1243.003 227.612 1230.328 201.788 L 1251.812 171.464 L 1214.474 174.971 C 1198.761 152.563 1170.351 112.361 1160.449 98.347 C 1143.152 97.054 1092.907 93.287 1066.263 91.438 L 1052.764 59.999 L 1039.26 91.438 C 1012.616 93.287 962.372 97.054 945.074 98.347 C 935.172 112.361 906.762 152.563 891.049 174.971 L 853.711 171.464 L 875.195 201.788 C 862.52 227.612 841.305 274.591 834.068 290.541 C 841.578 306.121 863.472 351.611 875.195 375.604 L 855.797 404.507 L 890.994 402.389 C 905.837 423.544 935.336 462.398 945.069 475.269 C 961.483 477.401 1012.215 484.137 1039.255 485.949 L 1052.764 517.557 L 1066.268 485.949 Z" style="fill: rgb(15, 82, 186);"/>
  <path d="M 1069.484 114.868 C 1093.422 116.57 1143.606 120.331 1143.606 120.331 L 1147.843 120.645 L 1150.292 124.114 C 1150.292 124.114 1178.942 164.657 1192.861 184.464 L 1230.003 184.464 L 1211.63 216.28 C 1222.69 239.293 1244.066 286.557 1244.066 286.557 L 1245.8 290.387 L 1243.972 294.181 C 1243.972 294.181 1222.141 339.519 1211.641 361.101 L 1230.003 392.895 L 1192.868 392.895 C 1179.234 411.899 1150.111 450.303 1150.111 450.303 L 1147.84 453.296 L 1144.111 453.79 C 1144.111 453.79 1094.027 460.382 1069.495 462.473 L 1053.197 490.701 L 1053.197 490.708 L 1052.764 491.458 L 1052.76 491.454 L 1052.76 491.458 L 1052.327 490.708 L 1052.327 490.701 L 1036.028 462.473 C 1011.496 460.382 961.413 453.79 961.413 453.79 L 957.684 453.296 L 955.412 450.303 C 955.412 450.303 926.29 411.899 912.656 392.895 L 875.521 392.895 L 893.882 361.101 C 883.382 339.519 861.551 294.181 861.551 294.181 L 859.723 290.387 L 861.457 286.557 C 861.457 286.557 882.834 239.293 893.894 216.28 L 875.521 184.464 L 912.663 184.464 C 926.582 164.657 955.232 124.114 955.232 124.114 L 957.681 120.645 L 961.917 120.331 C 961.917 120.331 1012.102 116.57 1036.039 114.868 L 1052.327 86.658 L 1052.327 86.651 L 1052.76 85.901 L 1052.764 85.905 L 1052.764 85.901 L 1053.197 86.651 L 1053.197 86.658 L 1069.484 114.868 Z" style="fill: rgb(52, 155, 220);"/>
  <path id="path1" d="M 1097.48 122.491 C 1097.86 123.009 1099.508 124.973 1101.127 126.819 C 1106.543 133.019 1108.459 135.61 1109.902 138.75 C 1110.982 141.066 1111.344 142.62 1111.206 144.38 C 1110.982 147.131 1109.517 148.931 1106.767 149.788 C 1103.839 150.714 1101.742 150.443 1095.633 148.368 C 1084.405 144.558 1076.784 143.274 1065.715 143.3 C 1047.249 143.342 1027.961 144.868 1017.031 151.433 C 1011.731 154.632 995.796 167.471 992.037 172.525 C 985.002 181.992 975.935 196.578 976.272 209.344 C 976.367 212.858 975.298 217.874 975.772 220.035 C 976.719 224.524 979.926 229.243 981.95 232.65 C 984.025 236.141 994.139 236.8 996.662 238.689 C 999.732 240.993 1003.62 240.951 1006.185 238.514 C 1007.581 237.187 1007.309 236.641 1002.62 231.005 C 996.893 224.103 995 220.633 993.94 214.949 C 992.652 208.009 993.94 198.632 997.432 189.884 C 999.215 185.398 1000.794 182.987 1005.168 177.98 C 1009.113 173.451 1021.598 164.667 1026.373 162.601 C 1039.112 157.099 1061.474 154.907 1075.364 157.813 C 1080.142 158.813 1087.535 161.379 1092.718 163.816 C 1099.487 166.997 1105.479 171.341 1109.384 175.892 C 1115.52 183.09 1119.735 192.937 1121.354 203.923 C 1121.784 206.925 1121.827 217.287 1121.423 222.178 C 1120.273 235.774 1116.842 248.175 1110.801 260.771 C 1103.52 275.927 1104.567 275.888 1088.878 292.055 C 1087.371 293.609 1086.016 295.184 1085.856 295.547 C 1085.477 296.583 1085.339 301.794 1085.653 304.114 C 1085.971 306.457 1086.201 307.317 1086.644 307.945 C 1086.967 308.398 1086.967 308.398 1087.995 307.903 C 1090.166 306.839 1096.275 302.4 1101.123 298.362 C 1107.749 292.842 1107.322 292.243 1112.48 286.424 C 1123.549 273.89 1129.426 267.359 1132.646 256.248 C 1133.774 252.363 1134.519 250.469 1135.712 248.554 C 1137.564 245.605 1140.177 243.571 1143.043 242.94 C 1145.658 242.332 1146.377 242.444 1148.808 243.705 C 1151.495 245.109 1152.395 245.178 1152.848 244.111 C 1153.885 241.566 1157.014 225.675 1158.733 214.175 C 1160.08 205.069 1159.637 197.81 1157.158 189.221 C 1154.375 179.589 1148.228 168.593 1139.521 157.727 C 1131.269 147.424 1122.476 139.171 1108.886 129.006 C 1103.684 125.101 1098.019 121.523 1097.05 121.523 C 1096.917 121.523 1097.119 121.949 1097.48 122.491 Z" style="fill: rgb(224, 131, 0);"/>
  <path id="path1" d="M 1050.969 178.289 C 1048.924 180.421 1044.429 185.953 1042.282 189.036 C 1040.607 191.434 1040.532 191.714 1041.076 193.767 C 1041.257 194.486 1041.459 196.764 1041.575 199.924 C 1041.817 205.96 1041.817 224.551 1041.601 229.222 C 1041.373 233.545 1041.373 233.562 1038.599 234.931 C 1037.472 235.52 1036.203 236.24 1035.779 236.546 C 1031.655 239.663 1025.719 247.752 1022.055 255.235 C 1019.467 260.608 1019.264 261.934 1020.629 264.974 C 1022.304 268.677 1025.176 273.521 1026.364 274.636 C 1026.841 275.079 1026.95 275.091 1027.651 274.889 C 1028.099 274.751 1029.581 273.93 1030.997 273.041 C 1036.766 269.379 1038.975 268.155 1039.258 268.453 C 1039.625 268.814 1040.047 283.543 1040.369 305.337 C 1040.687 328.053 1041.033 389.924 1040.89 401.273 C 1040.77 411.033 1040.735 411.999 1040.369 413.148 C 1039.746 415.137 1039.806 415.601 1041.055 417.409 C 1043.59 421.116 1047.973 426.512 1050.689 429.246 C 1051.938 430.511 1052.339 430.817 1052.705 430.731 C 1053.492 430.528 1057.569 425.758 1061.78 420.126 C 1065.319 415.4 1065.233 415.584 1064.415 413.186 C 1063.911 411.718 1063.911 411.718 1063.687 392.339 C 1063.429 369.504 1063.57 295.215 1063.89 285.11 C 1064.255 273.769 1064.618 268.715 1065.121 268.113 C 1065.62 267.488 1068.057 268.638 1072.66 271.673 C 1077.009 274.549 1077.03 274.549 1077.83 274.127 C 1079.346 273.343 1084.495 267.548 1086.808 264.026 C 1087.672 262.696 1087.957 262.115 1087.935 261.573 C 1087.892 259.14 1081.641 246.56 1077.878 241.316 C 1074.955 237.264 1073.223 235.774 1069.789 234.406 C 1068.195 233.786 1067.329 233.325 1067.068 232.964 C 1066.507 232.193 1066.382 230.466 1066.102 218.153 C 1065.823 204.909 1065.939 193.363 1066.404 191.753 C 1066.908 189.983 1066.825 189.341 1065.922 187.989 C 1063.653 184.572 1054.737 176.455 1053.264 176.455 C 1052.864 176.455 1052.321 176.882 1050.969 178.289 Z" style="fill: rgb(56, 255, 255);"/>
  <path id="path1" d="M 994.918 271.437 C 991.538 272.672 988.163 275.152 984.452 279.005 C 976.034 287.826 968.9 301.66 968.9 309.13 C 968.9 312.415 969.663 312.772 972.608 310.938 C 976.202 308.682 978.105 308.321 980.435 309.418 C 984.93 311.512 986.449 317 984.331 323.449 C 984.052 324.28 983.241 326.347 982.531 328.061 C 978.48 337.692 975.419 353.01 974.868 366.302 C 974.226 382.261 976.56 394.6 982.811 408.11 C 987.357 418.004 993.015 426.089 1000.674 433.722 C 1007.124 440.117 1012.872 444.284 1020.552 448.18 C 1027.545 451.703 1034.824 454.052 1042.505 455.297 C 1046.259 455.887 1056.631 456.024 1060.885 455.555 C 1074.748 453.94 1090.63 450.316 1100.331 442.277 C 1112.726 432.005 1124.022 413.234 1125.375 396.594 C 1126.304 385.266 1124.892 373.267 1116.166 364.156 C 1108.511 356.187 1096.563 349.48 1085.886 348.623 C 1081.607 348.265 1083.811 357.148 1086.618 358.026 C 1098.604 361.853 1105.415 370.021 1108.652 382.059 C 1111.818 393.877 1110.733 406.518 1102.715 418.834 C 1100.318 422.521 1098.531 424.685 1095.319 427.778 C 1091.039 431.867 1087.281 434.176 1081.503 436.262 C 1068.565 440.926 1053.393 441.309 1039.956 437.314 C 1033.253 435.316 1026.398 431.751 1020.862 427.346 C 1012.062 420.402 1003.555 408.421 1000.217 398.337 C 998.363 392.722 997.347 384.611 997.347 375.51 C 997.32 365.538 998.319 358.619 1001.1 349.158 C 1003.598 340.688 1008.738 330.204 1013.298 324.259 C 1016.25 320.405 1016.484 319.979 1016.698 318.245 C 1017.482 311.842 1017.034 282.092 1016.109 279.195 C 1015.893 278.522 1015.399 278.433 1011.915 278.453 C 1008.78 278.48 1008.686 278.48 1007.236 277.739 C 1006.309 277.287 1004.786 276.125 1003.241 274.726 C 999.202 270.989 999.004 270.868 997.605 270.894 C 996.915 270.894 995.728 271.13 994.918 271.437 Z" style="fill: rgb(255, 208, 84);"/>
</svg>