<?xml version="1.0" encoding="utf-8"?>
<svg viewBox="796.989 32.567 511.545 512.226" width="511.545px" height="512.226px" xmlns="http://www.w3.org/2000/svg">
  <path d="M 1073.883 69.153 C 1104.115 71.303 1167.5 76.053 1167.5 76.053 L 1172.851 76.449 L 1175.944 80.831 C 1175.944 80.831 1212.129 132.036 1229.709 157.054 L 1276.62 157.054 L 1253.415 197.238 C 1267.383 226.304 1294.382 286 1294.382 286 L 1296.573 290.837 L 1294.264 295.628 C 1294.264 295.628 1266.691 352.891 1253.429 380.149 L 1276.62 420.306 L 1229.718 420.306 C 1212.498 444.308 1175.716 492.813 1175.716 492.813 L 1172.847 496.593 L 1168.137 497.217 C 1168.137 497.217 1104.88 505.543 1073.896 508.184 L 1053.31 543.837 L 1053.31 543.846 L 1052.764 544.793 L 1052.759 544.788 L 1052.759 544.793 L 1052.213 543.846 L 1052.213 543.837 L 1031.627 508.184 C 1000.643 505.543 937.386 497.217 937.386 497.217 L 932.676 496.593 L 929.807 492.813 C 929.807 492.813 893.025 444.308 875.805 420.306 L 828.903 420.306 L 852.094 380.149 C 838.832 352.891 811.259 295.628 811.259 295.628 L 808.95 290.837 L 811.141 286 C 811.141 286 838.14 226.304 852.108 197.238 L 828.903 157.054 L 875.814 157.054 C 893.394 132.036 929.579 80.831 929.579 80.831 L 932.672 76.449 L 938.023 76.053 C 938.023 76.053 1001.408 71.303 1031.64 69.153 L 1052.213 33.523 L 1052.213 33.514 L 1052.759 32.567 L 1052.764 32.572 L 1052.764 32.567 L 1053.31 33.514 L 1053.31 33.523 L 1073.883 69.153 Z M 1066.268 485.949 C 1093.308 484.137 1144.04 477.401 1160.454 475.269 C 1170.187 462.398 1199.686 423.544 1214.529 402.389 L 1249.726 404.507 L 1230.328 375.604 C 1242.052 351.611 1263.945 306.121 1271.455 290.541 C 1264.218 274.591 1243.003 227.612 1230.328 201.788 L 1251.812 171.464 L 1214.474 174.971 C 1198.761 152.563 1170.351 112.361 1160.449 98.347 C 1143.152 97.054 1092.907 93.287 1066.263 91.438 L 1052.764 59.999 L 1039.26 91.438 C 1012.616 93.287 962.372 97.054 945.074 98.347 C 935.172 112.361 906.762 152.563 891.049 174.971 L 853.711 171.464 L 875.195 201.788 C 862.52 227.612 841.305 274.591 834.068 290.541 C 841.578 306.121 863.472 351.611 875.195 375.604 L 855.797 404.507 L 890.994 402.389 C 905.837 423.544 935.336 462.398 945.069 475.269 C 961.483 477.401 1012.215 484.137 1039.255 485.949 L 1052.764 517.557 L 1066.268 485.949 Z" style="fill: rgb(15, 82, 186);"/>
  <path d="M 1069.484 114.868 C 1093.422 116.57 1143.606 120.331 1143.606 120.331 L 1147.843 120.645 L 1150.292 124.114 C 1150.292 124.114 1178.942 164.657 1192.861 184.464 L 1230.003 184.464 L 1211.63 216.28 C 1222.69 239.293 1244.066 286.557 1244.066 286.557 L 1245.8 290.387 L 1243.972 294.181 C 1243.972 294.181 1222.141 339.519 1211.641 361.101 L 1230.003 392.895 L 1192.868 392.895 C 1179.234 411.899 1150.111 450.303 1150.111 450.303 L 1147.84 453.296 L 1144.111 453.79 C 1144.111 453.79 1094.027 460.382 1069.495 462.473 L 1053.197 490.701 L 1053.197 490.708 L 1052.764 491.458 L 1052.76 491.454 L 1052.76 491.458 L 1052.327 490.708 L 1052.327 490.701 L 1036.028 462.473 C 1011.496 460.382 961.413 453.79 961.413 453.79 L 957.684 453.296 L 955.412 450.303 C 955.412 450.303 926.29 411.899 912.656 392.895 L 875.521 392.895 L 893.882 361.101 C 883.382 339.519 861.551 294.181 861.551 294.181 L 859.723 290.387 L 861.457 286.557 C 861.457 286.557 882.834 239.293 893.894 216.28 L 875.521 184.464 L 912.663 184.464 C 926.582 164.657 955.232 124.114 955.232 124.114 L 957.681 120.645 L 961.917 120.331 C 961.917 120.331 1012.102 116.57 1036.039 114.868 L 1052.327 86.658 L 1052.327 86.651 L 1052.76 85.901 L 1052.764 85.905 L 1052.764 85.901 L 1053.197 86.651 L 1053.197 86.658 L 1069.484 114.868 Z" style="fill: rgb(52, 155, 220);"/>
  <g transform="matrix(0.5333749651908875, 0, 0, 0.5333749651908875, 927.2249145507812, 235.58322143554688)" style="">
    <title>Alteration</title>
    <path d="M 455.69 -94.736 C 467.578 -94.736 477.827 -90.023 486.435 -80.593 C 494.634 -71.575 498.734 -60.506 498.734 -47.388 C 498.734 -34.27 494.634 -23.2 486.435 -14.182 C 477.827 -4.753 467.578 -0.039 455.69 -0.039 L 450.77 -0.039 L 449.541 -0.039 L 449.541 0.576 C 449.13 15.744 443.596 28.657 432.937 39.316 C 421.869 50.795 408.34 56.534 392.353 56.534 L 391.738 56.534 C 390.918 63.093 388.254 68.628 383.743 73.137 C 379.644 77.236 374.93 79.696 369.601 80.516 L 370.216 87.28 C 370.216 94.659 367.551 101.014 362.222 106.343 C 356.892 111.672 350.538 114.337 343.159 114.337 C 335.78 114.337 329.426 111.672 324.096 106.343 C 319.997 102.243 317.537 97.528 316.718 92.2 C 310.978 88.51 305.239 87.075 299.499 87.895 C 291.711 89.535 283.922 89.535 276.133 87.895 C 265.474 212.109 276.748 314.186 309.953 394.126 L 268.753 352.312 L 235.547 376.909 L 200.497 356.616 L 161.757 392.896 C 198.653 299.018 209.516 184.848 194.348 50.385 C 177.13 53.254 164.217 61.659 155.608 75.596 C 137.98 104.703 118.097 108.188 95.961 86.05 C 119.328 94.659 137.98 85.23 151.918 57.764 C 158.068 43.415 169.341 35.216 185.739 33.167 C 178.77 20.049 167.701 15.334 152.533 19.024 L 125.477 31.322 C 114.818 37.062 104.774 40.752 95.346 42.391 C 97.805 37.062 98.42 31.528 97.19 25.788 C 58.656 32.757 33.238 16.155 20.94 -24.021 C 18.48 -35.089 12.536 -46.157 3.107 -57.227 L -11.036 -84.898 C 2.082 -82.849 11.511 -72.804 17.251 -54.767 C 20.12 -40.008 26.064 -25.456 35.084 -11.107 C 48.611 10.62 62.96 17.999 78.128 11.03 C 85.507 4.06 85.507 -13.157 78.128 -40.623 C 54.761 -44.723 37.748 -60.301 27.089 -87.358 L 54.145 -63.99 C 62.344 -57.021 69.109 -54.562 74.439 -56.612 C 80.178 -61.121 82.227 -67.065 80.588 -74.444 C 78.948 -85.103 75.873 -95.557 71.364 -105.806 C 88.991 -93.917 95.961 -70.139 92.271 -34.474 C 91.451 -23.406 92.476 -12.542 95.346 -1.883 C 99.445 14.924 109.284 18.818 124.862 9.8 C 134.701 4.471 137.16 -2.499 132.241 -11.107 L 109.489 -61.531 C 121.377 -71.37 121.377 -83.668 109.489 -98.426 C 134.086 -85.308 138.595 -70.345 123.017 -53.537 C 128.346 -41.238 136.545 -28.735 147.614 -16.026 C 167.291 1.601 181.23 5.7 189.429 -3.728 C 195.167 -15.617 191.273 -29.145 177.746 -44.313 C 164.217 -59.481 157.862 -75.264 158.683 -91.662 C 166.882 -65.426 180 -57.636 198.038 -68.295 C 198.038 -61.326 194.348 -55.996 186.969 -52.307 C 196.807 -40.419 202.137 -24.431 202.957 -4.343 C 203.777 7.956 206.441 15.13 210.951 17.179 C 223.66 15.539 227.144 5.906 221.404 -11.722 C 216.076 -23.611 213.411 -35.909 213.411 -48.618 C 213.411 -67.475 219.97 -83.668 233.088 -97.197 C 246.617 -110.315 262.809 -116.874 281.667 -116.874 C 300.524 -116.874 316.512 -110.315 329.63 -97.197 C 336.189 -90.637 341.109 -83.463 344.388 -75.674 L 357.917 -72.6 L 364.682 -80.593 C 376.16 -92.072 390.098 -97.811 406.496 -97.811 C 417.564 -97.811 427.403 -95.147 436.012 -89.817 C 442.161 -93.097 448.72 -94.736 455.69 -94.736 M 212.181 336.323 L 234.933 358.461 L 258.915 333.864 L 234.318 288.36 L 212.181 336.323" fill-rule="evenodd" stroke="none" id="path727" style="fill: rgb(150, 100, 52);"/>
  </g>
</svg>