<?xml version="1.0" encoding="utf-8"?>
<svg viewBox="796.989 32.567 511.545 512.226" width="511.545px" height="512.226px" xmlns="http://www.w3.org/2000/svg">
  <path d="M 843.924 128.43 L 843.924 79.838 L 892.512 79.838 L 905.09 32.908 L 1052.764 72.472 L 1200.429 32.908 L 1213.016 79.838 L 1261.608 79.838 L 1261.608 128.43 L 1308.529 141.003 L 1268.965 288.673 L 1308.534 436.352 L 1261.608 448.935 L 1261.608 497.522 L 1213.007 497.522 L 1200.424 544.448 L 1052.774 504.883 L 905.09 544.452 L 892.512 497.522 L 843.924 497.522 L 843.924 448.925 L 796.989 436.352 L 836.554 288.682 L 796.989 141.003 L 843.924 128.43 Z M 851.556 288.682 L 814.735 426.102 L 858.415 437.806 L 858.415 483.031 L 903.631 483.031 L 915.339 526.706 L 1052.774 489.881 L 1190.184 526.701 L 1201.887 483.031 L 1247.118 483.031 L 1247.118 437.816 L 1290.788 426.112 L 1253.962 288.673 L 1290.783 151.253 L 1247.118 139.549 L 1247.118 94.329 L 1201.897 94.329 L 1190.189 50.654 L 1052.764 87.475 L 915.339 50.654 L 903.631 94.329 L 858.415 94.329 L 858.415 139.549 L 814.735 151.253 L 851.556 288.682 Z" style="fill: rgb(5, 145, 66);"/>
  <path d="M 852.556 173.09 L 889.295 163.246 L 889.295 125.208 L 927.328 125.208 L 937.172 88.475 L 1052.764 119.446 L 1168.351 88.475 L 1178.2 125.208 L 1216.233 125.208 L 1216.233 163.246 L 1252.962 173.09 L 1221.996 288.673 L 1252.967 404.27 L 1216.233 414.119 L 1216.233 452.152 L 1178.19 452.152 L 1168.346 488.881 L 1052.769 457.914 L 937.172 488.886 L 927.328 452.152 L 889.295 452.152 L 889.295 414.109 L 852.556 404.27 L 883.527 288.682 L 852.556 173.09 Z" style="stroke-width: 3px; fill: rgb(165, 208, 151);"/>
  <g transform="matrix(0.019842002540826797, 0, 0, 0.019842002540826797, 849.5849609375, 491.8722839355469)" fill="#1000FF" style="">
    <path id="path1" d="M 10095 -18269 c -1128 80 -2127 777 -2597 1811 -307 676 -358 1459 -142 2176 149 494 402 912 776 1284 190 190 306 286 482 403 237 155 461 263 736 355 154 51 356 106 364 99 8 -7 -63 -278 -105 -404 -22 -66 -59 -158 -82 -204 -42 -83 -42 -83 -170 -136 -312 -128 -568 -305 -825 -569 -270 -278 -456 -583 -577 -950 -94 -284 -129 -523 -122 -831 9 -389 81 -682 252 -1030 127 -259 278 -470 479 -670 206 -205 420 -358 671 -481 244 -119 467 -190 725 -231 164 -26 569 -26 725 0 296 50 539 129 785 258 650 341 1122 954 1284 1671 42 186 51 280 51 538 0 278 -9 360 -66 591 -130 529 -437 1010 -861 1350 -333 267 -674 420 -1174 525 -31 6 -31 1 11 179 14 60 35 179 47 263 19 126 25 152 39 152 63 0 370 -77 538 -135 628 -216 1183 -646 1556 -1205 167 -251 267 -457 364 -748 302 -907 166 -1909 -368 -2700 -623 -924 -1685 -1441 -2796 -1361 z M 6840 -14841 c -593 130 -1105 402 -1524 810 -773 754 -1095 1807 -876 2869 166 803 673 1530 1382 1978 135 86 437 233 591 288 629 227 1316 245 1960 51 163 -49 269 -92 459 -184 666 -324 1177 -859 1482 -1552 99 -223 113 -199 -117 -199 -173 0 -368 16 -452 36 -19 5 -36 27 -70 93 -184 357 -482 685 -843 929 -123 83 -411 222 -574 276 -265 89 -497 126 -790 126 -568 1 -1081 -176 -1543 -534 -109 -85 -308 -281 -396 -392 -238 -300 -417 -674 -494 -1034 -54 -250 -69 -560 -41 -804 67 -580 323 -1098 742 -1506 354 -344 768 -564 1249 -661 61 -12 114 -26 119 -30 4 -4 -6 -70 -23 -146 -17 -76 -41 -207 -53 -291 -26 -177 -5 -163 -188 -123 z M 8074 -14832 c 3 9 19 73 36 142 41 167 104 353 154 453 41 81 41 81 141 122 305 126 554 288 792 519 360 348 599 772 707 1257 28 123 56 340 56 426 0 29 3 53 8 54 144 10 414 17 495 12 108 -6 108 -6 102 -97 -18 -268 -46 -444 -100 -654 -107 -409 -305 -801 -575 -1142 -106 -135 -355 -383 -490 -490 -274 -217 -611 -402 -940 -513 -82 -28 -363 -107 -381 -107 -6 0 -8 8 -5 18 z M 9948 -11609 c -739 53 -1423 365 -1949 889 -254 252 -428 487 -577 778 -64 124 -172 365 -172 383 0 3 53 9 118 11 165 8 399 -9 529 -37 15 -4 39 -37 83 -116 277 -503 719 -904 1233 -1118 336 -139 653 -198 1027 -188 386 10 677 81 1026 252 495 241 886 631 1133 1126 148 298 232 597 259 924 7 90 7 90 47 88 22 -1 159 -3 303 -5 264 -2 264 -2 257 -82 -37 -456 -133 -818 -316 -1185 -253 -509 -607 -909 -1080 -1221 -565 -373 -1241 -548 -1921 -499 z M 7075 -8419 c 22 320 50 502 110 721 60 218 122 375 233 591 377 741 1058 1311 1852 1550 629 190 1299 177 1922 -38 571 -198 1084 -571 1450 -1057 126 -166 217 -314 308 -503 73 -151 170 -382 170 -405 0 -21 -397 9 -566 43 -109 22 -109 22 -176 148 -395 750 -1135 1249 -1975 1330 -145 14 -462 6 -598 -16 -553 -88 -1034 -337 -1421 -737 -417 -432 -661 -982 -700 -1579 -7 -106 -7 -106 -253 -113 -135 -3 -272 -9 -304 -12 -58 -7 -58 -7 -52 77 z M 12795 -8390 c -1111 82 -2089 742 -2570 1735 -66 136 -170 393 -163 400 10 10 382 -16 493 -35 190 -32 172 -21 238 -146 126 -237 247 -402 432 -593 71 -73 171 -166 220 -206 453 -363 993 -555 1565 -555 679 0 1309 269 1786 762 199 206 332 398 460 662 166 343 244 689 244 1071 -1 401 -86 756 -265 1111 -123 243 -274 453 -465 644 -379 379 -853 619 -1398 707 -154 26 -562 25 -722 0 -531 -84 -1011 -329 -1393 -709 -425 -423 -674 -949 -728 -1536 -13 -133 -13 -133 -88 -126 -42 5 -179 8 -304 8 -257 -1 -232 -29 -207 218 121 1188 929 2209 2058 2602 291 101 523 146 857 166 724 43 1432 -170 2017 -608 423 -317 763 -739 976 -1216 268 -600 338 -1272 201 -1914 -261 -1220 -1232 -2166 -2459 -2397 -222 -41 -567 -62 -785 -45 z " style="fill: rgb(117, 96, 0);"/>
  </g>
</svg>