<?xml version="1.0" encoding="utf-8"?>
<svg viewBox="796.989 32.567 511.545 512.226" width="511.545px" height="512.226px" xmlns="http://www.w3.org/2000/svg">
  <path d="M 1073.883 69.153 C 1104.115 71.303 1167.5 76.053 1167.5 76.053 L 1172.851 76.449 L 1175.944 80.831 C 1175.944 80.831 1212.129 132.036 1229.709 157.054 L 1276.62 157.054 L 1253.415 197.238 C 1267.383 226.304 1294.382 286 1294.382 286 L 1296.573 290.837 L 1294.264 295.628 C 1294.264 295.628 1266.691 352.891 1253.429 380.149 L 1276.62 420.306 L 1229.718 420.306 C 1212.498 444.308 1175.716 492.813 1175.716 492.813 L 1172.847 496.593 L 1168.137 497.217 C 1168.137 497.217 1104.88 505.543 1073.896 508.184 L 1053.31 543.837 L 1053.31 543.846 L 1052.764 544.793 L 1052.759 544.788 L 1052.759 544.793 L 1052.213 543.846 L 1052.213 543.837 L 1031.627 508.184 C 1000.643 505.543 937.386 497.217 937.386 497.217 L 932.676 496.593 L 929.807 492.813 C 929.807 492.813 893.025 444.308 875.805 420.306 L 828.903 420.306 L 852.094 380.149 C 838.832 352.891 811.259 295.628 811.259 295.628 L 808.95 290.837 L 811.141 286 C 811.141 286 838.14 226.304 852.108 197.238 L 828.903 157.054 L 875.814 157.054 C 893.394 132.036 929.579 80.831 929.579 80.831 L 932.672 76.449 L 938.023 76.053 C 938.023 76.053 1001.408 71.303 1031.64 69.153 L 1052.213 33.523 L 1052.213 33.514 L 1052.759 32.567 L 1052.764 32.572 L 1052.764 32.567 L 1053.31 33.514 L 1053.31 33.523 L 1073.883 69.153 Z M 1066.268 485.949 C 1093.308 484.137 1144.04 477.401 1160.454 475.269 C 1170.187 462.398 1199.686 423.544 1214.529 402.389 L 1249.726 404.507 L 1230.328 375.604 C 1242.052 351.611 1263.945 306.121 1271.455 290.541 C 1264.218 274.591 1243.003 227.612 1230.328 201.788 L 1251.812 171.464 L 1214.474 174.971 C 1198.761 152.563 1170.351 112.361 1160.449 98.347 C 1143.152 97.054 1092.907 93.287 1066.263 91.438 L 1052.764 59.999 L 1039.26 91.438 C 1012.616 93.287 962.372 97.054 945.074 98.347 C 935.172 112.361 906.762 152.563 891.049 174.971 L 853.711 171.464 L 875.195 201.788 C 862.52 227.612 841.305 274.591 834.068 290.541 C 841.578 306.121 863.472 351.611 875.195 375.604 L 855.797 404.507 L 890.994 402.389 C 905.837 423.544 935.336 462.398 945.069 475.269 C 961.483 477.401 1012.215 484.137 1039.255 485.949 L 1052.764 517.557 L 1066.268 485.949 Z" style="fill: rgb(15, 82, 186);"/>
  <path d="M 1069.484 114.868 C 1093.422 116.57 1143.606 120.331 1143.606 120.331 L 1147.843 120.645 L 1150.292 124.114 C 1150.292 124.114 1178.942 164.657 1192.861 184.464 L 1230.003 184.464 L 1211.63 216.28 C 1222.69 239.293 1244.066 286.557 1244.066 286.557 L 1245.8 290.387 L 1243.972 294.181 C 1243.972 294.181 1222.141 339.519 1211.641 361.101 L 1230.003 392.895 L 1192.868 392.895 C 1179.234 411.899 1150.111 450.303 1150.111 450.303 L 1147.84 453.296 L 1144.111 453.79 C 1144.111 453.79 1094.027 460.382 1069.495 462.473 L 1053.197 490.701 L 1053.197 490.708 L 1052.764 491.458 L 1052.76 491.454 L 1052.76 491.458 L 1052.327 490.708 L 1052.327 490.701 L 1036.028 462.473 C 1011.496 460.382 961.413 453.79 961.413 453.79 L 957.684 453.296 L 955.412 450.303 C 955.412 450.303 926.29 411.899 912.656 392.895 L 875.521 392.895 L 893.882 361.101 C 883.382 339.519 861.551 294.181 861.551 294.181 L 859.723 290.387 L 861.457 286.557 C 861.457 286.557 882.834 239.293 893.894 216.28 L 875.521 184.464 L 912.663 184.464 C 926.582 164.657 955.232 124.114 955.232 124.114 L 957.681 120.645 L 961.917 120.331 C 961.917 120.331 1012.102 116.57 1036.039 114.868 L 1052.327 86.658 L 1052.327 86.651 L 1052.76 85.901 L 1052.764 85.905 L 1052.764 85.901 L 1053.197 86.651 L 1053.197 86.658 L 1069.484 114.868 Z" style="fill: rgb(52, 155, 220);"/>
  <g transform="matrix(0.2604979872703552, 0, 0, 0.2604979872703552, 882.4544067382812, 178.06715393066406)" id="g137" style="">
    <path d="m 1256.3,208.6 q -41.85,216.15 -368.5,169.4 55.3,42.4 208.45,42.4 -55.95,144.45 -264.9,73.15 11.85,42.25 100.6,61.95 Q 877,616.45 782.2,604 769.55,581.25 746.4,561.6 815.2,663.25 760.05,773.75 672.2,914.8 658.7,970.55 628.05,916.3 683.8,830.05 l 0.25,-1.85 Q 717.7,770.15 670.7,735.55 670.5,779.3 642.3,792.8 646.45,715.9 591.8,661.25 536.95,605.7 564.25,557.9 540.9,579.5 533,604 438.2,616.45 383.05,555.5 460.25,534.05 483.4,493.55 274.65,564.85 218.85,420.4 371.95,420.4 427.4,378 100.75,424.75 51.25,193 q 85.3,87.25 270.85,46.45 106,-27.55 210.45,-25.2 10.3,0.85 2.45,9 -7.65,12.25 -5,17.25 32.5,35.5 67,14.6 53.15,-53.3 2.45,-87.85 -28.8,-11.95 -91.75,-11.3 4.1,-12.9 17.25,-22.5 -30.15,-7.6 -60.75,17.4 -7.9,-40.3 40.35,-56.1 Q 494.3,58.7 531.3,57.55 609.9,53.6 643.15,9.7 q 9.45,22.75 -8.75,51.35 73.9,-19.9 119.85,19.25 -45.3,-7.85 -65.65,20.9 53.8,10.3 69.55,49.65 -26.5,-12.2 -37.85,-1.7 37.85,63.15 -2.6,113.25 33.2,15.9 66.95,-17.3 4.05,-7.9 -3.75,-16.65 -16.6,-14.55 0,-14.2 105.3,-2.8 212.2,25.2 185.35,40.8 263.2,-30.85 M 651.45,574.3 q -69.25,68.8 88.3,169.8 47.45,-81.75 -88.3,-169.8 M 535.2,100.2 q 37.6,25.35 63.6,-15.95 -42.5,-15.35 -63.6,15.95" fill-rule="evenodd" stroke="none" id="path135" style="fill: rgb(0, 245, 0);"/>
  </g>
</svg>