<?xml version="1.0" encoding="utf-8"?>
<svg viewBox="796.989 32.567 511.545 512.226" width="511.545px" height="512.226px" xmlns="http://www.w3.org/2000/svg">
  <path d="M 843.924 128.43 L 843.924 79.838 L 892.512 79.838 L 905.09 32.908 L 1052.764 72.472 L 1200.429 32.908 L 1213.016 79.838 L 1261.608 79.838 L 1261.608 128.43 L 1308.529 141.003 L 1268.965 288.673 L 1308.534 436.352 L 1261.608 448.935 L 1261.608 497.522 L 1213.007 497.522 L 1200.424 544.448 L 1052.774 504.883 L 905.09 544.452 L 892.512 497.522 L 843.924 497.522 L 843.924 448.925 L 796.989 436.352 L 836.554 288.682 L 796.989 141.003 L 843.924 128.43 Z M 851.556 288.682 L 814.735 426.102 L 858.415 437.806 L 858.415 483.031 L 903.631 483.031 L 915.339 526.706 L 1052.774 489.881 L 1190.184 526.701 L 1201.887 483.031 L 1247.118 483.031 L 1247.118 437.816 L 1290.788 426.112 L 1253.962 288.673 L 1290.783 151.253 L 1247.118 139.549 L 1247.118 94.329 L 1201.897 94.329 L 1190.189 50.654 L 1052.764 87.475 L 915.339 50.654 L 903.631 94.329 L 858.415 94.329 L 858.415 139.549 L 814.735 151.253 L 851.556 288.682 Z" style="fill: rgb(5, 145, 66);"/>
  <path d="M 852.556 173.09 L 889.295 163.246 L 889.295 125.208 L 927.328 125.208 L 937.172 88.475 L 1052.764 119.446 L 1168.351 88.475 L 1178.2 125.208 L 1216.233 125.208 L 1216.233 163.246 L 1252.962 173.09 L 1221.996 288.673 L 1252.967 404.27 L 1216.233 414.119 L 1216.233 452.152 L 1178.19 452.152 L 1168.346 488.881 L 1052.769 457.914 L 937.172 488.886 L 927.328 452.152 L 889.295 452.152 L 889.295 414.109 L 852.556 404.27 L 883.527 288.682 L 852.556 173.09 Z" style="stroke-width: 3px; fill: rgb(165, 208, 151);"/>
  <g transform="matrix(0.020819002762436867, 0, 0, 0.020819002762436867, 838.2418823242188, 502.2822265625)" style="">
    <title>Alchemy</title>
    <path id="path-9" d="M 11105 -17694 c -374 15 -800 27 -1230 34 -533 8 -611 15 -756 59 -197 61 -351 231 -394 436 -70 336 142 680 454 736 54 9 92 9 180 0 226 -25 305 -9 344 71 27 55 36 207 26 433 -19 438 -29 843 -39 1550 -5 407 -15 1048 -21 1425 -9 483 -9 783 -2 1015 21 695 -5 824 -250 1234 -44 75 -141 241 -214 369 -73 127 -153 264 -178 302 -108 168 -128 264 -69 337 44 54 206 158 409 263 852 438 1499 876 2283 1546 713 609 1053 1109 1187 1747 59 278 73 654 35 908 -79 530 -359 1065 -776 1484 -150 151 -225 212 -404 331 -230 153 -467 265 -678 321 -139 37 -209 71 -253 120 -41 47 -38 61 16 67 25 3 83 13 130 21 91 16 308 39 530 55 172 13 603 4 785 -15 469 -50 888 -198 1242 -437 113 -76 319 -279 383 -376 101 -155 164 -311 202 -498 23 -119 24 -420 0 -584 -55 -384 -162 -767 -362 -1292 -219 -579 -325 -824 -549 -1273 -251 -502 -361 -695 -962 -1700 -421 -701 -527 -881 -673 -1145 -57 -102 -152 -266 -211 -365 -227 -378 -282 -520 -322 -817 -18 -134 -16 -747 5 -1133 41 -775 58 -1525 56 -2460 -3 -1345 -3 -1293 14 -1372 37 -170 46 -175 337 -184 236 -7 286 -17 400 -74 125 -63 229 -171 295 -310 145 -302 38 -584 -280 -740 -138 -68 -227 -86 -435 -89 -96 -2 -211 -2 -255 0 z M 8485 -8981 c -30 14 -98 89 -139 154 -21 32 -81 146 -134 255 -54 108 -219 438 -368 732 -279 552 -315 628 -604 1284 -268 608 -380 888 -465 1159 -48 157 -191 700 -210 802 -50 262 -16 498 110 750 137 277 350 495 613 628 280 142 628 224 1140 269 146 13 1254 18 1267 6 10 -9 -47 -89 -86 -122 -44 -37 -108 -68 -209 -101 -250 -81 -588 -354 -811 -654 -196 -263 -325 -569 -386 -911 -22 -125 -26 -175 -27 -365 -1 -349 48 -604 181 -935 240 -599 700 -1065 1213 -1228 184 -58 246 -67 475 -67 230 1 313 13 507 75 128 41 353 156 468 237 599 429 867 1167 674 1858 -31 112 -137 327 -206 420 -210 281 -534 478 -932 567 -86 20 -129 23 -286 22 -167 0 -194 -3 -282 -26 -262 -71 -484 -231 -636 -457 -104 -154 -164 -292 -207 -474 -59 -249 -58 -434 5 -802 22 -132 43 -291 47 -353 6 -112 6 -112 -19 -112 -14 0 -52 14 -86 31 -84 41 -160 127 -256 288 -183 307 -243 528 -232 851 7 231 42 385 137 609 140 332 392 642 684 841 406 276 956 333 1479 154 218 -75 485 -225 680 -383 119 -96 299 -281 385 -397 241 -323 358 -688 377 -1179 27 -669 -165 -1136 -675 -1645 -357 -355 -804 -682 -1361 -992 -281 -157 -720 -368 -1070 -515 -85 -36 -228 -98 -317 -139 -257 -116 -388 -157 -438 -135 z " style="fill: rgb(59, 160, 62);"/>
  </g>
</svg>