<?xml version="1.0" encoding="utf-8"?>
<svg viewBox="796.989 32.567 511.545 512.226" width="511.545px" height="512.226px" xmlns="http://www.w3.org/2000/svg">
  <path d="M 1001.539 121.319 L 1052.778 32.567 L 1103.592 120.582 L 1178.149 46.029 L 1300.693 503.372 L 1054.939 544.793 L 804.83 504.587 L 927.393 47.173 L 1001.539 121.319 Z M 826.244 490.715 L 1054.873 527.468 L 1279.315 489.639 L 1169.299 79.053 L 1099.926 148.422 L 1052.778 66.757 L 1005.205 149.161 L 936.242 80.198 L 826.244 490.715 Z" style="fill: rgb(199, 54, 54);" transform="matrix(1, 0, 0, 1, 0, 5.684341886080802e-14)"/>
  <path d="M 952.502 120.219 L 1011.818 179.532 L 1052.778 108.591 L 1093.381 178.917 L 1153.039 119.264 L 1249.433 479.016 L 1054.541 511.859 L 856.108 479.962 L 952.502 120.219 Z" style="fill-rule: evenodd; stroke-width: 3px; fill: rgb(255, 107, 109);" transform="matrix(1, 0, 0, 1, 0, 5.684341886080802e-14)"/>
  <g transform="matrix(0.022460000589489937, 0, 0, 0.022460000589489937, 816.7162475585939, 541.7550048828126)" style="">
    <title>Archery</title>
    <path id="path-8" d="M 4715.871 -7253.934 C 5294.871 -7326.934 5930.871 -7432.934 6169.871 -7495.934 C 6341.871 -7540.934 6382.871 -7564.934 6369.871 -7615.934 C 6358.871 -7660.934 6335.871 -7677.934 6248.871 -7704.934 C 6146.871 -7735.934 6132.871 -7749.934 6165.871 -7784.934 C 6229.871 -7853.934 6449.871 -7971.934 6809.871 -8131.934 C 7292.871 -8346.934 7766.871 -8571.934 8584.871 -8973.934 C 10183.871 -9759.934 10423.871 -9877.934 10686.871 -10002.934 C 11227.871 -10258.934 11892.871 -10557.934 12140.871 -10656.934 C 12325.871 -10730.934 12314.871 -10730.934 12655.871 -10654.934 C 12818.871 -10618.934 12967.871 -10588.934 12987.871 -10588.934 C 13103.871 -10588.934 14130.871 -11024.934 14556.871 -11254.934 C 14716.871 -11340.934 14714.871 -11338.934 14672.871 -11374.934 C 14628.871 -11413.934 14555.871 -11435.934 14406.871 -11453.934 C 14253.871 -11472.934 14227.871 -11480.934 14184.871 -11520.934 C 14129.871 -11572.934 14099.871 -11649.934 14099.871 -11738.934 C 14099.871 -11805.934 14103.871 -11820.934 14134.871 -11877.934 C 14153.871 -11912.934 14191.871 -11970.934 14218.871 -12007.934 C 14277.871 -12087.934 14302.871 -12142.934 14310.871 -12208.934 C 14315.871 -12254.934 14314.871 -12258.934 14295.871 -12258.934 C 14227.871 -12258.934 12910.871 -11723.934 12692.871 -11606.934 C 12608.871 -11561.934 12533.871 -11474.934 12430.871 -11302.934 C 12235.871 -10973.934 12209.871 -10950.934 11910.871 -10836.934 C 11651.871 -10737.934 10940.871 -10417.934 10339.871 -10130.934 C 10202.871 -10064.934 9628.871 -9782.934 9064.871 -9503.934 C 7518.871 -8737.934 7081.871 -8528.934 6191.871 -8131.934 C 6109.871 -8094.934 6012.871 -8077.934 6000.871 -8097.934 C 5996.871 -8103.934 6013.871 -8153.934 6038.871 -8206.934 C 6063.871 -8260.934 6084.871 -8317.934 6084.871 -8332.934 C 6084.871 -8363.934 6044.871 -8408.934 6016.871 -8408.934 C 5948.871 -8408.934 5565.871 -8089.934 4882.871 -7462.934 C 4765.871 -7355.934 4667.871 -7263.934 4665.871 -7257.934 C 4663.871 -7249.934 4678.871 -7248.934 4715.871 -7253.934 Z" style="transform-origin: 9681.37px -9754.91px; fill: rgb(168, 158, 140);"/>
    <path id="path-7" d="M 6320 -17322 C 6289 -17312 6264 -17298 6262 -17289 C 6256 -17258 6388 -17167 6629 -17034 C 6745 -16970 6784 -16943 6831 -16892 C 7005 -16707 7073 -16331 7025 -15829 C 6997 -15539 6981 -15458 6794 -14708 C 6611 -13971 6549 -13659 6503 -13250 C 6481 -13052 6478 -12422 6498 -12260 C 6559 -11769 6721 -11332 7065 -10725 C 7357 -10210 7466 -10003 8170 -8625 C 9220 -6569 9162 -6680 9268 -6495 C 9461 -6155 9624 -5925 9784 -5768 C 10107 -5451 10478 -5141 10689 -5012 C 11024 -4807 11309 -4666 12062 -4329 C 12546 -4113 12733 -4025 12968 -3901 C 13351 -3699 13545 -3565 13720 -3383 C 13816 -3283 13869 -3202 13900 -3110 C 13917 -3059 13919 -3031 13916 -2922 C 13911 -2786 13894 -2700 13820 -2438 C 13765 -2242 13765 -2240 13786 -2240 C 13824 -2240 13909 -2292 13958 -2345 C 14040 -2432 14140 -2617 14188 -2768 C 14212 -2847 14215 -2869 14215 -3005 C 14215 -3115 14210 -3172 14198 -3220 C 14174 -3308 13540 -4572 12201 -7202 C 11161 -9246 9782 -11944 8560 -14330 C 7218 -16952 7259 -16875 7137 -17020 C 7013 -17168 6873 -17261 6700 -17310 C 6592 -17341 6396 -17347 6320 -17322 Z M 7460 -15982 C 7477 -15962 7518 -15891 7552 -15825 C 7585 -15759 7632 -15671 7655 -15630 C 7888 -15214 9572 -11936 11310 -8515 C 12329 -6510 13548 -4076 13583 -3978 C 13591 -3955 13344 -4058 13065 -4192 C 12007 -4702 11679 -4877 11322 -5119 C 11061 -5297 10869 -5470 10678 -5700 C 10403 -6030 10000 -6639 9730 -7135 C 9317 -7893 7918 -10620 7451 -11578 C 7249 -11992 7209 -12085 7146 -12280 C 7045 -12593 7015 -12825 7015 -13310 C 7015 -13876 7047 -14132 7230 -15045 C 7280 -15292 7332 -15562 7346 -15645 C 7390 -15911 7412 -16020 7420 -16020 C 7425 -16020 7443 -16003 7460 -15982 Z" style="fill: rgb(164, 165, 191);"/>
  </g>
</svg>