<?xml version="1.0" encoding="utf-8"?>
<svg viewBox="796.989 32.567 511.545 512.226" width="511.545" height="512.226" xmlns="http://www.w3.org/2000/svg">
  <g id="g-6" transform="matrix(0.9871050715446472, 0, 0, 0.9871050715446472, 777.8902587890625, 29.148508071899414)">
    <path style="stroke: none; fill-rule: evenodd; fill: rgb(224, 131, 0); fill-opacity: 1;" d="M 64.722 207.653 C 61.666 189.443 68.182 175.285 84.28 165.188 C 82.806 172.28 89.918 186.974 105.616 209.274 C 121.316 231.514 124.602 252.872 115.479 273.357 C 129.478 263.654 134.831 245.839 131.547 219.909 C 157.444 264.847 154.698 297.411 123.298 317.61 C 91.958 337.692 76.142 353.748 75.861 365.777 C 65.604 344.049 65.801 325.411 76.457 309.863 C 86.996 294.375 90.456 278.886 86.828 263.398 C 78.725 277.186 68.182 289.496 55.204 300.333 C 46.643 307.425 44.292 316.645 48.147 327.994 C 20.884 302.348 12.979 280.587 24.428 262.717 C 36.218 248.875 45.283 234.604 51.631 219.909 C 58.433 229.045 60.671 239.029 58.349 249.866 C 71.159 241.868 73.283 227.798 64.722 207.653"/>
    <path style="stroke: none; fill-rule: evenodd; fill: rgb(56, 255, 255); fill-opacity: 1;" d="M 435.71 347.812 C 435.71 343.501 437.396 339.66 440.767 336.289 C 443.994 332.819 447.715 331.088 451.928 331.088 C 456.749 331.088 460.842 332.819 464.212 336.289 C 467.583 339.66 469.269 343.501 469.269 347.812 C 469.269 352.452 467.464 356.738 463.862 360.674 C 461.521 362.548 459.791 363.555 458.665 363.694 L 458.665 409.658 L 465.057 398.762 L 464.422 397.426 L 463.862 396.235 C 462.737 393.985 463.042 391.69 464.773 389.345 C 467.209 385.084 470.951 384.098 476.008 386.394 C 477.783 387.334 478.978 389.019 479.588 391.455 C 480.104 393.705 479.914 395.741 479.024 397.571 C 477.997 399.726 476.077 401.132 473.271 401.787 L 469.9 401.787 L 463.021 413.664 L 503.949 389.909 L 503.879 387.168 C 503.689 386.324 503.713 385.363 503.949 384.288 C 504.604 379.322 507.316 375.502 512.092 372.832 C 516.024 370.722 520.187 370.206 524.588 371.286 C 529.174 372.361 532.661 374.801 535.048 378.592 C 537.059 382.903 537.553 387.334 536.523 391.875 C 535.448 396.466 532.826 399.772 528.66 401.787 C 526.273 403.002 523.957 403.823 521.707 404.247 C 519.556 404.807 517.264 404.597 514.829 403.612 L 512.092 402.137 L 509.422 400.172 L 469.339 423.642 L 483.52 423.642 C 483.52 422.751 483.871 421.861 484.571 420.97 C 486.351 419.236 488.503 418.371 491.029 418.371 C 496.321 418.371 498.963 421.111 498.963 426.593 C 498.963 432.073 496.321 434.814 491.029 434.814 C 487.987 434.814 485.836 433.994 484.571 432.357 C 483.871 431.138 483.52 430.132 483.52 429.332 L 469.829 429.332 L 510.266 453.017 C 511.202 452.316 512.138 451.822 513.074 451.542 L 515.954 450.346 C 520.771 448.801 525.268 449.201 529.43 451.542 C 533.176 453.883 535.678 457.258 536.944 461.664 C 538.209 466.115 537.573 470.4 535.048 474.521 C 532.661 478.787 529.174 481.548 524.588 482.814 C 520.187 484.079 516.024 483.473 512.092 480.988 C 507.316 478.222 504.604 474.052 503.949 468.48 C 503.713 467.635 503.689 466.77 503.879 465.88 L 503.949 463.279 L 463.021 439.454 L 470.46 452.242 L 471.375 452.102 L 473.271 452.242 C 475.982 453.182 477.903 454.447 479.024 456.038 C 481.039 460.724 480.033 464.474 476.008 467.285 C 471.325 469.86 467.583 468.995 464.773 464.684 C 462.762 462.154 462.457 459.649 463.862 457.163 C 464.238 456.179 464.893 455.477 465.828 455.057 L 458.665 443.39 L 458.665 489.914 C 460.866 490.945 462.597 492.045 463.862 493.215 C 467.464 496.45 469.269 500.667 469.269 505.867 C 469.269 510.178 467.583 514.019 464.212 517.39 C 460.842 520.716 456.749 522.381 451.928 522.381 C 447.715 522.381 443.994 520.716 440.767 517.39 C 437.396 514.019 435.71 510.178 435.71 505.867 C 435.71 500.477 437.606 496.051 441.397 492.584 L 443.994 491.04 L 446.59 489.914 L 446.59 442.335 L 439.361 455.057 C 439.222 455.197 439.456 455.453 440.062 455.828 L 440.483 457.163 C 441.467 459.739 441.208 462.248 439.712 464.684 C 437.421 468.995 433.954 469.86 429.323 467.285 C 424.316 464.474 423.31 460.724 426.301 456.038 C 427.567 453.978 429.182 452.712 431.148 452.242 C 432.599 451.822 433.72 451.822 434.516 452.242 L 441.678 439.664 L 399.765 463.279 C 400.42 464.494 400.61 466.23 400.33 468.48 C 399.3 474.757 396.654 478.927 392.397 480.988 C 388.556 483.003 384.393 483.543 379.897 482.603 C 375.405 481.668 372.013 478.972 369.718 474.521 C 367.896 470.866 367.542 466.955 368.667 462.784 C 369.742 458.523 372.129 455.267 375.826 453.017 C 380.273 450.441 384.673 449.947 389.025 451.542 L 392.537 453.017 L 435.29 429.332 L 421.319 429.332 L 421.179 430.108 L 420.194 432.357 C 419.493 433.994 417.528 434.814 414.297 434.814 C 408.449 434.814 405.522 432.073 405.522 426.593 C 405.522 421.111 408.449 418.371 414.297 418.371 C 416.967 418.371 418.814 419.236 419.843 420.97 L 421.319 423.642 L 435.71 423.642 L 393.167 400.172 C 393.167 400.356 392.162 400.896 390.151 401.787 C 386.03 403.802 381.257 403.802 375.826 401.787 C 371.898 399.772 369.227 396.466 367.826 391.875 C 366.421 387.379 367.051 383.114 369.718 379.087 C 372.108 375.057 375.454 372.666 379.757 371.916 C 384.018 371.12 387.97 371.777 391.621 373.887 C 395.508 376.136 398.035 379.788 399.205 384.848 L 399.275 387.239 L 399.205 389.909 L 441.328 413.239 L 434.516 401.787 L 431.848 401.787 C 429.463 401.787 427.612 400.382 426.301 397.571 C 424.85 395.741 424.406 393.705 424.971 391.455 C 425.345 389.019 426.512 387.334 428.478 386.394 C 433.909 384.288 437.651 385.269 439.712 389.345 C 441.023 391.641 441.278 393.94 440.483 396.235 L 440.062 397.426 C 439.456 397.851 439.222 398.296 439.361 398.762 L 446.59 411.343 L 446.59 363.694 C 445.844 363.649 444.113 362.854 441.397 361.305 C 437.606 357.138 435.71 352.638 435.71 347.812"/>
    <path style="stroke: none; fill-rule: evenodd; fill: rgb(255, 208, 84); fill-opacity: 1;" d="M 525.42 3.463 L 481.256 73.328 L 522.149 73.328 L 405.471 191.22 L 464.901 98.433 L 417.466 98.433 L 477.986 3.463 L 525.42 3.463"/>
    <path style="stroke: none; fill-rule: nonzero; fill-opacity: 1; fill: rgb(245, 200, 28);" d="M 328.642 110.06 L 331.804 110.06 L 335.328 117.055 C 337.236 120.94 340.226 127.337 342.015 131.285 C 343.807 135.228 346.017 139.833 346.972 141.447 C 347.865 143.06 349.059 145.872 349.655 147.605 C 350.194 149.395 350.433 151.013 350.194 151.309 C 349.894 151.548 346.313 152.745 342.193 153.881 C 338.072 155.075 332.878 156.45 330.552 156.99 C 328.223 157.467 321.595 159.261 315.746 160.933 C 309.893 162.609 305 163.863 304.937 163.744 C 304.879 163.683 302.073 158.483 298.787 152.206 C 295.445 145.93 291.086 137.8 289.115 134.034 C 287.086 130.266 285.476 126.619 285.476 125.842 C 285.476 124.949 286.13 124.11 287.386 123.332 C 288.46 122.676 291.922 121.183 295.025 120.047 C 298.133 118.91 305.535 116.52 311.387 114.844 C 317.298 113.168 322.851 111.378 323.744 110.901 C 324.699 110.419 326.848 110.06 328.642 110.06 Z M 274.547 127.995 C 278.429 127.995 278.968 128.115 279.803 129.369 C 280.281 130.147 282.55 134.749 284.759 139.714 C 287.028 144.616 290.79 152.507 293.178 157.286 C 296.997 164.999 297.355 166.017 296.4 166.375 C 295.804 166.613 290.37 168.226 284.282 170.022 C 278.19 171.816 272.16 173.43 270.904 173.607 C 269.533 173.845 267.862 174.685 266.846 175.583 C 265.294 177.135 265.175 177.492 265.232 182.036 C 265.232 184.729 265.471 189.211 265.653 192.08 C 265.891 195.007 265.953 197.341 265.772 197.341 C 265.595 197.341 260.099 189.388 253.534 179.645 C 246.964 169.902 240.396 159.858 238.905 157.348 C 237.411 154.836 235.74 152.144 235.204 151.309 C 234.604 150.531 234.126 149.395 234.126 148.86 C 234.126 148.321 235.683 146.526 237.592 144.912 C 239.44 143.299 242.309 141.088 243.861 140.01 C 245.47 138.936 250.607 136.186 255.325 133.914 C 260.099 131.703 265.352 129.432 267.027 128.953 C 268.755 128.415 272.102 127.995 274.547 127.995 Z M 225.173 152.684 L 228.454 152.445 L 230.784 155.911 C 232.097 157.825 236.518 164.641 240.576 171.038 C 244.696 177.435 252.518 190.109 258.009 199.135 C 263.504 208.162 269.114 217.724 270.546 220.355 C 271.983 222.984 274.309 227.109 275.802 229.501 C 277.236 231.892 278.31 233.983 278.133 234.226 C 277.951 234.403 275.263 235.062 272.222 235.721 C 269.176 236.316 262.071 237.692 256.519 238.708 C 250.966 239.725 244.277 240.68 241.65 240.799 C 237.411 241.038 236.876 240.981 235.5 239.664 C 234.665 238.886 230.545 234.522 226.426 229.921 C 222.247 225.318 216.876 219.16 214.484 216.229 C 212.097 213.242 207.618 207.083 204.576 202.482 C 201.53 197.818 197.291 190.705 195.079 186.639 C 192.931 182.513 191.141 178.57 191.141 177.792 C 191.141 176.957 191.976 175.1 193.05 173.549 C 194.124 171.993 196.632 169.124 198.665 167.091 C 200.752 165.057 204.337 162.131 206.782 160.518 C 209.17 158.962 213.59 156.57 216.517 155.257 C 219.979 153.762 223.026 152.865 225.173 152.684 Z M 356.821 156.331 C 359.748 156.212 362.613 156.273 363.091 156.45 C 363.569 156.631 365.063 157.348 366.376 157.944 C 367.689 158.541 369.361 159.916 370.076 160.995 C 370.792 162.069 374.135 170.918 377.419 180.6 C 380.761 190.286 385.183 203.198 387.27 209.294 C 389.361 215.394 392.288 224.66 393.839 229.921 C 395.391 235.181 397.123 240.26 397.72 241.277 C 398.255 242.294 398.915 243.969 399.153 245.044 C 399.33 246.241 399.153 247.855 398.614 249.11 C 398.079 250.366 388.048 260.825 371.269 277.565 C 356.641 292.15 340.761 307.811 335.985 312.356 L 327.267 320.666 L 327.267 326.882 C 327.267 330.29 327.626 335.67 328.103 338.897 C 328.58 342.066 329.536 350.496 330.194 357.551 C 330.911 364.603 331.985 376.083 332.639 382.956 C 333.298 389.83 334.134 397.602 334.554 400.171 C 334.969 402.982 335.031 405.016 334.672 405.254 C 334.372 405.493 330.791 406.81 326.671 408.186 C 322.55 409.559 317.059 411.231 314.372 411.89 C 311.745 412.548 306.13 413.685 301.834 414.458 C 295.145 415.594 291.864 415.776 277.116 415.776 C 263.862 415.833 258.667 415.594 253.534 414.82 C 249.891 414.22 244.039 413.145 240.396 412.309 C 236.756 411.47 230.488 409.737 226.368 408.424 C 222.247 407.048 215.978 404.715 212.335 403.102 L 205.77 400.233 L 205.77 396.647 C 205.828 394.734 206.066 387.979 206.305 381.759 C 206.543 375.482 207.441 365.619 208.215 359.762 C 208.993 353.904 209.647 347.326 209.647 345.236 C 209.647 343.083 209.948 339.435 210.367 337.164 L 211.022 332.982 L 209.231 331.067 C 208.215 329.989 204.098 326.466 200.097 323.177 C 196.035 319.888 191.379 315.701 189.646 313.912 C 187.975 312.117 185.468 309.129 184.156 307.333 C 182.365 304.942 180.752 301.476 178.364 294.66 C 176.511 289.461 173.647 280.611 172.033 274.935 C 170.361 269.197 168.514 261.125 167.797 256.58 C 166.781 249.525 166.661 247.736 167.259 243.071 C 167.617 240.141 168.157 237.453 168.452 237.152 C 168.691 236.914 176.392 242.533 185.587 249.708 C 194.722 256.82 203.737 263.875 205.589 265.311 C 207.441 266.744 209.35 267.881 209.829 267.881 C 210.367 267.881 216.517 263.994 223.56 259.273 C 230.607 254.49 237.95 249.826 239.918 248.872 C 242.906 247.377 245.532 246.838 258.309 244.986 C 266.488 243.788 277.293 242.413 282.248 241.877 C 287.204 241.339 291.864 240.981 292.638 241.099 C 293.774 241.22 292.819 242.055 287.505 245.52 C 283.92 247.855 278.849 251.44 276.219 253.593 C 273.592 255.684 268.937 259.99 265.772 263.097 C 262.668 266.205 258.009 271.226 255.502 274.215 C 252.995 277.207 249.413 281.868 247.623 284.559 C 245.828 287.189 243.441 291.734 242.248 294.541 C 241.054 297.41 239.56 301.777 238.963 304.288 C 238.308 306.798 237.472 310.861 237.114 313.314 C 236.756 315.764 236.518 319.411 236.637 321.383 C 236.814 324.91 236.814 324.972 239.025 325.745 C 240.276 326.104 243.264 326.824 245.59 327.24 C 249.175 327.898 250.784 327.898 254.667 327.182 C 257.234 326.762 259.503 326.523 259.622 326.705 C 259.803 326.882 258.667 332.982 257.115 340.334 C 255.621 347.685 252.575 361.853 250.488 371.838 C 248.34 381.821 246.726 390.069 246.845 390.189 C 246.964 390.37 250.369 381.878 254.427 371.476 C 258.485 361.017 264.458 345.355 267.681 336.687 C 270.904 328.018 273.534 320.605 273.534 320.189 C 273.534 319.769 271.502 319.229 268.278 318.814 C 265.413 318.394 260.281 317.797 256.876 317.497 C 253.171 317.139 250.068 316.542 249.233 316.002 C 248.159 315.286 247.862 314.571 247.862 312.475 C 247.862 311.043 248.517 307.515 249.353 304.646 C 250.188 301.777 252.16 296.875 253.711 293.706 C 255.325 290.478 258.127 285.576 259.98 282.764 C 261.832 279.896 265.653 274.935 268.34 271.708 C 271.682 267.76 276.098 263.517 281.652 259.034 C 286.192 255.326 294.132 249.287 299.265 245.702 C 304.402 242.117 310.849 238.112 313.594 236.794 C 316.759 235.3 321.476 233.744 326.371 232.608 C 330.61 231.595 338.014 230.278 342.733 229.62 C 347.507 228.965 351.447 228.307 351.565 228.245 C 351.627 228.125 349.178 227.71 346.136 227.29 C 343.028 226.87 339.567 226.273 338.373 225.974 C 337.118 225.615 335.447 224.421 334.134 222.865 C 332.94 221.491 331.865 219.819 331.684 219.16 C 331.507 218.383 332.343 215.691 333.718 212.525 C 334.969 209.595 336.641 205.59 337.357 203.618 L 338.67 200.028 L 336.998 201.522 C 336.106 202.362 333.417 204.812 331.15 206.907 C 328.819 209.055 325.477 211.566 323.744 212.525 C 322.015 213.422 319.327 214.559 317.776 214.974 C 316.223 215.394 314.013 215.571 312.939 215.451 C 311.803 215.333 308.4 214.798 305.477 214.316 C 302.55 213.839 297.952 212.765 295.383 211.866 C 292.758 211.031 287.146 208.759 282.846 206.907 L 275.024 203.498 L 274.012 198.773 C 273.415 196.204 272.699 192.018 272.341 189.569 C 271.921 187.116 271.802 183.951 272.041 182.576 C 272.341 180.361 272.757 179.827 274.609 178.867 C 275.86 178.27 281.952 176.357 288.16 174.623 C 294.429 172.949 311.206 168.169 325.477 164.044 C 348.462 157.41 352.047 156.512 356.821 156.331 Z M 182.604 186.281 C 183.917 186.104 185.587 186.343 186.662 186.819 C 187.736 187.297 190.482 190.286 193.409 194.113 C 196.096 197.699 205.828 210.73 214.961 223.047 C 227.442 239.783 231.499 245.702 231.142 246.36 C 230.846 246.895 229.055 248.872 227.083 250.781 C 225.173 252.637 222.247 255.149 220.694 256.285 C 219.082 257.359 216.336 258.854 214.484 259.569 C 211.681 260.585 210.784 260.706 208.931 260.17 C 207.618 259.75 203.081 256.462 197.587 251.917 C 192.573 247.736 185.526 241.816 181.887 238.708 C 178.244 235.6 171.675 229.681 167.259 225.557 C 162.842 221.433 158.898 217.486 158.482 216.827 C 158.063 216.111 157.767 214.497 157.704 213.122 C 157.704 211.566 158.364 209.294 159.615 206.845 C 160.99 203.976 163.2 201.284 168.395 196.085 C 172.214 192.257 176.454 188.552 177.825 187.894 C 179.138 187.178 181.291 186.461 182.604 186.281 Z M 182.604 186.281"/>
  </g>
</svg>