<?xml version="1.0" encoding="utf-8"?>
<svg viewBox="796.989 32.567 511.545 512.226" width="511.545" height="512.226" xmlns="http://www.w3.org/2000/svg">
  <g id="g-5" transform="matrix(0.9230140447616577, 0, 0, 0.9230140447616577, 792.0930786132812, 55.89391326904297)">
    <title>Realign</title>
    <path style="stroke: none; fill-rule: nonzero; fill: rgb(52, 155, 220); fill-opacity: 1;" d="M 80.782 202.725 L 77.401 202.725 L 73.633 210.209 C 71.59 214.364 68.395 221.201 66.479 225.422 C 64.564 229.644 62.201 234.564 61.179 236.29 C 60.224 238.016 58.947 241.022 58.309 242.876 C 57.733 244.791 57.477 246.521 57.733 246.838 C 58.054 247.093 61.884 248.374 66.29 249.589 C 70.697 250.865 76.248 252.335 78.739 252.912 C 81.23 253.423 88.318 255.342 94.573 257.129 C 100.833 258.921 106.067 260.264 106.133 260.135 C 106.195 260.07 109.197 254.51 112.71 247.797 C 116.284 241.084 120.945 232.39 123.054 228.362 C 125.224 224.334 126.945 220.434 126.945 219.602 C 126.945 218.647 126.246 217.749 124.903 216.917 C 123.754 216.217 120.052 214.619 116.733 213.404 C 113.409 212.189 105.494 209.632 99.234 207.84 C 92.914 206.052 86.975 204.133 86.02 203.623 C 84.999 203.108 82.696 202.725 80.782 202.725 Z M 138.633 221.904 C 134.481 221.904 133.905 222.032 133.012 223.375 C 132.5 224.207 130.075 229.128 127.711 234.437 C 125.286 239.68 121.262 248.118 118.709 253.229 C 114.624 261.479 114.241 262.566 115.263 262.949 C 115.901 263.205 121.712 264.929 128.223 266.849 C 134.737 268.768 141.186 270.494 142.529 270.683 C 143.995 270.938 145.781 271.836 146.869 272.797 C 148.529 274.456 148.656 274.838 148.59 279.698 C 148.59 282.577 148.335 287.371 148.146 290.439 C 147.89 293.574 147.824 296.065 148.018 296.065 C 148.208 296.065 154.084 287.56 161.105 277.141 C 168.131 266.721 175.156 255.98 176.75 253.295 C 178.348 250.61 180.136 247.735 180.707 246.838 C 181.345 246.006 181.86 244.791 181.86 244.218 C 181.86 243.642 180.196 241.723 178.155 239.997 C 176.178 238.271 173.109 235.907 171.45 234.753 C 169.728 233.605 164.235 230.664 159.191 228.235 C 154.084 225.871 148.463 223.441 146.675 222.93 C 144.827 222.353 141.247 221.904 138.633 221.904 Z M 191.435 248.307 L 187.922 248.052 L 185.435 251.759 C 184.031 253.806 179.303 261.095 174.963 267.936 C 170.556 274.777 162.192 288.331 156.32 297.984 C 150.444 307.638 144.443 317.864 142.912 320.677 C 141.375 323.49 138.888 327.9 137.29 330.458 C 135.758 333.016 134.609 335.256 134.798 335.511 C 134.993 335.701 137.867 336.405 141.12 337.11 C 144.377 337.748 151.975 339.218 157.913 340.305 C 163.852 341.392 171.005 342.414 173.814 342.541 C 178.348 342.797 178.92 342.736 180.391 341.327 C 181.284 340.495 185.691 335.828 190.097 330.908 C 194.565 325.986 200.31 319.4 202.867 316.266 C 205.42 313.07 210.21 306.485 213.462 301.564 C 216.72 296.576 221.255 288.969 223.618 284.62 C 225.916 280.209 227.831 275.992 227.831 275.16 C 227.831 274.266 226.938 272.281 225.789 270.621 C 224.64 268.957 221.958 265.889 219.784 263.715 C 217.552 261.541 213.718 258.411 211.104 256.685 C 208.55 255.021 203.823 252.464 200.693 251.059 C 196.991 249.461 193.733 248.502 191.435 248.307 Z M 50.646 252.208 C 47.516 252.08 44.452 252.146 43.941 252.335 C 43.43 252.529 41.833 253.295 40.428 253.933 C 39.024 254.572 37.237 256.046 36.471 257.195 C 35.705 258.344 32.13 267.808 28.618 278.163 C 25.043 288.52 20.315 302.329 18.084 308.853 C 15.847 315.373 12.717 325.282 11.058 330.908 C 9.399 336.533 7.545 341.965 6.907 343.053 C 6.335 344.14 5.63 345.931 5.375 347.08 C 5.186 348.361 5.375 350.087 5.952 351.43 C 6.524 352.772 17.252 363.957 35.194 381.861 C 50.839 397.457 67.822 414.206 72.929 419.066 L 82.252 427.954 L 82.252 434.601 C 82.252 438.246 81.869 444 81.358 447.45 C 80.848 450.84 79.826 459.855 79.122 467.401 C 78.356 474.941 77.207 487.218 76.503 494.569 C 75.802 501.921 74.91 510.232 74.46 512.979 C 74.016 515.985 73.95 518.161 74.333 518.416 C 74.654 518.671 78.484 520.08 82.89 521.55 C 87.297 523.02 93.169 524.807 96.044 525.512 C 98.852 526.216 104.856 527.431 109.452 528.259 C 116.605 529.474 120.113 529.667 135.886 529.667 C 150.06 529.733 155.615 529.474 161.105 528.645 C 165.001 528.003 171.261 526.854 175.156 525.961 C 179.047 525.062 185.752 523.21 190.159 521.805 C 194.565 520.335 201.27 517.839 205.165 516.113 L 212.186 513.045 L 212.186 509.21 C 212.124 507.164 211.869 499.94 211.614 493.289 C 211.359 486.576 210.399 476.028 209.571 469.764 C 208.739 463.5 208.04 456.465 208.04 454.229 C 208.04 451.927 207.718 448.027 207.269 445.597 L 206.569 441.125 L 208.484 439.078 C 209.571 437.924 213.974 434.156 218.252 430.639 C 222.597 427.122 227.575 422.645 229.429 420.73 C 231.216 418.811 233.897 415.615 235.301 413.696 C 237.216 411.138 238.942 407.432 241.495 400.142 C 243.476 394.583 246.539 385.118 248.265 379.048 C 250.053 372.912 252.029 364.279 252.795 359.419 C 253.882 351.878 254.01 349.959 253.372 344.972 C 252.988 341.838 252.412 338.963 252.094 338.641 C 251.839 338.386 243.603 344.395 233.769 352.068 C 224.001 359.675 214.356 367.22 212.38 368.755 C 210.399 370.288 208.356 371.503 207.846 371.503 C 207.269 371.503 200.693 367.347 193.16 362.298 C 185.624 357.182 177.771 352.195 175.667 351.174 C 172.471 349.576 169.663 348.999 155.999 347.018 C 147.252 345.738 135.692 344.267 130.397 343.695 C 125.097 343.118 120.113 342.736 119.286 342.863 C 118.071 342.991 119.092 343.885 124.776 347.59 C 128.605 350.087 134.033 353.921 136.846 356.223 C 139.654 358.459 144.632 363.064 148.018 366.388 C 151.337 369.711 156.32 375.081 159.001 378.282 C 161.682 381.477 165.511 386.461 167.427 389.339 C 169.346 392.152 171.899 397.012 173.175 400.015 C 174.452 403.083 176.05 407.753 176.689 410.439 C 177.388 413.124 178.282 417.469 178.665 420.092 C 179.047 422.711 179.303 426.611 179.176 428.72 C 178.987 432.492 178.987 432.558 176.622 433.386 C 175.284 433.769 172.088 434.539 169.601 434.984 C 165.766 435.688 164.046 435.688 159.894 434.923 C 157.148 434.473 154.723 434.218 154.595 434.412 C 154.401 434.601 155.615 441.125 157.276 448.987 C 158.873 456.849 162.13 472 164.362 482.679 C 166.66 493.355 168.386 502.176 168.259 502.304 C 168.131 502.498 164.49 493.416 160.15 482.293 C 155.81 471.107 149.422 454.357 145.976 445.087 C 142.529 435.816 139.716 427.888 139.716 427.443 C 139.716 426.994 141.886 426.418 145.337 425.974 C 148.401 425.524 153.891 424.885 157.531 424.564 C 161.489 424.182 164.812 423.543 165.706 422.966 C 166.855 422.201 167.171 421.435 167.171 419.194 C 167.171 417.662 166.471 413.889 165.577 410.821 C 164.684 407.753 162.576 402.511 160.916 399.121 C 159.191 395.67 156.192 390.427 154.211 387.42 C 152.23 384.352 148.146 379.048 145.271 375.596 C 141.697 371.375 136.974 366.836 131.035 362.042 C 126.18 358.076 117.688 351.619 112.198 347.785 C 106.705 343.95 99.811 339.668 96.876 338.259 C 93.49 336.66 88.446 334.997 83.211 333.781 C 78.677 332.699 70.758 331.29 65.713 330.586 C 60.607 329.886 56.39 329.182 56.263 329.116 C 56.201 328.987 58.82 328.543 62.073 328.095 C 65.396 327.645 69.098 327.007 70.376 326.686 C 71.718 326.303 73.505 325.026 74.91 323.362 C 76.186 321.892 77.335 320.105 77.528 319.4 C 77.718 318.568 76.824 315.69 75.354 312.305 C 74.016 309.17 72.228 304.887 71.463 302.778 L 70.058 298.94 L 71.845 300.542 C 72.801 301.436 75.675 304.055 78.1 306.296 C 80.592 308.594 84.167 311.278 86.02 312.305 C 87.869 313.264 90.743 314.479 92.403 314.923 C 94.063 315.373 96.426 315.562 97.575 315.434 C 98.79 315.307 102.426 314.734 105.556 314.219 C 108.686 313.709 113.603 312.56 116.35 311.6 C 119.159 310.706 125.158 308.277 129.758 306.296 L 138.122 302.651 L 139.205 297.597 C 139.843 294.85 140.61 290.373 140.992 287.755 C 141.442 285.131 141.569 281.746 141.314 280.275 C 140.992 277.906 140.548 277.335 138.567 276.309 C 137.229 275.67 130.714 273.624 124.075 271.77 C 117.371 269.984 99.429 264.868 84.167 260.457 C 59.586 253.362 55.752 252.402 50.646 252.208 Z M 236.961 284.237 C 235.556 284.048 233.769 284.303 232.62 284.814 C 231.472 285.324 228.535 288.52 225.405 292.614 C 222.531 296.448 212.124 310.385 202.357 323.556 C 189.01 341.454 184.669 347.785 185.052 348.489 C 185.369 349.061 187.284 351.174 189.393 353.216 C 191.435 355.201 194.565 357.887 196.224 359.102 C 197.95 360.251 200.886 361.849 202.867 362.615 C 205.865 363.702 206.825 363.83 208.806 363.258 C 210.21 362.808 215.061 359.291 220.933 354.431 C 226.299 349.959 233.831 343.629 237.726 340.305 C 241.623 336.982 248.648 330.651 253.372 326.241 C 258.095 321.83 262.312 317.609 262.757 316.904 C 263.206 316.138 263.523 314.413 263.589 312.942 C 263.589 311.278 262.884 308.853 261.546 306.229 C 260.076 303.161 257.711 300.282 252.156 294.723 C 248.072 290.628 243.538 286.666 242.072 285.963 C 240.663 285.197 238.365 284.43 236.961 284.237 Z M 236.961 284.237"/>
    <path style="stroke: none; fill-rule: nonzero; fill-opacity: 1; fill: rgb(245, 200, 28);" d="M 484.038 202.725 L 487.419 202.725 L 491.188 210.205 C 493.229 214.36 496.426 221.201 498.34 225.423 C 500.256 229.64 502.619 234.565 503.641 236.291 C 504.596 238.016 505.873 241.023 506.51 242.877 C 507.087 244.791 507.342 246.521 507.087 246.838 C 506.766 247.094 502.936 248.374 498.53 249.589 C 494.123 250.865 488.568 252.336 486.081 252.913 C 483.59 253.423 476.502 255.342 470.247 257.13 C 463.987 258.922 458.754 260.264 458.687 260.136 C 458.625 260.071 455.624 254.51 452.11 247.797 C 448.536 241.085 443.874 232.391 441.766 228.363 C 439.596 224.334 437.875 220.434 437.875 219.603 C 437.875 218.648 438.574 217.75 439.917 216.918 C 441.066 216.217 444.768 214.62 448.087 213.405 C 451.411 212.189 459.326 209.633 465.585 207.841 C 471.906 206.049 477.845 204.134 478.8 203.624 C 479.821 203.109 482.119 202.725 484.038 202.725 Z M 426.187 221.905 C 430.338 221.905 430.915 222.033 431.808 223.375 C 432.319 224.207 434.745 229.128 437.108 234.438 C 439.534 239.68 443.558 248.119 446.111 253.23 C 450.196 261.479 450.579 262.567 449.557 262.95 C 448.92 263.205 443.108 264.93 436.598 266.85 C 430.083 268.769 423.634 270.495 422.291 270.684 C 420.825 270.939 419.038 271.837 417.951 272.797 C 416.291 274.457 416.164 274.839 416.225 279.699 C 416.225 282.578 416.481 287.372 416.675 290.44 C 416.93 293.57 416.996 296.066 416.802 296.066 C 416.613 296.066 410.736 287.561 403.715 277.141 C 396.689 266.722 389.664 255.981 388.07 253.296 C 386.472 250.61 384.685 247.731 384.112 246.838 C 383.47 246.006 382.959 244.791 382.959 244.219 C 382.959 243.642 384.624 241.723 386.666 239.997 C 388.642 238.272 391.71 235.907 393.37 234.754 C 395.091 233.606 400.585 230.665 405.63 228.235 C 410.736 225.871 416.353 223.442 418.145 222.93 C 419.993 222.354 423.572 221.905 426.187 221.905 Z M 373.385 248.308 L 376.893 248.053 L 379.385 251.759 C 380.789 253.806 385.517 261.096 389.857 267.937 C 394.263 274.778 402.628 288.332 408.5 297.985 C 414.377 307.639 420.377 317.865 421.908 320.678 C 423.445 323.49 425.932 327.901 427.529 330.459 C 429.062 333.016 430.211 335.252 430.022 335.512 C 429.827 335.702 426.953 336.406 423.7 337.111 C 420.443 337.748 412.844 339.219 406.907 340.306 C 400.968 341.393 393.815 342.415 391.006 342.542 C 386.472 342.797 385.9 342.736 384.429 341.328 C 383.536 340.496 379.13 335.829 374.724 330.908 C 370.255 325.986 364.511 319.4 361.953 316.266 C 359.4 313.071 354.61 306.485 351.357 301.564 C 348.1 296.576 343.566 288.969 341.201 284.621 C 338.904 280.209 336.989 275.992 336.989 275.16 C 336.989 274.267 337.882 272.281 339.031 270.622 C 340.18 268.958 342.862 265.89 345.036 263.716 C 347.268 261.541 351.102 258.411 353.717 256.686 C 356.27 255.022 360.997 252.464 364.127 251.06 C 367.83 249.461 371.088 248.502 373.385 248.308 Z M 514.174 252.209 C 517.304 252.081 520.368 252.147 520.879 252.336 C 521.39 252.529 522.988 253.296 524.392 253.934 C 525.796 254.572 527.584 256.043 528.349 257.196 C 529.115 258.345 532.69 267.809 536.202 278.163 C 539.776 288.521 544.505 302.33 546.737 308.849 C 548.973 315.373 552.103 325.282 553.762 330.908 C 555.422 336.534 557.274 341.965 557.913 343.053 C 558.485 344.141 559.19 345.932 559.445 347.081 C 559.634 348.362 559.445 350.088 558.869 351.43 C 558.296 352.773 547.569 363.958 529.625 381.861 C 513.981 397.458 496.998 414.207 491.891 419.067 L 482.568 427.954 L 482.568 434.602 C 482.568 438.247 482.951 444 483.462 447.451 C 483.972 450.84 484.994 459.856 485.698 467.401 C 486.464 474.942 487.613 487.219 488.313 494.57 C 489.017 501.921 489.911 510.233 490.36 512.98 C 490.804 515.986 490.871 518.161 490.487 518.416 C 490.166 518.672 486.336 520.08 481.93 521.551 C 477.523 523.02 471.651 524.808 468.777 525.513 C 465.968 526.216 459.963 527.432 455.368 528.259 C 448.215 529.474 444.706 529.668 428.934 529.668 C 414.76 529.73 409.204 529.474 403.715 528.646 C 399.819 528.004 393.56 526.855 389.664 525.961 C 385.772 525.063 379.068 523.21 374.662 521.806 C 370.255 520.335 363.551 517.84 359.655 516.114 L 352.634 513.046 L 352.634 509.211 C 352.696 507.165 352.951 499.941 353.206 493.29 C 353.461 486.577 354.421 476.029 355.249 469.765 C 356.081 463.5 356.78 456.466 356.78 454.23 C 356.78 451.928 357.102 448.027 357.55 445.598 L 358.251 441.126 L 356.336 439.078 C 355.249 437.925 350.846 434.157 346.567 430.64 C 342.223 427.122 337.244 422.645 335.391 420.731 C 333.604 418.812 330.923 415.616 329.519 413.696 C 327.604 411.139 325.879 407.432 323.325 400.143 C 321.344 394.583 318.281 385.118 316.555 379.048 C 314.767 372.912 312.791 364.279 312.025 359.419 C 310.938 351.874 310.81 349.96 311.449 344.972 C 311.832 341.838 312.409 338.963 312.725 338.642 C 312.981 338.387 321.216 344.396 331.05 352.069 C 340.819 359.675 350.46 367.22 352.441 368.756 C 354.421 370.288 356.463 371.504 356.975 371.504 C 357.55 371.504 364.127 367.347 371.659 362.298 C 379.196 357.183 387.049 352.196 389.153 351.175 C 392.349 349.576 395.157 349 408.821 347.019 C 417.568 345.738 429.124 344.268 434.423 343.695 C 439.723 343.119 444.706 342.736 445.534 342.863 C 446.749 342.992 445.728 343.885 440.045 347.591 C 436.211 350.088 430.787 353.922 427.975 356.224 C 425.166 358.46 420.187 363.065 416.802 366.388 C 413.483 369.712 408.5 375.082 405.819 378.278 C 403.138 381.478 399.308 386.462 397.393 389.34 C 395.474 392.153 392.921 397.013 391.645 400.015 C 390.368 403.084 388.77 407.754 388.132 410.439 C 387.432 413.124 386.538 417.469 386.155 420.092 C 385.772 422.712 385.517 426.612 385.645 428.721 C 385.834 432.493 385.834 432.559 388.198 433.386 C 389.536 433.77 392.732 434.54 395.219 434.985 C 399.053 435.689 400.774 435.689 404.926 434.923 C 407.672 434.474 410.098 434.218 410.226 434.413 C 410.419 434.602 409.204 441.126 407.544 448.988 C 405.947 456.849 402.689 472.001 400.457 482.68 C 398.16 493.356 396.434 502.177 396.561 502.305 C 396.689 502.498 400.33 493.417 404.67 482.293 C 409.01 471.107 415.397 454.358 418.844 445.088 C 422.291 435.817 425.104 427.889 425.104 427.444 C 425.104 426.995 422.93 426.418 419.483 425.974 C 416.419 425.525 410.93 424.886 407.289 424.565 C 403.327 424.182 400.008 423.544 399.115 422.967 C 397.966 422.201 397.649 421.436 397.649 419.195 C 397.649 417.663 398.349 413.89 399.243 410.822 C 400.136 407.754 402.245 402.511 403.904 399.122 C 405.63 395.67 408.627 390.428 410.608 387.421 C 412.589 384.353 416.675 379.048 419.549 375.597 C 423.123 371.375 427.846 366.837 433.785 362.043 C 438.64 358.077 447.132 351.619 452.621 347.785 C 458.115 343.951 465.009 339.668 467.945 338.259 C 471.33 336.661 476.374 334.997 481.609 333.782 C 486.143 332.699 494.061 331.29 499.107 330.587 C 504.213 329.886 508.426 329.182 508.553 329.116 C 508.619 328.988 506 328.544 502.747 328.095 C 499.423 327.646 495.722 327.007 494.445 326.687 C 493.102 326.303 491.315 325.026 489.911 323.362 C 488.634 321.893 487.485 320.105 487.291 319.4 C 487.102 318.569 487.996 315.69 489.466 312.305 C 490.804 309.171 492.592 304.888 493.358 302.779 L 494.762 298.94 L 492.974 300.538 C 492.02 301.436 489.145 304.056 486.72 306.296 C 484.227 308.594 480.653 311.279 478.8 312.305 C 476.951 313.264 474.076 314.48 472.417 314.924 C 470.757 315.373 468.393 315.562 467.245 315.434 C 466.03 315.307 462.39 314.735 459.264 314.22 C 456.134 313.71 451.217 312.561 448.47 311.6 C 445.662 310.707 439.661 308.277 435.062 306.296 L 426.697 302.651 L 425.615 297.598 C 424.976 294.85 424.21 290.374 423.828 287.755 C 423.379 285.131 423.251 281.746 423.507 280.276 C 423.828 277.907 424.272 277.336 426.253 276.309 C 427.591 275.671 434.106 273.625 440.745 271.771 C 447.449 269.98 465.391 264.869 480.653 260.457 C 505.234 253.362 509.068 252.402 514.174 252.209 Z M 327.86 284.238 C 329.264 284.049 331.05 284.304 332.199 284.814 C 333.348 285.325 336.285 288.521 339.415 292.614 C 342.289 296.449 352.696 310.385 362.463 323.557 C 375.811 341.455 380.15 347.785 379.768 348.489 C 379.451 349.061 377.536 351.175 375.427 353.217 C 373.385 355.202 370.255 357.888 368.595 359.103 C 366.87 360.252 363.934 361.85 361.953 362.615 C 358.956 363.702 357.996 363.831 356.015 363.258 C 354.61 362.809 349.759 359.292 343.883 354.432 C 338.521 349.96 330.985 343.629 327.093 340.306 C 323.197 336.982 316.172 330.652 311.449 326.241 C 306.725 321.831 302.508 317.61 302.063 316.905 C 301.615 316.139 301.298 314.413 301.231 312.943 C 301.231 311.279 301.936 308.849 303.274 306.23 C 304.745 303.162 307.108 300.283 312.664 294.723 C 316.748 290.629 321.283 286.667 322.749 285.963 C 324.153 285.198 326.455 284.431 327.86 284.238 Z M 327.86 284.238"/>
    <path style="stroke: none; fill-rule: evenodd; fill: rgb(56, 255, 255); fill-opacity: 1;" d="M 92.648 -9.285 C 92.648 -13.408 94.259 -17.08 97.479 -20.3 C 100.563 -23.616 104.12 -25.273 108.147 -25.273 C 112.755 -25.273 116.671 -23.616 119.891 -20.3 C 123.112 -17.08 124.723 -13.408 124.723 -9.285 C 124.723 -4.851 123.001 -0.757 119.556 3.006 C 117.317 4.798 115.661 5.759 114.588 5.896 L 114.588 49.826 L 120.695 39.415 L 120.09 38.139 L 119.556 36.997 C 118.48 34.844 118.774 32.651 120.425 30.41 C 122.753 26.338 126.332 25.398 131.164 27.591 C 132.862 28.486 134.004 30.1 134.588 32.427 C 135.076 34.579 134.899 36.525 134.05 38.272 C 133.064 40.334 131.231 41.674 128.547 42.304 L 125.327 42.304 L 118.749 53.655 L 157.869 30.949 L 157.803 28.329 C 157.625 27.526 157.645 26.607 157.869 25.576 C 158.494 20.831 161.09 17.18 165.652 14.626 C 169.411 12.61 173.393 12.118 177.598 13.148 C 181.983 14.179 185.316 16.509 187.596 20.136 C 189.521 24.255 189.989 28.486 189.004 32.833 C 187.977 37.22 185.473 40.375 181.49 42.304 C 179.209 43.468 176.994 44.25 174.846 44.651 C 172.788 45.19 170.599 44.99 168.273 44.047 L 165.652 42.639 L 163.102 40.756 L 124.788 63.193 L 138.343 63.193 C 138.343 62.34 138.678 61.492 139.348 60.639 C 141.049 58.983 143.107 58.155 145.525 58.155 C 150.579 58.155 153.104 60.776 153.104 66.012 C 153.104 71.252 150.579 73.873 145.525 73.873 C 142.615 73.873 140.557 73.091 139.348 71.522 C 138.678 70.359 138.343 69.395 138.343 68.633 L 125.257 68.633 L 163.91 91.272 C 164.803 90.597 165.697 90.13 166.592 89.861 L 169.344 88.718 C 173.952 87.24 178.245 87.622 182.228 89.861 C 185.808 92.1 188.2 95.325 189.41 99.531 C 190.614 103.787 190.009 107.885 187.596 111.826 C 185.316 115.899 181.983 118.544 177.598 119.754 C 173.393 120.963 169.411 120.379 165.652 118.007 C 161.09 115.365 158.494 111.379 157.869 106.048 C 157.645 105.244 157.625 104.416 157.803 103.564 L 157.869 101.079 L 118.749 78.307 L 125.861 90.532 L 126.734 90.399 L 128.547 90.532 C 131.14 91.426 132.973 92.638 134.05 94.158 C 135.974 98.637 135.01 102.222 131.164 104.908 C 126.689 107.372 123.112 106.539 120.425 102.421 C 118.505 100.003 118.21 97.607 119.556 95.234 C 119.912 94.295 120.538 93.624 121.431 93.218 L 114.588 82.07 L 114.588 126.535 C 116.692 127.519 118.347 128.575 119.556 129.693 C 123.001 132.785 124.723 136.814 124.723 141.785 C 124.723 145.904 123.112 149.576 119.891 152.801 C 116.671 155.98 112.755 157.57 108.147 157.57 C 104.12 157.57 100.563 155.98 97.479 152.801 C 94.259 149.576 92.648 145.904 92.648 141.785 C 92.648 136.636 94.457 132.405 98.083 129.089 L 100.563 127.611 L 103.047 126.535 L 103.047 81.059 L 96.138 93.218 C 96.001 93.355 96.225 93.599 96.809 93.959 L 97.21 95.234 C 98.15 97.698 97.901 100.094 96.474 102.421 C 94.279 106.539 90.967 107.372 86.543 104.908 C 81.753 102.222 80.792 98.637 83.657 94.158 C 84.862 92.187 86.406 90.979 88.285 90.532 C 89.672 90.13 90.744 90.13 91.506 90.532 L 98.348 78.51 L 58.288 101.079 C 58.918 102.243 59.096 103.898 58.827 106.048 C 57.842 112.05 55.317 116.036 51.247 118.007 C 47.575 119.932 43.597 120.444 39.3 119.551 C 35.007 118.657 31.761 116.081 29.572 111.826 C 27.824 108.332 27.49 104.594 28.566 100.608 C 29.592 96.534 31.874 93.421 35.409 91.272 C 39.66 88.81 43.862 88.338 48.022 89.861 L 51.38 91.272 L 92.243 68.633 L 78.892 68.633 L 78.756 69.373 L 77.816 71.522 C 77.145 73.091 75.266 73.873 72.182 73.873 C 66.588 73.873 63.795 71.252 63.795 66.012 C 63.795 60.776 66.588 58.155 72.182 58.155 C 74.732 58.155 76.499 58.983 77.481 60.639 L 78.892 63.193 L 92.648 63.193 L 51.984 40.756 C 51.984 40.938 51.019 41.451 49.099 42.304 C 45.162 44.228 40.6 44.228 35.409 42.304 C 31.65 40.375 29.099 37.22 27.759 32.833 C 26.417 28.531 27.022 24.458 29.572 20.604 C 31.853 16.754 35.053 14.468 39.167 13.753 C 43.237 12.991 47.017 13.62 50.506 15.636 C 54.22 17.784 56.637 21.278 57.755 26.114 L 57.821 28.399 L 57.755 30.949 L 98.014 53.249 L 91.506 42.304 L 88.956 42.304 C 86.675 42.304 84.907 40.959 83.657 38.272 C 82.27 36.525 81.844 34.579 82.382 32.427 C 82.738 30.1 83.855 28.486 85.735 27.591 C 90.926 25.576 94.503 26.516 96.474 30.41 C 97.723 32.609 97.972 34.803 97.21 36.997 L 96.809 38.139 C 96.225 38.541 96.001 38.968 96.138 39.415 L 103.047 51.436 L 103.047 5.896 C 102.331 5.85 100.676 5.088 98.083 3.61 C 94.457 -0.376 92.648 -4.673 92.648 -9.285"/>
    <path style="stroke: none; fill-rule: evenodd; fill: rgb(255, 208, 84); fill-opacity: 1;" d="M 518.991 -25.273 L 477.793 39.898 L 515.94 39.898 L 407.1 149.866 L 462.539 63.317 L 418.29 63.317 L 474.742 -25.273 L 518.991 -25.273"/>
    <path style="stroke: none; fill-rule: evenodd; fill: rgb(224, 131, 0); fill-opacity: 1;" d="M 267.559 89.5 C 263.671 66.372 271.947 48.398 292.389 35.573 C 290.517 44.577 299.551 63.239 319.483 91.554 C 339.42 119.795 343.596 146.923 332.01 172.932 C 349.786 160.613 356.587 137.989 352.411 105.062 C 385.305 162.124 381.815 203.479 341.941 229.128 C 302.142 254.634 282.06 275.021 281.7 290.297 C 268.672 262.702 268.925 239.035 282.458 219.293 C 295.841 199.625 300.233 179.958 295.626 160.285 C 285.335 177.792 271.947 193.428 255.467 207.188 C 244.6 216.196 241.611 227.903 246.504 242.314 C 211.888 209.746 201.849 182.118 216.384 159.42 C 231.357 141.843 242.869 123.723 250.934 105.062 C 259.569 116.661 262.413 129.341 259.462 143.102 C 275.726 132.943 278.425 115.076 267.559 89.5"/>
  </g>
</svg>