<?xml version="1.0" encoding="utf-8"?>
<svg viewBox="796.989 32.567 511.545 512.226" width="511.545" height="512.226" xmlns="http://www.w3.org/2000/svg">
  <g id="g-3" transform="matrix(0.9230140447616577, 0, 0, 0.9230140447616577, 792.0930786132812, 44.23058319091797)" style="">
    <title>Refocus</title>
    <path style="stroke: none; fill-rule: nonzero; fill: rgb(255, 204, 153); fill-opacity: 1;" d="M 282.378 -12.636 L 275.153 -12.636 L 275.153 8.614 L 271.5 9.07 C 269.522 9.298 264.499 10.057 260.315 10.667 C 256.131 11.355 248.678 13.18 243.81 14.781 C 238.862 16.456 232.015 19.044 228.594 20.719 C 225.094 22.32 219.388 25.518 215.813 27.728 C 212.238 29.934 206.988 33.667 204.018 36.03 C 201.053 38.315 196.259 42.653 193.369 45.623 C 190.404 48.517 186.066 53.394 183.785 56.285 C 181.425 59.258 177.85 64.206 175.872 67.328 C 173.815 70.451 170.697 76.162 168.872 80.047 C 167.047 83.854 164.231 91.012 162.635 96.039 C 160.959 100.99 159.135 108.455 158.45 112.644 C 157.841 116.832 157.082 121.858 156.854 123.836 L 156.397 127.494 L 135.169 127.494 L 135.169 141.963 L 156.397 141.963 L 156.854 144.858 C 157.082 146.38 157.915 151.788 158.753 156.814 C 159.665 161.84 161.494 169.454 162.937 173.796 C 164.385 178.06 166.819 184.23 168.262 187.507 C 169.784 190.704 172.525 195.805 174.35 198.853 C 176.254 201.897 179.903 207.23 182.491 210.656 C 185.153 214.16 190.175 219.87 193.75 223.449 C 197.325 227.032 203.031 231.98 206.303 234.493 C 209.65 237.006 214.975 240.664 218.247 242.567 C 221.44 244.546 227.449 247.594 231.559 249.344 C 235.669 251.173 242.134 253.611 245.862 254.752 C 249.665 255.817 256.359 257.339 260.697 258.102 C 265.109 258.787 270.131 259.55 271.956 259.703 L 275.153 260.085 L 275.153 281.33 L 289.606 281.33 L 289.606 260.085 L 293.031 259.703 C 294.931 259.475 300.409 258.559 305.203 257.721 C 309.993 256.883 316.919 255.208 320.647 253.988 C 324.296 252.848 330.915 250.107 335.406 247.975 C 339.819 245.918 346.894 241.958 350.999 239.217 C 355.109 236.475 361.346 231.677 364.921 228.476 C 368.5 225.357 373.746 220.099 376.562 216.826 C 379.452 213.55 384.018 207.533 386.755 203.423 C 389.497 199.235 393.225 192.682 395.05 188.801 C 396.949 184.915 399.765 177.603 401.361 172.656 C 403.037 167.704 404.862 159.937 405.546 155.441 C 406.234 150.95 406.918 146.077 407.147 144.63 L 407.603 141.963 L 428.828 141.963 L 428.828 127.494 L 407.603 127.494 L 407.147 123.078 C 406.918 120.714 406.002 115.078 405.168 110.661 C 404.405 106.245 402.734 99.696 401.594 96.192 C 400.374 92.688 398.322 87.131 396.949 83.854 C 395.58 80.657 392.536 74.793 390.181 70.907 C 387.896 67.1 384.018 61.311 381.584 58.114 C 379.224 54.991 374.584 49.662 371.237 46.311 C 367.965 42.96 362.868 38.315 359.978 36.03 C 357.013 33.667 351.762 29.934 348.188 27.728 C 344.609 25.518 338.902 22.32 335.406 20.719 C 331.981 19.044 325.134 16.456 320.191 14.781 C 315.243 13.18 307.484 11.276 302.918 10.592 C 298.277 9.908 293.409 9.145 292.04 8.991 L 289.606 8.614 L 289.606 -12.636 L 282.378 -12.636 Z M 272.263 30.851 L 275.153 30.772 L 275.153 47.451 L 272.263 47.908 C 270.741 48.136 267.543 48.671 265.263 49.127 C 262.977 49.583 258.872 50.574 256.284 51.412 C 253.622 52.175 248.6 54.153 245.178 55.754 C 241.753 57.355 236.507 60.324 233.537 62.302 C 230.572 64.284 225.704 68.091 222.734 70.833 C 219.769 73.574 215.278 78.6 212.769 81.951 C 210.181 85.302 206.303 91.929 204.018 96.574 C 201.509 101.753 199.15 107.999 198.009 112.644 C 196.944 116.832 195.956 121.858 195.65 123.836 L 195.193 127.494 L 178.535 127.494 L 178.535 124.902 C 178.535 123.455 179.065 119.499 179.75 115.994 C 180.359 112.49 181.653 107.236 182.491 104.266 C 183.329 101.297 185.838 95.126 188.044 90.482 C 190.175 85.911 193.75 79.512 195.803 76.394 C 197.935 73.346 201.738 68.394 204.325 65.425 C 206.834 62.53 211.093 58.267 213.681 56.057 C 216.344 53.772 220.909 50.346 223.8 48.289 C 226.765 46.311 232.015 43.263 235.515 41.513 C 238.941 39.759 245.327 37.096 249.591 35.723 C 253.85 34.276 260.087 32.601 263.438 31.991 C 266.706 31.381 270.741 30.851 272.263 30.851 Z M 291.812 30.772 C 293.031 30.772 296.834 31.307 300.334 31.991 C 303.835 32.601 309.462 33.973 312.809 35.039 C 316.155 36.105 322.318 38.618 326.581 40.596 C 330.766 42.653 336.468 45.701 339.134 47.53 C 341.797 49.28 346.587 52.934 349.784 55.6 C 352.977 58.342 357.697 62.986 360.28 66.034 C 362.868 69.004 366.596 73.802 368.421 76.622 C 370.325 79.438 373.29 84.618 375.119 88.196 C 376.943 91.775 379.452 98.021 380.746 102.135 C 382.04 106.245 383.637 112.49 384.321 115.994 C 384.931 119.499 385.461 123.455 385.461 124.902 L 385.461 127.494 L 368.803 127.494 L 368.346 123.836 C 368.118 121.858 367.053 116.832 366.066 112.644 C 364.846 107.999 362.487 101.753 360.052 96.648 C 357.771 92.004 354.425 86.214 352.6 83.701 C 350.771 81.188 347.271 76.999 344.837 74.337 C 342.402 71.745 337.612 67.482 334.34 64.969 C 330.994 62.456 324.375 58.57 319.734 56.285 C 314.177 53.543 308.55 51.487 303.3 50.193 C 298.887 49.206 294.018 48.136 292.496 47.908 L 289.606 47.451 L 289.606 30.772 L 291.812 30.772 Z M 274.544 62.53 C 274.925 62.684 275.153 69.385 275.153 77.306 L 275.153 91.775 L 282.149 91.547 L 289.224 91.319 L 289.452 76.697 L 289.606 62.074 L 292.496 62.53 C 294.018 62.758 298.128 63.749 301.475 64.741 C 304.896 65.732 309.616 67.328 311.971 68.394 C 314.256 69.46 318.515 71.824 321.406 73.649 C 324.296 75.556 329.165 79.363 332.134 82.258 C 335.178 85.074 339.591 90.328 342.025 93.986 C 344.381 97.565 347.499 103.275 348.946 106.551 C 350.315 109.902 352.065 115.687 352.828 119.42 C 353.587 123.152 354.043 126.503 353.815 126.885 C 353.587 127.187 346.894 127.494 338.981 127.494 L 324.524 127.494 L 324.752 134.499 L 324.98 141.582 L 339.591 141.81 L 354.197 141.963 L 353.815 144.477 C 353.512 145.77 352.903 149.047 352.293 151.713 C 351.684 154.376 350.162 159.174 348.793 162.371 C 347.499 165.573 344.459 171.055 342.025 174.634 C 339.665 178.292 335.327 183.467 332.437 186.209 C 329.621 189.029 324.603 192.989 321.406 195.121 C 318.134 197.178 312.962 199.993 309.844 201.292 C 306.725 202.585 302.006 204.107 299.343 204.717 C 296.681 205.327 293.409 205.936 292.115 206.239 L 289.606 206.621 L 289.452 191.998 L 289.224 177.375 L 282.149 177.147 L 275.153 176.919 L 275.153 206.774 L 272.263 206.239 C 270.741 206.011 266.784 205.173 263.587 204.335 C 260.315 203.572 255.144 201.748 252.025 200.375 C 248.981 198.928 244.266 196.261 241.603 194.436 C 238.941 192.682 234.45 188.954 231.634 186.287 C 228.822 183.546 224.866 178.897 222.809 175.928 C 220.756 172.959 218.168 168.77 217.107 166.713 C 216.115 164.656 214.365 160.09 213.225 156.586 C 212.159 153.156 210.944 148.437 210.637 146.152 L 209.953 141.963 L 224.484 141.81 L 239.016 141.582 L 239.244 134.499 L 239.472 127.494 L 225.015 127.494 C 217.107 127.494 210.409 127.187 210.181 126.885 C 209.953 126.503 210.334 123.762 210.944 120.639 C 211.628 117.591 213.15 112.262 214.365 108.837 C 215.659 105.407 218.396 99.696 220.528 96.192 C 223.041 92.157 226.993 87.284 231.406 82.942 C 235.669 78.675 240.687 74.718 244.569 72.355 C 247.994 70.298 254.152 67.482 258.188 66.109 C 262.293 64.741 267.543 63.293 269.824 62.912 C 272.109 62.53 274.237 62.381 274.544 62.53 Z M 186.825 141.963 C 194.965 141.963 195.272 142.038 195.575 143.639 C 195.728 144.63 196.338 147.753 196.794 150.722 C 197.325 153.617 198.772 158.946 200.062 162.525 C 201.281 166.104 203.334 171.055 204.553 173.494 C 205.847 176.007 207.747 179.432 208.812 181.108 C 209.953 182.858 212.615 186.441 214.747 189.182 C 216.879 191.923 220.603 195.958 223.041 198.169 C 225.397 200.375 229.506 203.651 232.094 205.48 C 234.603 207.305 239.472 210.199 242.819 211.875 C 246.165 213.55 251.49 215.835 254.687 216.901 C 257.806 217.967 263.438 219.34 267.087 220.024 C 270.815 220.634 274.162 221.168 274.469 221.168 C 274.846 221.168 275.153 224.975 275.153 229.546 L 275.153 237.923 L 272.491 237.923 C 271.044 237.923 266.556 237.234 262.447 236.475 C 258.337 235.638 252.253 234.112 248.906 232.971 C 245.56 231.905 239.853 229.467 236.2 227.638 C 232.625 225.813 227.3 222.765 224.41 220.862 C 221.594 219.033 216.497 215.072 213.15 212.182 C 209.804 209.208 205.159 204.564 202.878 201.748 C 200.597 199.006 197.553 195.046 196.259 192.989 C 194.891 191.007 192.531 187.2 191.009 184.533 C 189.566 181.871 187.281 177.301 186.066 174.331 C 184.772 171.437 182.794 165.266 181.579 160.621 C 180.434 155.976 179.219 149.959 178.916 147.143 L 178.381 141.963 L 186.825 141.963 Z M 377.097 141.963 L 385.461 141.963 L 385.461 144.248 C 385.461 145.468 384.777 149.806 384.018 153.919 C 383.181 158.033 381.659 164.125 380.518 167.476 C 379.452 170.827 377.018 176.538 375.193 180.195 C 373.369 183.774 370.325 189.103 368.421 191.998 C 366.596 194.818 362.943 199.612 360.434 202.507 C 357.925 205.48 353.359 209.971 350.315 212.638 C 347.271 215.3 342.556 218.958 339.819 220.787 C 337.078 222.612 331.906 225.585 328.253 227.489 C 324.678 229.313 318.287 231.905 314.177 233.199 C 310.072 234.493 303.835 236.094 300.334 236.778 C 296.834 237.388 293.031 237.923 291.812 237.923 L 289.606 237.923 L 289.606 221.243 L 292.496 220.787 C 294.018 220.559 298.277 219.642 302.006 218.883 C 305.659 218.046 310.909 216.52 313.8 215.379 C 316.612 214.235 320.796 212.331 323.081 211.037 C 325.362 209.818 329.472 207.155 332.209 205.248 C 334.95 203.423 339.512 199.612 342.328 196.871 C 345.218 194.13 349.249 189.638 351.227 186.897 C 353.284 184.156 356.175 179.66 357.697 176.994 C 359.293 174.253 361.653 169.152 363.022 165.573 C 364.39 161.994 366.066 156.507 366.671 153.389 C 367.355 150.266 368.118 146.38 368.346 144.858 L 368.803 141.963 L 377.097 141.963 Z M 281.619 105.486 C 280.399 105.486 277.509 106.016 275.381 106.551 C 273.175 107.161 269.978 108.376 268.228 109.214 C 266.556 110.13 263.587 112.415 261.688 114.24 C 259.859 116.148 257.503 119.499 256.438 121.705 C 255.446 123.915 254.231 127.648 253.775 130.007 C 253.091 133.279 253.091 135.415 253.775 138.687 C 254.231 141.051 255.372 144.705 256.359 146.836 C 257.35 148.968 259.71 152.319 261.609 154.301 C 263.512 156.279 266.784 158.718 268.912 159.783 C 270.969 160.849 274.925 162.068 277.662 162.603 C 281.693 163.362 283.597 163.362 287.097 162.525 C 289.531 161.994 293.181 160.775 295.159 159.709 C 297.216 158.718 300.334 156.358 302.159 154.529 C 303.984 152.7 306.343 149.503 307.409 147.446 C 308.475 145.389 309.69 141.428 310.225 138.687 C 310.984 134.652 310.984 132.749 310.146 129.244 C 309.616 126.81 308.396 123.227 307.409 121.323 C 306.497 119.42 304.137 116.297 302.313 114.319 C 300.409 112.415 297.519 110.13 295.768 109.293 C 294.093 108.376 290.746 107.161 288.312 106.551 C 285.956 105.942 282.912 105.407 281.619 105.486 Z M 283.522 120.336 C 284.965 120.564 287.325 121.323 288.694 121.933 C 290.062 122.543 291.966 124.143 293.031 125.363 C 294.018 126.578 295.238 128.942 295.694 130.692 C 296.15 132.367 296.299 135.108 296.071 136.709 C 295.768 138.306 294.781 140.744 293.865 142.117 C 292.953 143.485 291.128 145.314 289.759 146.227 C 288.391 147.143 285.956 148.13 284.356 148.437 C 282.759 148.665 280.022 148.512 278.272 148.055 C 276.522 147.599 273.934 146.152 272.491 144.933 C 270.662 143.257 269.447 141.279 268.609 138.538 C 267.697 135.187 267.618 133.814 268.306 131.148 C 268.837 129.398 269.903 126.959 270.741 125.74 C 271.574 124.6 273.324 123.078 274.618 122.389 C 275.987 121.705 277.89 120.867 278.956 120.564 C 280.022 120.258 282.075 120.104 283.522 120.336 Z M 283.522 120.336"/>
    <path style="stroke: none; fill-rule: nonzero; fill: rgb(52, 155, 220); fill-opacity: 1;" d="M 80.782 215.361 L 77.401 215.361 L 73.633 222.845 C 71.59 227 68.395 233.837 66.479 238.058 C 64.564 242.28 62.201 247.2 61.179 248.926 C 60.224 250.652 58.947 253.658 58.309 255.512 C 57.733 257.427 57.477 259.157 57.733 259.474 C 58.054 259.729 61.884 261.01 66.29 262.225 C 70.697 263.501 76.248 264.971 78.739 265.548 C 81.23 266.059 88.318 267.978 94.573 269.765 C 100.833 271.557 106.067 272.9 106.133 272.771 C 106.195 272.706 109.197 267.146 112.71 260.433 C 116.284 253.72 120.945 245.026 123.054 240.998 C 125.224 236.97 126.945 233.07 126.945 232.238 C 126.945 231.283 126.246 230.385 124.903 229.553 C 123.754 228.853 120.052 227.255 116.733 226.04 C 113.409 224.825 105.494 222.268 99.234 220.476 C 92.914 218.688 86.975 216.769 86.02 216.259 C 84.999 215.744 82.696 215.361 80.782 215.361 Z M 138.633 234.54 C 134.481 234.54 133.905 234.668 133.012 236.011 C 132.5 236.843 130.075 241.764 127.711 247.073 C 125.286 252.316 121.262 260.754 118.709 265.865 C 114.624 274.115 114.241 275.202 115.263 275.585 C 115.901 275.841 121.712 277.565 128.223 279.485 C 134.737 281.404 141.186 283.13 142.529 283.319 C 143.995 283.574 145.781 284.472 146.869 285.433 C 148.529 287.092 148.656 287.474 148.59 292.334 C 148.59 295.213 148.335 300.007 148.146 303.075 C 147.89 306.21 147.824 308.701 148.018 308.701 C 148.208 308.701 154.084 300.196 161.105 289.777 C 168.131 279.357 175.156 268.616 176.75 265.931 C 178.348 263.246 180.136 260.371 180.707 259.474 C 181.345 258.642 181.86 257.427 181.86 256.854 C 181.86 256.278 180.196 254.359 178.155 252.633 C 176.178 250.907 173.109 248.543 171.45 247.389 C 169.728 246.241 164.235 243.3 159.191 240.871 C 154.084 238.507 148.463 236.077 146.675 235.566 C 144.827 234.989 141.247 234.54 138.633 234.54 Z M 191.435 260.943 L 187.922 260.688 L 185.435 264.395 C 184.031 266.442 179.303 273.731 174.963 280.572 C 170.556 287.413 162.192 300.967 156.32 310.62 C 150.444 320.274 144.443 330.5 142.912 333.313 C 141.375 336.126 138.888 340.536 137.29 343.094 C 135.758 345.652 134.609 347.892 134.798 348.147 C 134.993 348.337 137.867 349.041 141.12 349.746 C 144.377 350.384 151.975 351.854 157.913 352.941 C 163.852 354.028 171.005 355.05 173.814 355.177 C 178.348 355.433 178.92 355.372 180.391 353.963 C 181.284 353.131 185.691 348.464 190.097 343.544 C 194.565 338.622 200.31 332.036 202.867 328.902 C 205.42 325.706 210.21 319.121 213.462 314.2 C 216.72 309.212 221.255 301.605 223.618 297.256 C 225.916 292.845 227.831 288.628 227.831 287.796 C 227.831 286.902 226.938 284.917 225.789 283.257 C 224.64 281.593 221.958 278.525 219.784 276.351 C 217.552 274.177 213.718 271.047 211.104 269.321 C 208.55 267.657 203.823 265.1 200.693 263.695 C 196.991 262.097 193.733 261.138 191.435 260.943 Z M 50.646 264.844 C 47.516 264.716 44.452 264.782 43.941 264.971 C 43.43 265.165 41.833 265.931 40.428 266.569 C 39.024 267.208 37.237 268.682 36.471 269.831 C 35.705 270.98 32.13 280.444 28.618 290.799 C 25.043 301.156 20.315 314.965 18.084 321.489 C 15.847 328.009 12.717 337.918 11.058 343.544 C 9.399 349.169 7.545 354.601 6.907 355.689 C 6.335 356.776 5.63 358.567 5.375 359.716 C 5.186 360.997 5.375 362.723 5.952 364.066 C 6.524 365.408 17.252 376.593 35.194 394.497 C 50.839 410.093 67.822 426.842 72.929 431.702 L 82.252 440.59 L 82.252 447.237 C 82.252 450.882 81.869 456.636 81.358 460.086 C 80.848 463.476 79.826 472.491 79.122 480.037 C 78.356 487.577 77.207 499.854 76.503 507.205 C 75.802 514.557 74.91 522.868 74.46 525.615 C 74.016 528.621 73.95 530.797 74.333 531.052 C 74.654 531.307 78.484 532.716 82.89 534.186 C 87.297 535.656 93.169 537.443 96.044 538.148 C 98.852 538.852 104.856 540.067 109.452 540.895 C 116.605 542.11 120.113 542.303 135.886 542.303 C 150.06 542.369 155.615 542.11 161.105 541.281 C 165.001 540.639 171.261 539.49 175.156 538.597 C 179.047 537.698 185.752 535.846 190.159 534.441 C 194.565 532.971 201.27 530.475 205.165 528.749 L 212.186 525.681 L 212.186 521.846 C 212.124 519.8 211.869 512.576 211.614 505.925 C 211.359 499.212 210.399 488.664 209.571 482.4 C 208.739 476.136 208.04 469.101 208.04 466.865 C 208.04 464.563 207.718 460.663 207.269 458.233 L 206.569 453.761 L 208.484 451.714 C 209.571 450.56 213.974 446.792 218.252 443.275 C 222.597 439.758 227.575 435.281 229.429 433.366 C 231.216 431.447 233.897 428.251 235.301 426.332 C 237.216 423.774 238.942 420.068 241.495 412.778 C 243.476 407.219 246.539 397.754 248.265 391.684 C 250.053 385.548 252.029 376.915 252.795 372.055 C 253.882 364.514 254.01 362.595 253.372 357.608 C 252.988 354.474 252.412 351.599 252.094 351.277 C 251.839 351.022 243.603 357.031 233.769 364.704 C 224.001 372.311 214.356 379.856 212.38 381.391 C 210.399 382.924 208.356 384.139 207.846 384.139 C 207.269 384.139 200.693 379.983 193.16 374.934 C 185.624 369.818 177.771 364.831 175.667 363.81 C 172.471 362.212 169.663 361.635 155.999 359.654 C 147.252 358.374 135.692 356.903 130.397 356.331 C 125.097 355.754 120.113 355.372 119.286 355.499 C 118.071 355.627 119.092 356.521 124.776 360.226 C 128.605 362.723 134.033 366.557 136.846 368.859 C 139.654 371.095 144.632 375.7 148.018 379.024 C 151.337 382.347 156.32 387.717 159.001 390.918 C 161.682 394.113 165.511 399.097 167.427 401.975 C 169.346 404.788 171.899 409.648 173.175 412.651 C 174.452 415.719 176.05 420.389 176.689 423.075 C 177.388 425.76 178.282 430.105 178.665 432.728 C 179.047 435.347 179.303 439.247 179.176 441.356 C 178.987 445.128 178.987 445.194 176.622 446.022 C 175.284 446.405 172.088 447.175 169.601 447.62 C 165.766 448.324 164.046 448.324 159.894 447.559 C 157.148 447.109 154.723 446.854 154.595 447.048 C 154.401 447.237 155.615 453.761 157.276 461.623 C 158.873 469.485 162.13 484.636 164.362 495.315 C 166.66 505.991 168.386 514.812 168.259 514.94 C 168.131 515.134 164.49 506.052 160.15 494.929 C 155.81 483.743 149.422 466.993 145.976 457.723 C 142.529 448.452 139.716 440.524 139.716 440.079 C 139.716 439.63 141.886 439.054 145.337 438.61 C 148.401 438.16 153.891 437.521 157.531 437.2 C 161.489 436.818 164.812 436.179 165.706 435.602 C 166.855 434.837 167.171 434.071 167.171 431.83 C 167.171 430.298 166.471 426.525 165.577 423.457 C 164.684 420.389 162.576 415.147 160.916 411.757 C 159.191 408.306 156.192 403.063 154.211 400.056 C 152.23 396.988 148.146 391.684 145.271 388.232 C 141.697 384.011 136.974 379.472 131.035 374.678 C 126.18 370.712 117.688 364.255 112.198 360.421 C 106.705 356.586 99.811 352.304 96.876 350.895 C 93.49 349.296 88.446 347.633 83.211 346.417 C 78.677 345.335 70.758 343.926 65.713 343.222 C 60.607 342.522 56.39 341.818 56.263 341.752 C 56.201 341.623 58.82 341.179 62.073 340.731 C 65.396 340.281 69.098 339.643 70.376 339.322 C 71.718 338.939 73.505 337.662 74.91 335.998 C 76.186 334.528 77.335 332.741 77.528 332.036 C 77.718 331.204 76.824 328.326 75.354 324.941 C 74.016 321.806 72.228 317.523 71.463 315.414 L 70.058 311.576 L 71.845 313.178 C 72.801 314.072 75.675 316.691 78.1 318.932 C 80.592 321.23 84.167 323.914 86.02 324.941 C 87.869 325.9 90.743 327.115 92.403 327.559 C 94.063 328.009 96.426 328.198 97.575 328.07 C 98.79 327.943 102.426 327.37 105.556 326.855 C 108.686 326.345 113.603 325.196 116.35 324.236 C 119.159 323.342 125.158 320.913 129.758 318.932 L 138.122 315.287 L 139.205 310.233 C 139.843 307.486 140.61 303.009 140.992 300.391 C 141.442 297.767 141.569 294.382 141.314 292.911 C 140.992 290.542 140.548 289.971 138.567 288.945 C 137.229 288.306 130.714 286.26 124.075 284.406 C 117.371 282.62 99.429 277.504 84.167 273.093 C 59.586 265.998 55.752 265.038 50.646 264.844 Z M 236.961 296.873 C 235.556 296.684 233.769 296.939 232.62 297.45 C 231.472 297.96 228.535 301.156 225.405 305.25 C 222.531 309.084 212.124 323.021 202.357 336.192 C 189.01 354.09 184.669 360.421 185.052 361.125 C 185.369 361.697 187.284 363.81 189.393 365.852 C 191.435 367.837 194.565 370.523 196.224 371.738 C 197.95 372.887 200.886 374.485 202.867 375.251 C 205.865 376.338 206.825 376.466 208.806 375.894 C 210.21 375.444 215.061 371.927 220.933 367.067 C 226.299 362.595 233.831 356.265 237.726 352.941 C 241.623 349.618 248.648 343.287 253.372 338.877 C 258.095 334.466 262.312 330.245 262.757 329.54 C 263.206 328.774 263.523 327.049 263.589 325.578 C 263.589 323.914 262.884 321.489 261.546 318.865 C 260.076 315.797 257.711 312.918 252.156 307.359 C 248.072 303.264 243.538 299.302 242.072 298.599 C 240.663 297.833 238.365 297.066 236.961 296.873 Z M 236.961 296.873"/>
    <path style="stroke: none; fill-rule: nonzero; fill: rgb(192, 192, 192); fill-opacity: 1;" d="M 484.038 215.361 L 487.419 215.361 L 491.188 222.841 C 493.229 226.996 496.426 233.837 498.34 238.059 C 500.256 242.276 502.619 247.201 503.641 248.927 C 504.596 250.652 505.873 253.659 506.51 255.513 C 507.087 257.427 507.342 259.157 507.087 259.474 C 506.766 259.73 502.936 261.01 498.53 262.225 C 494.123 263.501 488.568 264.972 486.081 265.549 C 483.59 266.059 476.502 267.978 470.247 269.766 C 463.987 271.558 458.754 272.9 458.687 272.772 C 458.625 272.707 455.624 267.146 452.11 260.433 C 448.536 253.721 443.874 245.027 441.766 240.999 C 439.596 236.97 437.875 233.07 437.875 232.239 C 437.875 231.284 438.574 230.386 439.917 229.554 C 441.066 228.853 444.768 227.256 448.087 226.041 C 451.411 224.825 459.326 222.269 465.585 220.477 C 471.906 218.685 477.845 216.77 478.8 216.26 C 479.821 215.745 482.119 215.361 484.038 215.361 Z M 426.187 234.541 C 430.338 234.541 430.915 234.669 431.808 236.011 C 432.319 236.843 434.745 241.764 437.108 247.074 C 439.534 252.316 443.558 260.755 446.111 265.866 C 450.196 274.115 450.579 275.203 449.557 275.586 C 448.92 275.841 443.108 277.566 436.598 279.486 C 430.083 281.405 423.634 283.131 422.291 283.32 C 420.825 283.575 419.038 284.473 417.951 285.433 C 416.291 287.093 416.164 287.475 416.225 292.335 C 416.225 295.214 416.481 300.008 416.675 303.076 C 416.93 306.206 416.996 308.702 416.802 308.702 C 416.613 308.702 410.736 300.197 403.715 289.777 C 396.689 279.358 389.664 268.617 388.07 265.932 C 386.472 263.246 384.685 260.367 384.112 259.474 C 383.47 258.642 382.959 257.427 382.959 256.855 C 382.959 256.278 384.624 254.359 386.666 252.633 C 388.642 250.908 391.71 248.543 393.37 247.39 C 395.091 246.242 400.585 243.301 405.63 240.871 C 410.736 238.507 416.353 236.078 418.145 235.566 C 419.993 234.99 423.572 234.541 426.187 234.541 Z M 373.385 260.944 L 376.893 260.689 L 379.385 264.395 C 380.789 266.442 385.517 273.732 389.857 280.573 C 394.263 287.414 402.628 300.968 408.5 310.621 C 414.377 320.275 420.377 330.501 421.908 333.314 C 423.445 336.126 425.932 340.537 427.529 343.095 C 429.062 345.652 430.211 347.888 430.022 348.148 C 429.827 348.338 426.953 349.042 423.7 349.747 C 420.443 350.384 412.844 351.855 406.907 352.942 C 400.968 354.029 393.815 355.051 391.006 355.178 C 386.472 355.433 385.9 355.372 384.429 353.964 C 383.536 353.132 379.13 348.465 374.724 343.544 C 370.255 338.622 364.511 332.036 361.953 328.902 C 359.4 325.707 354.61 319.121 351.357 314.2 C 348.1 309.212 343.566 301.605 341.201 297.257 C 338.904 292.845 336.989 288.628 336.989 287.796 C 336.989 286.903 337.882 284.917 339.031 283.258 C 340.18 281.594 342.862 278.526 345.036 276.352 C 347.268 274.177 351.102 271.047 353.717 269.322 C 356.27 267.658 360.997 265.1 364.127 263.696 C 367.83 262.097 371.088 261.138 373.385 260.944 Z M 514.174 264.845 C 517.304 264.717 520.368 264.783 520.879 264.972 C 521.39 265.165 522.988 265.932 524.392 266.57 C 525.796 267.208 527.584 268.679 528.349 269.832 C 529.115 270.981 532.69 280.445 536.202 290.799 C 539.776 301.157 544.505 314.966 546.737 321.485 C 548.973 328.009 552.103 337.918 553.762 343.544 C 555.422 349.17 557.274 354.601 557.913 355.689 C 558.485 356.777 559.19 358.568 559.445 359.717 C 559.634 360.998 559.445 362.724 558.869 364.066 C 558.296 365.409 547.569 376.594 529.625 394.497 C 513.981 410.094 496.998 426.843 491.891 431.703 L 482.568 440.59 L 482.568 447.238 C 482.568 450.883 482.951 456.636 483.462 460.087 C 483.972 463.476 484.994 472.492 485.698 480.037 C 486.464 487.578 487.613 499.855 488.313 507.206 C 489.017 514.557 489.911 522.869 490.36 525.616 C 490.804 528.622 490.871 530.797 490.487 531.052 C 490.166 531.308 486.336 532.716 481.93 534.187 C 477.523 535.656 471.651 537.444 468.777 538.149 C 465.968 538.852 459.963 540.068 455.368 540.895 C 448.215 542.11 444.706 542.304 428.934 542.304 C 414.76 542.366 409.204 542.11 403.715 541.282 C 399.819 540.64 393.56 539.491 389.664 538.597 C 385.772 537.699 379.068 535.846 374.662 534.442 C 370.255 532.971 363.551 530.476 359.655 528.75 L 352.634 525.682 L 352.634 521.847 C 352.696 519.801 352.951 512.577 353.206 505.926 C 353.461 499.213 354.421 488.665 355.249 482.401 C 356.081 476.136 356.78 469.102 356.78 466.866 C 356.78 464.564 357.102 460.663 357.55 458.234 L 358.251 453.762 L 356.336 451.714 C 355.249 450.561 350.846 446.793 346.567 443.276 C 342.223 439.758 337.244 435.281 335.391 433.367 C 333.604 431.448 330.923 428.252 329.519 426.332 C 327.604 423.775 325.879 420.068 323.325 412.779 C 321.344 407.219 318.281 397.754 316.555 391.684 C 314.767 385.548 312.791 376.915 312.025 372.055 C 310.938 364.51 310.81 362.596 311.449 357.608 C 311.832 354.474 312.409 351.599 312.725 351.278 C 312.981 351.023 321.216 357.032 331.05 364.705 C 340.819 372.311 350.46 379.856 352.441 381.392 C 354.421 382.924 356.463 384.14 356.975 384.14 C 357.55 384.14 364.127 379.983 371.659 374.934 C 379.196 369.819 387.049 364.832 389.153 363.811 C 392.349 362.212 395.157 361.636 408.821 359.655 C 417.568 358.374 429.124 356.904 434.423 356.331 C 439.723 355.755 444.706 355.372 445.534 355.499 C 446.749 355.628 445.728 356.521 440.045 360.227 C 436.211 362.724 430.787 366.558 427.975 368.86 C 425.166 371.096 420.187 375.701 416.802 379.024 C 413.483 382.348 408.5 387.718 405.819 390.914 C 403.138 394.114 399.308 399.098 397.393 401.976 C 395.474 404.789 392.921 409.649 391.645 412.651 C 390.368 415.72 388.77 420.39 388.132 423.075 C 387.432 425.76 386.538 430.105 386.155 432.728 C 385.772 435.348 385.517 439.248 385.645 441.357 C 385.834 445.129 385.834 445.195 388.198 446.022 C 389.536 446.406 392.732 447.176 395.219 447.621 C 399.053 448.325 400.774 448.325 404.926 447.559 C 407.672 447.11 410.098 446.854 410.226 447.049 C 410.419 447.238 409.204 453.762 407.544 461.624 C 405.947 469.485 402.689 484.637 400.457 495.316 C 398.16 505.992 396.434 514.813 396.561 514.941 C 396.689 515.134 400.33 506.053 404.67 494.929 C 409.01 483.743 415.397 466.994 418.844 457.724 C 422.291 448.453 425.104 440.525 425.104 440.08 C 425.104 439.631 422.93 439.054 419.483 438.61 C 416.419 438.161 410.93 437.522 407.289 437.201 C 403.327 436.818 400.008 436.18 399.115 435.603 C 397.966 434.837 397.649 434.072 397.649 431.831 C 397.649 430.299 398.349 426.526 399.243 423.458 C 400.136 420.39 402.245 415.147 403.904 411.758 C 405.63 408.306 408.627 403.064 410.608 400.057 C 412.589 396.989 416.675 391.684 419.549 388.233 C 423.123 384.011 427.846 379.473 433.785 374.679 C 438.64 370.713 447.132 364.255 452.621 360.421 C 458.115 356.587 465.009 352.304 467.945 350.895 C 471.33 349.297 476.374 347.633 481.609 346.418 C 486.143 345.335 494.061 343.926 499.107 343.223 C 504.213 342.522 508.426 341.818 508.553 341.752 C 508.619 341.624 506 341.18 502.747 340.731 C 499.423 340.282 495.722 339.643 494.445 339.323 C 493.102 338.939 491.315 337.662 489.911 335.998 C 488.634 334.529 487.485 332.741 487.291 332.036 C 487.102 331.205 487.996 328.326 489.466 324.941 C 490.804 321.807 492.592 317.524 493.358 315.415 L 494.762 311.576 L 492.974 313.174 C 492.02 314.072 489.145 316.692 486.72 318.932 C 484.227 321.23 480.653 323.915 478.8 324.941 C 476.951 325.9 474.076 327.116 472.417 327.56 C 470.757 328.009 468.393 328.198 467.245 328.07 C 466.03 327.943 462.39 327.371 459.264 326.856 C 456.134 326.346 451.217 325.197 448.47 324.236 C 445.662 323.343 439.661 320.913 435.062 318.932 L 426.697 315.287 L 425.615 310.234 C 424.976 307.486 424.21 303.01 423.828 300.391 C 423.379 297.767 423.251 294.382 423.507 292.912 C 423.828 290.543 424.272 289.972 426.253 288.945 C 427.591 288.307 434.106 286.261 440.745 284.407 C 447.449 282.616 465.391 277.505 480.653 273.093 C 505.234 265.998 509.068 265.038 514.174 264.845 Z M 327.86 296.874 C 329.264 296.685 331.05 296.94 332.199 297.45 C 333.348 297.961 336.285 301.157 339.415 305.25 C 342.289 309.085 352.696 323.021 362.463 336.193 C 375.811 354.091 380.15 360.421 379.768 361.125 C 379.451 361.697 377.536 363.811 375.427 365.853 C 373.385 367.838 370.255 370.524 368.595 371.739 C 366.87 372.888 363.934 374.486 361.953 375.251 C 358.956 376.338 357.996 376.467 356.015 375.894 C 354.61 375.445 349.759 371.928 343.883 367.068 C 338.521 362.596 330.985 356.265 327.093 352.942 C 323.197 349.618 316.172 343.288 311.449 338.877 C 306.725 334.467 302.508 330.246 302.063 329.541 C 301.615 328.775 301.298 327.049 301.231 325.579 C 301.231 323.915 301.936 321.485 303.274 318.866 C 304.745 315.798 307.108 312.919 312.664 307.359 C 316.748 303.265 321.283 299.303 322.749 298.599 C 324.153 297.834 326.455 297.067 327.86 296.874 Z M 327.86 296.874"/>
  </g>
</svg>