<?xml version="1.0" encoding="utf-8"?>
<svg viewBox="796.989 32.567 511.545 512.226" width="511.545" height="512.226" xmlns="http://www.w3.org/2000/svg">
  <g id="surface1" transform="matrix(0.9197530150413513, 0, 0, 0.9197530150413513, 792.0923461914062, 42.63850402832034)">
    <path style="stroke: none; fill-rule: nonzero; fill: rgb(52, 155, 220); fill-opacity: 1;" d="M 81.069 217.856 L 77.676 217.856 L 73.895 225.366 C 71.845 229.536 68.638 236.397 66.716 240.633 C 64.794 244.87 62.422 249.808 61.397 251.54 C 60.438 253.272 59.157 256.289 58.517 258.149 C 57.938 260.071 57.682 261.807 57.938 262.125 C 58.261 262.381 62.104 263.667 66.526 264.886 C 70.948 266.167 76.519 267.642 79.019 268.221 C 81.519 268.734 88.632 270.66 94.909 272.453 C 101.191 274.251 106.444 275.599 106.51 275.47 C 106.572 275.404 109.585 269.825 113.11 263.088 C 116.697 256.351 121.375 247.626 123.491 243.584 C 125.669 239.542 127.396 235.628 127.396 234.793 C 127.396 233.834 126.694 232.933 125.347 232.098 C 124.194 231.396 120.478 229.792 117.148 228.573 C 113.812 227.354 105.869 224.787 99.587 222.989 C 93.244 221.195 87.284 219.269 86.326 218.757 C 85.301 218.24 82.99 217.856 81.069 217.856 Z M 139.125 237.103 C 134.959 237.103 134.381 237.231 133.484 238.579 C 132.971 239.414 130.537 244.353 128.165 249.68 C 125.731 254.942 121.693 263.41 119.131 268.539 C 115.031 276.818 114.647 277.909 115.672 278.293 C 116.313 278.55 122.144 280.281 128.678 282.207 C 135.216 284.133 141.687 285.865 143.035 286.055 C 144.506 286.311 146.299 287.212 147.391 288.176 C 149.056 289.841 149.184 290.225 149.118 295.102 C 149.118 297.991 148.862 302.802 148.672 305.881 C 148.415 309.027 148.349 311.527 148.544 311.527 C 148.734 311.527 154.631 302.992 161.677 292.536 C 168.728 282.079 175.778 271.3 177.377 268.605 C 178.981 265.911 180.775 263.026 181.349 262.125 C 181.989 261.29 182.506 260.071 182.506 259.496 C 182.506 258.918 180.836 256.992 178.787 255.26 C 176.803 253.528 173.724 251.156 172.059 249.998 C 170.331 248.845 164.818 245.894 159.756 243.456 C 154.631 241.084 148.99 238.645 147.196 238.133 C 145.341 237.554 141.749 237.103 139.125 237.103 Z M 192.115 263.6 L 188.589 263.344 L 186.093 267.064 C 184.684 269.118 179.94 276.433 175.584 283.298 C 171.162 290.163 162.768 303.765 156.875 313.453 C 150.978 323.141 144.956 333.403 143.419 336.226 C 141.877 339.049 139.381 343.475 137.778 346.042 C 136.24 348.609 135.087 350.857 135.277 351.113 C 135.472 351.303 138.357 352.01 141.621 352.717 C 144.89 353.358 152.515 354.833 158.474 355.924 C 164.434 357.015 171.612 358.04 174.431 358.168 C 178.981 358.425 179.555 358.363 181.031 356.949 C 181.928 356.114 186.35 351.431 190.772 346.493 C 195.256 341.554 201.021 334.945 203.587 331.8 C 206.149 328.592 210.956 321.984 214.22 317.045 C 217.489 312.04 222.04 304.406 224.412 300.041 C 226.718 295.615 228.64 291.383 228.64 290.548 C 228.64 289.651 227.743 287.659 226.59 285.993 C 225.437 284.323 222.746 281.244 220.564 279.062 C 218.324 276.88 214.477 273.739 211.853 272.007 C 209.29 270.337 204.546 267.771 201.405 266.361 C 197.69 264.758 194.421 263.795 192.115 263.6 Z M 50.826 267.514 C 47.685 267.386 44.61 267.452 44.098 267.642 C 43.585 267.837 41.982 268.605 40.572 269.246 C 39.163 269.887 37.37 271.366 36.601 272.519 C 35.832 273.672 32.245 283.17 28.72 293.561 C 25.133 303.955 20.388 317.813 18.149 324.36 C 15.904 330.903 12.763 340.847 11.098 346.493 C 9.433 352.138 7.573 357.59 6.932 358.681 C 6.358 359.772 5.651 361.57 5.395 362.723 C 5.205 364.008 5.395 365.74 5.974 367.088 C 6.548 368.435 17.314 379.66 35.32 397.627 C 51.02 413.278 68.063 430.087 73.188 434.964 L 82.544 443.884 L 82.544 450.554 C 82.544 454.212 82.16 459.986 81.647 463.449 C 81.135 466.851 80.11 475.898 79.403 483.47 C 78.635 491.037 77.482 503.358 76.775 510.735 C 76.072 518.113 75.176 526.453 74.725 529.21 C 74.279 532.227 74.213 534.41 74.597 534.666 C 74.919 534.922 78.763 536.336 83.185 537.811 C 87.607 539.287 93.5 541.08 96.385 541.787 C 99.203 542.494 105.229 543.713 109.841 544.544 C 117.019 545.763 120.54 545.957 136.369 545.957 C 150.593 546.023 156.168 545.763 161.677 544.932 C 165.587 544.287 171.869 543.134 175.778 542.238 C 179.683 541.336 186.411 539.477 190.834 538.067 C 195.256 536.592 201.984 534.087 205.893 532.355 L 212.939 529.276 L 212.939 525.428 C 212.877 523.374 212.621 516.125 212.365 509.45 C 212.109 502.713 211.146 492.128 210.315 485.842 C 209.48 479.556 208.778 472.496 208.778 470.252 C 208.778 467.942 208.455 464.028 208.005 461.589 L 207.302 457.101 L 209.224 455.047 C 210.315 453.889 214.733 450.108 219.027 446.578 C 223.387 443.049 228.383 438.556 230.243 436.634 C 232.037 434.708 234.727 431.501 236.136 429.575 C 238.058 427.008 239.79 423.289 242.352 415.973 C 244.34 410.394 247.414 400.896 249.146 394.804 C 250.94 388.646 252.923 379.983 253.692 375.106 C 254.783 367.538 254.911 365.612 254.271 360.607 C 253.886 357.462 253.308 354.577 252.989 354.254 C 252.733 353.998 244.468 360.028 234.599 367.728 C 224.796 375.362 215.117 382.934 213.134 384.475 C 211.146 386.013 209.096 387.232 208.584 387.232 C 208.005 387.232 201.405 383.062 193.846 377.995 C 186.283 372.861 178.402 367.856 176.291 366.831 C 173.083 365.228 170.265 364.649 156.553 362.661 C 147.775 361.376 136.174 359.9 130.86 359.326 C 125.541 358.747 120.54 358.363 119.71 358.491 C 118.49 358.619 119.515 359.516 125.219 363.235 C 129.062 365.74 134.509 369.588 137.332 371.898 C 140.15 374.142 145.146 378.763 148.544 382.099 C 151.874 385.434 156.875 390.823 159.566 394.035 C 162.256 397.242 166.099 402.243 168.021 405.132 C 169.947 407.955 172.509 412.832 173.79 415.845 C 175.071 418.924 176.675 423.611 177.316 426.306 C 178.018 429.001 178.915 433.361 179.299 435.994 C 179.683 438.622 179.94 442.536 179.812 444.652 C 179.622 448.438 179.622 448.504 177.249 449.335 C 175.906 449.719 172.699 450.492 170.203 450.938 C 166.355 451.645 164.628 451.645 160.462 450.877 C 157.706 450.426 155.272 450.17 155.144 450.364 C 154.949 450.554 156.168 457.101 157.834 464.991 C 159.437 472.881 162.706 488.086 164.946 498.803 C 167.252 509.516 168.984 518.369 168.856 518.497 C 168.728 518.692 165.074 509.578 160.719 498.415 C 156.363 487.19 149.953 470.38 146.494 461.077 C 143.035 451.773 140.212 443.817 140.212 443.371 C 140.212 442.92 142.39 442.342 145.853 441.896 C 148.928 441.445 154.437 440.804 158.09 440.482 C 162.062 440.098 165.397 439.457 166.294 438.878 C 167.447 438.11 167.765 437.341 167.765 435.092 C 167.765 433.555 167.062 429.769 166.165 426.69 C 165.269 423.611 163.153 418.35 161.487 414.948 C 159.756 411.485 156.747 406.223 154.759 403.206 C 152.771 400.127 148.672 394.804 145.787 391.34 C 142.2 387.104 137.46 382.549 131.5 377.738 C 126.628 373.758 118.106 367.278 112.597 363.43 C 107.084 359.582 100.166 355.284 97.22 353.87 C 93.822 352.266 88.76 350.597 83.507 349.377 C 78.957 348.291 71.01 346.877 65.947 346.17 C 60.823 345.468 56.591 344.761 56.463 344.695 C 56.401 344.566 59.029 344.12 62.294 343.67 C 65.629 343.219 69.344 342.579 70.626 342.256 C 71.973 341.872 73.766 340.591 75.176 338.921 C 76.457 337.445 77.61 335.652 77.804 334.945 C 77.994 334.11 77.097 331.221 75.622 327.824 C 74.279 324.678 72.485 320.38 71.717 318.264 L 70.307 314.412 L 72.101 316.02 C 73.06 316.917 75.944 319.545 78.378 321.794 C 80.879 324.1 84.466 326.794 86.326 327.824 C 88.181 328.787 91.066 330.006 92.731 330.452 C 94.397 330.903 96.769 331.093 97.922 330.965 C 99.141 330.837 102.79 330.262 105.931 329.745 C 109.072 329.233 114.007 328.08 116.763 327.117 C 119.582 326.22 125.603 323.782 130.219 321.794 L 138.613 318.136 L 139.699 313.064 C 140.34 310.308 141.109 305.815 141.493 303.187 C 141.944 300.554 142.072 297.157 141.816 295.681 C 141.493 293.304 141.047 292.73 139.059 291.701 C 137.716 291.06 131.178 289.006 124.516 287.146 C 117.788 285.353 99.782 280.219 84.466 275.793 C 59.798 268.672 55.95 267.709 50.826 267.514 Z M 237.802 299.657 C 236.392 299.467 234.599 299.723 233.446 300.236 C 232.293 300.748 229.346 303.955 226.205 308.064 C 223.321 311.911 212.877 325.898 203.075 339.115 C 189.681 357.077 185.325 363.43 185.709 364.137 C 186.027 364.711 187.949 366.831 190.065 368.881 C 192.115 370.873 195.256 373.568 196.921 374.787 C 198.653 375.94 201.599 377.544 203.587 378.313 C 206.596 379.404 207.559 379.532 209.547 378.958 C 210.956 378.507 215.824 374.977 221.717 370.1 C 227.102 365.612 234.661 359.26 238.57 355.924 C 242.48 352.589 249.53 346.236 254.271 341.81 C 259.011 337.383 263.243 333.147 263.689 332.44 C 264.14 331.671 264.458 329.94 264.524 328.464 C 264.524 326.794 263.817 324.36 262.474 321.727 C 260.999 318.648 258.626 315.759 253.051 310.18 C 248.952 306.071 244.402 302.095 242.931 301.389 C 241.517 300.62 239.211 299.851 237.802 299.657 Z M 237.802 299.657"/>
    <path style="stroke: none; fill-rule: nonzero; fill: rgb(192, 192, 192); fill-opacity: 1;" d="M 485.755 217.856 L 489.148 217.856 L 492.93 225.362 C 494.979 229.532 498.187 236.397 500.108 240.634 C 502.03 244.866 504.402 249.809 505.427 251.541 C 506.386 253.272 507.667 256.29 508.307 258.15 C 508.886 260.071 509.142 261.807 508.886 262.125 C 508.564 262.382 504.72 263.667 500.298 264.886 C 495.876 266.167 490.301 267.643 487.805 268.222 C 485.305 268.734 478.192 270.66 471.915 272.454 C 465.633 274.252 460.381 275.599 460.314 275.471 C 460.252 275.405 457.24 269.825 453.714 263.088 C 450.127 256.352 445.449 247.627 443.333 243.585 C 441.155 239.542 439.428 235.628 439.428 234.794 C 439.428 233.835 440.13 232.934 441.478 232.099 C 442.631 231.396 446.346 229.793 449.677 228.574 C 453.012 227.354 460.955 224.788 467.237 222.99 C 473.58 221.192 479.54 219.27 480.498 218.758 C 481.523 218.241 483.829 217.856 485.755 217.856 Z M 427.699 237.104 C 431.865 237.104 432.444 237.232 433.34 238.579 C 433.853 239.414 436.287 244.353 438.659 249.681 C 441.093 254.942 445.131 263.411 447.693 268.54 C 451.793 276.818 452.177 277.91 451.152 278.294 C 450.512 278.55 444.68 280.282 438.147 282.208 C 431.609 284.134 425.137 285.866 423.789 286.056 C 422.318 286.312 420.525 287.213 419.434 288.176 C 417.768 289.842 417.64 290.226 417.702 295.103 C 417.702 297.992 417.958 302.803 418.153 305.882 C 418.409 309.023 418.475 311.528 418.281 311.528 C 418.091 311.528 412.193 302.993 405.147 292.536 C 398.096 282.08 391.046 271.301 389.447 268.606 C 387.843 265.911 386.05 263.022 385.475 262.125 C 384.83 261.29 384.318 260.071 384.318 259.497 C 384.318 258.918 385.988 256.992 388.038 255.26 C 390.021 253.529 393.1 251.156 394.766 249.999 C 396.493 248.846 402.006 245.895 407.069 243.456 C 412.193 241.084 417.83 238.646 419.628 238.133 C 421.483 237.555 425.075 237.104 427.699 237.104 Z M 374.71 263.601 L 378.23 263.345 L 380.731 267.064 C 382.14 269.118 386.885 276.434 391.24 283.299 C 395.662 290.164 404.056 303.766 409.949 313.454 C 415.847 323.142 421.868 333.404 423.405 336.227 C 424.947 339.049 427.443 343.476 429.046 346.043 C 430.584 348.609 431.737 350.853 431.547 351.114 C 431.352 351.304 428.468 352.011 425.203 352.718 C 421.934 353.358 414.309 354.834 408.35 355.925 C 402.39 357.016 395.212 358.041 392.393 358.169 C 387.843 358.425 387.269 358.363 385.793 356.95 C 384.897 356.115 380.475 351.432 376.053 346.493 C 371.569 341.554 365.804 334.945 363.237 331.8 C 360.675 328.593 355.868 321.984 352.604 317.045 C 349.335 312.04 344.785 304.406 342.412 300.042 C 340.106 295.615 338.185 291.383 338.185 290.548 C 338.185 289.652 339.081 287.659 340.234 285.994 C 341.387 284.324 344.078 281.245 346.26 279.063 C 348.5 276.88 352.348 273.739 354.972 272.008 C 357.534 270.338 362.278 267.771 365.419 266.362 C 369.135 264.758 372.404 263.795 374.71 263.601 Z M 515.998 267.515 C 519.139 267.387 522.214 267.453 522.727 267.643 C 523.239 267.837 524.843 268.606 526.252 269.247 C 527.661 269.887 529.455 271.363 530.223 272.52 C 530.992 273.673 534.579 283.171 538.104 293.561 C 541.691 303.956 546.436 317.814 548.676 324.356 C 550.92 330.903 554.061 340.847 555.726 346.493 C 557.392 352.139 559.251 357.59 559.892 358.681 C 560.466 359.773 561.173 361.571 561.429 362.724 C 561.619 364.009 561.429 365.741 560.851 367.088 C 560.276 368.436 549.511 379.661 531.504 397.627 C 515.804 413.279 498.761 430.088 493.636 434.965 L 484.28 443.884 L 484.28 450.555 C 484.28 454.213 484.664 459.986 485.177 463.45 C 485.689 466.851 486.714 475.899 487.421 483.47 C 488.19 491.038 489.343 503.359 490.045 510.736 C 490.752 518.113 491.649 526.454 492.099 529.211 C 492.545 532.228 492.612 534.41 492.227 534.666 C 491.905 534.923 488.061 536.336 483.639 537.812 C 479.217 539.287 473.324 541.081 470.44 541.788 C 467.621 542.494 461.595 543.714 456.983 544.544 C 449.805 545.763 446.284 545.958 430.456 545.958 C 416.231 546.02 410.656 545.763 405.147 544.933 C 401.237 544.288 394.956 543.135 391.046 542.238 C 387.141 541.337 380.413 539.477 375.991 538.068 C 371.569 536.592 364.841 534.088 360.931 532.356 L 353.885 529.277 L 353.885 525.429 C 353.947 523.375 354.203 516.126 354.459 509.451 C 354.715 502.714 355.678 492.129 356.509 485.843 C 357.344 479.556 358.046 472.497 358.046 470.253 C 358.046 467.943 358.369 464.028 358.819 461.59 L 359.522 457.102 L 357.6 455.047 C 356.509 453.89 352.091 450.109 347.797 446.579 C 343.437 443.049 338.441 438.556 336.581 436.635 C 334.788 434.709 332.097 431.502 330.688 429.575 C 328.766 427.009 327.035 423.289 324.472 415.974 C 322.484 410.394 319.41 400.896 317.678 394.804 C 315.884 388.646 313.901 379.983 313.132 375.106 C 312.041 367.534 311.913 365.613 312.554 360.607 C 312.938 357.462 313.517 354.577 313.835 354.255 C 314.091 353.999 322.356 360.029 332.225 367.729 C 342.028 375.362 351.703 382.934 353.691 384.476 C 355.678 386.013 357.728 387.233 358.241 387.233 C 358.819 387.233 365.419 383.062 372.978 377.995 C 380.541 372.862 388.422 367.857 390.534 366.832 C 393.741 365.228 396.559 364.65 410.271 362.662 C 419.049 361.376 430.646 359.901 435.964 359.326 C 441.283 358.748 446.284 358.363 447.114 358.491 C 448.334 358.62 447.309 359.516 441.606 363.236 C 437.758 365.741 432.315 369.589 429.493 371.899 C 426.674 374.143 421.678 378.764 418.281 382.099 C 414.95 385.435 409.949 390.824 407.259 394.031 C 404.568 397.243 400.725 402.244 398.803 405.133 C 396.877 407.956 394.315 412.833 393.034 415.845 C 391.753 418.925 390.149 423.612 389.509 426.306 C 388.806 429.001 387.909 433.361 387.525 435.994 C 387.141 438.623 386.885 442.537 387.013 444.653 C 387.203 448.439 387.203 448.505 389.575 449.335 C 390.918 449.72 394.125 450.493 396.621 450.939 C 400.469 451.646 402.196 451.646 406.362 450.877 C 409.118 450.427 411.553 450.17 411.681 450.365 C 411.875 450.555 410.656 457.102 408.99 464.992 C 407.387 472.881 404.118 488.087 401.878 498.804 C 399.572 509.517 397.84 518.37 397.968 518.498 C 398.096 518.692 401.75 509.579 406.106 498.415 C 410.461 487.19 416.871 470.381 420.33 461.078 C 423.789 451.774 426.612 443.818 426.612 443.372 C 426.612 442.921 424.43 442.342 420.971 441.896 C 417.896 441.446 412.388 440.805 408.734 440.483 C 404.758 440.098 401.427 439.458 400.531 438.879 C 399.378 438.11 399.06 437.342 399.06 435.093 C 399.06 433.556 399.762 429.77 400.659 426.691 C 401.555 423.612 403.672 418.35 405.337 414.949 C 407.069 411.485 410.077 406.224 412.065 403.207 C 414.053 400.128 418.153 394.804 421.037 391.341 C 424.624 387.104 429.364 382.55 435.324 377.739 C 440.196 373.759 448.718 367.278 454.227 363.43 C 459.74 359.583 466.658 355.284 469.605 353.871 C 473.002 352.267 478.064 350.597 483.317 349.378 C 487.867 348.291 495.814 346.877 500.877 346.171 C 506.001 345.468 510.229 344.761 510.357 344.695 C 510.423 344.567 507.795 344.121 504.53 343.67 C 501.195 343.22 497.48 342.579 496.199 342.257 C 494.851 341.872 493.058 340.591 491.649 338.921 C 490.367 337.446 489.214 335.652 489.02 334.945 C 488.83 334.111 489.727 331.221 491.202 327.824 C 492.545 324.679 494.339 320.381 495.108 318.265 L 496.517 314.412 L 494.723 316.016 C 493.765 316.917 490.88 319.546 488.446 321.794 C 485.945 324.1 482.358 326.795 480.498 327.824 C 478.643 328.787 475.758 330.007 474.093 330.453 C 472.427 330.903 470.055 331.093 468.902 330.965 C 467.683 330.837 464.03 330.263 460.893 329.746 C 457.752 329.234 452.818 328.081 450.061 327.117 C 447.243 326.221 441.221 323.782 436.605 321.794 L 428.211 318.136 L 427.125 313.065 C 426.484 310.308 425.715 305.816 425.331 303.187 C 424.881 300.554 424.752 297.157 425.009 295.682 C 425.331 293.305 425.777 292.731 427.765 291.701 C 429.108 291.061 435.646 289.007 442.308 287.147 C 449.036 285.349 467.042 280.22 482.358 275.793 C 507.026 268.672 510.874 267.709 515.998 267.515 Z M 329.023 299.658 C 330.432 299.468 332.225 299.724 333.378 300.236 C 334.531 300.749 337.478 303.956 340.619 308.064 C 343.503 311.912 353.947 325.898 363.749 339.116 C 377.144 357.078 381.499 363.43 381.115 364.137 C 380.797 364.711 378.875 366.832 376.759 368.882 C 374.71 370.874 371.569 373.569 369.903 374.788 C 368.172 375.941 365.225 377.545 363.237 378.313 C 360.229 379.404 359.266 379.533 357.278 378.958 C 355.868 378.508 351 374.978 345.103 370.101 C 339.722 365.613 332.159 359.26 328.254 355.925 C 324.344 352.589 317.294 346.237 312.554 341.81 C 307.813 337.384 303.581 333.148 303.135 332.441 C 302.685 331.672 302.367 329.94 302.3 328.465 C 302.3 326.795 303.007 324.356 304.35 321.728 C 305.826 318.649 308.198 315.76 313.773 310.18 C 317.872 306.072 322.423 302.096 323.894 301.389 C 325.303 300.621 327.613 299.852 329.023 299.658 Z M 329.023 299.658"/>
    <path style="stroke: none; fill-rule: nonzero; fill: rgb(255, 204, 153); fill-opacity: 1;" d="M 400.857 -10.95 C 399.951 -10.95 397.468 -9.707 395.401 -8.301 C 393.329 -6.808 387.623 -2.254 382.828 1.889 C 376.955 6.855 374.06 9.837 374.06 10.997 C 374.06 12.158 376.789 15.057 382.495 19.777 C 387.211 23.67 392.835 28.224 395.068 29.88 C 397.301 31.535 399.951 32.945 400.857 32.945 C 401.935 32.945 406.647 29.63 412.191 25.159 C 417.319 20.854 423.109 16.051 424.847 14.474 C 426.997 12.653 427.908 11.247 427.576 10.419 C 427.326 9.67 421.62 4.538 414.836 -0.931 C 407.974 -6.562 401.851 -10.95 400.857 -10.95 Z M 220.373 -10.123 C 219.791 -10.123 219.046 -9.295 218.635 -8.301 C 218.302 -7.224 217.724 -5.153 217.474 -3.664 C 216.979 -1.26 217.312 -0.432 220.619 2.962 C 223.68 6.277 225.002 7.104 229.057 7.932 C 231.703 8.431 235.425 9.67 237.33 10.665 C 239.231 11.575 240.969 12.902 241.214 13.563 C 241.464 14.229 240.886 16.712 239.892 19.112 C 238.32 23.005 238.153 24.826 238.32 38.659 C 238.486 47.356 238.898 54.643 239.397 55.803 C 239.892 56.88 241.876 58.536 243.781 59.447 C 245.681 60.357 247.669 61.102 248.164 61.102 C 248.659 61.102 249.321 60.274 249.487 59.28 C 249.736 58.203 250.481 54.476 251.142 50.916 C 251.804 47.356 253.293 42.469 254.37 40.065 C 255.526 37.499 257.181 35.345 258.088 35.099 C 259.082 34.767 260.821 32.284 262.393 28.969 C 263.882 25.903 267.849 17.124 271.16 9.425 C 275.872 -1.343 277.033 -4.82 276.371 -5.652 C 275.627 -6.562 270.91 -6.808 253.704 -6.808 C 234.269 -6.808 231.374 -6.974 226.658 -8.467 C 223.846 -9.378 220.951 -10.123 220.373 -10.123 Z M 129.301 20.522 C 128.557 20.522 126.407 21.599 124.502 22.838 C 122.518 24.165 116.728 28.719 111.517 33.028 C 104.734 38.576 102.005 41.309 101.922 42.636 C 101.922 43.958 104.817 46.857 112.84 53.566 C 118.796 58.536 124.918 63.34 126.407 64.084 L 129.052 65.494 L 133.436 62.346 C 135.919 60.607 141.874 55.886 146.753 51.827 C 152.214 47.356 155.687 43.792 155.687 42.881 C 155.687 42.053 153.37 39.321 150.559 36.838 C 147.664 34.351 142.041 29.713 137.986 26.403 C 133.93 23.171 129.963 20.522 129.301 20.522 Z M 192 62.761 C 191.006 62.761 190.095 63.589 189.6 64.912 C 189.105 66.072 188.527 68.476 188.277 70.215 C 187.866 72.781 188.277 74.436 190.76 79.323 C 192.412 82.638 193.738 86.032 193.738 86.942 C 193.738 87.77 193.156 89.592 192.495 90.919 C 191.75 92.324 190.839 93.402 190.428 93.402 C 190.016 93.402 188.361 94.562 186.788 95.889 C 185.216 97.294 183.316 100.193 182.488 102.348 C 181.66 104.502 180.421 106.985 179.755 107.813 C 179.011 108.724 173.305 113.943 167.02 119.575 C 160.815 125.123 150.475 133.903 144.108 138.952 C 137.819 144.005 132.362 148.892 132.113 149.803 C 131.863 150.631 130.624 152.124 129.385 153.118 C 127.48 154.607 126.49 154.773 122.435 154.357 C 119.207 153.946 116.895 154.112 114.99 155.023 C 113.501 155.601 107.628 160.155 101.922 165.042 C 96.216 169.929 88.106 177.299 83.888 181.441 C 79.671 185.663 75.121 190.799 73.798 192.871 C 72.392 194.942 71.315 197.674 71.315 198.835 C 71.315 200.074 71.565 201.068 71.814 201.068 C 72.143 201.068 74.459 199.908 77.021 198.419 C 79.588 197.009 89.927 190.633 100.1 184.34 C 110.194 178.043 121.524 170.84 125.246 168.357 C 128.885 165.787 133.602 162.888 135.752 161.81 C 137.819 160.737 141.458 159.327 143.692 158.583 C 145.925 157.838 149.402 157.007 151.386 156.761 C 154.364 156.262 159.326 152.785 184.06 133.82 C 200.023 121.563 215.74 109.967 218.963 108.062 C 222.108 106.157 226.325 103.009 228.396 101.104 C 231.536 98.122 231.952 97.294 231.374 95.306 C 231.125 94.067 230.214 92.324 229.469 91.413 C 228.725 90.586 226.99 89.346 225.58 88.681 C 224.258 87.936 219.13 83.794 214.251 79.489 C 209.368 75.18 202.751 69.632 199.528 67.232 C 196.3 64.745 192.911 62.761 192 62.761 Z M 489.118 88.515 C 487.462 88.598 479.439 89.263 471.25 90.091 C 463.061 90.919 451.894 92.245 446.437 92.99 C 440.976 93.734 432.458 95.223 427.409 96.3 C 420.958 97.71 410.29 98.954 391.017 100.443 C 376.044 101.603 355.86 103.259 346.348 104.253 C 336.836 105.163 322.608 106.819 314.918 107.896 C 307.224 109.056 299.779 110.3 298.456 110.629 C 297.134 110.961 295.89 111.706 295.728 112.205 C 295.561 112.7 296.306 114.11 297.379 115.432 L 299.45 117.753 L 368.35 117.504 C 415.335 117.337 440.893 117.587 448.421 118.248 C 456.86 118.992 460 118.992 461.822 118.248 C 463.144 117.67 465.045 117.42 466.122 117.753 C 467.278 117.998 469.183 119.325 470.589 120.735 C 471.912 122.058 474.561 123.713 476.462 124.379 C 478.445 125.123 481.59 126.945 483.411 128.517 C 485.312 130.176 488.041 131.915 489.613 132.41 C 491.268 132.909 492.84 132.992 493.252 132.576 C 493.585 132.248 493.996 122.64 493.996 111.373 C 494.08 96.55 493.834 90.503 493.09 89.592 C 492.591 88.93 490.856 88.515 489.118 88.515 Z M 490.524 149.803 C 490.357 149.886 486.389 150.302 481.59 150.631 C 476.794 151.047 464.883 152.124 455.121 153.118 C 445.36 154.029 436.925 155.185 436.509 155.518 C 436.098 155.85 433.615 156.595 431.132 157.09 C 428.653 157.589 421.952 158.5 416.242 159.244 C 410.536 159.906 399.951 160.983 392.668 161.731 C 385.39 162.393 367.11 163.882 352.138 165.042 C 337.086 166.202 319.218 168.024 312.352 169.185 C 305.485 170.262 298.868 171.584 297.629 172.083 C 296.472 172.495 295.478 173.24 295.478 173.656 C 295.478 174.15 296.389 175.56 297.462 176.804 L 299.45 179.121 L 323.353 179.37 C 336.42 179.453 367.277 179.287 391.845 178.954 C 423.77 178.459 439.57 178.542 447.265 179.287 C 453.137 179.786 460.166 180.031 462.732 179.786 C 467.116 179.37 467.694 179.453 470.339 181.853 C 471.912 183.18 474.64 184.752 476.378 185.334 C 478.117 185.912 480.845 187.568 482.417 189.061 C 483.99 190.55 486.468 192.371 487.957 193.12 C 489.446 193.865 491.351 194.443 492.345 194.443 C 493.996 194.443 493.996 194.031 493.996 172.911 C 493.996 152.536 493.913 151.375 492.424 150.548 C 491.518 150.136 490.69 149.803 490.524 149.803 Z M 490.524 149.803"/>
  </g>
</svg>