<?xml version="1.0" encoding="utf-8"?>
<svg viewBox="796.989 32.567 511.545 512.226" width="511.545" height="512.226" xmlns="http://www.w3.org/2000/svg">
  <g id="g-7" transform="matrix(0.9871060848236084, 0, 0, 0.9871060848236084, 777.8906860351562, 29.14834213256836)">
    <title>Untangle</title>
    <path style="stroke: none; fill-rule: evenodd; fill: rgb(192, 192, 192); fill-opacity: 1;" d="M 492.696 208.448 C 495.723 190.438 489.279 176.435 473.357 166.448 C 474.815 173.462 467.78 187.996 452.254 210.051 C 436.727 232.047 433.476 253.172 442.499 273.432 C 428.654 263.835 423.356 246.216 426.607 220.569 C 400.99 265.015 403.71 297.222 434.763 317.201 C 465.762 337.063 481.401 352.942 481.683 364.84 C 491.828 343.35 491.633 324.916 481.094 309.539 C 470.666 294.22 467.249 278.901 470.837 263.582 C 478.851 277.219 489.279 289.395 502.114 300.113 C 510.577 307.126 512.903 316.246 509.091 327.47 C 536.054 302.106 543.873 280.583 532.553 262.909 C 520.892 249.218 511.923 235.103 505.644 220.569 C 498.917 229.605 496.703 239.48 499.004 250.198 C 486.334 242.288 484.233 228.372 492.696 208.448"/>
    <path style="stroke: none; fill-rule: evenodd; fill: rgb(192, 192, 192); fill-opacity: 1;" d="M 121.988 346.48 C 121.988 342.136 120.293 338.266 116.896 334.869 C 113.641 331.372 109.895 329.628 105.647 329.628 C 100.793 329.628 96.665 331.372 93.268 334.869 C 89.875 338.266 88.177 342.136 88.177 346.48 C 88.177 351.156 89.992 355.474 93.625 359.44 C 95.98 361.329 97.728 362.343 98.858 362.484 L 98.858 408.798 L 92.421 397.818 L 93.056 396.473 L 93.625 395.273 C 94.755 393.006 94.447 390.693 92.703 388.33 C 90.253 384.036 86.479 383.043 81.387 385.356 C 79.594 386.303 78.389 388.002 77.779 390.456 C 77.26 392.723 77.447 394.775 78.344 396.618 C 79.382 398.79 81.317 400.206 84.145 400.867 L 87.542 400.867 L 94.472 412.834 L 53.233 388.899 L 53.303 386.137 C 53.49 385.286 53.469 384.318 53.233 383.234 C 52.572 378.231 49.836 374.381 45.027 371.69 C 41.066 369.564 36.867 369.045 32.436 370.133 C 27.815 371.217 24.301 373.675 21.893 377.496 C 19.866 381.839 19.372 386.303 20.41 390.879 C 21.494 395.505 24.135 398.836 28.334 400.867 C 30.738 402.092 33.072 402.918 35.335 403.346 C 37.503 403.91 39.816 403.699 42.266 402.706 L 45.027 401.219 L 47.714 399.239 L 88.106 422.888 L 73.817 422.888 C 73.817 421.991 73.464 421.094 72.754 420.197 C 70.964 418.449 68.793 417.577 66.247 417.577 C 60.919 417.577 58.253 420.338 58.253 425.861 C 58.253 431.384 60.919 434.146 66.247 434.146 C 69.312 434.146 71.483 433.319 72.754 431.671 C 73.464 430.441 73.817 429.428 73.817 428.623 L 87.612 428.623 L 46.867 452.488 C 45.924 451.782 44.977 451.283 44.035 451.001 L 41.136 449.797 C 36.278 448.24 31.751 448.642 27.553 451.001 C 23.782 453.36 21.258 456.761 19.983 461.2 C 18.712 465.685 19.347 470.003 21.893 474.156 C 24.301 478.454 27.815 481.236 32.436 482.511 C 36.867 483.786 41.066 483.176 45.027 480.672 C 49.836 477.885 52.572 473.683 53.233 468.068 C 53.469 467.217 53.49 466.345 53.303 465.448 L 53.233 462.828 L 94.472 438.821 L 86.973 451.707 L 86.055 451.566 L 84.145 451.707 C 81.408 452.654 79.477 453.929 78.344 455.532 C 76.317 460.253 77.33 464.032 81.387 466.864 C 86.101 469.459 89.875 468.587 92.703 464.244 C 94.73 461.694 95.037 459.169 93.625 456.665 C 93.247 455.673 92.587 454.967 91.644 454.543 L 98.858 442.787 L 98.858 489.666 C 96.64 490.704 94.896 491.813 93.625 492.992 C 89.992 496.252 88.177 500.5 88.177 505.741 C 88.177 510.08 89.875 513.955 93.268 517.352 C 96.665 520.703 100.793 522.38 105.647 522.38 C 109.895 522.38 113.641 520.703 116.896 517.352 C 120.293 513.955 121.988 510.08 121.988 505.741 C 121.988 500.309 120.082 495.849 116.261 492.357 L 113.641 490.8 L 111.025 489.666 L 111.025 441.724 L 118.313 454.543 C 118.454 454.684 118.217 454.942 117.602 455.32 L 117.179 456.665 C 116.191 459.261 116.448 461.79 117.955 464.244 C 120.268 468.587 123.757 469.459 128.428 466.864 C 133.474 464.032 134.487 460.253 131.468 455.532 C 130.193 453.455 128.57 452.18 126.589 451.707 C 125.127 451.283 123.993 451.283 123.192 451.707 L 115.979 439.033 L 158.207 462.828 C 157.546 464.053 157.36 465.801 157.642 468.068 C 158.68 474.393 161.342 478.595 165.636 480.672 C 169.502 482.702 173.7 483.246 178.226 482.299 C 182.753 481.357 186.175 478.641 188.483 474.156 C 190.323 470.473 190.676 466.532 189.547 462.329 C 188.459 458.036 186.054 454.755 182.329 452.488 C 177.849 449.892 173.418 449.394 169.033 451.001 L 165.495 452.488 L 122.415 428.623 L 136.493 428.623 L 136.634 429.403 L 137.622 431.671 C 138.328 433.319 140.309 434.146 143.565 434.146 C 149.461 434.146 152.406 431.384 152.406 425.861 C 152.406 420.338 149.461 417.577 143.565 417.577 C 140.878 417.577 139.013 418.449 137.975 420.197 L 136.493 422.888 L 121.988 422.888 L 164.855 399.239 C 164.855 399.426 165.872 399.97 167.899 400.867 C 172.047 402.897 176.86 402.897 182.329 400.867 C 186.291 398.836 188.978 395.505 190.394 390.879 C 191.81 386.349 191.17 382.051 188.483 377.994 C 186.079 373.933 182.707 371.524 178.368 370.768 C 174.078 369.967 170.092 370.627 166.412 372.753 C 162.501 375.021 159.951 378.7 158.771 383.799 L 158.701 386.208 L 158.771 388.899 L 116.332 412.407 L 123.192 400.867 L 125.879 400.867 C 128.287 400.867 130.147 399.45 131.468 396.618 C 132.93 394.775 133.378 392.723 132.813 390.456 C 132.436 388.002 131.256 386.303 129.275 385.356 C 123.806 383.234 120.032 384.223 117.955 388.33 C 116.639 390.643 116.377 392.96 117.179 395.273 L 117.602 396.473 C 118.217 396.901 118.454 397.349 118.313 397.818 L 111.025 410.496 L 111.025 362.484 C 111.78 362.438 113.525 361.637 116.261 360.075 C 120.082 355.877 121.988 351.342 121.988 346.48"/>
    <path style="stroke: none; fill-rule: evenodd; fill: rgb(192, 192, 192); fill-opacity: 1;" d="M 26.954 3.463 L 70.909 72.999 L 30.209 72.999 L 146.337 190.335 L 87.187 97.985 L 134.398 97.985 L 74.165 3.463 L 26.954 3.463"/>
    <path id="path-1" d="M 237.345 99.712 C 233.892 99.712 232.323 100.339 229.812 102.955 L 226.569 106.199 L 227.197 134.446 C 227.615 150.035 227.929 167.716 227.929 173.575 L 227.929 184.456 L 230.858 185.083 C 232.427 185.397 234.939 186.13 236.612 186.758 C 238.181 187.385 240.797 189.373 242.471 191.257 C 245.401 194.604 245.505 194.709 246.133 192.512 C 246.447 191.257 246.761 170.96 246.761 147.524 L 246.761 104.838 L 244.145 102.327 C 242.262 100.339 240.483 99.712 237.345 99.712 Z M 206.586 128.065 C 205.958 128.065 204.493 128.483 203.342 128.902 C 202.191 129.424 200.308 130.889 199.157 132.145 C 197.17 134.342 197.065 135.911 197.065 172.842 C 197.065 202.346 197.379 212.076 198.53 215.319 C 199.263 217.621 209.62 240.743 221.337 266.584 C 233.16 292.426 243.831 315.024 244.878 316.594 C 246.029 318.267 255.968 327.578 267.058 337.309 C 278.042 347.143 288.61 357.186 290.493 359.698 C 292.376 362.209 294.887 366.917 296.037 370.055 C 297.816 375.181 298.025 378.739 298.025 399.35 C 298.025 412.218 298.339 423.517 298.653 424.459 C 299.176 425.923 302.942 426.132 329.621 426.132 L 359.857 426.132 L 359.543 375.077 C 359.229 324.65 359.229 324.022 356.823 317.325 C 355.463 313.56 352.952 307.91 351.278 304.666 C 349.5 301.528 345.838 295.983 342.909 292.426 C 340.083 288.868 334.853 283.638 331.191 280.708 C 327.634 277.884 321.566 273.803 317.799 271.815 L 310.79 268.153 L 292.69 268.153 C 276.473 268.153 274.171 267.945 270.092 265.956 C 267.058 264.492 264.86 262.503 263.5 259.889 C 262.454 257.796 255.862 243.044 248.853 227.351 C 241.948 211.552 235.253 197.742 233.996 196.801 C 232.846 195.755 230.231 194.918 228.242 194.918 C 225.628 194.918 223.744 195.755 221.547 197.952 C 219.873 199.731 218.513 202.137 218.513 203.602 C 218.513 205.067 226.255 223.48 235.775 244.614 C 247.284 269.932 252.934 283.638 252.515 284.997 C 252.097 286.044 250.632 287.299 249.167 287.613 C 247.388 288.136 246.029 287.717 244.668 286.358 C 243.623 285.207 235.253 267.526 225.941 246.915 C 211.503 214.692 209.096 208.624 209.096 204.229 C 209.096 201.091 209.934 197.429 211.189 194.918 C 212.34 192.721 214.328 190.106 215.583 189.268 C 217.885 187.594 217.885 187.49 217.572 161.753 C 217.362 142.398 216.944 135.179 215.793 133.087 C 215.06 131.517 212.863 129.738 211.085 129.11 C 209.202 128.483 207.213 127.96 206.586 128.065 Z M 265.174 129.006 C 262.873 129.006 260.99 129.843 259.211 131.726 L 256.7 134.446 L 256.386 176.923 L 256.072 219.504 L 264.232 237.709 C 268.731 247.752 273.021 256.122 273.753 256.436 C 274.695 256.749 275.008 243.777 275.008 196.487 C 275.008 145.641 274.8 135.807 273.439 133.295 C 272.602 131.622 271.137 130.053 270.301 129.634 C 269.359 129.32 267.058 129.006 265.174 129.006 Z M 295.201 181.422 C 294.154 181.422 292.376 181.84 291.225 182.259 C 290.075 182.781 288.191 184.246 287.04 185.502 C 285.053 187.699 284.947 189.478 284.634 222.748 L 284.32 257.691 L 294.887 257.691 L 305.349 257.691 L 305.349 223.689 C 305.349 199.626 305.035 188.955 304.093 187.072 C 303.361 185.502 301.583 183.619 300.014 182.781 C 298.339 181.945 296.247 181.318 295.201 181.422 Z" style="fill: rgb(192, 192, 192);"/>
  </g>
</svg>