<?xml version="1.0" encoding="utf-8"?>
<svg viewBox="796.989 32.567 511.545 512.226" width="511.545" height="512.226" xmlns="http://www.w3.org/2000/svg">
  <g>
    <title>Campfire</title>
  </g>
  <g transform="matrix(1.0140219926834106, 0, 0, 1.0140219926834106, 759.4735107421875, 539.8511962890625)" style="">
    <title>New Spellsiphon</title>
    <g transform="matrix(0.955446, 0, 0, 0.955446, 28.368732, -517.643127)" style="">
      <path style=" stroke:none;fill-rule:evenodd;fill:rgb(87.843137%,51.372549%,0%);fill-opacity:1;" d="M 267.867188 126.484375 C 264.199219 104.660156 272.007812 87.699219 291.296875 75.597656 C 289.53125 84.09375 298.054688 101.703125 316.863281 128.421875 C 335.675781 155.070312 339.617188 180.667969 328.683594 205.210938 C 345.457031 193.585938 351.875 172.238281 347.933594 141.167969 C 378.972656 195.011719 375.679688 234.035156 338.054688 258.238281 C 300.5 282.304688 281.550781 301.542969 281.210938 315.957031 C 268.917969 289.917969 269.15625 267.585938 281.925781 248.957031 C 294.554688 230.398438 298.699219 211.839844 294.351562 193.277344 C 284.640625 209.796875 272.007812 224.550781 256.457031 237.535156 C 246.203125 246.035156 243.382812 257.082031 248 270.679688 C 215.335938 239.949219 205.863281 213.878906 219.578125 192.460938 C 233.707031 175.875 244.570312 158.777344 252.179688 141.167969 C 260.328125 152.113281 263.011719 164.078125 260.226562 177.0625 C 275.574219 167.476562 278.121094 150.617188 267.867188 126.484375 "/>
      <path style=" stroke:none;fill-rule:evenodd;fill:rgb(21.960784%,100%,100%);fill-opacity:1;" d="M 102.820312 33.269531 C 102.820312 29.378906 104.339844 25.914062 107.378906 22.875 C 110.289062 19.746094 113.644531 18.183594 117.445312 18.183594 C 121.792969 18.183594 125.488281 19.746094 128.527344 22.875 C 131.566406 25.914062 133.085938 29.378906 133.085938 33.269531 C 133.085938 37.453125 131.460938 41.316406 128.210938 44.867188 C 126.097656 46.558594 124.535156 47.464844 123.523438 47.59375 L 123.523438 89.046875 L 129.285156 79.222656 L 128.714844 78.019531 L 128.210938 76.941406 C 127.195312 74.910156 127.472656 72.839844 129.03125 70.726562 C 131.226562 66.882812 134.605469 65.996094 139.164062 68.066406 C 140.765625 68.910156 141.84375 70.433594 142.394531 72.628906 C 142.855469 74.660156 142.6875 76.496094 141.886719 78.144531 C 140.957031 80.089844 139.226562 81.355469 136.695312 81.949219 L 133.65625 81.949219 L 127.449219 92.660156 L 164.363281 71.234375 L 164.300781 68.761719 C 164.132812 68.003906 164.152344 67.136719 164.363281 66.164062 C 164.953125 61.6875 167.402344 58.242188 171.707031 55.832031 C 175.253906 53.929688 179.011719 53.464844 182.980469 54.4375 C 187.117188 55.410156 190.261719 57.609375 192.414062 61.03125 C 194.230469 64.917969 194.671875 68.910156 193.742188 73.011719 C 192.773438 77.152344 190.410156 80.128906 186.652344 81.949219 C 184.5 83.046875 182.410156 83.785156 180.382812 84.164062 C 178.441406 84.671875 176.375 84.484375 174.179688 83.59375 L 171.707031 82.265625 L 169.300781 80.488281 L 133.148438 101.660156 L 145.9375 101.660156 C 145.9375 100.855469 146.253906 100.054688 146.886719 99.25 C 148.492188 97.6875 150.433594 96.90625 152.714844 96.90625 C 157.484375 96.90625 159.867188 99.378906 159.867188 104.320312 C 159.867188 109.265625 157.484375 111.738281 152.714844 111.738281 C 149.96875 111.738281 148.027344 111 146.886719 109.519531 C 146.253906 108.421875 145.9375 107.511719 145.9375 106.792969 L 133.589844 106.792969 L 170.0625 128.15625 C 170.90625 127.519531 171.75 127.078125 172.59375 126.824219 L 175.191406 125.746094 C 179.539062 124.351562 183.589844 124.710938 187.347656 126.824219 C 190.726562 128.9375 192.984375 131.980469 194.125 135.949219 C 195.261719 139.964844 194.691406 143.832031 192.414062 147.550781 C 190.261719 151.394531 187.117188 153.890625 182.980469 155.03125 C 179.011719 156.171875 175.253906 155.621094 171.707031 153.382812 C 167.402344 150.890625 164.953125 147.128906 164.363281 142.097656 C 164.152344 141.339844 164.132812 140.558594 164.300781 139.753906 L 164.363281 137.410156 L 127.449219 115.921875 L 134.160156 127.457031 L 134.984375 127.332031 L 136.695312 127.457031 C 139.140625 128.300781 140.871094 129.445312 141.886719 130.878906 C 143.703125 135.105469 142.792969 138.488281 139.164062 141.023438 C 134.941406 143.347656 131.566406 142.5625 129.03125 138.675781 C 127.21875 136.394531 126.941406 134.132812 128.210938 131.894531 C 128.546875 131.007812 129.136719 130.375 129.980469 129.992188 L 123.523438 119.472656 L 123.523438 161.429688 C 125.507812 162.359375 127.070312 163.355469 128.210938 164.410156 C 131.460938 167.328125 133.085938 171.128906 133.085938 175.820312 C 133.085938 179.707031 131.566406 183.171875 128.527344 186.214844 C 125.488281 189.214844 121.792969 190.714844 117.445312 190.714844 C 113.644531 190.714844 110.289062 189.214844 107.378906 186.214844 C 104.339844 183.171875 102.820312 179.707031 102.820312 175.820312 C 102.820312 170.960938 104.527344 166.96875 107.949219 163.839844 L 110.289062 162.445312 L 112.632812 161.429688 L 112.632812 118.519531 L 106.113281 129.992188 C 105.984375 130.121094 106.195312 130.351562 106.746094 130.691406 L 107.125 131.894531 C 108.011719 134.21875 107.777344 136.480469 106.429688 138.675781 C 104.359375 142.5625 101.234375 143.347656 97.058594 141.023438 C 92.539062 138.488281 91.632812 135.105469 94.335938 130.878906 C 95.472656 129.019531 96.929688 127.878906 98.703125 127.457031 C 100.011719 127.078125 101.023438 127.078125 101.742188 127.457031 L 108.199219 116.113281 L 70.398438 137.410156 C 70.992188 138.507812 71.160156 140.070312 70.90625 142.097656 C 69.976562 147.761719 67.59375 151.523438 63.753906 153.382812 C 60.289062 155.199219 56.535156 155.683594 52.480469 154.839844 C 48.429688 153.996094 45.367188 151.566406 43.300781 147.550781 C 41.652344 144.253906 41.335938 140.726562 42.351562 136.964844 C 43.320312 133.121094 45.472656 130.183594 48.808594 128.15625 C 52.820312 125.832031 56.785156 125.386719 60.710938 126.824219 L 63.878906 128.15625 L 102.4375 106.792969 L 89.839844 106.792969 L 89.710938 107.492188 L 88.824219 109.519531 C 88.191406 111 86.417969 111.738281 83.507812 111.738281 C 78.230469 111.738281 75.59375 109.265625 75.59375 104.320312 C 75.59375 99.378906 78.230469 96.90625 83.507812 96.90625 C 85.914062 96.90625 87.582031 97.6875 88.507812 99.25 L 89.839844 101.660156 L 102.820312 101.660156 L 64.449219 80.488281 C 64.449219 80.660156 63.539062 81.144531 61.726562 81.949219 C 58.011719 83.765625 53.707031 83.765625 48.808594 81.949219 C 45.261719 80.128906 42.855469 77.152344 41.589844 73.011719 C 40.324219 68.953125 40.894531 65.109375 43.300781 61.472656 C 45.453125 57.839844 48.472656 55.683594 52.355469 55.007812 C 56.195312 54.289062 59.761719 54.882812 63.054688 56.785156 C 66.558594 58.8125 68.839844 62.109375 69.894531 66.671875 L 69.957031 68.828125 L 69.894531 71.234375 L 107.882812 92.277344 L 101.742188 81.949219 L 99.335938 81.949219 C 97.183594 81.949219 95.515625 80.679688 94.335938 78.144531 C 93.027344 76.496094 92.625 74.660156 93.132812 72.628906 C 93.46875 70.433594 94.523438 68.910156 96.296875 68.066406 C 101.195312 66.164062 104.570312 67.050781 106.429688 70.726562 C 107.609375 72.800781 107.84375 74.871094 107.125 76.941406 L 106.746094 78.019531 C 106.195312 78.398438 105.984375 78.800781 106.113281 79.222656 L 112.632812 90.566406 L 112.632812 47.59375 C 111.957031 47.550781 110.394531 46.832031 107.949219 45.4375 C 104.527344 41.675781 102.820312 37.621094 102.820312 33.269531 "/>
      <path style=" stroke:none;fill-rule:evenodd;fill:rgb(100%,81.568627%,32.941176%);fill-opacity:1;" d="M 505.121 18.184 L 466.246 79.68 L 502.242 79.68 L 399.539 183.446 L 451.852 101.778 L 410.098 101.778 L 463.367 18.184 L 505.121 18.184"/>
    </g>
    <g transform="matrix(0.101845, 0, 0, 0.101845, -93.704704, 156.622498)" fill="#FF9A00" style="">
      <path id="path-22" d="M 5200 -4610 C 5170 -4610 5153 -4604 5135 -4585 L 5110 -4561 L 5110 -4162 C 5110 -3942 5113 -3749 5116 -3732 L 5122 -3702 L 5151 -3735 C 5167 -3753 5192 -3772 5207 -3778 C 5223 -3784 5247 -3791 5262 -3794 L 5290 -3800 L 5290 -3904 C 5290 -3960 5293 -4129 5297 -4278 L 5303 -4548 L 5272 -4579 C 5248 -4604 5233 -4610 5200 -4610 Z M 5505 -4335 C 5489 -4338 5461 -4334 5445 -4326 C 5428 -4319 5409 -4302 5403 -4288 C 5396 -4272 5391 -4172 5389 -4017 C 5386 -3771 5386 -3770 5408 -3754 C 5420 -3746 5439 -3721 5450 -3700 C 5462 -3676 5470 -3641 5470 -3611 C 5470 -3568 5448 -3511 5309 -3203 C 5220 -3006 5140 -2837 5130 -2826 C 5117 -2813 5104 -2809 5087 -2814 C 5073 -2817 5059 -2829 5055 -2839 C 5051 -2852 5105 -2983 5215 -3225 C 5306 -3427 5380 -3604 5380 -3620 C 5380 -3639 5370 -3656 5349 -3674 C 5330 -3691 5306 -3700 5285 -3700 C 5267 -3700 5243 -3692 5232 -3682 C 5220 -3673 5156 -3541 5090 -3390 C 5023 -3240 4960 -3099 4950 -3079 C 4937 -3054 4916 -3035 4887 -3021 C 4848 -3002 4826 -3000 4670 -3000 L 4497 -3000 L 4433 -2965 C 4397 -2945 4344 -2911 4313 -2888 C 4282 -2864 4231 -2815 4200 -2777 C 4168 -2740 4129 -2683 4112 -2652 C 4095 -2621 4071 -2566 4059 -2530 C 4036 -2466 4036 -2457 4032 -1978 L 4029 -1490 L 4318 -1490 C 4573 -1490 4609 -1492 4614 -1506 C 4617 -1515 4620 -1623 4620 -1746 C 4620 -1943 4622 -1977 4639 -2026 C 4650 -2056 4674 -2101 4692 -2125 C 4710 -2149 4811 -2245 4916 -2339 C 5022 -2432 5117 -2521 5128 -2537 C 5139 -2552 5240 -2768 5353 -3015 C 5465 -3262 5564 -3483 5571 -3505 C 5582 -3536 5585 -3629 5585 -3912 L 5585 -4280 L 5560 -4305 C 5546 -4318 5522 -4332 5505 -4335 Z M 4931 -4329 C 4911 -4329 4889 -4326 4882 -4323 C 4875 -4320 4863 -4305 4855 -4290 C 4842 -4265 4840 -4174 4840 -3685 C 4840 -3233 4843 -3109 4852 -3112 C 4859 -3115 4900 -3195 4943 -3291 L 5021 -3465 L 5018 -3872 L 5015 -4278 L 4991 -4304 C 4973 -4323 4957 -4330 4931 -4329 Z M 4657 -3827 C 4625 -3832 4616 -3828 4585 -3797 L 4550 -3762 L 4550 -3431 L 4550 -3100 L 4650 -3100 L 4751 -3100 L 4748 -3435 L 4745 -3770 L 4719 -3795 C 4705 -3809 4677 -3823 4657 -3827 Z" style="fill: rgb(192, 192, 192);"/>
      <path id="path-9" d="M 2320 -4610 C 2287 -4610 2272 -4604 2248 -4579 L 2217 -4548 L 2223 -4278 C 2227 -4129 2230 -3960 2230 -3904 L 2230 -3800 L 2258 -3794 C 2273 -3791 2297 -3784 2313 -3778 C 2328 -3772 2353 -3753 2369 -3735 C 2397 -3703 2398 -3702 2404 -3723 C 2407 -3735 2410 -3929 2410 -4153 L 2410 -4561 L 2385 -4585 C 2367 -4604 2350 -4610 2320 -4610 Z M 2026 -4339 C 2020 -4339 2006 -4335 1995 -4331 C 1984 -4326 1966 -4312 1955 -4300 C 1936 -4279 1935 -4264 1935 -3911 C 1935 -3629 1938 -3536 1949 -3505 C 1956 -3483 2055 -3262 2167 -3015 C 2280 -2768 2382 -2552 2392 -2537 C 2403 -2521 2498 -2432 2604 -2339 C 2709 -2245 2810 -2149 2828 -2125 C 2846 -2101 2870 -2056 2881 -2026 C 2898 -1977 2900 -1943 2900 -1746 C 2900 -1623 2903 -1515 2906 -1506 C 2911 -1492 2947 -1490 3202 -1490 L 3491 -1490 L 3488 -1978 C 3485 -2460 3485 -2466 3462 -2530 C 3449 -2566 3425 -2620 3409 -2651 C 3392 -2681 3357 -2734 3329 -2768 C 3302 -2802 3252 -2852 3217 -2880 C 3183 -2907 3125 -2946 3089 -2965 L 3022 -3000 L 2849 -3000 C 2694 -3000 2672 -3002 2633 -3021 C 2604 -3035 2583 -3054 2570 -3079 C 2560 -3099 2497 -3240 2430 -3390 C 2364 -3541 2300 -3673 2288 -3682 C 2277 -3692 2252 -3700 2233 -3700 C 2208 -3700 2190 -3692 2169 -3671 C 2153 -3654 2140 -3631 2140 -3617 C 2140 -3603 2214 -3427 2305 -3225 C 2415 -2983 2469 -2852 2465 -2839 C 2461 -2829 2447 -2817 2433 -2814 C 2416 -2809 2403 -2813 2390 -2826 C 2380 -2837 2300 -3006 2211 -3203 C 2073 -3511 2050 -3569 2050 -3611 C 2050 -3641 2058 -3676 2070 -3700 C 2081 -3721 2100 -3746 2112 -3754 C 2134 -3770 2134 -3771 2131 -4017 C 2129 -4202 2125 -4271 2114 -4291 C 2107 -4306 2086 -4323 2069 -4329 C 2051 -4335 2032 -4340 2026 -4339 Z M 2586 -4330 C 2564 -4330 2546 -4322 2529 -4304 L 2505 -4278 L 2502 -3872 L 2499 -3465 L 2577 -3291 C 2620 -3195 2661 -3115 2668 -3112 C 2677 -3109 2680 -3233 2680 -3685 C 2680 -4171 2678 -4265 2665 -4289 C 2657 -4305 2643 -4320 2635 -4324 C 2626 -4327 2604 -4330 2586 -4330 Z M 2873 -3829 C 2863 -3829 2846 -3825 2835 -3821 C 2824 -3816 2806 -3802 2795 -3790 C 2776 -3769 2775 -3752 2772 -3434 L 2769 -3100 L 2870 -3100 L 2970 -3100 L 2970 -3425 C 2970 -3655 2967 -3757 2958 -3775 C 2951 -3790 2934 -3808 2919 -3816 C 2903 -3824 2883 -3830 2873 -3829 Z" style="fill: rgb(52, 155, 220);"/>
    </g>
  </g>
</svg>