<?xml version="1.0" encoding="UTF-8" standalone="no"?>
<svg
   viewBox="796.989 32.567 511.545 512.226"
   width="511.54501"
   height="512.22601"
   version="1.1"
   id="svg3"
   sodipodi:docname="Workspace.svg"
   xml:space="preserve"
   inkscape:export-filename="Patches\Alternate Food\SKSE\Plugins\Wheeler\Resources\Icons\food.svg"
   inkscape:export-xdpi="96"
   inkscape:export-ydpi="96"
   inkscape:version="1.3.2 (091e20e, 2023-11-25, custom)"
   xmlns:inkscape="http://www.inkscape.org/namespaces/inkscape"
   xmlns:sodipodi="http://sodipodi.sourceforge.net/DTD/sodipodi-0.dtd"
   xmlns="http://www.w3.org/2000/svg"
   xmlns:svg="http://www.w3.org/2000/svg"><defs
     id="defs3" /><sodipodi:namedview
     id="namedview3"
     pagecolor="#b6b6b6"
     bordercolor="#000000"
     borderopacity="0.25"
     inkscape:showpageshadow="2"
     inkscape:pageopacity="0.0"
     inkscape:pagecheckerboard="0"
     inkscape:deskcolor="#818181"
     inkscape:zoom="0.6001427"
     inkscape:cx="-128.30282"
     inkscape:cy="347.41737"
     inkscape:window-width="1920"
     inkscape:window-height="1017"
     inkscape:window-x="-8"
     inkscape:window-y="-8"
     inkscape:window-maximized="1"
     inkscape:current-layer="svg3"
     inkscape:export-bgcolor="#ffffff00" /><g
     id="g85"
     inkscape:label="Vanilla"
     style="display:inline"
     transform="translate(507.53289)"><g
       id="g54"
       inkscape:label="Water"
       style="image-rendering:auto"
       transform="matrix(6.2940095,0,0,6.8228979,750.64905,-31.996195)"><path
         d="m 84,77.637277 c -1.9073,-0.7849 -3.9388,-1.2251 -6,-1.3 v 0 c -2.0612,0.0749 -4.0927,0.5151 -6,1.3 -1.2805,0.4994 -2.629,0.8028 -4,0.9 v 0 c -1.371,-0.0972 -2.7195,-0.4006 -4,-0.9 -1.9073,-0.7849 -3.9388,-1.2251 -6,-1.3 v 0 c -2.0612,0.0749 -4.0927,0.5151 -6,1.3 -1.2805,0.4994 -2.629,0.8028 -4,0.9 -1.371,-0.097 -2.7195,-0.4005 -4,-0.9 -1.9073,-0.7849 -3.9388,-1.2251 -6,-1.3 v 0 c -2.0612,0.0749 -4.0927,0.5151 -6,1.3 -1.2805,0.4994 -2.629,0.8028 -4,0.9 -1.371,-0.0972 -2.7195,-0.4006 -4,-0.9 -1.9073,-0.7849 -3.9388,-1.2251 -6,-1.3 v 0 c -2.0612,0.0749 -4.0927,0.5151 -6,1.3 -1.2805,0.4994 -2.629,0.8028 -4,0.9 v 6 c 2.0612,-0.0749 4.0927,-0.5151 6,-1.3 1.2658,-0.546 2.6223,-0.8512 4,-0.9 1.371,0.0972 2.7195,0.4006 4,0.9 1.9073,0.7849 3.9388,1.2251 6,1.3 v 0 c 2.0612,-0.0749 4.0927,-0.5151 6,-1.3 1.2658,-0.546 2.6223,-0.8512 4,-0.9 1.371,0.0972 2.7195,0.4006 4,0.9 1.9073,0.7849 3.9388,1.2251 6,1.3 2.0612,-0.0749 4.0927,-0.5151 6,-1.3 1.2658,-0.546 2.6223,-0.8512 4,-0.9 1.371,0.0972 2.7195,0.4006 4,0.9 1.9073,0.7849 3.9388,1.2251 6,1.3 v 0 c 2.0612,-0.0749 4.0927,-0.5151 6,-1.3 1.2658,-0.546 2.6223,-0.8512 4,-0.9 1.371,0.0972 2.7195,0.4006 4,0.9 1.9073,0.7849 3.9388,1.2251 6,1.3 v -6 c -1.371,-0.0972 -2.7195,-0.4006 -4,-0.9 z"
         id="path6"
         style="fill:#4e95d9;fill-opacity:1;stroke:none;stroke-width:0.999982;stroke-linejoin:miter;stroke-dasharray:none;stroke-opacity:1;image-rendering:auto" /><path
         d="m 84,68.553854 c -1.9073,-0.7849 -3.9388,-1.2251 -6,-1.3 v 0 c -2.0612,0.0749 -4.0927,0.5151 -6,1.3 -1.2805,0.4994 -2.629,0.8028 -4,0.9 v 0 c -1.371,-0.0972 -2.7195,-0.4006 -4,-0.9 -1.9073,-0.7849 -3.9388,-1.2251 -6,-1.3 v 0 c -2.0612,0.0749 -4.0927,0.5151 -6,1.3 -1.2805,0.4994 -2.629,0.8028 -4,0.9 -1.371,-0.097 -2.7195,-0.4005 -4,-0.9 -1.9073,-0.7849 -3.9388,-1.2251 -6,-1.3 v 0 c -2.0612,0.0749 -4.0927,0.5151 -6,1.3 -1.2805,0.4994 -2.629,0.8028 -4,0.9 -1.371,-0.0972 -2.7195,-0.4006 -4,-0.9 -1.9073,-0.7849 -3.9388,-1.2251 -6,-1.3 v 0 c -2.0612,0.0749 -4.0927,0.5151 -6,1.3 -1.2805,0.4994 -2.629,0.8028 -4,0.9 v 6 c 2.0612,-0.0749 4.0927,-0.5151 6,-1.3 1.2658,-0.546 2.6223,-0.8512 4,-0.9 1.371,0.0972 2.7195,0.4006 4,0.9 1.9073,0.7849 3.9388,1.2251 6,1.3 v 0 c 2.0612,-0.0749 4.0927,-0.5151 6,-1.3 1.2658,-0.546 2.6223,-0.8512 4,-0.9 1.371,0.0972 2.7195,0.4006 4,0.9 1.9073,0.7849 3.9388,1.2251 6,1.3 2.0612,-0.0749 4.0927,-0.5151 6,-1.3 1.2658,-0.546 2.6223,-0.8512 4,-0.9 1.371,0.0972 2.7195,0.4006 4,0.9 1.9073,0.7849 3.9388,1.2251 6,1.3 v 0 c 2.0612,-0.0749 4.0927,-0.5151 6,-1.3 1.2658,-0.546 2.6223,-0.8512 4,-0.9 1.371,0.0972 2.7195,0.4006 4,0.9 1.9073,0.7849 3.9388,1.2251 6,1.3 v -6 c -1.371,-0.0972 -2.7195,-0.4006 -4,-0.9 z"
         id="path14"
         style="fill:#4e95d9;fill-opacity:1;stroke:none;stroke-width:0.999982;stroke-linejoin:miter;stroke-dasharray:none;stroke-opacity:1;image-rendering:auto" /></g><g
       id="_326_Water_Polo"
       transform="matrix(6.2940095,0,0,6.8228979,750.64905,-31.996195)"
       style="fill:#ffcc99;fill-opacity:1;image-rendering:auto"
       inkscape:label="Body"><style
         id="style1">
.MsftOfcThm_Text2_lumMod_50_lumOff_50_Fill_v2 {
 fill:#4E95D9; 
}
</style><path
         id="circle1"
         style="fill:#ffcc99;fill-opacity:1;image-rendering:auto"
         d="m 48.000101,20.999999 c -2.199985,0 -4.400209,0.400024 -6.600194,1.000024 -3.199985,0.799995 -5.999959,2.40007 -8.399944,4.40006 -0.6,0.599995 -0.999903,1.39993 -1.199903,2.199925 l -3.160433,14.875737 c 0,0.155137 -0.117852,0.431178 -0.171862,0.733657 1.246185,0.097 2.472199,0.397328 3.629187,0.913465 0.862752,0.364752 1.771297,0.58635 2.695024,0.657343 0.08074,-0.0062 0.160585,-0.01992 0.241067,-0.02843 0.02418,-0.09226 0.0495,-0.18231 0.07297,-0.276193 l 2.894067,-14.048413 -8.37e-4,8.11497 v 4.888886 c 0.189848,-0.07255 0.381551,-0.138836 0.568067,-0.222042 0.852844,-0.398783 1.766786,-0.6217 2.695024,-0.657343 0.923722,0.07099 1.832276,0.292596 2.695024,0.657343 1.285058,0.573273 2.653995,0.894721 4.042744,0.949426 0.04176,-0.0016 0.08334,-0.0054 0.12503,-0.0079 0.04176,0.0025 0.08341,0.0063 0.125238,0.0079 1.388749,-0.05471 2.757686,-0.376154 4.042744,-0.949426 0.862748,-0.364748 1.771302,-0.58635 2.695024,-0.657343 0.928238,0.03564 1.84218,0.258559 2.695024,0.657343 0.186516,0.08321 0.378219,0.149493 0.568067,0.222042 v -4.88889 l -8.37e-4,-8.11497 2.894067,14.048413 c 0.02347,0.09388 0.04879,0.183933 0.07297,0.276193 0.08048,0.0085 0.160327,0.02223 0.241067,0.02843 0.923727,-0.07099 1.832272,-0.292592 2.695024,-0.657343 1.156988,-0.516137 2.383002,-0.816465 3.629187,-0.913465 -0.05401,-0.302479 -0.171862,-0.57852 -0.171862,-0.733657 L 64.45041,28.600008 c -0.2,-0.799995 -0.599903,-1.59993 -1.199903,-2.199925 -2.399986,-1.99999 -5.199959,-3.600065 -8.399944,-4.40006 -2.199985,-0.599999 -4.400209,-1.000024 -6.600194,-1.000024 -0.04175,0 -0.08349,0.0021 -0.125238,0.0027 -0.04168,-6.21e-4 -0.08335,-0.0027 -0.12503,-0.0027 z"
         transform="matrix(1.4842018,0,0,1.3691514,-23.241689,5.3552691)" /><path
         id="path13"
         style="fill:#ffcc99;fill-opacity:1;stroke:none;stroke-width:0.990858;stroke-linecap:round;stroke-linejoin:miter;stroke-dasharray:none;stroke-opacity:1"
         d="m 47.999833,9.4627233 a 10.765325,9.9308327 0 0 0 -10.765129,9.9309437 10.765325,9.9308327 0 0 0 10.765129,9.930657 10.765325,9.9308327 0 0 0 0.157022,-0.01031 10.765325,9.9308327 0 0 0 10.608421,-9.920352 10.765325,9.9308327 0 0 0 -10.608421,-9.9275085 10.765325,9.9308327 0 0 0 -0.157022,-0.00344 z" /></g><g
       id="g24"
       inkscape:label="Bubbles"
       transform="matrix(-16.493807,0,0,17.87979,2584.2492,-19.523912)"
       style="fill:#14f7ef;fill-opacity:1;image-rendering:auto"><path
         d="m 99.871147,21.187947 c -1.31622,0 -2.383218,0.984288 -2.383218,2.198479 0,0.04837 0,0.09527 0,0.146565 1.178755,-0.529218 2.599391,-0.07674 3.173081,1.010641 0.1361,0.25794 0.2159,0.538027 0.23492,0.824357 1.18635,-0.525891 1.68595,-1.83938 1.11587,-2.933768 -0.39564,-0.75956 -1.22715,-1.243651 -2.140653,-1.246274 z m 1.588813,2.051914 c -0.0877,0 -0.15888,-0.06562 -0.15888,-0.146566 0,-0.566621 -0.49793,-1.025957 -1.11217,-1.025957 -0.0878,0 -0.15888,-0.06562 -0.15888,-0.146565 0,-0.08095 0.0711,-0.146565 0.15888,-0.146565 0.78974,0 1.42993,0.59057 1.42993,1.319087 0,0.08095 -0.0711,0.146566 -0.15888,0.146566 z"
         class="MsftOfcThm_Text2_lumMod_50_lumOff_50_Fill_v2"
         fill="#4E95D9"
         id="path16"
         style="fill:#14f7ef;fill-opacity:1;stroke-width:0.152599" /><path
         d="m 98.520657,23.606274 c -1.14072,0 -2.065456,0.853054 -2.065456,1.905349 0,1.052294 0.924736,1.905348 2.065456,1.905348 1.140719,0 2.065453,-0.853054 2.065453,-1.905348 0,-1.052295 -0.924734,-1.905349 -2.065453,-1.905349 z m 1.27105,1.758783 c -0.08775,0 -0.158882,-0.06562 -0.158882,-0.146565 0,-0.404725 -0.355671,-0.732826 -0.794406,-0.732826 -0.08775,0 -0.158881,-0.06562 -0.158881,-0.146566 0,-0.08095 0.07113,-0.146565 0.158881,-0.146565 0.614235,0 1.112169,0.459336 1.112169,1.025957 0,0.08095 -0.07113,0.146565 -0.158881,0.146565 z"
         class="MsftOfcThm_Text2_lumMod_50_lumOff_50_Fill_v2"
         fill="#4E95D9"
         id="path17"
         style="fill:#14f7ef;fill-opacity:1;stroke-width:0.152599" /><path
         d="m 95.343032,21.261229 c -0.789735,0 -1.429931,0.59057 -1.429931,1.319088 0,0.728517 0.640196,1.319088 1.429931,1.319088 0.789735,0 1.429931,-0.590571 1.429931,-1.319088 0,-0.728518 -0.640196,-1.319088 -1.429931,-1.319088 z m 0.714966,1.245805 c -0.08775,0 -0.158882,-0.06562 -0.158882,-0.146565 0,-0.161896 -0.142262,-0.293131 -0.317762,-0.293131 -0.08775,0 -0.158881,-0.06562 -0.158881,-0.146565 0,-0.08095 0.07113,-0.146565 0.158881,-0.146565 0.350984,0 0.635525,0.262484 0.635525,0.586261 0,0.08095 -0.07113,0.146565 -0.158881,0.146565 z"
         class="MsftOfcThm_Text2_lumMod_50_lumOff_50_Fill_v2"
         fill="#4E95D9"
         id="path18"
         style="fill:#14f7ef;fill-opacity:1;stroke-width:0.152599" /><path
         d="m 102.53374,17.154008 c -0.87748,0 -1.58881,0.656188 -1.58881,1.465653 0,0.809466 0.71133,1.465653 1.58881,1.465653 0.87749,0 1.58882,-0.656187 1.58882,-1.465653 0,-0.809465 -0.71133,-1.465653 -1.58882,-1.465653 z m 0.79441,1.417287 c -0.1023,-7.92e-4 -0.18503,-0.07711 -0.18589,-0.171482 0,-0.1886 -0.16575,-0.341497 -0.3702,-0.341497 -0.10266,0 -0.18589,-0.07677 -0.18589,-0.171481 0,-0.09471 0.0832,-0.171482 0.18589,-0.171482 0.40943,8.06e-4 0.74111,0.306776 0.74198,0.68446 -8.6e-4,0.09437 -0.0836,0.17069 -0.18589,0.171482 z"
         class="MsftOfcThm_Text2_lumMod_50_lumOff_50_Fill_v2"
         fill="#4E95D9"
         id="path19"
         style="fill:#14f7ef;fill-opacity:1;stroke-width:0.152599" /><ellipse
         cx="102.81045"
         cy="20.235273"
         class="MsftOfcThm_Text2_lumMod_50_lumOff_50_Fill_v2"
         fill="#4E95D9"
         id="ellipse19"
         rx="1.1471225"
         ry="1.0582013"
         style="fill:#14f7ef;fill-opacity:1;stroke-width:0.152599" /><ellipse
         cx="96.852402"
         cy="19.06275"
         class="MsftOfcThm_Text2_lumMod_50_lumOff_50_Fill_v2"
         fill="#4E95D9"
         id="ellipse21"
         rx="0.98824126"
         ry="0.91163605"
         style="fill:#14f7ef;fill-opacity:1;stroke-width:0.152599"
         inkscape:label="ellipse21" /><ellipse
         cx="94.151421"
         cy="19.795576"
         class="MsftOfcThm_Text2_lumMod_50_lumOff_50_Fill_v2"
         fill="#4E95D9"
         id="ellipse22"
         rx="0.47664371"
         ry="0.43969586"
         style="fill:#14f7ef;fill-opacity:1;stroke-width:0.152599"
         inkscape:label="ellipse22" /></g><g
       id="g53"
       inkscape:label="Bubbles"
       transform="matrix(12.761663,0,0,13.834032,-92.108365,-81.590846)"
       style="fill:#14f7ef;fill-opacity:1;image-rendering:auto"><path
         d="m 99.871147,21.187947 c -1.31622,0 -2.383218,0.984288 -2.383218,2.198479 0,0.04837 0,0.09527 0,0.146565 1.178755,-0.529218 2.599391,-0.07674 3.173081,1.010641 0.1361,0.25794 0.2159,0.538027 0.23492,0.824357 1.18635,-0.525891 1.68595,-1.83938 1.11587,-2.933768 -0.39564,-0.75956 -1.22715,-1.243651 -2.140653,-1.246274 z m 1.588813,2.051914 c -0.0877,0 -0.15888,-0.06562 -0.15888,-0.146566 0,-0.566621 -0.49793,-1.025957 -1.11217,-1.025957 -0.0878,0 -0.15888,-0.06562 -0.15888,-0.146565 0,-0.08095 0.0711,-0.146565 0.15888,-0.146565 0.78974,0 1.42993,0.59057 1.42993,1.319087 0,0.08095 -0.0711,0.146566 -0.15888,0.146566 z"
         class="MsftOfcThm_Text2_lumMod_50_lumOff_50_Fill_v2"
         fill="#4E95D9"
         id="path48"
         style="fill:#14f7ef;fill-opacity:1;stroke-width:0.152599" /><path
         d="m 98.520657,23.606274 c -1.14072,0 -2.065456,0.853054 -2.065456,1.905349 0,1.052294 0.924736,1.905348 2.065456,1.905348 1.140719,0 2.065453,-0.853054 2.065453,-1.905348 0,-1.052295 -0.924734,-1.905349 -2.065453,-1.905349 z m 1.27105,1.758783 c -0.08775,0 -0.158882,-0.06562 -0.158882,-0.146565 0,-0.404725 -0.355671,-0.732826 -0.794406,-0.732826 -0.08775,0 -0.158881,-0.06562 -0.158881,-0.146566 0,-0.08095 0.07113,-0.146565 0.158881,-0.146565 0.614235,0 1.112169,0.459336 1.112169,1.025957 0,0.08095 -0.07113,0.146565 -0.158881,0.146565 z"
         class="MsftOfcThm_Text2_lumMod_50_lumOff_50_Fill_v2"
         fill="#4E95D9"
         id="path49"
         style="fill:#14f7ef;fill-opacity:1;stroke-width:0.152599" /><path
         d="m 95.343032,21.261229 c -0.789735,0 -1.429931,0.59057 -1.429931,1.319088 0,0.728517 0.640196,1.319088 1.429931,1.319088 0.789735,0 1.429931,-0.590571 1.429931,-1.319088 0,-0.728518 -0.640196,-1.319088 -1.429931,-1.319088 z m 0.714966,1.245805 c -0.08775,0 -0.158882,-0.06562 -0.158882,-0.146565 0,-0.161896 -0.142262,-0.293131 -0.317762,-0.293131 -0.08775,0 -0.158881,-0.06562 -0.158881,-0.146565 0,-0.08095 0.07113,-0.146565 0.158881,-0.146565 0.350984,0 0.635525,0.262484 0.635525,0.586261 0,0.08095 -0.07113,0.146565 -0.158881,0.146565 z"
         class="MsftOfcThm_Text2_lumMod_50_lumOff_50_Fill_v2"
         fill="#4E95D9"
         id="path50"
         style="fill:#14f7ef;fill-opacity:1;stroke-width:0.152599" /><ellipse
         cx="96.852402"
         cy="19.06275"
         class="MsftOfcThm_Text2_lumMod_50_lumOff_50_Fill_v2"
         fill="#4E95D9"
         id="ellipse52"
         rx="0.98824126"
         ry="0.91163605"
         style="fill:#14f7ef;fill-opacity:1;stroke-width:0.152599"
         inkscape:label="ellipse21" /><ellipse
         cx="94.151421"
         cy="19.795576"
         class="MsftOfcThm_Text2_lumMod_50_lumOff_50_Fill_v2"
         fill="#4E95D9"
         id="ellipse53"
         rx="0.47664371"
         ry="0.43969586"
         style="fill:#14f7ef;fill-opacity:1;stroke-width:0.152599"
         inkscape:label="ellipse22" /></g></g><style
     id="style1-1">
.MsftOfcThm_Accent2_Fill_v2 {
 fill:#E97132; 
}
</style><style
     id="style1-1-2">
.MsftOfcThm_Accent2_Fill_v2 {
 fill:#E97132; 
}
</style><style
     id="style1-1-9">
.MsftOfcThm_Accent2_Fill_v2 {
 fill:#E97132; 
}
</style><style
     id="style1-1-4">
.MsftOfcThm_Accent2_Fill_v2 {
 fill:#E97132; 
}
</style><style
     id="style1-1-2-0">
.MsftOfcThm_Accent2_Fill_v2 {
 fill:#E97132; 
}
</style><style
     id="style1-1-9-3">
.MsftOfcThm_Accent2_Fill_v2 {
 fill:#E97132; 
}
</style><g
     id="use37"
     style="display:inline"
     transform="matrix(3.0887737,0,0,3.5817094,851.45061,41.596445)"
     inkscape:label="food"><path
       id="path38"
       style="display:inline;fill:#e7ba89;fill-opacity:1"
       inkscape:label="path38"
       d="m 63.400257,91.899848 c -0.399999,0.6 -0.766921,1.200053 -1.100254,1.800053 -0.433333,0.733332 -0.833497,1.466974 -1.200163,2.200307 -0.433333,0.833332 -0.832864,1.683181 -1.19953,2.549847 -0.4,0.933332 -0.750301,1.883095 -1.050301,2.849765 -0.3,1.03333 -0.549944,2.05044 -0.749944,3.05044 -0.233333,1.13333 -0.383552,2.23297 -0.450219,3.29964 -0.06667,1.16667 -0.05005,2.31681 0.04995,3.45015 0.133333,1.2 0.350036,2.36643 0.650036,3.49977 0.03333,0.1 0.08319,0.21675 0.149862,0.35008 0.03333,0.1 0.08383,0.19992 0.150495,0.29992 0.06667,0.13333 0.14977,0.23325 0.24977,0.29992 0.06667,0.1 0.149771,0.20046 0.249771,0.30046 l 0.300356,0.19958 c 0.1,0.0667 0.216346,0.13346 0.349679,0.20013 0.1,0.0333 0.216978,0.067 0.350311,0.10034 0.1,0.0333 0.216345,0.0665 0.349679,0.0998 h 0.350311 c 0.1,0 0.216345,-0.0168 0.349678,-0.0502 0.1,0 0.200357,-0.0163 0.300357,-0.0496 0.1,-0.0333 0.216345,-0.067 0.349679,-0.10034 0.1,-0.0333 0.183736,-0.0833 0.250402,-0.14996 0.1,-0.0333 0.199725,-0.0833 0.299725,-0.14996 0.1,-0.0667 0.183736,-0.14975 0.250403,-0.24975 0.06667,-0.0667 0.133149,-0.15029 0.199816,-0.25029 0.06667,-0.0667 0.13315,-0.14975 0.199816,-0.24975 l 1.700336,-2.80015 c 0.566667,-0.89999 1.149659,-1.7998 1.749658,-2.6998 l 1.800244,-2.70035 c 0.6,-0.9 1.216234,-1.78298 1.849566,-2.64964 0.633333,-0.9 1.26682,-1.78352 1.900153,-2.65019 0.633332,-0.86666 1.28344,-1.733345 1.950106,-2.600011 0.666666,-0.833333 1.333395,-1.683182 2.000061,-2.549847 0.666666,-0.833333 1.350015,-1.666893 2.050014,-2.500225 0.03333,-0.03333 0.06658,-0.08329 0.09991,-0.149959 0.03333,-0.03333 0.06658,-0.08329 0.09991,-0.149959 0.03333,-0.06667 0.06657,-0.116626 0.09991,-0.149959 l 0.09991,-0.200127 c 0.03333,-0.03333 0.05059,-0.08329 0.05059,-0.149959 0.03333,-0.06667 0.04995,-0.13346 0.04995,-0.200127 0.03333,-0.06667 0.04995,-0.116626 0.04995,-0.149959 0.03333,-0.06667 0.04995,-0.13346 0.04995,-0.200127 0.633332,0.06667 1.28344,0.13346 1.950106,0.200127 0.633333,0.1 1.282808,0.199918 1.949474,0.299918 l 1.900153,0.299918 c 0.666666,0.1 1.316773,0.216753 1.950106,0.350086 0.633333,0.1 1.28344,0.216753 1.950106,0.350086 0.633333,0.133333 1.26682,0.28321 1.900153,0.449877 l 1.89952,0.400254 1.900152,0.500045 v 0.09979 c -0.333333,0.466666 -0.666381,0.966802 -0.999714,1.500134 -0.466666,0.633333 -0.900071,1.31647 -1.300071,2.049803 -0.499999,0.833331 -0.950025,1.683731 -1.350025,2.550391 -0.499999,1 -0.933405,2.01656 -1.300071,3.04989 -0.433333,1.13334 -0.783634,2.24982 -1.0503,3.34982 -0.3,1.23333 -0.516703,2.46656 -0.650036,3.69989 -0.1,1.3 -0.116621,2.58374 -0.04995,3.8504 0.1,1.36667 0.333323,2.69982 0.69999,3.99982 0.03333,0.1 0.08383,0.21675 0.150494,0.35008 0.03333,0.1 0.0832,0.21675 0.149862,0.35009 0.06667,0.1 0.149771,0.19992 0.249771,0.29992 l 0.250403,0.24975 0.299724,0.20012 0.299725,0.20013 0.400265,0.0998 c 0.1,0.0333 0.216978,0.0665 0.350311,0.0998 h 0.349678 0.299725 c 0.133333,-0.0333 0.250311,-0.0665 0.350311,-0.0998 l 0.299724,-0.0998 c 0.1,-0.0333 0.200357,-0.0833 0.300357,-0.14996 0.1,-0.0333 0.199725,-0.0833 0.299725,-0.14996 l 0.250403,-0.25029 c 0.06667,-0.0667 0.133149,-0.14975 0.199816,-0.24975 0.06667,-0.0667 0.13315,-0.1503 0.199816,-0.2503 0.533333,-0.86666 1.049842,-1.71651 1.549842,-2.54985 0.533332,-0.86666 1.067095,-1.71651 1.600427,-2.54984 0.566667,-0.83334 1.116417,-1.6669 1.64975,-2.50023 0.566666,-0.83333 1.13367,-1.65006 1.700336,-2.45005 0.566666,-0.83334 1.149662,-1.65006 1.749662,-2.45006 l 1.80024,-2.39989 c 0.56667,-0.8 1.16628,-1.58305 1.79961,-2.34972 0.6,-0.8 1.21687,-1.5836 1.8502,-2.35027 0.0333,-0.0333 0.05,-0.0665 0.05,-0.0998 l 0.05,-0.0502 c 0.0333,-0.0333 0.0499,-0.0665 0.0499,-0.0998 0.0333,-0.0333 0.05,-0.067 0.05,-0.10033 0.0333,0 0.05,-0.0168 0.05,-0.0502 0.0333,-0.0333 0.0506,-0.0665 0.0506,-0.0998 l 0.0499,-0.0502 c 0.0333,-0.0333 0.05,-0.0665 0.05,-0.0998 1.7,0.76667 3.33326,1.58339 4.89992,2.45006 1.56667,0.83333 3.04971,1.71685 4.44971,2.65018 1.36667,0.93333 2.65026,1.89994 3.85026,2.89993 1.2,1 2.28351,2.01656 3.25018,3.0499 1,1.06666 1.86618,2.15002 2.59951,3.25002 0.76666,1.09999 1.40015,2.21647 1.90015,3.34981 0.53333,1.16666 0.9335,2.31681 1.20016,3.45014 0.26667,1.2 0.39964,2.38327 0.39964,3.54994 0,1.7 -0.43278,3.23353 -1.29944,4.6002 -0.83334,1.26666 -2.08369,2.39997 -3.75035,3.39997 -1.56667,0.96667 -3.53298,1.78339 -5.89964,2.45006 -2.23334,0.66667 -4.85039,1.21622 -7.85038,1.64955 -2.76667,0.43333 -5.93347,0.76676 -9.50013,1.00009 -3.200003,0.23333 -6.83282,0.41688 -10.899482,0.55021 -3.43333,0.0667 -7.450322,0.11663 -12.050318,0.14996 -2.766663,0.0333 -7.083462,0.0502 -12.950123,0.0502 -5.833327,0 -10.150126,-0.0168 -12.950123,-0.0502 -4.599995,-0.0333 -8.616355,-0.10013 -12.049685,-0.20013 -4.066663,-0.1 -7.700112,-0.26671 -10.900109,-0.50004 -3.566663,-0.23333 -6.733465,-0.56676 -9.500129,-1.00009 -2.999997,-0.43333 -5.616416,-0.98288 -7.849748,-1.64955 C 9.5835391,134.48339 7.5999743,133.66667 5.9999759,132.7 4.3666442,131.73334 3.1169234,130.60002 2.2502576,129.30003 1.3835918,127.96669 0.95018668,126.45 0.95018668,124.75 c 0,-1.26667 0.15021942,-2.53357 0.45021912,-3.80023 0.2999997,-1.23334 0.7500257,-2.44973 1.3500251,-3.64973 0.5666661,-1.2 1.283257,-2.38327 2.1499228,-3.54994 0.8666658,-1.16667 1.8498216,-2.29998 2.9498205,-3.39998 1.0999989,-1.13333 2.3164778,-2.21669 3.6498098,-3.25002 1.333332,-1.03333 2.783767,-2.0336 4.350432,-3.00027 1.533332,-0.96666 3.183217,-1.88331 4.949881,-2.74997 1.733332,-0.86667 3.566677,-1.683393 5.500009,-2.450059 -0.366666,0.599999 -0.733589,1.216889 -1.100255,1.850219 -0.366666,0.7 -0.732956,1.41626 -1.099622,2.1496 -0.366666,0.83333 -0.716968,1.65005 -1.050301,2.45005 -0.333333,0.9 -0.616518,1.80036 -0.849851,2.70035 -0.3,1 -0.516703,1.96661 -0.650036,2.89994 -0.2,1.03333 -0.316978,2.04989 -0.350311,3.04989 -0.03333,1.1 0.01716,2.16652 0.150495,3.19985 0.1,1.1 0.299449,2.18336 0.599449,3.25002 0.03333,0.13333 0.08383,0.26692 0.150494,0.40025 0.03333,0.1 0.0832,0.19992 0.149863,0.29992 0.06667,0.1 0.14977,0.19992 0.24977,0.29992 0.06667,0.1 0.150403,0.18363 0.250403,0.2503 0.1,0.1 0.199724,0.18308 0.299724,0.24975 0.1,0.0667 0.216978,0.13346 0.350311,0.20012 0.1,0.0333 0.216346,0.0665 0.349679,0.0998 0.1,0.0333 0.216978,0.067 0.350311,0.10034 h 0.399633 c 0.1,0 0.200357,-0.0168 0.300356,-0.0502 0.133334,0 0.249679,-0.0168 0.349679,-0.0502 l 0.299725,-0.0998 c 0.1,-0.0333 0.200357,-0.0833 0.300356,-0.14996 l 0.299725,-0.20012 c 0.06667,-0.0667 0.150403,-0.13346 0.250403,-0.20013 0.06667,-0.1 0.13315,-0.18308 0.199816,-0.24975 l 0.199817,-0.29992 c 0,0.0333 0.150219,-0.21701 0.450219,-0.75034 0.399999,-0.63333 0.816784,-1.28334 1.250117,-1.95001 0.599999,-1 1.216233,-1.98344 1.849565,-2.9501 0.8,-1.23333 1.616948,-2.44973 2.45028,-3.64973 0.966666,-1.4 1.91658,-2.74998 2.849912,-4.04998 1.066666,-1.5 2.116937,-2.89994 3.15027,-4.19994 1.166665,-1.5 2.30004,-2.88366 3.400039,-4.150322 1.199999,-1.366666 2.349995,-2.599898 3.449994,-3.699896 l 0.199817,-0.200128 c 0.06667,-0.06667 0.133149,-0.149749 0.199816,-0.249749 0.03333,-0.1 0.0832,-0.183629 0.149862,-0.250295 l 0.100541,-0.299918 c 0.03333,-0.1 0.04995,-0.199918 0.04995,-0.299918 0.03333,-0.1 0.04995,-0.199918 0.04995,-0.299918 0.03333,-0.1 0.04995,-0.199918 0.04995,-0.299918 -0.03333,-0.1 -0.04995,-0.199918 -0.04995,-0.299918 0.699999,-0.133333 1.399969,-0.250086 2.099969,-0.350086 0.699999,-0.1 1.41659,-0.199918 2.149922,-0.299918 0.7,-0.06667 1.39997,-0.150295 2.099969,-0.250295 0.733333,-0.06667 1.449924,-0.132915 2.149923,-0.199582 0.733332,-0.06667 1.449923,-0.117171 2.149923,-0.150504 0.733332,-0.06667 1.449923,-0.116626 2.149922,-0.149959 0.7,-0.03333 1.416591,-0.06646 2.149923,-0.09979 0.7,-0.03333 1.417223,-0.05017 2.150555,-0.05017 z m 3.199591,0 h 1.250117 c 0.4,0 0.800163,0.01684 1.200163,0.05017 0.4,0 0.800163,0.01684 1.200163,0.05017 0.399999,0 0.799531,0.01629 1.19953,0.04962 0.4,0.03333 0.800163,0.05017 1.200163,0.05017 0.4,0.03333 0.783542,0.06646 1.150209,0.09979 l 1.19953,0.100336 c 0.366666,0.03333 0.750209,0.06646 1.150209,0.09979 -0.699999,0.833333 -1.39997,1.683182 -2.099969,2.549848 l -2.00006,2.600015 -2.000061,2.600013 c -0.666666,0.9 -1.316774,1.80035 -1.950106,2.70035 -0.633333,0.9 -1.249567,1.79981 -1.849566,2.69981 -0.633333,0.9 -1.250199,1.81664 -1.850199,2.74997 -0.599999,0.93334 -1.182991,1.86681 -1.749657,2.80015 -0.6,0.93333 -1.183624,1.86681 -1.75029,2.80014 -0.333333,-1.2 -0.533415,-2.43378 -0.600082,-3.70044 -0.06667,-1.16667 -0.03343,-2.36623 0.09991,-3.59956 0.133334,-1.13333 0.350036,-2.26665 0.650036,-3.39998 0.266666,-1.03333 0.600347,-2.08356 1.000346,-3.15023 0.366667,-0.933331 0.782819,-1.866808 1.249485,-2.800141 0.399999,-0.766666 0.833405,-1.549721 1.300071,-2.34972 0.366666,-0.6 0.750209,-1.200054 1.150209,-1.800053 0.266666,-0.433333 0.549852,-0.833551 0.849851,-1.200217 z m -22.700023,1.900389 c -1.166665,1.166666 -2.383144,2.449857 -3.64981,3.849855 -1.133332,1.299999 -2.299949,2.716778 -3.499948,4.250108 -1.066665,1.36667 -2.166799,2.79974 -3.300131,4.29973 -0.966666,1.33334 -1.933201,2.71699 -2.899867,4.15032 l -2.500233,3.6999 c -0.666666,1 -1.299521,1.99972 -1.89952,2.99972 -0.433333,0.7 -0.833497,1.36685 -1.200163,2.00018 l -0.450219,0.70017 c -0.366667,-1.29999 -0.583369,-2.66681 -0.650036,-4.10015 -0.06667,-1.26666 -1.83e-4,-2.58352 0.199816,-3.95019 0.2,-1.2 0.483818,-2.43323 0.850485,-3.69989 0.333333,-1.1 0.750117,-2.21648 1.250117,-3.34981 0.433332,-0.96667 0.9166,-1.91698 1.449933,-2.85031 0.399999,-0.76667 0.850025,-1.5166 1.350025,-2.249934 0.333333,-0.533333 0.683002,-1.049758 1.049668,-1.549758 -0.4,0.533333 -0.216539,0.282992 0.550127,-0.75034 0.566666,-0.166666 1.116417,-0.349668 1.64975,-0.549668 0.566666,-0.166666 1.117049,-0.333378 1.650382,-0.500044 0.566666,-0.133334 1.116417,-0.283211 1.649749,-0.449877 0.566666,-0.166667 1.116417,-0.317089 1.64975,-0.450422 l 1.700336,-0.399709 c 0.566666,-0.133333 1.116417,-0.266921 1.64975,-0.400254 0.566666,-0.133333 1.133669,-0.250086 1.700336,-0.350086 0.566666,-0.133333 1.133037,-0.249541 1.699703,-0.349541 z m 52.650345,2.449511 0.999714,0.300464 1.000346,0.299917 c 0.333333,0.1 0.666382,0.216753 0.999715,0.350086 0.333333,0.1 0.667015,0.216208 1.000345,0.349541 0.33333,0.1 0.66638,0.216753 0.99972,0.350086 0.33333,0.133333 0.66638,0.250086 0.99971,0.350086 0.33333,0.133333 0.65039,0.266921 0.95039,0.400254 l 0.99972,0.399709 c -0.63334,0.766666 -1.26619,1.550269 -1.89952,2.350269 -0.63334,0.8 -1.2502,1.61672 -1.8502,2.45005 -0.6,0.8 -1.200247,1.61673 -1.800247,2.45006 -0.599999,0.8 -1.199612,1.61618 -1.799612,2.44951 -0.566666,0.83333 -1.13367,1.68373 -1.700336,2.55039 l -1.699703,2.49968 -1.600428,2.60002 -1.599796,2.60001 c -0.366666,-1.36666 -0.583369,-2.78344 -0.650035,-4.25011 -0.03333,-1.33333 0.06702,-2.6996 0.300357,-4.0996 0.2,-1.23333 0.516427,-2.50023 0.94976,-3.80023 0.366666,-1.13333 0.800071,-2.26665 1.300071,-3.39998 0.433333,-0.96667 0.933221,-1.91643 1.499887,-2.84977 0.433333,-0.766662 0.883359,-1.516593 1.350025,-2.249926 0.333333,-0.499999 0.666381,-0.967011 0.999714,-1.400344 0.3,-0.366666 0.433599,-0.533378 0.400265,-0.500045 z"
       sodipodi:nodetypes="cccccccccccccccccscsccsccccsscsccccsccccccccccccccccccccccccccccccccccccccccccccccccccccccccccsccccscccccccscccccccsccscsccccccccccccsccscccsccccccccccccccccccccccccsccccsccccccscccccccscsccccccccccccccccccccccccccccccccccccccccscccscccccccccccccccccc" /><path
       d="m 43.291272,-0.58043956 h 11.176394 c 0.174697,0 0.334858,0.0170366 0.480385,0.0507964 0.1746,0.0675018 0.334825,0.13513297 0.480384,0.20263537 0.145495,0.10125473 0.276162,0.20242291 0.392551,0.30367735 0.145527,0.13500426 0.276712,0.26971591 0.393133,0.40471989 0.116357,0.13500397 0.218566,0.28731365 0.305882,0.45606995 0.08735,0.1687538 0.159902,0.3205126 0.21808,0.4555166 0.05821,0.1687535 0.101788,0.3375564 0.130894,0.506313 0.02946,0.1687566 0.04358,0.3375561 0.04358,0.5063124 v 8.1507076 c 0,0.202509 -0.01457,0.404849 -0.04358,0.607355 -0.02946,0.168756 -0.07268,0.337559 -0.130894,0.506316 -0.05818,0.168756 -0.130731,0.337556 -0.21808,0.506312 -0.08732,0.168757 -0.189525,0.321063 -0.305882,0.456067 -0.116421,0.101255 -0.247606,0.218919 -0.393133,0.353924 -0.116389,0.101254 -0.247056,0.18593 -0.392551,0.253435 -0.145559,0.06751 -0.305784,0.118086 -0.480384,0.151838 -0.1746,0.03375 -0.334858,0.0508 -0.480385,0.0508 H 43.291272 c -0.174639,0 -0.334825,-0.01704 -0.480388,-0.0508 -0.174642,-0.06751 -0.334825,-0.135133 -0.480359,-0.202638 -0.145527,-0.101251 -0.276702,-0.202423 -0.393149,-0.303678 -0.145498,-0.101251 -0.27611,-0.236513 -0.39256,-0.40527 -0.116383,-0.135004 -0.218573,-0.269716 -0.305879,-0.40472 -0.08734,-0.168757 -0.159856,-0.337556 -0.218116,-0.506313 -0.05819,-0.168756 -0.10173,-0.337556 -0.130841,-0.506316 -0.0293,-0.168753 -0.0436,-0.337556 -0.0436,-0.506312 V 2.3056014 c 0,-0.2025058 0.0145,-0.3883523 0.0436,-0.5571091 0.0293,-0.2025061 0.07265,-0.3878017 0.130841,-0.5565589 0.05826,-0.168756 0.13078,-0.33755889 0.218116,-0.50631267 0.08731,-0.13500677 0.189496,-0.27026956 0.305879,-0.40527353 0.11645,-0.13500398 0.247062,-0.25321932 0.39256,-0.35447404 0.116447,-0.10125417 0.247622,-0.18537937 0.393149,-0.25288094 0.145534,-0.0675024 0.305717,-0.13513352 0.480359,-0.20263537 0.174642,-0.0337495 0.334826,-0.0507964 0.480388,-0.0507964 z M 43.902473,15.974962 h 9.954012 v 22.174539 c 0,0.540018 0.01457,1.062922 0.04361,1.569186 l 0.175021,1.518942 c 0.08732,0.506264 0.188942,1.012121 0.305332,1.518384 0.116421,0.506267 0.247606,0.996184 0.393133,1.468699 l 0.523994,1.417348 c 0.203706,0.472515 0.42198,0.928333 0.654823,1.367099 0.203738,0.438765 0.436484,0.877539 0.698498,1.316307 0.261884,0.405013 0.538239,0.809697 0.829261,1.214708 0.58214,0.742525 1.120768,1.518906 1.61556,2.328935 0.52393,0.776269 1.033031,1.569695 1.527823,2.379724 0.494824,0.810032 0.960867,1.636439 1.397416,2.480221 0.436645,0.843779 0.858593,1.687789 1.266068,2.531568 0.436614,0.87753 0.829553,1.755081 1.17885,2.632606 0.37837,0.911283 0.727765,1.822373 1.047956,2.733653 0.349265,0.911282 0.669133,1.82292 0.960155,2.734205 L 67.2597,70.195775 H 30.498674 c 0.261978,-0.945032 0.538823,-1.889662 0.829896,-2.834689 0.291035,-0.911285 0.596376,-1.822923 0.916552,-2.734205 0.320172,-0.91128 0.669589,-1.82237 1.047959,-2.733653 0.378367,-0.877525 0.771355,-1.755076 1.17883,-2.632606 0.407444,-0.843779 0.829443,-1.687789 1.266069,-2.531568 0.465667,-0.843782 0.931208,-1.670189 1.396907,-2.480221 0.494815,-0.810029 1.004415,-1.603455 1.528342,-2.379724 0.523897,-0.810029 1.062544,-1.58641 1.615553,-2.328935 0.291025,-0.405011 0.567332,-0.809695 0.829281,-1.214708 0.261981,-0.438768 0.509273,-0.877542 0.742107,-1.316307 0.203721,-0.438766 0.407475,-0.894584 0.611197,-1.367099 0.174642,-0.438768 0.349352,-0.911079 0.523994,-1.417348 0.145527,-0.472515 0.276702,-0.962432 0.393118,-1.468699 0.11645,-0.472511 0.218018,-0.961876 0.30535,-1.468142 l 0.175041,-1.518387 c 0.0293,-0.540019 0.0436,-1.06347 0.0436,-1.569736 z m -13.97138,56.752383 h 0.04362 c 0.02907,0.03375 0.05868,0.03375 0.08778,0 h 0.04362 0.08723 37.372239 c 0.02914,0 0.05815,0.01703 0.08728,0.0508 h 0.04358 c 0.02946,0 0.05811,-0.01703 0.08725,-0.0508 h 0.04358 c 0.145559,0.573765 0.262207,1.147804 0.349556,1.721572 0.116389,0.573774 0.218598,1.147257 0.30585,1.721028 0.116454,0.57377 0.203478,1.147801 0.261722,1.721571 0.08728,0.573774 0.159901,1.14726 0.218047,1.721031 0.05828,0.573765 0.116875,1.164296 0.175054,1.771816 0.05824,0.573773 0.10182,1.147812 0.130893,1.721577 0.02914,0.573768 0.04364,1.147254 0.04364,1.721028 0.02946,0.607517 0.04361,1.1986 0.04361,1.772371 v 2.480218 c -2.590477,-0.202507 -4.52623,-0.303676 -5.8069,-0.303676 h -1.266068 c -0.785879,0 -1.586293,0.01703 -2.401277,0.0508 -0.785846,0 -1.586261,0.01703 -2.401244,0.0508 -0.785846,0.0675 -1.571789,0.118084 -2.357635,0.151836 -0.814951,0.0675 -1.615398,0.151626 -2.401276,0.252879 -0.785846,0.06751 -1.57178,0.152182 -2.357625,0.253432 -0.814987,0.135005 -1.615418,0.253226 -2.401261,0.354473 -0.785875,0.135008 -1.571782,0.286768 -2.357657,0.455517 -0.78584,0.135009 -1.571226,0.286766 -2.357097,0.455518 l -0.436756,0.101041 c -0.378361,0.101253 -0.756828,0.18593 -1.135189,0.253435 -0.37837,0.101253 -0.742304,0.202425 -1.091595,0.303676 -0.37836,0.101256 -0.742301,0.185378 -1.091553,0.252882 -0.378396,0.101253 -0.742304,0.202978 -1.091591,0.304229 -0.378364,0.101253 -0.741777,0.202423 -1.091032,0.303682 -0.349281,0.101247 -0.698698,0.219465 -1.047982,0.35447 l -1.047957,0.303676 c -0.349281,0.135003 -0.698701,0.253223 -1.047953,0.354476 -1.222469,0.438763 -2.168016,0.792862 -2.837462,1.062873 -1.135124,0.472514 -2.095754,0.877748 -2.881617,1.215263 v -9.011496 -1.721575 c 0.02911,-0.607525 0.05814,-1.198059 0.08724,-1.771819 l 0.08724,-1.721583 c 0.05821,-0.60752 0.116813,-1.198048 0.175027,-1.771818 0.05821,-0.573771 0.130774,-1.147254 0.21809,-1.721028 l 0.261735,-1.721574 c 0.08732,-0.573771 0.18946,-1.147254 0.305888,-1.721028 z"
       style="display:inline;fill:#4f4f5a;fill-opacity:1;stroke-width:0.282696"
       id="path1-61" /><path
       d="m 1111.6266,198.0958 h 105.8803 v 79.708 c -0.083,2.11662 -0.248,4.23275 -0.4966,6.34937 -0.1658,2.11664 -0.4151,4.17831 -0.7465,6.18354 -0.3314,2.11663 -0.7033,4.17649 -1.1174,6.1817 -0.4143,2.00523 -0.9116,3.95438 -1.4916,5.84822 -0.497,2.00523 -1.077,3.95619 -1.7398,5.85003 -0.6627,1.89381 -1.3666,3.78671 -2.1122,5.68053 -0.7456,1.78244 -1.5336,3.56461 -2.3621,5.34705 -0.8285,1.78242 -1.7389,3.51016 -2.733,5.18118 -0.9114,1.67101 -1.9059,3.28624 -2.9831,4.84586 -0.9941,1.55963 -2.0714,3.06415 -3.2312,4.51237 -1.077,1.44822 -2.1956,2.8402 -3.3554,4.17702 -1.2428,1.33682 -2.4853,2.61811 -3.728,3.84352 -1.2426,1.22542 -2.5264,2.39419 -3.8519,3.50819 -1.3257,1.11402 -2.6936,2.11764 -4.102,3.00886 -1.3256,1.00261 -2.7332,1.8937 -4.2245,2.67351 -1.4085,0.89121 -2.8591,1.66979 -4.3502,2.33819 -0.4143,0.11145 -0.829,0.2802 -1.2432,0.50299 -0.4143,0.22282 -0.8273,0.38978 -1.2416,0.50118 -0.4971,0.11133 -0.953,0.2221 -1.3673,0.3335 -0.4143,0.22281 -0.8289,0.38977 -1.2432,0.50118 -0.4142,0 -0.8701,0.0563 -1.3673,0.16766 -0.4142,0.11133 -0.8273,0.16584 -1.2416,0.16584 -0.4141,0.11133 -0.8289,0.16767 -1.2431,0.16767 h -1.3673 -1.3674 -1.3657 l -1.2431,-0.33351 c -0.4972,0 -0.9531,-0.0562 -1.3674,-0.16766 l -1.2431,-0.33351 c -0.4143,-0.11144 -0.8686,-0.27836 -1.3658,-0.50117 -0.4142,-0.11144 -0.8289,-0.27836 -1.243,-0.50118 -0.4143,-0.11133 -0.829,-0.28019 -1.2433,-0.50299 -1.4913,-0.6684 -2.9402,-1.39254 -4.3486,-2.17235 -1.4913,-0.89121 -2.9006,-1.7823 -4.2262,-2.67351 -1.4084,-1.00261 -2.7747,-2.06068 -4.1003,-3.1747 -1.3255,-1.0026 -2.611,-2.11692 -3.8536,-3.34233 -1.2428,-1.22543 -2.4852,-2.5049 -3.7279,-3.84171 -1.1599,-1.44823 -2.2784,-2.89647 -3.3555,-4.34469 -1.1598,-1.44822 -2.237,-2.95274 -3.2312,-4.51237 -1.0769,-1.55962 -2.07,-3.17485 -2.9814,-4.84586 -0.9941,-1.67102 -1.9061,-3.39876 -2.7347,-5.18118 -0.8284,-1.78244 -1.6149,-3.56461 -2.3604,-5.34705 -0.7456,-1.89382 -1.4511,-3.78672 -2.1139,-5.68053 -0.6628,-1.89384 -1.2427,-3.8448 -1.7397,-5.85003 -0.5801,-1.89384 -1.0757,-3.84299 -1.49,-5.84822 -0.4143,-2.11661 -0.7876,-4.17648 -1.1189,-6.1817 -0.2486,-2.00523 -0.4981,-4.0669 -0.7466,-6.18354 -0.1657,-2.11662 -0.2896,-4.23275 -0.3725,-6.34937 z m 42.0048,164.09419 h 0.2484 v 0.0948 c 0.7539,0.29131 1.5391,0.54093 2.3605,0.74175 0.9113,0.33421 1.7819,0.5556 2.6106,0.667 0.9112,0.22281 1.8217,0.38977 2.733,0.50118 0.9112,0.11133 1.8232,0.16766 2.7345,0.16766 0.8285,0 1.6992,-0.0563 2.6105,-0.16766 l 2.733,-0.33351 c 0.8286,-0.22282 1.6992,-0.44603 2.6106,-0.66884 0.9113,-0.3342 1.7803,-0.66813 2.6089,-1.00234 v 27.0705 l -6.3368,-3.67587 c -1.3256,-0.7798 -4.1426,-2.28431 -8.4507,-4.51233 l -1.3674,-0.66704 -4.8467,-2.17234 v -15.94816 c -0.082,-0.0317 -0.1665,-0.0618 -0.2484,-0.0948 z"
       style="display:inline;fill:#4e95d9;fill-opacity:1;stroke-width:0.866501"
       id="path1-7"
       transform="matrix(0.32375308,0,0,0.2791963,-275.64407,-11.068675)" /></g></svg>
